/* XPM */
static char *result[] = {
/* columns rows colors chars-per-pixel */
"40 60 227 2 ",
"   c #0C0E0D",
".  c #07140D",
"X  c #16120D",
"o  c #130F12",
"O  c #041615",
"+  c #0C1413",
"@  c #031A15",
"#  c #0C1A15",
"$  c #03171B",
"%  c #0C1519",
"&  c #021C1B",
"*  c #0C1B1B",
"=  c #151414",
"-  c #1A1316",
";  c #141A16",
":  c #1B1A16",
">  c #13151A",
",  c #1B151A",
"<  c #131B1C",
"1  c #1B1B1C",
"2  c #0D0D15",
"3  c #211B1D",
"4  c #221619",
"5  c #03231C",
"6  c #0C211D",
"7  c #022218",
"8  c #1B221F",
"9  c #12211D",
"0  c #29221E",
"q  c #0C1E23",
"w  c #1A1D22",
"e  c #141C21",
"r  c #231C22",
"t  c #032322",
"y  c #0C2523",
"u  c #022B24",
"i  c #082B27",
"p  c #132222",
"a  c #1B2323",
"s  c #152B2C",
"d  c #1C2B2B",
"f  c #172529",
"g  c #02332C",
"h  c #0E332B",
"j  c #06362A",
"k  c #15332C",
"l  c #1A2A32",
"z  c #053632",
"x  c #153D34",
"c  c #1C3333",
"v  c #242424",
"b  c #23252B",
"n  c #242A2A",
"m  c #2C2C2C",
"M  c #282626",
"N  c #312C2E",
"B  c #342627",
"V  c #2C312D",
"C  c #2A2C32",
"Z  c #362F33",
"A  c #283637",
"S  c #323233",
"D  c #3B3C3C",
"F  c #393639",
"G  c #43383B",
"H  c #09463A",
"J  c #17473C",
"K  c #26433D",
"L  c #3D4339",
"P  c #41443D",
"I  c #373C41",
"U  c #2C3F43",
"Y  c #463D48",
"T  c #194943",
"R  c #185549",
"E  c #1A5952",
"W  c #254844",
"Q  c #3A4344",
"!  c #39474A",
"~  c #265749",
"^  c #3D4952",
"/  c #275852",
"(  c #365A53",
")  c #30564B",
"_  c #196655",
"`  c #15624B",
"'  c #286758",
"]  c #356959",
"[  c #2A725B",
"{  c #32715F",
"}  c #286A63",
"|  c #386C62",
" . c #277669",
".. c #3A7569",
"X. c #3A7B73",
"o. c #444445",
"O. c #4A4A4B",
"+. c #47474A",
"@. c #48504C",
"#. c #434D53",
"$. c #464E59",
"%. c #524D55",
"&. c #4B5C5C",
"*. c #495457",
"=. c #525252",
"-. c #5B545B",
";. c #5C5B5C",
":. c #56575B",
">. c #514B4D",
",. c #635D5C",
"<. c #4E5A61",
"1. c #4E5660",
"2. c #595B63",
"3. c #635C63",
"4. c #4B6563",
"5. c #55646A",
"6. c #5B6B6D",
"7. c #576669",
"8. c #5B6871",
"9. c #5F737A",
"0. c #587374",
"q. c #4A7A6D",
"w. c #6B6B6C",
"e. c #656567",
"r. c #766F74",
"t. c #62737B",
"y. c #68787C",
"u. c #797878",
"i. c #70706F",
"p. c #626259",
"a. c #84797D",
"s. c #34856C",
"d. c #2A8C78",
"f. c #388878",
"g. c #2D9679",
"h. c #3C947A",
"j. c #2C846C",
"k. c #458678",
"l. c #4B8471",
"z. c #7E827E",
"x. c #697A83",
"c. c #727D86",
"v. c #817A80",
"b. c #3D9989",
"n. c #3F8B89",
"m. c #39A48C",
"M. c #2AAD98",
"N. c #3CA594",
"B. c #39AB97",
"V. c #34B599",
"C. c #2EB49B",
"Z. c #34BBA7",
"A. c #489688",
"S. c #579789",
"D. c #4B968A",
"F. c #6C848C",
"G. c #6C8A8D",
"H. c #698588",
"J. c #73858D",
"K. c #74878B",
"L. c #6C8691",
"P. c #6D8B92",
"I. c #748493",
"U. c #7A8593",
"Y. c #738A94",
"T. c #7A8B95",
"R. c #788B99",
"E. c #779196",
"W. c #649A8C",
"Q. c #4CA48B",
"!. c #54A68A",
"~. c #43A594",
"^. c #42AC9A",
"/. c #49A897",
"(. c #56A795",
"). c #43B79A",
"_. c #58B498",
"`. c #40B08A",
"'. c #6AAE9A",
"]. c #4AB8A5",
"[. c #55B7A6",
"{. c #68B7A3",
"}. c #34C4AA",
"|. c #3DC9B3",
" X c #2BC6A7",
".X c #47C6AB",
"XX c #4BCCB5",
"oX c #58CBB6",
"OX c #45D6BC",
"+X c #57D7B7",
"@X c #58C5AA",
"#X c #64C5A9",
"$X c #77CAB5",
"%X c #66D6B9",
"&X c #75D3B8",
"*X c #56E5B7",
"=X c #64E3BD",
"-X c #4ADDC4",
";X c #49DCC4",
":X c #53DCC4",
">X c #59DAC3",
",X c #68DCC7",
"<X c #44E3C5",
"1X c #4BE4CA",
"2X c #49E6C8",
"3X c #57E4C9",
"4X c #53E9D1",
"5X c #64E3C8",
"6X c #67ECD3",
"7X c #76EAD9",
"8X c #76F4DD",
"9X c #72EAD2",
"0X c #79F4E2",
"qX c #878785",
"wX c #838B95",
"eX c #869597",
"rX c #96A5A8",
"tX c #92A8AE",
"yX c #A5B6BA",
"uX c #83CCB7",
"iX c #B1BCC3",
"pX c #86DAC9",
"aX c #84E8D2",
"sX c #89FBEA",
"dX c #97F8E4",
"fX c #A6C5C0",
"gX c None",
/* pixels */
"gXgX,.+.D S S o.+.;.w.qXgXgXgXgXgXgXgXgXgXgXgXgXgXgXgXgXgXgXgXgXgXgXgXgXgXgXgXgX",
"gX: = 1 ; 6 6 @ 7 O 6 9 : gXgXgXgXgXgXgXgXgXgXgXgXgXgXgXgXgXgXgXgXgXgXgXgXgXgXgX",
"gXV : % K q.A.g.d.j.E t # i.gXgXgXgXgXgXgXgXgXgXgXgXgXgXgXgXgXgXgXgXgXgXgXgXgXgX",
"gXgX=.* x D..X*X*X,Xn.i & d c A A F I +.:.w.wXgXgXgXgXgXgXgXgXgXgXgXgXgXgXgXgXgX",
"gXgXgXA &  .^..X3X,XN.z u g g z g g i t q q & & 8 S :.gXgXgXgXgXgXgXgXgXgXgXgXgX",
"gXgXQ @ z f.Z.XX:X:X>X].[.[.[.].[.(.S.S.A. .' T j i 7 @ 9 D gXgXgXgXgXgXgXgXgXgX",
"gXw.* z X.~.oX:X4X;X-X4X:X:X1X4X3X6X8X8XaX9X,XoX#XQ.h.` g 5 q a ;.gXgXgXgXgXgXgX",
"gXr.* x A.~.XX:X;X4X1X1X1X<X<X<X2X2X3X5X0XsX7X,XoXg.Q.uX$XS./ i * a v.gXgXgXgXgX",
"gXgXV * J f.~.Z.:X;X4X-X<X;X|.|.|.;X4X0XsXsX7X,X(.5 g S.pXdXaX[._ u @ w.gXgXgXgX",
"gXgXgXV * z } N.B.}.|.-X4X1X;X|.Z.Z.].>X7X7X0X9XX.u $ T pXsX8X5X%Xh.h > gXgXgXgX",
"gXgXgXgX=.* t E b.B.C.}.<X<X1X<X1XZ.M.Z.;X>X3X@Xg q q u (.,X9X6X5X%X..< ;.gXgXgX",
"gXgXgXgXgXu.a & E A.M.C. X<X2X1X<X1XZ.M.B.XX-Xd.q ^ ^ $ _ &X3X3X3X%X| % -.gXgXgX",
"gXgXgXgXgXgXgXC q } ~.C.}.<XOX;X1X;XXXM.C.}.XXj.5 *.eXi g /.>X:XoX` t w u.gXgXgX",
"gXgXgXgXgXgXgXw.$ E m.M.OX2X>X;X;X].].^.b.m./.s.& A fXW & H .X>X].z & & w S gXgX",
"gXgXgXgXgXgXa.v & ' V.|.OX.X/.n.} / / / ..S.f.j 7 ( uXJ 5 z /.5X>XN._ T T O p gX",
"gXgXgXgXgX=.< 5 R D.@X+X).b.} z t $ q q & y h 7 H _.aX_ @ A S.d.d.~.$X$X{.( 6 p.",
"gXgXgXgXD $ g } ~.].oXB.f.J $ q l U U c d 9 # h h.+X=X[.h e * & 5 u T '.$Xh.5 ! ",
"gXgXgXD O J f.^.N.[.].d.g & p Q <.8.9.x.y.Q % W _.%X5X[.K % m Q +.1 6 H {...5 :.",
"gXgXK.# x k.N.N.B./.n.T q s &.6.5.9.F.G.E.7.* t ] (.'.D.c q 8.rXyXrXI O ] ) # a.",
"gXgXO.q | S.B.B.B.D.T $ l <.4.8.x.I.R.G.F.H.! q t x z q $ Q K.G.eXiXc.e y p w gX",
"gXgX:.< J D.N.B.~. .t y ^ 6.4.0.Y.P.P.Y.H.G.y.! f q q l ^ x.P.P.P.E.iX^ > > Z gX",
"gXgXu.q q E B.N.A.T q I 5.4.t.L.L.P.F.Y.Y.Y.E.J.x.8.8.x.c.R.G.P.P.P.yXJ.2 , e.gX",
"gXqXw * u  ./.~.X.u q &.^ ^ 9.I.P.R.L.I.G.G.P.Y.c.c.R.U.R.P.P.P.P.P.eXtXn , gXgX",
"gX1 e ) n.N.N./.~ & c *.^ ! F.Y.R.L.R.I.Y.Y.G.P.R.R.R.L.Y.P.P.P.Y.P.E.iXF r gXgX",
"p.9 J S.~.B.B.~.T # b n 4.0.H.R.I.U.I.T.I.G.P.L.R.R.R.c.R.P.P.P.L.P.Y.yX=., gXgX",
"e.. ~ !.(.N.N.b.h e S a &.y.Y.Y.wXwXI.F.J.Y.T.I.L.L.P.R.R.x.P.R.T.Y.G.yX2.4 gXgX",
"gX9 5 ~ A././.k.y 1 ( @.5.y.G.Y.8.8.5.8.t.x.c.U.c.R.P.P.c.L.R.R.K.K.G.yXw.o a.gX",
"gXgX9 5 x ' k.k.d 1 &.^ ! H.T.4.l q t 5 y s U :.c.R.R.P.R.L.x.x.:.4.7.eXw., qXgX",
"gXgXgXS > e 5 x * * &.4.&.K.6.p & 7 u j j 7 7 w $.H.P.W.R.x.l q ; 9 # Q +.- qXgX",
"gXgXgXgXgXo.8 * * e #.5.6.y.Q 9 y J ~ [ [ [ K # l 9.E.G.P.^ q q k k 7 ; M = gXgX",
"gXgXgXgXgXgXV 9 % e #.7.e.8.8 # k ~ [ g.g.h.l.c % 1.G.G.y.l q U [ s.) 7 > o gXgX",
"gXgXgXgXgXz.: v S > A 7.e.2.9 8 J [ s.m.V.).Q.T $ $.F.F.t.q q } h.Q.q.7 # 0 gXgX",
"gXgXgXgXgXK.X M V X m :.7.=.a 6 R j.m.+X*X*X#X' & ^ G.T.0.6 i l._.%Xh.k ; F gXgX",
"gXgXgXgXgXgX=.. - 4 w O.6.&.a & J s.m.).*X=X_.J & 5.U.J.x.y 6 { `.{.[ 9 ; >.gXgX",
"gXgXgXgXgXgXgXgX;.M = 0 D &.A 6 h / f.Q.!.!.{ 5 f x.U.K.J.U O c ] s.h .   qXgXgX",
"gXgXgXgXgXgXgXgXgXgX+.- # p a * # 9 h J J J u 5 1.U.U.T.U.8.f * . 7 # 8 S gXgXgX",
"gXgXgXgXgXgXgXgXgXgXgXgX@.n + ; > 9 9 # * * q W F.I.c.I.I.R.1.b ; : = = gXgXgXgX",
"gXgXgXgXgXgXgXgXgXgXgXgXgXgXgX3.M   8 o.O.$.1.0.L.P.R.I.I.T.c.C : : ,.gXgXgXgXgX",
"gXgXgXgXgXgXgXgXgXgXgXgXgXgXgXgXe.; a e.u.y.8.5.x.P.J.0.t.H.9.w B gXgXgXgXgXgXgX",
"gXgXgXgXgXgXgXgXgXgXgXgXgXgXgXr.9 # a I e.+.U <.0.G.8.! U 8.! > p.gXgXgXgXgXgXgX",
"gXgXgXgXgXgXgXgXgXgXgXgXgXgXA @ 6 6 # b b > > C &.@.A 9 . 8 0 8 gXgXgXgXgXgXgXgX",
"gXgXgXgXgXgXgXgXgXgXgXgXgXp j J l.) # ; , r r , ; 8 9 X 0 8 X V gXgXgXgXgXgXgXgX",
"gXgXgXgXgXgXgXgXgXgXgXgXL u ` #XuX] * w C Y Y C ; ; : X 0 4 X 0 gXgXgXgXgXgXgXgX",
"gXgXgXgXgXgXgXgXgXgXgXG . J #X%X{.J @ S Y %.3.-.S a 0 0 B X X X L ;.gXgXgXgXgXgX",
"gXgXgXgXgXgXgXgXgXgXY 4 ; J D.&X{ @ 6 ! $.Y 2.2.%.8 ; L G X X X = 1 = ;.gXgXgXgX",
"gXgXgXgXgXgXgXgXgX8 - : < 5 H { h + A ^ <.1.2.2.+.M X P @.: : S 3 N v   w.gXgXgX",
"gXgXgXgXgXgXgXgXV # Y :.%.C . * o n I ! $.7.1.I , v v G o.= a =.m Z m 8 v gXgXgX",
"gXgXgXgXgXgXgXi.= S -.2.3.-., - - G I b b #.A % ; 3 B G =.v a G N - 1 + V gXgXgX",
"gXgXgXgXgXgXgXo.1 o.=.+.o.o.v o r F M > e > < e < a V m %.3 V r - 1 +.;.gXgXgXgX",
"gXgXgXgXgXgXgXS ; D 1 > 1 1 + 1 Z b % l l O k 0.d a D : v = B V 4 V gXgXgXgXgXgX",
"gXgXgXgXgXgXgX=.: = 1 1 = v = 1 d & h q...J q.'.K + F 4 r F = ; 1 qXgXgXgXgXgXgX",
"gXgXgXgXgXgXgXgXN S m 1 +.+.= 1 e 5 ( W.W.W.S.) 6 < S - >.gXeX@.z.gXgXgXgXgXgXgX",
"gXgXgXgXgXgXgXgXgXgXgXgXgXv - n > c 4.4.q.4.5 5 * 1 N 4 w.gXgXgXgXgXgXgXgXgXgXgX",
"gXgXgXgXgXgXgXgXgXgXgXgXO.; r 1 > V V + d 9 6 ! a , 3 - gXgXgXgXgXgXgXgXgXgXgXgX",
"gXgXgXgXgXgXgXgXgXgXgXr.: : V = : - - , - = z.gXL : X n gXgXgXgXgXgXgXgXgXgXgXgX",
"gXgXgXgXgXgXgXgXgXgXgXv ; S v - - r G - 4 a.gXgX=.; ; e.gXgXgXgXgXgXgXgXgXgXgXgX",
"gXgXgXgXgXgXgXgXgXgXv : a 1 : = D gXgXo.u.gXgXgXr.: S gXgXgXgXgXgXgXgXgXgXgXgXgX",
"gXgXgXgXgXgXgXgXgXm = ; > 0 v i.gXgXgXgXgXgXgXgXgX,.gXgXgXgXgXgXgXgXgXgXgXgXgXgX",
"gXgXgXgXgXgXgXgXe.- w : v e.gXgXgXgXgXgXgXgXgXgXgXgXgXgXgXgXgXgXgXgXgXgXgXgXgXgX",
"gXgXgXgXgXgXgXgXgX+.;.gXgXgXgXgXgXgXgXgXgXgXgXgXgXgXgXgXgXgXgXgXgXgXgXgXgXgXgXgX"
};
