/* XPM */
static char *result[] = {
/* columns rows colors chars-per-pixel */
"42 60 239 2 ",
"   c #0D0D0D",
".  c #150E0E",
"X  c #08140E",
"o  c #14110E",
"O  c #160F13",
"+  c #051614",
"@  c #0C1313",
"#  c #021A15",
"$  c #0C1A16",
"%  c #05161B",
"&  c #0C161B",
"*  c #021C1B",
"=  c #0B1C1B",
"-  c #141414",
";  c #1A1515",
":  c #131A16",
">  c #141519",
",  c #1A171A",
"<  c #131B1C",
"1  c #1B1B1B",
"2  c #191916",
"3  c #0D0E10",
"4  c #211D1D",
"5  c #221719",
"6  c #03221C",
"7  c #0B221E",
"8  c #012A1E",
"9  c #17211D",
"0  c #20211B",
"q  c #0C1B22",
"w  c #031B21",
"e  c #141C22",
"r  c #1C1D23",
"t  c #181B25",
"y  c #231E21",
"u  c #2A1F27",
"i  c #042323",
"p  c #0B2423",
"a  c #032A23",
"s  c #082B28",
"d  c #1B2224",
"f  c #132B2B",
"g  c #192728",
"h  c #003426",
"j  c #07332B",
"k  c #15372F",
"l  c #1C2D33",
"z  c #033C32",
"x  c #083835",
"c  c #1D3432",
"v  c #183A36",
"b  c #242323",
"n  c #2A2324",
"m  c #242429",
"M  c #242C2B",
"N  c #2A2B2B",
"B  c #252929",
"V  c #332D2C",
"C  c #382A29",
"Z  c #28322F",
"A  c #31312E",
"S  c #292B33",
"D  c #2C3334",
"F  c #273839",
"G  c #333434",
"H  c #35353A",
"J  c #353B3D",
"K  c #3C3B3D",
"L  c #363937",
"P  c #322830",
"I  c #45393B",
"U  c #03463A",
"Y  c #184539",
"T  c #14513F",
"R  c #26453D",
"E  c #3A413F",
"W  c #42413F",
"Q  c #2C3C42",
"!  c #373D43",
"~  c #453E41",
"^  c #0C4B42",
"/  c #1A4B43",
"(  c #065746",
")  c #185649",
"_  c #1B5852",
"`  c #274B44",
"'  c #3C4144",
"]  c #3B494C",
"[  c #374649",
"{  c #285649",
"}  c #33534C",
"|  c #2B5D54",
" . c #395B58",
".. c #394B51",
"X. c #196758",
"o. c #106F57",
"O. c #29685A",
"+. c #36695A",
"@. c #2A6D57",
"#. c #286D65",
"$. c #366A61",
"%. c #3A7769",
"&. c #387D72",
"*. c #2F7968",
"=. c #424344",
"-. c #44444C",
";. c #4B4A4C",
":. c #494749",
">. c #454E54",
",. c #4A5558",
"<. c #535355",
"1. c #54555C",
"2. c #5B5A5E",
"3. c #59575A",
"4. c #504C4D",
"5. c #605A5B",
"6. c #42615B",
"7. c #585D63",
"8. c #4D5D62",
"9. c #6A5B63",
"0. c #4B676A",
"q. c #566364",
"w. c #5A666A",
"e. c #556A6D",
"r. c #59696D",
"t. c #586568",
"y. c #586A72",
"u. c #437971",
"i. c #5C7478",
"p. c #44766B",
"a. c #636364",
"s. c #696869",
"d. c #726A6C",
"f. c #636C76",
"g. c #696E77",
"h. c #756F71",
"j. c #62727A",
"k. c #6A7A79",
"l. c #747273",
"z. c #787B7C",
"x. c #2C846C",
"c. c #288A76",
"v. c #368877",
"b. c #309273",
"n. c #2EA379",
"m. c #458978",
"M. c #4C947C",
"N. c #75817E",
"B. c #677C85",
"V. c #747C85",
"C. c #3C9986",
"Z. c #3F9F91",
"A. c #3AA68C",
"S. c #28AD94",
"D. c #3DA593",
"F. c #38AB93",
"G. c #28B49B",
"H. c #3AB49C",
"J. c #33B389",
"K. c #39BBA4",
"L. c #2BB5A5",
"P. c #479888",
"I. c #56988A",
"U. c #6B858B",
"Y. c #6C8A8C",
"T. c #678786",
"R. c #72858D",
"E. c #74878D",
"W. c #67948C",
"Q. c #6C8692",
"!. c #6D8A94",
"~. c #6A8797",
"^. c #738692",
"/. c #738A94",
"(. c #7B8C94",
"). c #738C99",
"_. c #7A8694",
"`. c #73919A",
"'. c #729092",
"]. c #699F91",
"[. c #43A48E",
"{. c #4BA58C",
"}. c #43AC9A",
"|. c #47A794",
" X c #57A796",
".X c #5BB29B",
"XX c #4DAD95",
"oX c #74A399",
"OX c #46B8A3",
"+X c #5BB9A8",
"@X c #67BBA8",
"#X c #6EB2AA",
"$X c #38C496",
"%X c #3BC4AD",
"&X c #38C7B2",
"*X c #3DD4B7",
"=X c #2FC8AA",
"-X c #46C6AC",
";X c #5AC3A8",
":X c #47C9B6",
">X c #5ACAB5",
",X c #48D7BD",
"<X c #56D6B9",
"1X c #52D3AB",
"2X c #67C2AB",
"3X c #67C9B6",
"4X c #78CAB5",
"5X c #66D5B9",
"6X c #72D6BC",
"7X c #72C1AB",
"8X c #50E4BC",
"9X c #54C09C",
"0X c #3DDCC0",
"qX c #3FE6C6",
"wX c #4BDDC4",
"eX c #47D9C2",
"rX c #59DCC6",
"tX c #68DEC6",
"yX c #77DED0",
"uX c #45E2C5",
"iX c #4BE4CA",
"pX c #4CE9CE",
"aX c #48E5C7",
"sX c #57E5C8",
"dX c #56ECD2",
"fX c #70EAD0",
"gX c #838283",
"hX c #898585",
"jX c #889497",
"kX c #8F8D94",
"lX c #96A6A9",
"zX c #97B1B0",
"xX c #A5ACB3",
"cX c #AAB9BC",
"vX c #86DEC9",
"bX c #87ECD9",
"nX c #8EEFD9",
"mX c #8CF7E8",
"MX c None",
/* pixels */
"MXMXMXMXMX3.<.<.1.<.s.d.N.MXMXMXMXMXMXMXMXMXMXMXMXMXMXMXMXMXMXMXMXMXMXMXMXMXMXMXMXMX",
"MXb n o - < * * # 6 + < 2 K MXMXMXMXMXMXMXMXMXMXMXMXMXMXMXMXMXMXMXMXMXMXMXMXMXMXMXMX",
"MX1 3 9 c  .&.v.x.*.#.v = d MXMXMXMXMXMXMXMXMXMXMXMXMXMXMXMXMXMXMXMXMXMXMXMXMXMXMXMX",
"MXMX-.+ p &.@X>XrXtX3X^ 6 # p p p = = 7 7 f c F ] MXMXMXMXMXMXMXMXMXMXMXMXMXMXMXMXMX",
"MXMXMX] i _ C.H.eXdX>X( x x z ^ ^ ^ U x x z h h 8 7 $ $ 9 D MXMXMXMXMXMXMXMXMXMXMXMX",
"MXMXMXM # _ }.%X0XeXdXeXOX+X>X>X>X3XtX3X3X@X.X XP.%.O.{ k 6 7 $ M MXMXMXMXMXMXMXMXMX",
"MXMXm p / v.-XeXdX0XiXpXwXsXwXsXiXdXfXfXbXmXbXyXtX5X;X@X7X X&.Y 7 = = MXMXMXMXMXMXMX",
"MXMX> p u. XH.rXiXpXiXqXpXeXwXwXuXiXwXrXfXbXmXbXsX1XT U {.vXnXvX#X| h 6 D MXMXMXMXMX",
"MXMXK + v &.[.OX:XeXdXiX0XiXeX&X0XOXeXwXfXmXmXbXfX+Xx % x #XmXnXbX6XXXT 6 L MXMXMXMX",
"MXMXMXE = j _ P.D.K.%XeXaXaXwXsX:XL.L.=XeXrXyXyXyX&.w q q &.vXbXfXtX<X2XY = MXMXMXMX",
"MXMXMXMX3.> t Y u. XF.G.&XeXpXiXiXeX&XL.G.&XrXyX@XU i v p / 3X<X8XsXfX>Xv > MXMXMXMX",
"MXMXMXMXMXMXP & j #.[.F.S.*XpXqXiXpXeX*XG.S.K.<X|.i U ~.v a x.tXsXuX=X( i g MXMXMXMX",
"MXMXMXMXMXMXMX4.* h b.}.S.=XqXqXiXpXiX,XH.S.H.+X Xh U oXi.* z C.rXrX*.i 6 & m I MXMX",
"MXMXMXMXMXMXMXMX] * ) A.K.,XwXeX&XOXOX}.A.|.[.{.m.a 8 ].oX* 6 ) tXtX+X#.^ x c < B MX",
"MXMXMXMXMXMXMXMXN 6 X.F.&X,X-X}.P.#.` / / ` O.p.k 6 U 7X].6 * 0.@X|.#X@X3X+X.X/ = MX",
"MXMXMXMXMXMXd.1 $ Y C.-X<X-XC.#.h i & @ * # i 7 * j n.6X4X{ * c x j j ^ c.;X6Xx.# 4.",
"MXMXMXMXMX2.9 6 | P.H.<XOXP./ p % l F [ [ F v * * %.;X<XtX{.7 > q f f # 6 ) @Xp.$ 4.",
"MXMXMXMXa.: a $.P.}.OX:XC.^ * = [ 8.e.i.B.R.f.l i $.+X5X5XP.p r a.jXlXk.g 6 %.+.: 5.",
"MXMXMXMX$ 8 X.|.|.D.K.[.) * d [ 8.t.f.V.R.jXV.[ & f  .u.%.Y * ! (.jXlXcXN.# a c , kX",
"MXMXMX;.X  .|.F.A.F.F.#.w e ] t.y.B.V.jX^.R./.B.F % q q w * l r.E.U.R.lXxXJ = < 4 MX",
"MXMXMX=.t  .[.F.S.}.P.x q H t.t.y.B._.^.^.^./.Y.B.,.! l S  .j./.).)./.(.xXV.y O I MX",
"MXMXMX9.t s X.F.F.Z.| % S 1.q.t.B.~.).~.).).Q./.).Q.V.U.Q././.U.).B./.Q.lXxXu ; h.MX",
"MXMXMX5.q w ( Z.D.C.x q ' t.E q.V.).).).!.!.Q./.).).!.`.!.U.^.).).).`.Y._.cX;.5 hXMX",
"MXMX:.< i _ v.}.}.v.w t 1.,.c i.).B.~.~.~.`.).^.Q.^.Y.!.!.Q.).^.~.).Q.`.'.xXl.. d.MX",
"MXMX: f *.A.|.D.}.X.i S S -.,.T.'.~.Q.~././.Y.(.^.R././.).^./.~.~.`.~.).~.zXE.5 4.MX",
"MXl.X {  X|.F.A.[.X.w d t >.e.U.U.Q.`.^./.(.E.E.(._.^.R.^./.^.).~.).~.^.Y.lXkX1 E MX",
"MXMX9 7 %.{.|.|.P.) # ! ~ >.f.U.`.T.j.r.7.y.j.g.B.R.(.)././.~./.).V.V.V.V.jXjX2 L MX",
"MXMX:.* j O.m.P. X` * ' 7...y.U.U...g e & & 7 9 D [ j.(.Q.!.^.^.y.>.S d g ' l.N L MX",
"MXMXMX<.- 7 f ` +.c : D 7...y.R.,.d @ t g f 7 f = % [ T.Y./._.f.d $ + = = $ V ; L MX",
"MXMXMXMXMXH < # + < o D e.e.i.B.S - d R { @.+.+.` 6 f 0.Y./._.! 9 g R O.{ 7 - 5 K MX",
"MXMXMXMXMXMXMXa.; 1 O m 7.y.e.0.9 7 c { o.n.n.n.m.Y # [ R./.^.F 6 Y x.M.m.Y X 2 ;.MX",
"MXMXMXMXMXMXMX2.; 4 y r ,.y.y. .: 9 T @.b.J.$X$X{.{ * Q /.~.V.l 7 R n.9X.XT 7 - a.MX",
"MXMXMXMXMXMXMXB 2 ' m < ! w.r.] 2 9 | x.J.1X8XsX5X@.6 Q R.R./.Q * { {.5X9X) X 2 hXMX",
"MXMXMXMXMXMXMX;.- r < @ D q.s.>.9 # T x.J.$X1X<X9X) i >.R._.R.] & f v.n.b.h 9 1 MXMX",
"MXMXMXMXMXMXMXMXs.D 1 $ & J ,.7.M # Y @.x.{.9X.X%.i q y.R.^.^.f.r < c R s $ . ~ MXMX",
"MXMXMXMXMXMXMXMXMXMXMXa.1 $ d S M $ X 8 Y T T R s % [ /.^.).(._.1.> $ o - 4 , MXMXMX",
"MXMXMXMXMXMXMXMXMXMXMXMXMX' 1 - . . 2 7 $ + = * q Q f._._.).~.Y.R.1., y 5 u gXMXMXMX",
"MXMXMXMXMXMXMXMXMXMXMXMXMXMXMXMXs.I 0 o b J 4...>.w.V._._.^.B.W.T.q., ; d.MXMXMXMXMX",
"MXMXMXMXMXMXMXMXMXMXMXMXMXMXMXMXMXMXgX2 9 ,.B.N.y.e.f.V._.i.0.B.W.R $ l.MXMXMXMXMXMX",
"MXMXMXMXMXMXMXMXMXMXMXMXMXMXMXMXMXMX=.> : R 0.,.[  .w.V.j.>.l F 6.9 : MXMXMXMXMXMXMX",
"MXMXMXMXMXMXMXMXMXMXMXMXMXMXMXMX>.$ = > & r D t > t J 1.[ < ; . 9 @ I MXMXMXMXMXMXMX",
"MXMXMXMXMXMXMXMXMXMXMXMXMXMXMXM # k 6.+.t > 3 t y - > b X o n n - . d.MXMXMXMXMXMXMX",
"MXMXMXMXMXMXMXMXMXMXMXMXMXgXr 7 O.{.6X Xp t y ! ] ' m - : : 0 I 5 . 5.MXMXMXMXMXMXMX",
"MXMXMXMXMXMXMXMXMXMXMXMX2.@ - } 7XtX4XX.q t ~ ! 1.r.:.0 A 9 5 C . 5 . I ;.l.MXMXMXMX",
"MXMXMXMXMXMXMXMXMXMXl.m > r - k P.4Xx.8 e ! -.>.<.<.<.D B 9 L 2 0 o 2 2 2 o g N.MXMX",
"MXMXMXMXMXMXMXMXMXz.> - H J m = z *.f 7 t ;.-.1.7.7.q.! - 9 <.n o X 5 n W L 9 $ MXMX",
"MXMXMXMXMXMXMXMXMX1 > -.7.1.1.g = $ @ < =.-.2.1.7.1.' S 1 1 5.C 2 0 C C 4.A B $ 2.MX",
"MXMXMXMXMXMXMXMX7.- K 2.1.a.7.J - - 2 N ! H S 1.,.D = > G b 3.n o A 5.2 b : 3 < MXMX",
"MXMXMXMXMXMXMXMX=.O H G N N K N 2 2 : J N 1 > S m - > > H b <.A 2 o W 4 - A N.MXMXMX",
"MXMXMXMXMXMXMXMX:.1 4 - . 1   1 - < B Z < 7 $ & # c D @ D 1 ;.N 2 0 - 2 - a.MXMXMXMX",
"MXMXMXMXMXMXMXMXMXb 1 b B G y 1 ; 2 M 7 # } | 6 Y N.} = J B 1 V W 1 2   b MXMXMXMXMX",
"MXMXMXMXMXMXMXMXMXMXMXMXN 4 :.I ; 2 9 $ ` W.].%.T.oX` # Z b 2 MXMXMX<.=.gXMXMXMXMXMX",
"MXMXMXMXMXMXMXMXMXMXMXMXMXMXgXm 5 n : g t.M.N.W.+.k 7 + L 1 4 MXMXMXMXMXMXMXMXMXMXMX",
"MXMXMXMXMXMXMXMXMXMXMXMXMXMXV - n 1 - Z [ R R ` * # = < N , L MXMXMXMXMXMXMXMXMXMXMX",
"MXMXMXMXMXMXMXMXMXMXMXMXMX;.; n n . ; b < @ < @ S z.G ; - 2 h.MXMXMXMXMXMXMXMXMXMXMX",
"MXMXMXMXMXMXMXMXMXMXMXMXs.; 1 A 4 ; ; - , ; , L MXMX4.O 4 y MXMXMXMXMXMXMXMXMXMXMXMX",
"MXMXMXMXMXMXMXMXMXMXMXl.- - V m ; - b N.l.; ' MXMXMX5.; 4 5.MXMXMXMXMXMXMXMXMXMXMXMX",
"MXMXMXMXMXMXMXMXMXMXh.- 1 y   - 1 <.MXMXMXMXMXMXMXMXz.- K MXMXMXMXMXMXMXMXMXMXMXMXMX",
"MXMXMXMXMXMXMXMXMXMX; - - - N a.MXMXMXMXMXMXMXMXMXMXMXgXMXMXMXMXMXMXMXMXMXMXMXMXMXMX",
"MXMXMXMXMXMXMXMXMXMXI K 4.gXMXMXMXMXMXMXMXMXMXMXMXMXMXMXMXMXMXMXMXMXMXMXMXMXMXMXMXMX"
};
