/* XPM */
static char *result[] = {
/* columns rows colors chars-per-pixel */
"41 60 235 2 ",
"   c #0E0E0E",
".  c #0B120C",
"X  c #11120F",
"o  c #170F15",
"O  c #041515",
"+  c #0C1513",
"@  c #031C15",
"#  c #0B1A15",
"$  c #02151A",
"%  c #0B161A",
"&  c #031B1A",
"*  c #0B1C1B",
"=  c #141414",
"-  c #1B1415",
";  c #141916",
":  c #141619",
">  c #1B161A",
",  c #141B1B",
"<  c #1B1B1B",
"1  c #1A1A16",
"2  c #110B0F",
"3  c #221B1D",
"4  c #201617",
"5  c #02221B",
"6  c #0B221D",
"7  c #16211D",
"8  c #20221E",
"9  c #0C1B21",
"0  c #001F21",
"q  c #131E23",
"w  c #1D1D22",
"e  c #1A1A25",
"r  c #241A22",
"t  c #2B1E25",
"y  c #032422",
"u  c #0B2321",
"i  c #032B24",
"p  c #0C2925",
"a  c #072C29",
"s  c #132223",
"d  c #1B2223",
"f  c #132D29",
"g  c #1C2B2B",
"h  c #1B2728",
"j  c #03342B",
"k  c #0B332C",
"l  c #07372B",
"z  c #16332D",
"x  c #1A2C32",
"c  c #013C34",
"v  c #093633",
"b  c #1C3C35",
"n  c #163B37",
"m  c #0F2C30",
"M  c #242324",
"N  c #2B2425",
"B  c #232C2D",
"V  c #2C2A2B",
"C  c #262728",
"Z  c #322A2B",
"A  c #25332E",
"S  c #31312E",
"D  c #282D32",
"F  c #312D34",
"G  c #3F2F30",
"H  c #2C3334",
"J  c #2C333B",
"K  c #2D3A3D",
"L  c #243334",
"P  c #333334",
"I  c #35353A",
"U  c #3B3C3D",
"Y  c #383838",
"T  c #423D3E",
"R  c #42353B",
"E  c #0A483B",
"W  c #19443B",
"Q  c #1E533F",
"!  c #264A3E",
"~  c #2E3A42",
"^  c #363D43",
"/  c #3C3E42",
"(  c #413F43",
")  c #164843",
"_  c #175446",
"`  c #1B5C53",
"'  c #055549",
"]  c #294C45",
"[  c #384649",
"{  c #27554A",
"}  c #394952",
"|  c #265B51",
" . c #3C5357",
".. c #156659",
"X. c #296759",
"o. c #34655B",
"O. c #287159",
"+. c #3A6D63",
"@. c #2A786C",
"#. c #367467",
"$. c #2B756A",
"%. c #1C766A",
"&. c #454245",
"*. c #444A4B",
"=. c #48484A",
"-. c #534B4E",
";. c #484D54",
":. c #4C5255",
">. c #4B545A",
",. c #48595A",
"<. c #5C5C5C",
"1. c #555658",
"2. c #4F504F",
"3. c #635C5B",
"4. c #59645C",
"5. c #4E5B64",
"6. c #535B64",
"7. c #595D63",
"8. c #615F63",
"9. c #446D67",
"0. c #576266",
"q. c #5B6365",
"w. c #54646A",
"e. c #5A636C",
"r. c #576B6C",
"t. c #596B74",
"y. c #4B7C72",
"u. c #557471",
"i. c #656567",
"p. c #666B74",
"a. c #64747B",
"s. c #6B7778",
"d. c #7B7A7A",
"f. c #6F716E",
"g. c #80757A",
"h. c #278A6B",
"j. c #3A876E",
"k. c #2C8877",
"l. c #3C8779",
"z. c #38977C",
"x. c #2B9A79",
"c. c #488779",
"v. c #4A8C79",
"b. c #7A807F",
"n. c #697B85",
"m. c #747C87",
"M. c #817980",
"N. c #3B9784",
"B. c #3C8782",
"V. c #3BA48B",
"C. c #2AAD95",
"Z. c #34AB93",
"A. c #3BAD99",
"S. c #3AA693",
"D. c #2AB39C",
"F. c #36B599",
"G. c #2CAC8A",
"H. c #37BBA5",
"J. c #2BB9A3",
"K. c #469887",
"L. c #539788",
"P. c #549288",
"I. c #6C858D",
"U. c #6D898E",
"Y. c #688589",
"T. c #74848C",
"R. c #71898C",
"E. c #788289",
"W. c #659489",
"Q. c #6D8691",
"!. c #6D8A94",
"~. c #6D8A98",
"^. c #748592",
"/. c #738B94",
"(. c #7A8A94",
"). c #728D99",
"_. c #7B8795",
"`. c #75909B",
"'. c #4AA38D",
"]. c #42A592",
"[. c #43AB98",
"{. c #49AA95",
"}. c #58A895",
"|. c #48B597",
" X c #59B09D",
".X c #65AA95",
"XX c #46B8A5",
"oX c #5BBAA5",
"OX c #52AFA3",
"+X c #74B5A6",
"@X c #6FB3A7",
"#X c #37C498",
"$X c #38C5A9",
"%X c #39D0B6",
"&X c #4AC2AE",
"*X c #5AC5AB",
"=X c #45CCB5",
"-X c #57C9B5",
";X c #47D9BA",
":X c #59D5B9",
">X c #65CAB5",
",X c #78CBB8",
"<X c #67D8B8",
"1X c #7AD7BE",
"2X c #6CC6AC",
"3X c #46E4B9",
"4X c #3EE9C9",
"5X c #44DEC3",
"6X c #4BDCC4",
"7X c #59DCC2",
"8X c #6DDAC1",
"9X c #4BE1C5",
"0X c #4CE4CB",
"qX c #45E6C9",
"wX c #53E2C5",
"eX c #59E5CC",
"rX c #57EECF",
"tX c #67E7CE",
"yX c #74F2D7",
"uX c #6EEAD3",
"iX c #7BF5E3",
"pX c #89888A",
"aX c #869797",
"sX c #828898",
"dX c #99ABAC",
"fX c #91AFAD",
"gX c #A8B3B9",
"hX c #B0B0BA",
"jX c #8C99A2",
"kX c #AFB6C0",
"lX c #89D9C9",
"zX c #85ECD8",
"xX c #8FE8D3",
"cX c #8BF8E6",
"vX c None",
/* pixels */
"vXvXvX3.T P P P / R -.1.d.vXvXvXvXvXvXvXvXvXvXvXvXvXvXvXvXvXvXvXvXvXvXvXvXvXvXvXvX",
"i.= - = 1 6 5 5 & & , , = 1.vXvXvXvXvXvXvXvXvXvXvXvXvXvXvXvXvXvXvXvXvXvXvXvXvXvXvX",
"vXN 1 # L +.K.z.N.N.#.a , Y vXvXvXvXvXvXvXvXvXvXvXvXvXvXvXvXvXvXvXvXvXvXvXvXvXvXvX",
"vXvX2.6 j j.*X:X7X7XOXv y & & 6 * * * * s g J ^ 1.vXvXvXvXvXvXvXvXvXvXvXvXvXvXvXvX",
"vXvXvXK & ` S.H.qX0XXX' c v ) ' _ E ' E c j a y 5 @ # 7 L ,.vXvXvXvXvXvXvXvXvXvXvX",
"vXvXf.f y O.[.$X5X0XeX7X-XoX7XoX>X>X>X<X>X@X XP.v.+.] b i 5 @ B 1.vXvXvXvXvXvXvXvX",
"vXvX: u | K.-X6X0X0X0X0XeXeX6XeXeXtXuXyXyXxXzX8X<X2X.X+X}.#._ f O q 7.vXvXvXvXvXvX",
"vXvX: m y.'.H.6X0X0X5XqXqX5XqXqX3X9XqXwXuXcXcXyX:Xx.E 9.1XxXlX+X+.m $ L vXvXvXvXvX",
"vXvX/ s k @.].H.=X0XqXqX0X6X=XXXH.%X6XrXiXcXyXuX8X..y 0 P.xXxXxX8X X_ * D vXvXvXvX",
"vXvXvXY 6 i ` N.A.H.$XqX6X0XeX0X=XH.J.H.7XtXyXyX*XE & 9 _ 8XzXiXuX<X2X| % vXvXvXvX",
"vXvXvXvXi.e & W l.[.C.D.=X6X0X0X0X%XJ.J.H.XX6XwX@.5 n a i }.8X0XrXtX8X+.O i.vXvXvX",
"vXvXvXvXvXvXF s v @.[.Z.J.5X5XqXqXrX5XH.D.H.=X<X' 5 y.+.$ ` :X9X9X-X@.i s pXvXvXvX",
"vXvXvXvXvXvXvX&.$ c N.A.C.%XqX4X5X6X6X=XZ.C.F.*X{ @ y.+Xx i k.:X6XF.c & e Z vXvXvX",
"vXvXvXvXvXvXvXvXL i $.Z.$X9X5X5X5XXXXX].'.].[.'.] # O.fXJ $ j oXtX-X..v x d + V vX",
"vXvXvXvXvXvXvX8.# j h.XX;X=XXX].@.` ) n W o.#.| 5 5 v.,Xb 0 _ @X X>X*X*XoXP.{ # vX",
"vXvXvXvXvXvXU ; f X.{.-X-X[.B.) m $ 9 9 % * 5 5 5 X.<X8X9.& m ) v c ' k.>X1Xv.5 vX",
"vXvXvXvXvXY + x $.S.XX7X{.#.j @ 9 x } ^ } ^ 9 & ) {.<X<X2Xv @ & u y & & ` 2Xv.5 vX",
"vXvXvXvXS O b c.S.D.-XOX#.i 6 g 5.5.t.n.m.m.;.& _ '.>X>X+Xb u *.E.aXf.B @ 9.y.@ vX",
"vXvXvXq.# b K.{.D.A.XXB.m O L ,.w.t.n.Q.^._.e.9 y | y.K. .& s s.aXdXhXs.& z K # vX",
"vXvXvXd 6 y.{.Z.D.A.N.n % D 6.6.t.n./.~.Q._.m.;.s $ y y $ x ,.(.U.U.dXgX[ % ; < vX",
"vXvXvXV q +.].Z.C.A.X.0 e 6.t.5.n.I.^.!.Q.^.sXm.6.~ x x ~ w.^.I._.^.^.gXE.: > Z vX",
"vXvXvX&.q v @.A.Z.B.m 9 ^ p.6.n.Q.Q.Q././.^._._._.^.Q.n.(.^.`.!.`.`.T.jXhXF o 4.vX",
"vXvXvXJ $ y %.[.{.X.9 h w.}  .n.Q.Q.).~././.Q.^.Q.Q.Q.Y.).Q.!.!.^.m.(.^.kX1.; pXvX",
"vXvXC $ ) $.S.].'.| $ J e.~ } n.).Q.).Q.Q.`.).Q.~.Q.).).Q.!.!.!.).~.)._.gXa.7 4.vX",
"vX4.* ) K.S.A.S.'.l 6 A S 6.t.~.).U.!.!./.!.!.!.!.Q.).Q.Q.).).~.~.!.Q.Q.dX(., =.vX",
"vX&.+ 9.].A.Z.[.v.l 5 g B 6.n.~.Y././.Q.U././.I.).`.^.^.).^.m.).~./.(.(.fXaX; =.vX",
"vXf., W l.S.S.].v.p 6 [ [ 6.n.~.(.a.w.r.e.e.a.m.m._.m.^.^.^.^._._.m.m.E.aXdX7 Y vX",
"vXvXU @ j X.v.}.c.k 6 ,.;.} n.(.r.L % s q & u L } p._._.Q.)._.a.>.^ I A =.m.8 Y vX",
"vXvXvX=.* u p b ] s 7 ,.,.,.R.a.H , * p 6 f p 6 $ K a.(.!.U.a.K . # # . = Y > U vX",
"vXvXvXvXvX/ s q q % s :.r.r.I.:.% , b { O.#.O.| 5 * ,.(./.Y.5.% @ W { ! s 1 = [ vX",
"vXvXvXvXvXvXvXI o > % / r.w.t.H X z Q O.h.x.x.v.| & J E.R.Y.[ $ E h.j.v.z = - 2.vX",
"vXvXvXvXvXvXvXM e C : I 0.w.q.g ; A ` h.G.#X#X|.#.5 g E.R.R.K & Q z.|. X] ; 1 i.vX",
"vXvXvXvXvXvXE.; C U : h 7.w.0.d # ! +.z.#X3XrX<Xv.5 z E.T.E.^ & _ '.*X2X] # X vXvX",
"vXvXvXvXvXvXvXV : , : , *.0.p.B 7 z #.z.#X3X3X*XO.5 K E.(.(.:.% l j.|.v.k , 7 vXvX",
"vXvXvXvXvXvXvXvX4.V w = C *.>.[ # 6 Q c.z.|.*Xv.v 9 5.R.T.R.a.s 5 z Q z , > T vXvX",
"vXvXvXvXvXvXvXvXvXvXvXY : w d H # ; @ l | Q Q i $ I n.(.U./.^.,.7 7 # 6 = 2 vXvXvX",
"vXvXvXvXvXvXvXvXvXvXvXvXf.F <   7 X 1 X + O & 9 B p.E.R./.!.Y.Y.2.- = ; N f.vXvXvX",
"vXvXvXvXvXvXvXvXvXvXvXvXvXvXvXE.=.S 1 4 V =.>.;.6.n.(./.U.Y.!./.i.- 4 1.vXvXvXvXvX",
"vXvXvXvXvXvXvXvXvXvXvXvXvXvXvXvXvXvXg # :.s.n.p.r.u.R./.a.t.n.R.[ = i.vXvXvXvXvXvX",
"vXvXvXvXvXvXvXvXvXvXvXvXvXvXvXvXvX4.# # g 0.6.^ } w.n.a.5.L J w.C # vXvXvXvXvXvXvX",
"vXvXvXvXvXvXvXvXvXvXvXvXvXvXvXf.d # * O % U t o e ^ ,.] M   4 1 1 U vXvXvXvXvXvXvX",
"vXvXvXvXvXvXvXvXvXvXvXvXvXvX2.6 y } r.z % o > r > = d 7 ; 8 N 1 + i.vXvXvXvXvXvXvX",
"vXvXvXvXvXvXvXvXvXvXvXvXvX*.% f K.,X+Xn 9 e F =.( r ; , X 8 G 1 7 -.vXvXvXvXvXvXvX",
"vXvXvXvXvXvXvXvXvXvXvXvXU . A W.8X8Xc.y e / &.>.q.*.M S 8 1 A 1   M T -.vXvXvXvXvX",
"vXvXvXvXvXvXvXvXvXvXi.w , : d 9.,XK.n q F =.[ :.7.<.P N 8 Y 8 . X 1 4 4   U vXvXvX",
"vXvXvXvXvXvXvXvXvX<.> > H h % p #._ & e / -.1.,.7.7.( - 1 3.N X 7 X N T M = P vXvX",
"vXvXvXvXvXvXvXvXpX= < :.:.e.^ % % % o ^ ( ;.w.7.<.( Z N 8 -.t 4 N G N 2.Y 1 , vXvX",
"vXvXvXvXvXvXvXvX( > T i.7.0.1., % e r ( ^ D [ >.F > o P 3 -.R 2 Z 3.8 7 X 7 7 vXvX",
"vXvXvXvXvXvXvXvXM 3 ( &.H U [ 3   w P F d : h B : ; : H 3 1.R - 1 S 7 - Y d.vXvXvX",
"vXvXvXvXvXvXvXvX< - M - 2 < - - , > I d $ & * $ z [ # V V G Z 4 - - = 1 vXvXvXvXvX",
"vXvXvXvXvXvXvXvX&.; = - P > < = - N > 9 W 9.k a v.u.O P H # S T = 1 1 C vXvXvXvXvX",
"vXvXvXvXvXvXvXvXvXd.vX=.V V 1.3 > N > f c..Xc.v..X .O V d # vXvXpXY =.vXvXvXvXvXvX",
"vXvXvXvXvXvXvXvXvXvXvXvXvXvX( - t - 6 ,.b.P.W.9.z * , P 7 ; vXvXvXvXvXvXvXvXvXvXvX",
"vXvXvXvXvXvXvXvXvXvXvXvXvXd.; > r < 7 [ k b ] 6 , >   V 3 S vXvXvXvXvXvXvXvXvXvXvX",
"vXvXvXvXvXvXvXvXvXvXvXvXvX- 3 V 1 ; w , , # , r M.-.- 4 - 3.vXvXvXvXvXvXvXvXvXvXvX",
"vXvXvXvXvXvXvXvXvXvXvXvXV > C V , = = w - 3 r vXvXg.4 - < vXvXvXvXvXvXvXvXvXvXvXvX",
"vXvXvXvXvXvXvXvXvXvXvXP - M M < , # <.vXC M vXvXvXvX= = 1.vXvXvXvXvXvXvXvXvXvXvXvX",
"vXvXvXvXvXvXvXvXvXvXU > + - M = P vXvXvXvXvXvXvXvXvX, Y vXvXvXvXvXvXvXvXvXvXvXvXvX",
"vXvXvXvXvXvXvXvXvX<.2 1 - M Z pXvXvXvXvXvXvXvXvXvXvXvXvXvXvXvXvXvXvXvXvXvXvXvXvXvX",
"vXvXvXvXvXvXvXvXvXd.V P i.vXvXvXvXvXvXvXvXvXvXvXvXvXvXvXvXvXvXvXvXvXvXvXvXvXvXvXvX"
};
