/* XPM */
static char *result[] = {
/* columns rows colors chars-per-pixel */
"41 60 222 2 ",
"   c #0B0E0D",
".  c #13120E",
"X  c #090F12",
"o  c #120E14",
"O  c #041615",
"+  c #0D1414",
"@  c #031A15",
"#  c #0A1916",
"$  c #02151A",
"%  c #0D161A",
"&  c #031C1B",
"*  c #0C1B1A",
"=  c #141415",
"-  c #191514",
";  c #131915",
":  c #191915",
">  c #15161A",
",  c #1A161B",
"<  c #141B1B",
"1  c #1B1B1C",
"2  c #0D120F",
"3  c #231819",
"4  c #200D0F",
"5  c #03221D",
"6  c #0B211D",
"7  c #01291D",
"8  c #002315",
"9  c #14221D",
"0  c #1B211E",
"q  c #25211E",
"w  c #071C22",
"e  c #141C23",
"r  c #1C1E21",
"t  c #241D25",
"y  c #022522",
"u  c #0B2421",
"i  c #012B26",
"p  c #082928",
"a  c #1C2323",
"s  c #162829",
"d  c #01332B",
"f  c #04372B",
"g  c #14352E",
"h  c #063A35",
"j  c #183A35",
"k  c #132F33",
"l  c #232323",
"z  c #24262A",
"x  c #2B252A",
"c  c #242B2B",
"v  c #2A2B2C",
"b  c #282725",
"n  c #322A28",
"m  c #23312E",
"M  c #35322F",
"N  c #242C33",
"B  c #2B2E34",
"V  c #362E33",
"C  c #2B3435",
"Z  c #2A3B3C",
"A  c #273538",
"S  c #333434",
"D  c #333A3B",
"F  c #3A3C3D",
"G  c #383635",
"H  c #433D3F",
"J  c #084339",
"K  c #15443B",
"L  c #25433D",
"P  c #37423E",
"I  c #44433F",
"U  c #3B3E43",
"Y  c #2C3E43",
"T  c #443C47",
"R  c #054A41",
"E  c #174A45",
"W  c #18564B",
"Q  c #12534D",
"!  c #264A44",
"~  c #3B4243",
"^  c #364548",
"/  c #25544A",
"(  c #3B514C",
")  c #3D4B54",
"_  c #295954",
"`  c #3F5657",
"'  c #1E6056",
"]  c #29655A",
"[  c #36635A",
"{  c #1A7463",
"}  c #2B7666",
"|  c #377568",
" . c #367D74",
".. c #316B63",
"X. c #434343",
"o. c #4C4D4D",
"O. c #46474A",
"+. c #444C53",
"@. c #494B52",
"#. c #534B54",
"$. c #4C5254",
"%. c #49565B",
"&. c #535554",
"*. c #545B5D",
"=. c #595759",
"-. c #534D4D",
";. c #62595A",
":. c #4C5B65",
">. c #525D64",
",. c #5C5E62",
"<. c #655D62",
"1. c #4A6767",
"2. c #546164",
"3. c #54656B",
"4. c #5A646C",
"5. c #5A6769",
"6. c #45796B",
"7. c #5A6771",
"8. c #596B74",
"9. c #597577",
"0. c #4F786F",
"q. c #626263",
"w. c #6C6C6D",
"e. c #65656B",
"r. c #667579",
"t. c #797778",
"y. c #6A6E72",
"u. c #3A8879",
"i. c #358C75",
"p. c #47897C",
"a. c #56857A",
"s. c #47907C",
"d. c #7C807C",
"f. c #657D84",
"g. c #6B7C84",
"h. c #667B85",
"j. c #787C86",
"k. c #827D80",
"l. c #3C9886",
"z. c #329485",
"x. c #2BAC94",
"c. c #35AC94",
"v. c #3CAB94",
"b. c #3DA793",
"n. c #36B29A",
"m. c #2BAE92",
"M. c #2CB5A1",
"N. c #39BAA4",
"B. c #4E8E84",
"V. c #479887",
"C. c #59968A",
"Z. c #519A91",
"A. c #6B858D",
"S. c #6C898D",
"D. c #68848B",
"F. c #72848D",
"G. c #768589",
"H. c #65998D",
"J. c #6E8592",
"K. c #6D8B94",
"L. c #6B8B95",
"P. c #748694",
"I. c #798595",
"U. c #738A94",
"Y. c #758C99",
"T. c #7A8B98",
"R. c #729598",
"E. c #48A18E",
"W. c #42AA95",
"Q. c #48A897",
"!. c #48B39E",
"~. c #5CB09A",
"^. c #64AA99",
"/. c #47BCA9",
"(. c #56BDAA",
"). c #67BAA9",
"_. c #6FADA1",
"`. c #3DC7B3",
"'. c #3FC7AF",
"]. c #42C0A9",
"[. c #57C6AF",
"{. c #45C9B3",
"}. c #50C8B1",
"|. c #46D5BD",
" X c #58DABC",
".X c #65C7AE",
"XX c #68C9B7",
"oX c #78C8B5",
"OX c #67D7BC",
"+X c #79D6BC",
"@X c #3DE3C5",
"#X c #47DDC3",
"$X c #56DCC6",
"%X c #66DCC4",
"&X c #75DCC6",
"*X c #45E2C5",
"=X c #4CE2C4",
"-X c #4CE4CA",
";X c #45E7CB",
":X c #53E5C9",
">X c #59E5C6",
",X c #4FEED0",
"<X c #62EBCC",
"1X c #68EAD5",
"2X c #76EDD8",
"3X c #6BF1D6",
"4X c #76EBD1",
"5X c #78FAE5",
"6X c #868586",
"7X c #89949A",
"8X c #8A8F93",
"9X c #8E9CA2",
"0X c #949DA5",
"qX c #91AEAF",
"wX c #AAB3B9",
"eX c #A5ACB3",
"rX c #B0B9C0",
"tX c #83DBC7",
"yX c #89F5DF",
"uX c #8BEAD8",
"iX c #82FCE8",
"pX c None",
/* pixels */
"pXpXpX;.-.X.G O.O.;.<.t.pXpXpXpXpXpXpXpXpXpXpXpXpXpXpXpXpXpXpXpXpXpXpXpXpXpXpXpXpX",
"I 1 - . < # 6 @ & @ = 1 , w.pXpXpXpXpXpXpXpXpXpXpXpXpXpXpXpXpXpXpXpXpXpXpXpXpXpXpX",
"t.: ; 6 L | s.i.i.i.] p % X.pXpXpXpXpXpXpXpXpXpXpXpXpXpXpXpXpXpXpXpXpXpXpXpXpXpXpX",
"pXpXP 6 K B.].>X X>XQ.h & & s s u a c m A U $.q.pXpXpXpXpXpXpXpXpXpXpXpXpXpXpXpXpX",
"pXpXpXm @ ] W.N.-X$XN.R h h h h J f d i i y y * 6 ; 9 m &.pXpXpXpXpXpXpXpXpXpXpXpX",
"pXpX*.* 7 u.!.{.#X-X$X/./.(.[.(.)..X.X).).Z.B.6.] L K 6 @ @ s ~ pXpXpXpXpXpXpXpXpX",
"pXd.% p ] Q.{.=X;X,X;X;X:X#X-X:X:X<X3X2X4XuX&XOXOX.X~.^.s.W f 5 > v pXpXpXpXpXpXpX",
"pXt.; j B.E.].#X-X@X;X;X@X#X-X#X*X=X-X:X2XiXiX2X>Xs.W s.tXtXoXB.E p O X.pXpXpXpXpX",
"pXpXv 6 K u.b./.|.#X;X;X#X#X#XN.N.#X#X1X5XiX5X3X>X{ & y Z.uXyXyXXXu.K % G pXpXpXpX",
"pXpXpXv * d ] b.n.N.`.-X,X#X$X#X`.M.M./.$X1X3X2X.XJ $ w _ tXiX2X<X<X).! X pXpXpXpX",
"pXpXpXpX$.< w / V.n.x.M.|.-X-X-X#X#Xn.M./.$X$X%Xu.5 p u k Z.OX>X<X<X+X .u %.pXpXpX",
"pXpXpXpXpXk.r & J u.n.x.M.#X@X;X-X$X#XM.x.N.{.%X/ & 6._ $ [ %X=X=X>Xl.R & y.pXpXpX",
"pXpXpXpXpXpXpXD & E E.n.m.*X;X@X#X-X$X{.n.x.n..Xj 9 a.R.s k l.$X$XN.h & , o.pXpXpX",
"pXpXpXpXpXpXpXpX6 i i.c.{.*X#X#X{./.!.Q.b.b.v.E.( 8 [ oXZ w d (.%X(.Q y $ % @ pXpX",
"pXpXpXpXpXpXpXI O K i.].|.'.N.b. ._ _ E / |  .] 5 5 i.+Xk & E ).).%X[.W.V.u.K # pX",
"pXpXpXpXpXpXv # g } !. X].!. .E p $ $ w @ 5 p 8 5 ] .X+X] & E _ W Q { W.OX+Xa.6 pX",
"pXpXpXpXpX9 u E l.W.}.}.W.] i * e N Y Y ! j % w E ^.OX X).7 # % < @ 5 y } oXC.8 pX",
"pXpXpXpX+ p W V.b.n.}.Q.' y * s :.4.h.h.S.r.U $ _ ^.OXOX).J < T e.G.$.u 7 6.a.7 pX",
"pXpXpXB u / E.c.c.c.Q.| i & ^ *.:.h.h.j.U.K.:.$ p [ B.Z...y s t.0XeXwX8.6 g / @ pX",
"pXpXpX+ A C.b.x.x.Q. .f $ Z 2.4.8.h.Y.j.D.S.h.U w $ i i $ e +.I.G.K.eXeXA # ; 9 pX",
"pXpXpXr k f.n.x.c.V.E @ N 3.3.1.h.Y.Y.J.Y.Y.P.g.) N s s Y :.P.U.D.J.P.rXr.> < b pX",
"pXpXpXt w h z.n.W.} 5 e %.4.1.h.h.Y.L.h.Y.L.J.P.I.j.g.r.j.j.F.A.L.L.F.9XeXx o #.pX",
"pXpX<.e w R z.c.E.K O S 3.^ :.h.Y.L.Y.Y.J.P.Y.P.Y.Y.P.A.T.Y.U.R.L.L.g.7XwX=.o 6XpX",
"pX,.> s _ l.c.W.B.d a U :.A :.Y.L.L.Y.L.K.Y.J.Y.Y.h.Y.R.S.L.L.L.L.Y.Y.8XwXe., y.pX",
"pXl < 6.Q.c.n.b.u.7 0 b ~ >.h.g.Y.h.Y.Y.Y.Y.Y.Y.L.L.L.L.L.L.L.L.Y.g.Y.Y.eXj.% &.pX",
"pX9 s a.E.c.x.v...5 0 l C 4.J.Y.Y.Y.Y.h.j.Y.h.L.L.L.L.L.L.L.Y.Y.Y.P.Y.j.qXY.e O.pX",
"pXD < ! s.W.W.E.[ & N #.+.4.D.L.Y.h.Y.L.Y.L.Y.L.Y.P.K.P.L.Y.I.I.P.Y.U.F.qX7Xe U pX",
"pXpXa u f ] p.H.[ & N <.+.:.f.K.Y.Y.L.L.L.Y.Y.g.K.Y.I.Y.j.Y.T.j.I.P.L.F.0X7Xr U pX",
"pXpXpXP # 8 g m Y $ N >.) 1.L.Y.Y.j.Y.Y.L.L.Y.L.Y.Y.Y.j.Y.Y.j.Y.P.P.J.U.9X8X, X.pX",
"pXpXpXpX6XX.9 9 o % N 4.h.h.L.j.Y.Y.L.L.Y.g.Y.Y.j.Y.j.Y.Y.L.Y.j.P.Y.L.U.9X8X, X.pX",
"pXpXpXpXpXpXpX9 w > w :.:.h.h.Y.h.L.L.L.Y.Y.j.Y.Y.Y.Y.L.L.L.L.Y.U.U.R.G.7Xj.o =.pX",
"pXpXpXpXpXpX&.; N t > ) :.:.h.Y.Y.L.L.Y.j.Y.Y.L.L.Y.L.L.L.L.L.L.U.F.U.U.7Xe.. t.pX",
"pXpXpXpXpXpXS ; D c < D 4.4.9.g.S.D.F.U.F.I.Y.Y.P.P.P.L.K.K.P.Y.G.T.G.d.y.D > pXpX",
"pXpXpXpXpXpX6X; + a + e *.5.2.y.Z A ( >.4.8.3.7.:.8.Y.Y.J.Y.Y.:.) O.^ m < < 1 pXpX",
"pXpXpXpXpXpXpXpX=.v > < C $.2.*.m ; ; . 1 t > e $ Y h.P.F.U.D.A * # + % < < X.pXpX",
"pXpXpXpXpXpXpXpXpXpXpXb o < a S S M B b v z z N Y :.g.P.U.U.S.3.^ ~ D a + 1 pXpXpX",
"pXpXpXpXpXpXpXpXpXpXpXpXw.B , ; + 9 s ( y.r.G.r.9.P.U.L.L.L.L.Y.r.X.a + r w.pXpXpX",
"pXpXpXpXpXpXpXpXpXpXpXpXpXpXpXt.$.B # P 0.D.S.h.9.h.U.Y.D.A.J.P.+.< < &.pXpXpXpXpX",
"pXpXpXpXpXpXpXpXpXpXpXpXpXpXpXpXpXt.; < *.G.h.3.3.8.T.P.9.8.h.D.D   6XpXpXpXpXpXpX",
"pXpXpXpXpXpXpXpXpXpXpXpXpXpXpXpXk.V = < ^ 2.+.^ %.7.F.8.` A ) :.r b pXpXpXpXpXpXpX",
"pXpXpXpXpXpXpXpXpXpXpXpXpXpXpXP 2 9 ; + z B r + a U =.G = . 1 q 1 =.pXpXpXpXpXpXpX",
"pXpXpXpXpXpXpXpXpXpXpXpXpXpXm 8 K p.` 6 = ; < 0 < + l 4 3 q 3 . . pXpXpXpXpXpXpXpX",
"pXpXpXpXpXpXpXpXpXpXpXpXpXs O / ~.&Xp.y % z D +.Z 9 - 3 4 n M - - t.pXpXpXpXpXpXpX",
"pXpXpXpXpXpXpXpXpXpXpXpXs @ ( qX&X[.Q w N T +.%.1.P - H 4 3 q : : q I =.pXpXpXpXpX",
"pXpXpXpXpXpXpXpXpXpX*.= 9 * m H.oX} d e T T @.*.2.:.c t x H = ; - . : : = =.pXpXpX",
"pXpXpXpXpXpXpXpXpXX.o a v s + g | d w N T #.#.>.2.*.D o n e.1 = - q n G q 2 q.pXpX",
"pXpXpXpXpXpXpXpX<.1 x O.*.+.Z # e X r T #.#.<.*.$.x l x b &.: : I M q I M . l pXpX",
"pXpXpXpXpXpXpXpXx = $.<.q.,.~ e o r C T B B $.X.r 1 o G q ;.b - M &.: 0 2 1 G pXpX",
"pXpXpXpXpXpXpXpX= v o.X.G X.F , > 1 D B + < r < + < , G q &.n - : q = 1 =.d.pXpXpX",
"pXpXpXpXpXpXpXpX> 1 l : = = > > , v z % u s & 6 $.S 1 G l M 3 - q q ; G pXpXpXpXpX",
"pXpXpXpXpXpXpXpXl : = 1 x 0 b - 3 x r 6 6.| d W _.L 8 C 1 1 -.G . 2 0 t.pXpXpXpXpX",
"pXpXpXpXpXpXpXpXpX=.w.v 1 o.G 1 3 t X ( H.H.a.H.a.j * D 1 b pXpXd.-.w.pXpXpXpXpXpX",
"pXpXpXpXpXpXpXpXpXpXpXpXpX6X0 1 b ; s 9.9.a.a.L @ * 9 v < b pXpXpXpXpXpXpXpXpXpXpX",
"pXpXpXpXpXpXpXpXpXpXpXpXpXG : 0 < 2 D Z # m g < c 1 > l 1 *.pXpXpXpXpXpXpXpXpXpXpX",
"pXpXpXpXpXpXpXpXpXpXpXpXo.> b z ; a + = = 1 3 T pXT , = . pXpXpXpXpXpXpXpXpXpXpXpX",
"pXpXpXpXpXpXpXpXpXpXpXw.: 1 v q + ; < v , 3 #.pXpX;.- : G pXpXpXpXpXpXpXpXpXpXpXpX",
"pXpXpXpXpXpXpXpXpXpXt.1 = v 1 ; + G pXpXb =.pXpXpXy., 0 pXpXpXpXpXpXpXpXpXpXpXpXpX",
"pXpXpXpXpXpXpXpXpX6X1 > > 2 3 v w.pXpXpXpXpXpXpXpXpXz w.pXpXpXpXpXpXpXpXpXpXpXpXpX",
"pXpXpXpXpXpXpXpXpXn = , ; S w.pXpXpXpXpXpXpXpXpXpXpXpXpXpXpXpXpXpXpXpXpXpXpXpXpXpX",
"pXpXpXpXpXpXpXpXpXq.O.q.pXpXpXpXpXpXpXpXpXpXpXpXpXpXpXpXpXpXpXpXpXpXpXpXpXpXpXpXpX"
};
