/* XPM */
static char *result[] = {
/* columns rows colors chars-per-pixel */
"41 60 237 2 ",
"   c #0B110E",
".  c #0E0F10",
"X  c #190E12",
"o  c #110E15",
"O  c #031313",
"+  c #0D1414",
"@  c #021B16",
"#  c #0C1916",
"$  c #021519",
"%  c #0C161A",
"&  c #031C1B",
"*  c #0B1C1B",
"=  c #141414",
"-  c #1A1515",
";  c #141815",
":  c #151519",
">  c #1B161B",
",  c #141B1B",
"<  c #1B1B1B",
"1  c #191917",
"2  c #11100E",
"3  c #221C1C",
"4  c #03221C",
"5  c #0B221C",
"6  c #012A1E",
"7  c #14211E",
"8  c #1C201E",
"9  c #0B1B21",
"0  c #001F20",
"q  c #141D21",
"w  c #1C1D22",
"e  c #1F1520",
"r  c #241D23",
"t  c #032421",
"y  c #0D2322",
"u  c #022B24",
"i  c #082B27",
"p  c #132322",
"a  c #1C2424",
"s  c #192929",
"d  c #03332A",
"f  c #0B342C",
"g  c #073629",
"h  c #15332C",
"j  c #192D32",
"k  c #083731",
"l  c #173935",
"z  c #242324",
"x  c #252529",
"c  c #232B2D",
"v  c #2C2B2C",
"b  c #282627",
"n  c #332A2C",
"m  c #22322D",
"M  c #252E34",
"N  c #2C2D33",
"B  c #352E33",
"V  c #2C3232",
"C  c #243239",
"Z  c #253737",
"A  c #343434",
"S  c #3A3434",
"D  c #313B3D",
"F  c #3A3B3B",
"G  c #35363A",
"H  c #31332E",
"J  c #24231F",
"K  c #433C3C",
"L  c #402F35",
"P  c #094539",
"I  c #15473C",
"U  c #13523D",
"Y  c #23423D",
"T  c #3A403E",
"R  c #333B41",
"E  c #3A3D46",
"W  c #2E3E43",
"Q  c #453E43",
"!  c #184744",
"~  c #18544A",
"^  c #0B5147",
"/  c #274A46",
"(  c #3C4345",
")  c #364649",
"_  c #27594C",
"`  c #33524B",
"'  c #285C52",
"]  c #374E54",
"[  c #17665A",
"{  c #296558",
"}  c #33675B",
"|  c #286C55",
" . c #1A7968",
".. c #296C64",
"X. c #3A6C63",
"o. c #287766",
"O. c #387768",
"+. c #347D71",
"@. c #434344",
"#. c #46454B",
"$. c #4A4649",
"%. c #434A4C",
"&. c #4B4A4B",
"*. c #464C53",
"=. c #4C545A",
"-. c #4E5A5C",
";. c #475456",
":. c #545B5C",
">. c #585759",
",. c #4D504E",
"<. c #635C5F",
"1. c #4C5E63",
"2. c #525C64",
"3. c #5A5D63",
"4. c #575763",
"5. c #655C61",
"6. c #5C646C",
"7. c #556669",
"8. c #44766A",
"9. c #596B73",
"0. c #5A7477",
"q. c #4B756F",
"w. c #636464",
"e. c #696969",
"r. c #666B75",
"t. c #68757A",
"y. c #787879",
"u. c #6D6E6D",
"i. c #63695F",
"p. c #88787E",
"a. c #29866C",
"s. c #2B8974",
"d. c #3A9478",
"f. c #348A74",
"g. c #35A17F",
"h. c #46897A",
"j. c #55867B",
"k. c #478D77",
"l. c #63867E",
"z. c #657B84",
"x. c #6D7B85",
"c. c #727C85",
"v. c #737A86",
"b. c #5D7B83",
"n. c #807F87",
"m. c #3B9986",
"M. c #3A8781",
"N. c #3CA68D",
"B. c #2DAC94",
"V. c #34AC94",
"C. c #3AA894",
"Z. c #2BB39A",
"A. c #36B499",
"S. c #2EB08C",
"D. c #38BCA7",
"F. c #2DBAA6",
"G. c #469988",
"H. c #589589",
"J. c #508980",
"K. c #6D848D",
"L. c #6C8B8C",
"P. c #658888",
"I. c #72848C",
"U. c #7A838E",
"Y. c #77878A",
"T. c #6C8691",
"R. c #6D8A93",
"E. c #6E8F98",
"W. c #738692",
"Q. c #738B94",
"!. c #7B8B94",
"~. c #738E99",
"^. c #7B8794",
"/. c #799197",
"(. c #6F9099",
"). c #45A28D",
"_. c #53A28A",
"`. c #43AB95",
"'. c #43AD9B",
"]. c #49A895",
"[. c #59A598",
"{. c #57B59B",
"}. c #47B59A",
"|. c #67A796",
" X c #45B9A6",
".X c #57BCA9",
"XX c #69B7A8",
"oX c #73B3A4",
"OX c #71ADA4",
"+X c #39C69A",
"@X c #3AC5AD",
"#X c #3CD6BB",
"$X c #3BC9B1",
"%X c #5BC7AD",
"&X c #47CBB6",
"*X c #58C8B3",
"=X c #47D6B9",
"-X c #5AD7BA",
";X c #47CCAE",
":X c #68C2A8",
">X c #67C9B5",
",X c #67D6BA",
"<X c #70CFB3",
"1X c #45E5BB",
"2X c #62E1BB",
"3X c #3CE5C3",
"4X c #46DDC3",
"5X c #4DDCC5",
"6X c #52DEC4",
"7X c #59D8C2",
"8X c #76D9C2",
"9X c #70D4C1",
"0X c #44E2C6",
"qX c #4DE3CA",
"wX c #4AE7C9",
"eX c #57E3C9",
"rX c #52F0CD",
"tX c #68E4C9",
"yX c #6AE8D3",
"uX c #76EAD5",
"iX c #76F2D9",
"pX c #76E2C0",
"aX c #7DF6E7",
"sX c #878688",
"dX c #818897",
"fX c #879699",
"gX c #97A6AB",
"hX c #9DAFB3",
"jX c #A8B0B6",
"kX c #8D9CA1",
"lX c #84C6B8",
"zX c #B6BDC5",
"xX c #8BDAC8",
"cX c #86E9D6",
"vX c #99ECDA",
"bX c #8AF9E6",
"nX c None",
/* pixels */
"nXnXnXnX<.,.&.@.&.5.5.u.sXnXnXnXnXnXnXnXnXnXnXnXnXnXnXnXnXnXnXnXnXnXnXnXnXnXnXnXnX",
"nXJ 1 2 # # 4 4 & % , , - u.nXnXnXnXnXnXnXnXnXnXnXnXnXnXnXnXnXnXnXnXnXnXnXnXnXnXnX",
"y.3 = 7 Y } f.f.f.s...9 = @.nXnXnXnXnXnXnXnXnXnXnXnXnXnXnXnXnXnXnXnXnXnXnXnXnXnXnX",
"nXnXS O l h..X-X6X7X].d & 9 i * * * , p s j D E nXnXnXnXnXnXnXnXnXnXnXnXnXnXnXnXnX",
"nXnXnXY 6 { m.@XqX5X X^ k ^ k ^ U P P P k d u i 5   # 5 V -.nXnXnXnXnXnXnXnXnXnXnX",
"nXnXy.p 4 ..C.@X0XqXyX&X X.X.X>X>X>X>X<X:X.X[.H.k.X._ l u 4 & a >.nXnXnXnXnXnXnXnX",
"nXnXq & ~ m.*XqXqXqX4XqXqX5XqXeXeXeXyXyXcXcXuX9X,X<XXXoX|.f._ i & q =.nXnXnXnXnXnX",
"nXnX> s J.]. X6XqX0XqXrX0XqXqX5XqXqXeXeXiXbXbXiX2Xa.d O.lXvXxXoXX.h & c nXnXnXnXnX",
"nXnXA p I +.`.D.5XqX0X0XqX4X&XD.D. X5XyXaXbXiXuX,X[ t 0 H.vXvXcX8XXX_ 4 j nXnXnXnX",
"nXnXnXV O f { m.C.D.$X0XqXqXqX5X&XF.F.D.7XtXuXiX.Xk $ y ! xXuXiXyX9X:X' @ nXnXnXnX",
"nXnXnXnX>.q % ! J.'.B.F.$XqXqXqX0X#XF.Z.D.&X6X7Xo.t l t u [.7XwXrXtX9X{ & r.nXnXnX",
"nXnXnXnXnXnXv * k +.C.B.F.4X3XrXwXqX5XF.B.F.;X-X^ 6 h.X.0 _ -X1X1X=X .t * sXnXnXnX",
"nXnXnXnXnXnXnXE & P ).A.Z.#X3X3X3X5X6X&XB.B.A.%X/ @ h.kXs i o.7X5XA.k 0 % r nXnXnX",
"nXnXnXnXnXnXnXnXj u o.C.@X4X4X#X4X X'.'.N.).}.G./ 4 | lXC $ d .XyX*X[ ^ l h + a nX",
"nXnXnXnXnXnXnXe.# d a.A.=X&X X'.o.' ! l ! } X._ 4 6 d.<XW 0 ~ OX[.XX>X%X>X[.} * nX",
"nXnXnXnXnXnXK < i { `.-X;X'.M.! i 0 9 9 % @ 4 4 6 | %X8XO.0 i I k u ^ o.%X,Xk.@ nX",
"nXnXnXnXnXF . j +.C.&X*X].O.g @ 9 C E ] ] R 9 0 ! ].2X2X:Xk & * 5 h & & ^ XXH.@ nX",
"nXnXnXnXS   Z h.].V.&X'.O.u 5 s 1.1.9.b.W.v.*.9 ~ G.*X,XoXI p ;.!.fXv.v 4 } 8.& nX",
"nXnXnXe.5 l h.].V.B. XM.f $ M -.7.9.z.x.W.!.6.9 & ~ +.q.` $ p t.fXgXzXv.5 i Z # nX",
"nXnXnX8 5 8.].C.Z.A.M.! 9 x -.9.9.z.W.~.W.~.v.1.p & 0 0 $ j -.!.x.v.gXzX*.= : 3 nX",
"nXnXnXV 9 O.).V.B.C...0 w =.9.2.b.T.W.W.W.W.dXv.7.) j C E 6.W.R./.x./.hXsXr 1 S nX",
"nXnXnX$.w k s.B.V.M.k q E 6.2.0.T.W.W.W.^.W.v.^.v.W.^.v.^.^.~.R.T.Q.W.kXjXG : w.nX",
"nXnXnXG 9 u  .V.'...y x 4.] ] b.R.T.E.~.Q.v.R.~.E.E.T.W.~.K.R.E.T.~.Q./.jX2.2 y.nX",
"nXnXV % l ..N.V.).' O N 4.] ] b.E.T.E.T.T.~.~.~.E.T.E.E.T.E.E.R.E.K.E.W.hXc.7 :.nX",
"nXi., I G.C.V.C._.P 5 H V -.7.T.R.L.R.E.~.R.R.Q.~.x.~.~.R.~.~.v.T.~.W.^.hXfX7 @.nX",
"nX,.@ 1.G.C.V.'.k.h 4 8 x 4.z.E.L.Q.~.L.L.Q.Q.I.~.~.v.R.R.R.v.~.Q.Q.W.v.kXfX7 F nX",
"nXy.1 j J.G.C.).k.g 5 %.#.4.z.W.dXt.1.7.1.7.r.c.v.n.^.^.~.~.~.dXdXx.v.y.fXhXb A nX",
"nXnXF + k { h.[.j.i 5 ;.=.*.z.^.6.M $ 9 9 $ * a E 6.^.~.x.~.v.z.%.C j c D r.z v nX",
"nXnXnX=.$ 9 t Y ` p , ;.-.] K.t.V , & p h h 6 4 $ M 9./.E.R.t.W   4 5 # O V < A nX",
"nXnXnXnXnX#.a : : + p ;.q.7.c.=.= 7 l _ | o.O.} f * ] !.R.R.1.$ 6 I _ _ p , = V nX",
"nXnXnXnXnXnXnXQ : : * D 7.7.e.D ; 7 U | a.g.g.).{ O M c.K.L.) $ P a.d.k.Y = > &.nX",
"nXnXnXnXnXnXnXb r z , Z 7.7.7.m # m | a.g.+X+X}.O.4 j y.Y.W.W 0 U d.{.:X` = < >.nX",
"nXnXnXnXnXnXnX= z F q a -.6.:.m # Y X.g.+X1X2X2Xk.6 h t.Q.Q.) & U _.%X:X` @ ; l.nX",
"nXnXnXnXnXnXnXA , , + , R 6.6.V ; h X.d.+X;X1X%Xa.@ Z I.K./.7.& d } k.k.g * # nXnX",
"nXnXnXnXnXnXnXnXe.v x , , %.7.( 7 @ I f.d.g.{.k.h 9 =.!.K.W.t.C # g I h , = K nXnX",
"nXnXnXnXnXnXnXnXnXnXnX@., : a M # 7 # 6 U P U g O R t.^.^.^.W.6.8 ; # # X - nXnXnX",
"nXnXnXnXnXnXnXnXnXnXnXnXsXF < = ;   < , , @ & * M 3.sXU.W.T.Q.I.i., = + n p.nXnXnX",
"nXnXnXnXnXnXnXnXnXnXnXnXnXnXnXnXw.S 2 3 A $.>.=.4.x.!.U.I.z.Q.Q.w.1 8 e.nXnXnXnXnX",
"nXnXnXnXnXnXnXnXnXnXnXnXnXnXnXnXnXnXT   ( t.v.9.7.9.K.Y.t.7.0.I.%.  e.nXnXnXnXnXnX",
"nXnXnXnXnXnXnXnXnXnXnXnXnXnXnXnXnXu.7 # a -.1.R ) 1.t.j.] C j -.s 7 nXnXnXnXnXnXnX",
"nXnXnXnXnXnXnXnXnXnXnXnXnXnXnXc.a * % * q N r e < s -./ 5 ; 1 1 ; H nXnXnXnXnXnXnX",
"nXnXnXnXnXnXnXnXnXnXnXnXnXnX@.# i ' 0.l % o e r w = 7 * # 3 n 2 = >.nXnXnXnXnXnXnX",
"nXnXnXnXnXnXnXnXnXnXnXnXnX@., l k.>XlX! 9 q N Q #.V   8 8 - L J < S nXnXnXnXnXnXnX",
"nXnXnXnXnXnXnXnXnXnXnXsXA # c l.,XpXG.d % R ) =.6.*.v H J - J J 2 < L L >.nXnXnXnX",
"nXnXnXnXnXnXnXnXnXnX( , # + a ` :X].I & x #.%.*.:.:.@.r 1 H b 2 2 < X 3 <   u.nXnX",
"nXnXnXnXnXnXnXnXnXA : z ( G q t { ~ @ , E *.=.;.7.<.$.3 ; ,.H ; 1 1 r Q F < 1 nXnX",
"nXnXnXnXnXnXnXnXw.< x :.:.6.( * % * o B #.*.2.7.>.Q B x 8 &.S - 8 F n $.F 8 X <.nX",
"nXnXnXnXnXnXnXnXv < ,.>.>.:.4.w o - 3 Q D M E =.R r o v J &.K X z <.z 3 = 1 1 nXnX",
"nXnXnXnXnXnXnXnX< z F z x V A w - > H A p * p c , = > n x Q $.X 1 A z = b nXnXnXnX",
"nXnXnXnXnXnXnXnX< - r = = < 1 = X < H 7 & 5 & 5 p ( : r H S S = < = - 1 w.nXnXnXnX",
"nXnXnXnXnXnXnXnX5.< b b S v - 3 - n 3 5 I O.f u h.j.7 c V = n <.b = < < nXnXnXnXnX",
"nXnXnXnXnXnXnXnXnXnXnXu.z z 5.< - J - p 8.|.P.j.|.} & c M = y.nXnXw.,.nXnXnXnXnXnX",
"nXnXnXnXnXnXnXnXnXnXnXnXnXnX$.- 8 ; ; ` l.L.L.q.l & * c c = nXnXnXnXnXnXnXnXnXnXnX",
"nXnXnXnXnXnXnXnXnXnXnXnXnXsX. z J 7 7 ( z s T 7 . w : z < 8 nXnXnXnXnXnXnXnXnXnXnX",
"nXnXnXnXnXnXnXnXnXnXnXnXnX3 z z 1   7 , = . 8 8 y.5.1 r 1 $.nXnXnXnXnXnXnXnXnXnXnX",
"nXnXnXnXnXnXnXnXnXnXnXnXv = b v ; 8 = 8 < < 8 nXnXnXX X 3 nXnXnXnXnXnXnXnXnXnXnXnX",
"nXnXnXnXnXnXnXnXnXnXnXA = < b > 1 1 >.nXA a nXnXnXnX< - @.nXnXnXnXnXnXnXnXnXnXnXnX",
"nXnXnXnXnXnXnXnXnXnXS w = = z = S nXnXnXnXnXnXnXnXnXz H nXnXnXnXnXnXnXnXnXnXnXnXnX",
"nXnXnXnXnXnXnXnXnXe.o - - z A nXnXnXnXnXnXnXnXnXnXnXnXnXnXnXnXnXnXnXnXnXnXnXnXnXnX",
"nXnXnXnXnXnXnXnXnXnX&.$.y.nXnXnXnXnXnXnXnXnXnXnXnXnXnXnXnXnXnXnXnXnXnXnXnXnXnXnXnX"
};
