/* XPM */
static char *result[] = {
/* columns rows colors chars-per-pixel */
"40 60 237 2 ",
"   c #0F0E0F",
".  c #11130E",
"X  c #18150F",
"o  c #180E14",
"O  c #021414",
"+  c #0C1415",
"@  c #021B15",
"#  c #0B1A15",
"$  c #03151A",
"%  c #031C1A",
"&  c #0C1C1A",
"*  c #0C1619",
"=  c #141415",
"-  c #191316",
";  c #131A16",
":  c #14151A",
">  c #1B151C",
",  c #131B1B",
"<  c #1B1B1C",
"1  c #1A1917",
"2  c #0B110F",
"3  c #23151D",
"4  c #221C1D",
"5  c #02221D",
"6  c #0B211E",
"7  c #02271B",
"8  c #1C231E",
"9  c #16221D",
"0  c #22211F",
"q  c #061D23",
"w  c #131E22",
"e  c #1C1C21",
"r  c #151F28",
"t  c #241C23",
"y  c #032322",
"u  c #0C2422",
"i  c #002B25",
"p  c #082927",
"a  c #142323",
"s  c #1C2323",
"d  c #132B29",
"f  c #192828",
"g  c #02342D",
"h  c #0B342B",
"j  c #043426",
"k  c #12332C",
"l  c #19352E",
"z  c #1C2B32",
"x  c #053933",
"c  c #153A35",
"v  c #232324",
"b  c #232429",
"n  c #222B2C",
"m  c #2C2B2B",
"M  c #282627",
"N  c #2C2D32",
"B  c #272C31",
"V  c #362C33",
"C  c #243433",
"Z  c #2C353B",
"A  c #243B39",
"S  c #293739",
"D  c #343334",
"F  c #35353A",
"G  c #343B3D",
"H  c #3C3B3C",
"J  c #3A3636",
"K  c #302E2F",
"L  c #433A3D",
"P  c #07463A",
"I  c #15463C",
"U  c #05402E",
"Y  c #24483D",
"T  c #2D3B43",
"R  c #373E43",
"E  c #463F44",
"W  c #194943",
"Q  c #195649",
"!  c #175D54",
"~  c #0B4F46",
"^  c #274A45",
"/  c #3B4345",
"(  c #384747",
")  c #28574A",
"_  c #275B51",
"`  c #3E5354",
"'  c #196454",
"]  c #286757",
"[  c #35675B",
"{  c #23735C",
"}  c #2C7969",
"|  c #377469",
" . c #3C7C76",
".. c #366D67",
"X. c #1B6A64",
"o. c #454344",
"O. c #444B4C",
"+. c #4B4B4C",
"@. c #45464B",
"#. c #53474B",
"$. c #464C54",
"%. c #524D51",
"&. c #524652",
"*. c #455254",
"=. c #4B5456",
"-. c #48585A",
";. c #535254",
":. c #55595B",
">. c #5B5B5D",
",. c #585558",
"<. c #52514C",
"1. c #625B5F",
"2. c #624F55",
"3. c #616159",
"4. c #4C5964",
"5. c #565C64",
"6. c #645D64",
"7. c #5B646B",
"8. c #5A6A6D",
"9. c #566667",
"0. c #43796B",
"q. c #596C73",
"w. c #5D747A",
"e. c #5D757A",
"r. c #4D716E",
"t. c #646264",
"y. c #6B6A6A",
"u. c #676769",
"i. c #656B73",
"p. c #746C73",
"a. c #667679",
"s. c #757475",
"d. c #78777B",
"f. c #72706E",
"g. c #4E615F",
"h. c #35856B",
"j. c #2A8874",
"k. c #3A8876",
"l. c #39937A",
"z. c #2A8166",
"x. c #49867A",
"c. c #588478",
"v. c #478E78",
"b. c #71827F",
"n. c #6C7A83",
"m. c #6B7984",
"M. c #707D8A",
"N. c #3C8F81",
"B. c #3B9D8B",
"V. c #3B9686",
"C. c #2B9D86",
"Z. c #2DAC97",
"A. c #3CA693",
"S. c #3CAC95",
"D. c #35AB96",
"F. c #2AB299",
"G. c #36AB8B",
"H. c #38BBA8",
"J. c #2DBBA1",
"K. c #489887",
"L. c #549786",
"P. c #4C938A",
"I. c #6C858C",
"U. c #6B8A8D",
"Y. c #668789",
"T. c #73838B",
"R. c #72898D",
"E. c #78878A",
"W. c #6E8692",
"Q. c #6D8B93",
"!. c #738692",
"~. c #798594",
"^. c #738B93",
"/. c #7A8A96",
"(. c #748B99",
"). c #7B8B99",
"_. c #739195",
"`. c #799296",
"'. c #699892",
"]. c #48A98D",
"[. c #43A493",
"{. c #48A897",
"}. c #59AB98",
"|. c #45B19B",
" X c #53B49D",
".X c #53A18F",
"XX c #68B19D",
"oX c #47B8A4",
"OX c #59B9A5",
"+X c #54AEA2",
"@X c #73B9A7",
"#X c #3BC4AC",
"$X c #33C9AD",
"%X c #4AC19C",
"&X c #4AC6AA",
"*X c #57C7A6",
"=X c #45CAB4",
"-X c #48D7B9",
";X c #57D6BB",
":X c #65CDB5",
">X c #66D3B7",
",X c #75D5BA",
"<X c #71C7B1",
"1X c #54E6BB",
"2X c #61E8BF",
"3X c #3FE4C4",
"4X c #4BDDC4",
"5X c #45DDC2",
"6X c #53DCC4",
"7X c #58DAC7",
"8X c #68D8C0",
"9X c #7BD7C6",
"0X c #4CE5CB",
"qX c #49E5C7",
"wX c #5BE2CA",
"eX c #55E4C9",
"rX c #5EEBD3",
"tX c #61E2C8",
"yX c #6AEDD2",
"uX c #77E9D7",
"iX c #73F4DE",
"pX c #72E1CD",
"aX c #79F3E3",
"sX c #858386",
"dX c #8A9498",
"fX c #888E99",
"gX c #8B9BA1",
"hX c #93A7AE",
"jX c #A5B3B9",
"kX c #A2ABB3",
"lX c #8EC5B5",
"zX c #B0BAC3",
"xX c #87DCC5",
"cX c #8AEFDB",
"vX c #85FAEA",
"bX c #9BF2E1",
"nX c None",
/* pixels */
"nXnXt.+.H H J E <.1.s.nXnXnXnXnXnXnXnXnXnXnXnXnXnXnXnXnXnXnXnXnXnXnXnXnXnXnXnXnX",
"o.1 . < = & 6 @ 7 2 9 ; 1 nXnXnXnXnXnXnXnXnXnXnXnXnXnXnXnXnXnXnXnXnXnXnXnXnXnXnX",
"nXn ; ; ^ 0.K.l.j.} _ q , y.nXnXnXnXnXnXnXnXnXnXnXnXnXnXnXnXnXnXnXnXnXnXnXnXnXnX",
"nXnX+.& I v.oX;X7X8XN.y u a A S Z R o.%.>.s.nXnXnXnXnXnXnXnXnXnXnXnXnXnXnXnXnXnX",
"nXnXnXz @ } |.#X7XwXB.x y g i i i i 5 & & & * & b G :.nXnXnXnXnXnXnXnXnXnXnXnXnX",
"nXnX@.@ g N.oX=X4X7X7XoX+XOX+X+X X{.K.P.0...) I p y @ @ a Y nXnXnXnXnXnXnXnXnXnX",
"nXy.# h } S.=XeX0X0X6X0X7X6X7XrXwXyXiXuXuXpX8X:XOX.X0._ j @ s f >.nXnXnXnXnXnXnX",
"nXf.& I K.[.=X6X0X0X0X0X0X5X0XqXqX0X0XyXaXvXiXtX>XK..XxX@XL._ y 5 a d.nXnXnXnXnX",
"nXnXm 6 I k.|.oX0X0X0X0X0X4X$X$X5X4X7XaXvXvXuXpXOXi g P.xXbXcX+X' 7 6 :.nXnXnXnX",
"nXnXnXM u g } A.Z.#X4X4X0X4X4X=XF.H.=X7XuXaXaXpXP.i @ I lXcXcXuX:XK.j ; sXnXnXnX",
"nXnXnXnXo.u p ' V.H.Z.J.3XqX0X4X4XH.Z.H.7X7XrX7XW $ q y .XpXyXyXyX>Xx.% / nXnXnX",
"nXnXnXnXnXu.* y ! V.Z.J.$X3X0X0X4X4XH.Z.H.H.4XZ.@ Z *.O ! 8X7XwXtX8Xx.u H nXnXnX",
"nXnXnXnXnXnXnXw q ..].F.$X3X3X3X4X7X;XZ.Z.oX6Xj.7 O.dXh i [.7X;X8Xj.g q 1.nXnXnX",
"nXnXnXnXnXnXnXp.q Q B.F.$X3X4X=X=X=XOX|.A.A.+XN.7 n lX] 5 P &XeX&XP % @ s o.nXnX",
"nXnXnXnXnXnXnXN $ Q S.=XqX=XoX[.j.} ] X.0..Xv.I @ Y lX_ % y B.tXtXC.~ I k % 6 nX",
"nXnXnXnXnX3.< % W V.&X;X|.[...P y % % q i x c 7 U v.xX{ O T P.[.A.oX<X@XXX[ 7 ( ",
"nXnXnXnX&.: p _ K.oX;XoXN.Q y % r B Z z d @ & u } *X2X*Xh w a y y g _ XX,X.X7 n ",
"nXnXnX*.+ d | {.A.&XoXV.I 6 & G 4.5.8.w.a.( = S }.;XwX>X^ : e N D w O P *XK.p m ",
"nXnXsX6 h x.[.A.D.oXK.~ q a ( 8.r.m.n.Q.'.8.* a 0.}.:XXXT : 5.dXkXdXT O _ 0.; +.",
"nXnX@.% [ P.|.Z.D.B.! % w $.g.q.w.U._.Y.Y.Y.( $ u I ~ g $ Z a.~.dXjXfXr f A = p.",
"nXnX;.u _ P.A.D.[.} h w R 8.q.r.I.W.^.U.U.U.w.R r $ q p T 8.W.Q.Q.`.zX` w 2 4 nX",
"nXnXs.% i ! A.{.[.P @ F 7.5.q.I.W.W.~.(._.U.`.I.q.4.4.4.m.Q.Q.U.Y.Q.jXgX> 4 L nX",
"nXnXm % y X.{..Xk.i % -.-.*.q.!.W.(.~.M.^.I.!.!.M.).).^.^.Q.Q.Q.Q.Q.gXzXV > d.nX",
"nXs @ T  .[.{.{._ @ A g.( T M.~.).M.~.).!.(.!.^.M.).W.W.(.Q.!.Q.Q.M.(.zXE o nXnX",
"3.# I L..XA.Z.[.W @ C C -.8.).~.~.!.Q.(.!.Y.Q.Q.(.(.W.(.W.(.W.(.^.Q.(.jXy.o b.nX",
"<.; ` v. X|.Z.B.c & f f -.w.T./.~.R.I.Y.R.^._.Q.Q.Q.(.(.W.(.(.M.!.^.U.jXp.> i.nX",
"nX9 7 ..K.[.S.l.u t / / 7.n.!.^.T.n.m.m.Y.T.T./.(.W.W.(.!.!.(.(./.^.R.jXM.: 7.nX",
"nXy.# 5 Q | .Xx.r t 5.$.*.a._.e.A z d d l G $.i.W.(.(.Q.!.!.M.M.n.a.a.gXsX3 3.nX",
"nXnXd.s * u h ^ w > ,.5.*.Y.e.A q 5 6 6 9 6 = s -.Q.Q.U.!.T.*.Z 8 6 f @.6.t y.nX",
"nXnXnXnX>.D + * o t &.q.q.R.` @ % h Y ) ) Y C O z e.U.U.U.4., O 6 j @ , N o y.nX",
"nXnXnXnXnXnXG # e e @.9.8.i.B & k ) { h.j.l. .c % 4.R.`.T.S O c _ [ ^ % = = sXnX",
"nXnXnXnXnXnX< v b : T 8.8.9.4 9 U ] z.l.G.G.K.Q @ ( T.E.a.f a ) k.v.x.y , < nXnX",
"nXnXnXnXnXs.  m L > B 9.8.=., e ) h.B.%X1X1X*X] @ R E.E.w.u u ..].*XXXj # 8 nXnX",
"nXnXnXnXnXnXv > 3 o , =.8.-.b * I h.].%X3X1X:X] O $.E.E.m.d & [  X*Xv.7 & m nXnX",
"nXnXnXnXnXnXnXy.V 4 - n O.9.N & k ] l.|.%X%Xl.i & 9.R.R.W.^ $ T v.v.) 7 ; ,.nXnX",
"nXnXnXnXnXnXnXnXnXnXm = , z n , # U I { z.{ P 6 ( T.R.R.M.r.r q k 7 7 9 = nXnXnX",
"nXnXnXnXnXnXnXnXnXnXnXt.s , , = = & @ 7 % * q z q.!.Q.!.^.T.$.r # ; - 1 =.nXnXnX",
"nXnXnXnXnXnXnXnXnXnXnXnXnXnXt.F 4 = v B m T / 4.^.U.(.W.~.fXm.T X 1 4 t.nXnXnXnX",
"nXnXnXnXnXnXnXnXnXnXnXnXnXnXnXnX>.< s 7.E.a.7.8.Y.Y.E.a.m.sXM.N 1 y.nXnXnXnXnXnX",
"nXnXnXnXnXnXnXnXnXnXnXnXnXnXnXnXm + < @.i.:.*.9.q.`.a.-.$.m.5.> L nXnXnXnXnXnXnX",
"nXnXnXnXnXnXnXnXnXnXnXnXnXnXt.1 # + - V R e w F >.a.( 8 ; K m ; s.nXnXnXnXnXnXnX",
"nXnXnXnXnXnXnXnXnXnXnXnXnX=.O k [ I : o e e : = f n 6 6 < 1 ; 8 nXnXnXnXnXnXnXnX",
"nXnXnXnXnXnXnXnXnXnXnXnX9.7 U v.,Xk.q > e F R f 9 # # . M 4 X 8 nXnXnXnXnXnXnXnX",
"nXnXnXnXnXnXnXnXnXnXnXf.# l ].,X:X' @ B F &.,.@.v 9 8 8 4 X . X <.nXnXnXnXnXnXnX",
"nXnXnXnXnXnXnXnXnXnXsXb O ^ XX,XK.i & R $.&.1.t.#.M 1 J L X X . = - v d.nXnXnXnX",
"nXnXnXnXnXnXnXnXnX=.= = 8 7 P L.^ @ C / =.;.5.6.,.v . L #.X X 0 1 v 1 ; f.nXnXnX",
"nXnXnXnXnXnXnXnXu.& z F F f @ d + w / @.,.t.:./ b < M L #.X 0 <.m H J 1 8 nXnXnX",
"nXnXnXnXnXnXnXnXs ; O.t.1.%.t = > J R B D $./ , & - V L 2.4 1 o.J - s ; ; nXnXnX",
"nXnXnXnXnXnXnXd.- D >.1.%.1.M 1 e R b : < s e & ; 8 m D ,.< K 8 1 - v K >.nXnXnX",
"nXnXnXnXnXnXnX>.; D Y K v v t + N m 9 + u & 5 *.f 9 F 1 K 1 M K 4 = nXnXnXnXnXnX",
"nXnXnXnXnXnXnX3.= M = - = . < - M e * r.[ j [ @Xl & Y 1 4 m . v = @.nXnXnXnXnXnX",
"nXnXnXnXnXnXnXnX= = 1 ; D L = v e , ( '.XXv.c.r.d = L 3 L nX,.0 J nXnXnXnXnXnXnX",
"nXnXnXnXnXnXnXnXnXnXnXd.nXm < < & u r.c.c.c.Y 7 + < J o ,.nXnXnXnXnXnXnXnXnXnXnX",
"nXnXnXnXnXnXnXnXnXnXnXnXt.  8 8 & A A d Y n 2 8 8 - M o sXnXnXnXnXnXnXnXnXnXnXnX",
"nXnXnXnXnXnXnXnXnXnXnXnX= 1 m 1 , 9 = + =   +.nXV - 1 4 nXnXnXnXnXnXnXnXnXnXnXnX",
"nXnXnXnXnXnXnXnXnXnXnXv 1 m v = = < 4 > - ,.nXnX+.= = @.nXnXnXnXnXnXnXnXnXnXnXnX",
"nXnXnXnXnXnXnXnXnXnXD = m v < = 4 sXnX4 ;.nXnXnXt.; 0 nXnXnXnXnXnXnXnXnXnXnXnXnX",
"nXnXnXnXnXnXnXnXnXR 1 1 1 < = +.nXnXnXnXnXnXnXnXnXM sXnXnXnXnXnXnXnXnXnXnXnXnXnX",
"nXnXnXnXnXnXnXnXnX= 1 1 = J nXnXnXnXnXnXnXnXnXnXnXnXnXnXnXnXnXnXnXnXnXnXnXnXnXnX",
"nXnXnXnXnXnXnXnXnX< v @.nXnXnXnXnXnXnXnXnXnXnXnXnXnXnXnXnXnXnXnXnXnXnXnXnXnXnXnX"
};
