/* XPM */
static char *result[] = {
/* columns rows colors chars-per-pixel */
"41 60 238 2 ",
"   c #0C0E0D",
".  c #080A0C",
"X  c #0A130E",
"o  c #021514",
"O  c #0D1515",
"+  c #021A16",
"@  c #0B1B15",
"#  c #05161A",
"$  c #0C1619",
"%  c #031C1B",
"&  c #0C1C1B",
"*  c #131414",
"=  c #1A1415",
"-  c #141A14",
";  c #14141A",
":  c #1B151A",
">  c #141B1C",
",  c #1B1B1B",
"<  c #1A1A17",
"1  c #120E12",
"2  c #221B1C",
"3  c #22161A",
"4  c #04231D",
"5  c #0B211D",
"6  c #002B1E",
"7  c #17211D",
"8  c #29221E",
"9  c #031E20",
"0  c #0B1D21",
"q  c #151C21",
"w  c #1B1C22",
"e  c #1A1923",
"r  c #221D22",
"t  c #2A1F23",
"y  c #032423",
"u  c #0C2424",
"i  c #022B23",
"p  c #0B2A25",
"a  c #032D2B",
"s  c #0B2629",
"d  c #142222",
"f  c #1C2323",
"g  c #1A2B25",
"h  c #15242A",
"j  c #182A29",
"k  c #01332B",
"l  c #0C342B",
"z  c #083328",
"x  c #14352E",
"c  c #182D31",
"v  c #053D35",
"b  c #183735",
"n  c #242324",
"m  c #23242A",
"M  c #232B2D",
"N  c #2A2B2C",
"B  c #292727",
"V  c #312D2C",
"C  c #36312E",
"Z  c #2B2C32",
"A  c #252B33",
"S  c #362D36",
"D  c #2D3334",
"F  c #2C343B",
"G  c #2E3B3B",
"H  c #263837",
"J  c #333333",
"K  c #3D3D3D",
"L  c #353737",
"P  c #27352F",
"I  c #433C3C",
"U  c #08463D",
"Y  c #1A433B",
"T  c #16463B",
"R  c #2C423D",
"E  c #40443E",
"W  c #3B3C42",
"Q  c #333D44",
"!  c #2D3B41",
"~  c #453C41",
"^  c #0A4844",
"/  c #184A43",
"(  c #13554B",
")  c #244943",
"_  c #354B4B",
"`  c #394447",
"'  c #27574B",
"]  c #245953",
"[  c #3C5654",
"{  c #384E4F",
"}  c #176C56",
"|  c #2D6155",
" . c #286759",
".. c #36685E",
"X. c #26755D",
"o. c #2A6D57",
"O. c #296D63",
"+. c #356B62",
"@. c #257465",
"#. c #38776B",
"$. c #3C7B71",
"%. c #444B4C",
"&. c #474748",
"*. c #444B52",
"=. c #484B52",
"-. c #4C5256",
";. c #4A5659",
":. c #535354",
">. c #5B5B5C",
",. c #585758",
"<. c #514E4E",
"1. c #625A5B",
"2. c #4C5C60",
"3. c #495C66",
"4. c #525C64",
"5. c #575E64",
"6. c #486C69",
"7. c #536364",
"8. c #53646A",
"9. c #546B6C",
"0. c #5C6769",
"q. c #5B6C73",
"w. c #586C76",
"e. c #467973",
"r. c #5B7478",
"t. c #4D736D",
"y. c #646564",
"u. c #6C6B6A",
"i. c #67696A",
"p. c #656C73",
"a. c #65727B",
"s. c #68767B",
"d. c #7C7C7C",
"f. c #777578",
"g. c #716D6E",
"h. c #27876C",
"j. c #298873",
"k. c #348577",
"l. c #39967C",
"z. c #339072",
"x. c #47887B",
"c. c #57857B",
"v. c #48947D",
"b. c #43826F",
"n. c #76807B",
"m. c #677C84",
"M. c #767C84",
"N. c #399988",
"B. c #338F80",
"V. c #3AA58B",
"C. c #2BAC97",
"Z. c #3CAB95",
"A. c #38AB96",
"S. c #2CB399",
"D. c #38B399",
"F. c #36B48F",
"G. c #2EBAA4",
"H. c #34B4A2",
"J. c #479688",
"K. c #579689",
"L. c #498C83",
"P. c #6C848B",
"I. c #6C8B8E",
"U. c #678487",
"Y. c #73838D",
"T. c #728A8E",
"R. c #798389",
"E. c #6D8591",
"W. c #6D8A93",
"Q. c #6A8D98",
"!. c #738592",
"~. c #798693",
"^. c #748A94",
"/. c #7A8A95",
"(. c #798D9A",
"). c #738C99",
"_. c #799298",
"`. c #60988A",
"'. c #43A493",
"]. c #47AA99",
"[. c #56A896",
"{. c #43B598",
"}. c #55B39C",
"|. c #4AA68B",
" X c #67A597",
".X c #6FAD9B",
"XX c #48B9A6",
"oX c #59B7A4",
"OX c #4BADA0",
"+X c #68B7A4",
"@X c #78AAA1",
"#X c #3BC4AB",
"$X c #3ECFB7",
"%X c #46C3AB",
"&X c #57C3AC",
"*X c #47CAB5",
"=X c #44D3BB",
"-X c #48D6BA",
";X c #58D8B8",
":X c #54CDB6",
">X c #63CBAB",
",X c #65C6B6",
"<X c #76C8B6",
"1X c #68D7B9",
"2X c #78D2BC",
"3X c #5FE7BF",
"4X c #59D3AD",
"5X c #3EE5C6",
"6X c #49DEC4",
"7X c #55DBC4",
"8X c #69D9C4",
"9X c #76DBC5",
"0X c #45E5CA",
"qX c #4DE4CB",
"wX c #47E7CA",
"eX c #52E4CA",
"rX c #58E4C6",
"tX c #56EAD2",
"yX c #67E7CB",
"uX c #69F2D4",
"iX c #73F2D8",
"pX c #6CE7D5",
"aX c #7BFBE5",
"sX c #848486",
"dX c #87939B",
"fX c #8B8B91",
"gX c #8E9DA4",
"hX c #99A5AB",
"jX c #85BFB1",
"kX c #A8B3BA",
"lX c #A4A6AE",
"zX c #8FC9BB",
"xX c #B1BBC4",
"cX c #86E8D6",
"vX c #86FBE7",
"bX c #95F8E4",
"nX c #8ADBC8",
"mX c None",
/* pixels */
"mXmXmXy.,.;.%.:.,.g.f.mXmXmXmXmXmXmXmXmXmXmXmXmXmXmXmXmXmXmXmXmXmXmXmXmXmXmXmXmXmX",
"R * - , & + p + 4 o $ 7 - g.mXmXmXmXmXmXmXmXmXmXmXmXmXmXmXmXmXmXmXmXmXmXmXmXmXmXmX",
"g.8 , O H +.k.j.j.@.] 0 * &.mXmXmXmXmXmXmXmXmXmXmXmXmXmXmXmXmXmXmXmXmXmXmXmXmXmXmX",
"mXmXK 7 b K.oX;X-X8X[.a u > P P D G L Q ` ;.g.mXmXmXmXmXmXmXmXmXmXmXmXmXmXmXmXmXmX",
"mXmXmXf s #.].XXeX7XOXU a a a a k i i i i y 0 $ @ 7 L &.mXmXmXmXmXmXmXmXmXmXmXmXmX",
"mXmX>.d i #.OXXXqXqX7XXXOXoXoX}.+XoX[.].J.L.6.+.T x 6 4 O > K q.mXmXmXmXmXmXmXmXmX",
"mXd.5 p O.'.*XtXtX0XwXtX7X7XeX7X7XyXuXiXcXcX9X1X1X>X[.c.| U i + q =.mXmXmXmXmXmXmX",
"mXu.& b L.'.*X6XwXwX5X5X5X5X6X6X7XeXeXrXpXvXaXuX3XF.X. XnX<X[.+.x % & mXmXmXmXmXmX",
"mXmXB + T J.V.#X=XtX0X0XqX6X6XH.G.6X7XtXaXvXaXyX1X} # c +XcXbXcXoXX.z - mXmXmXmXmX",
"mXmXmXM % a @.Z.H.G.$X6XqX6X7X6X*XG.G.6XpXpXuXiX:X^ 9 o #.cXvXpXyX:XL.x * mXmXmXmX",
"mXmXmXmX&.q s ] N.Z.S.S.6X7X6XqX6X*XG.C.*X7XeXrXk.4 c 9 k +X8XuXuXuX9X+.+ mXmXmXmX",
"mXmXmXmXmXu.e & / J.Z.S.G.6XqX0XqXqX=XC.H.H.-X-X^ 9 6./ y b.8X-XeX8XXX^ u mXmXmXmX",
"mXmXmXmXmXmXmXD 0 ( '.Z.S.6X0X5X6XqX6XG.A.C.#X&XY > I.c.9 b OXyX7XXX^ 9 e i.mXmXmX",
"mXmXmXmXmXmXmXmXq s l.C.#XqX6X6X6XXXXXOXV.'.].[.) + #.zXh 9 ^ %X8XA.v 9 # O mXmXmX",
"mXmXmXmXmXmXmXE + T V.XX6X-XH.OX$.O.] ] ..e.x.o.4 4 J.+Xl % ( ,X8X8XXX@.@.] j mXmX",
"mXmXmXmXmXmXM + l k.{.;XXXZ.k.^ a # 9 9 # u c 4 4  .>X1X/ % / $.O.@.B.>X9X<X..mXmX",
"mXmXmXmXmX0 u / L.].:X%X'. .i % 9 c F F F m ; # ( '.;XyXK.6 5 % + + 4 U v.2Xv.mXmX",
"mXmXmXf.@ y | K.].].:X'.] y & c 3.3.a.a.f.p.! e O.}.1X1X+Xl & L -.0.D o k  Xb.mXmX",
"mXmXmXg p ..J.Z.C.A.OXO.9 % ` 2.9.w.U.I._.R.` # z $.[.[.e.+ A R.hXkXlX` 4 ) _ @ mX",
"mXmXg.O / K.].A.A.Z.#.a % Q 4.w.t.U.U.I.W.!.a.H u y a a 9 0 *.Y.P.dXkXgX7 & f , mX",
"mXmXM.; ! L.OXA.A.N.b + ! 4.w.8.m._.W.I.I.I._.w.! q 0 s c 3.M./.Y.!.dXxX-.r 1 B mX",
"mXmXmXq a ^ N.A.Z.X.9 f 3.8.4.m.I.I.^.^.I.W.W.!.M.a.m.r.m.(.!.!.(.E.^.hXdXw ; >.mX",
"mXmX<.# 9 ^ N.].J.U # W 4.Q w.m.).E.!.!.).W.U.).).(.!.!.!.E.E.(.E.E.).gXkXF - mXmX",
"mX&.$ j O.N.H.V.x.i d %.3.c m.M.E.(.!.!.).W.Q.W.Q.).!.(.(.).).E.).).W.(.kX=.> mXmX",
"mX< g e.'.D.C.Z.O.p g M ` 8.m.(.~./.!.^.^.P.W.W.m.(.).M.(.M.).).Q.Q.E./.kXy.; g.mX",
"mXX G `.'.A.S.V.| o j d ` p.E.M.R.~.Y.^.^.^.^.W.).).(.M.).(.m.Q.W.W.!.M.lXM.: i.mX",
"mXP 7 Y K.'.].|.' X G { *.q.!.(.~.a.w.9.q.a.M.~.(.M.(.~.).).).(.(.~.fXfXlXsX1 1.mX",
"mXmXg % v #.x.K._ ; R 7.` 8.P.R.{ h 0 0 0 f A ! 3.m.!.).Q.).m.m.4.*.{ -.M.d.: ,.mX",
"mXmXmXJ > + x H A w F 8.{ r.U.;.q o 4 p p g 4 % u 2.T.T.E.I.w.! 7 @ X + G %.< 1.mX",
"mXmXmXmXn.K 7 ; ; ; F 9.t.r.s.j $ j ) ] o.#.] Y + b s.T.Q.I.! # @ Y T 6 o , * y.mX",
"mXmXmXmXmXmXu.> w ; r 2.t.9.,.> + T | X.z.l.l.#.x # 5.R._.m.e q T h.z.o.7 : = f.mX",
"mXmXmXmXmXmXE * F e e 3.9.9.` - p ' X.z.F.D.D.|.b $ ;.R.I.w.w 0 o.l.|.v.d * = mXmX",
"mXmXmXmXmXmXr < R w 0 ` 7.7.` O g | z.F.-XrX3X>XR , [ ^.T.r.w 5 h.%X>X.Xz o 8 mXmX",
"mXmXmXmXmXmXu.> O > $ M q.p.&.> 6 R z.F.%X-X4X{.Y   7.W.).m.j u } l.+Xb.4 5 D mXmX",
"mXmXmXmXmXmXmXmX,.P < * D %.-.g @ Y o.z.|.&X}.o.# c m.W.!.!.` o U R | x - O y.mXmX",
"mXmXmXmXmXmXmXmXmXmXd.: : r N f - X l T ' T T 6 % 2.^.W.!./.m.A X g - X < t mXmXmX",
"mXmXmXmXmXmXmXmXmXmXmXmX1.r ; : 3 =   - @ + 5 5 _ n.I.^.!.!.^.0.P   3 = t f.mXmXmX",
"mXmXmXmXmXmXmXmXmXmXmXmXmXmXmXg.E 8 < 8 W -.-.;.9.I.W.^.E.E.~.M.K = 3 ,.mXmXmXmXmX",
"mXmXmXmXmXmXmXmXmXmXmXmXmXmXmXmXmX>.@ B p.R.0.9.6.c._.P.r.r.!.m.7 7 mXmXmXmXmXmXmX",
"mXmXmXmXmXmXmXmXmXmXmXmXmXmXmXmXmXg @ 7 { 7.=.Q 2.r.R.q.{ b 0.=.* &.mXmXmXmXmXmXmX",
"mXmXmXmXmXmXmXmXmXmXmXmXmXmXmXR + 4 - : B m e ; M -.,.V & O f 8 - R.mXmXmXmXmXmXmX",
"mXmXmXmXmXmXmXmXmXmXmXmXmXmXg + T 6.Q * : e r e ; : r 3 O g   = 7 mXmXmXmXmXmXmXmX",
"mXmXmXmXmXmXmXmXmXmXmXmXmX5 d | oX9X6.& : A W *.Z e 3 2   P 8 8 = mXmXmXmXmXmXmXmX",
"mXmXmXmXmXmXmXmXmXmXmXmXg 5 [ jX9XoXT # Z W *.4.4.W 2 C - 7 < = 3 V <.d.mXmXmXmXmX",
"mXmXmXmXmXmXmXmXmXmX,.: O 5 _ @X<XO.9 q ~ =.*.4.4.-.3 3 C R - 7 * = < < , g.mXmXmX",
"mXmXmXmXmXmXmXmXmXC . w N d % ' e.a # A =.-.-.4.5.>.C = 8 ,.< X < 2 V V B   mXmXmX",
"mXmXmXmXmXmXmXmX~ = S ,.,.` j o q . m &.&.:.0.4.*.N t 2 8 1.< < E L V &.B = R mXmX",
"mXmXmXmXmXmXmXmX: B :.5.7.7.G > ; w J W N ! -.` e : = I V 1.3 = I &.= < = = :.mXmX",
"mXmXmXmXmXmXmXu.* K :.K W %.J ; ; f W m ; ; A ; q ; ; L n 1.2 3 2 n * 7 1.f.mXmXmX",
"mXmXmXmXmXmXmXy., w < < * < < < ; D M O w & & u *.j d G f C 2 = < 7 * ,.mXmXmXmXmX",
"mXmXmXmXmXmXmXfX- ,   n V 1 , = 3 B e u 6.| i ] @Xx & G , < <.B 3 * , mXmXmXmXmXmX",
"mXmXmXmXmXmXmXmXg.>.u., n %.L = 3 t . [ .X`.v.`.c.l 5 K 7 C mXmX,.:.d.mXmXmXmXmXmX",
"mXmXmXmXmXmXmXmXmXmXmXmXmXd.n - B , g t.r.K.c.Y $ > > V 2 R mXmXmXmXmXmXmXmXmXmXmX",
"mXmXmXmXmXmXmXmXmXmXmXmXmXJ * B < X R R 6 R j 5 r : : t 3 u.mXmXmXmXmXmXmXmXmXmXmX",
"mXmXmXmXmXmXmXmXmXmXmXmX,., 2 n 7 - $ - ; - - %.mXI 3 3 = mXmXmXmXmXmXmXmXmXmXmXmX",
"mXmXmXmXmXmXmXmXmXmXmXf.- < J 7 - * n 7 ; : 1.mXmXI 3 = I mXmXmXmXmXmXmXmXmXmXmXmX",
"mXmXmXmXmXmXmXmXmXmXsX2 = N B * X J mXfX2 1.mXmXmXy.> - mXmXmXmXmXmXmXmXmXmXmXmXmX",
"mXmXmXmXmXmXmXmXmXmXn * ,   < n u.mXmXmXmXmXmXmXmXmX7 n.mXmXmXmXmXmXmXmXmXmXmXmXmX",
"mXmXmXmXmXmXmXmXmXB * * = B y.mXmXmXmXmXmXmXmXmXmXmXmXmXmXmXmXmXmXmXmXmXmXmXmXmXmX",
"mXmXmXmXmXmXmXmXmXR J :.fXmXmXmXmXmXmXmXmXmXmXmXmXmXmXmXmXmXmXmXmXmXmXmXmXmXmXmXmX"
};
