/* XPM */
static char *result[] = {
/* columns rows colors chars-per-pixel */
"40 60 234 2 ",
"   c #150C0D",
".  c #0C120E",
"X  c #03100D",
"o  c #17120E",
"O  c #130E13",
"+  c #021614",
"@  c #0B1514",
"#  c #021B15",
"$  c #0C1B16",
"%  c #0C1619",
"&  c #031C1A",
"*  c #0C1B1B",
"=  c #03171A",
"-  c #141415",
";  c #1B1416",
":  c #141816",
">  c #1B1A16",
",  c #14151B",
"<  c #1B151A",
"1  c #131B1C",
"2  c #1C1B1B",
"3  c #0B0D10",
"4  c #221C1E",
"5  c #231417",
"6  c #02221C",
"7  c #0C221D",
"8  c #002519",
"9  c #14211D",
"0  c #1B211E",
"q  c #22231F",
"w  c #051E22",
"e  c #0C1E22",
"r  c #131C22",
"t  c #1C1D23",
"y  c #231D24",
"u  c #032322",
"i  c #0C2423",
"p  c #022C23",
"a  c #0B2A24",
"s  c #022D2A",
"d  c #0D2B2B",
"f  c #142423",
"g  c #1C2425",
"h  c #1C262A",
"j  c #1A2B2B",
"k  c #152A28",
"l  c #01342D",
"z  c #063327",
"x  c #12312C",
"c  c #1C2B32",
"v  c #053B36",
"b  c #143A33",
"n  c #0A2F35",
"m  c #232323",
"M  c #24252A",
"N  c #252B2B",
"B  c #2B2C2C",
"V  c #2B2625",
"C  c #32292B",
"Z  c #2B2D33",
"A  c #312B32",
"S  c #233334",
"D  c #2C3334",
"F  c #283A3A",
"G  c #333333",
"H  c #3B3C3B",
"J  c #393639",
"K  c #2C322E",
"L  c #453A3C",
"P  c #084537",
"I  c #18453B",
"U  c #22433C",
"Y  c #45403D",
"T  c #3C3D42",
"R  c #343841",
"E  c #2A3B42",
"W  c #443944",
"Q  c #1A4B44",
"!  c #1D594D",
"~  c #185343",
"^  c #11544B",
"/  c #2A4745",
"(  c #33444B",
")  c #3D454C",
"_  c #394445",
"`  c #24564A",
"'  c #394D51",
"]  c #275E54",
"[  c #365E57",
"{  c #30564B",
"}  c #186653",
"|  c #296557",
" . c #346759",
".. c #34735E",
"X. c #2D765F",
"o. c #1F7366",
"O. c #2B7768",
"+. c #397868",
"@. c #37726B",
"#. c #444243",
"$. c #43444A",
"%. c #434C4C",
"&. c #4C4A4C",
"*. c #4A464A",
"=. c #4C514B",
"-. c #434D53",
";. c #4C4C51",
":. c #484A54",
">. c #524A52",
",. c #4C5556",
"<. c #4B5659",
"1. c #525554",
"2. c #5B5A5C",
"3. c #56575A",
"4. c #51474E",
"5. c #60635C",
"6. c #4B5C62",
"7. c #525D64",
"8. c #595B66",
"9. c #655E67",
"0. c #496563",
"q. c #546163",
"w. c #5B6365",
"e. c #5B656A",
"r. c #56686B",
"t. c #596A72",
"y. c #5E7277",
"u. c #437A6E",
"i. c #656266",
"p. c #6A6769",
"a. c #646C74",
"s. c #736C72",
"d. c #65767B",
"f. c #757574",
"g. c #746C6C",
"h. c #36896F",
"j. c #2D8578",
"k. c #378776",
"l. c #38977D",
"z. c #2E9175",
"x. c #468376",
"c. c #4D8B77",
"v. c #76807D",
"b. c #6C7D84",
"n. c #667883",
"m. c #777D87",
"M. c #747F91",
"N. c #399987",
"B. c #349082",
"V. c #38A78C",
"C. c #28AE98",
"Z. c #3CA493",
"A. c #3AAC97",
"S. c #2DB39A",
"D. c #38B697",
"F. c #3EB18A",
"G. c #36BBA6",
"H. c #2DBDA3",
"J. c #479687",
"K. c #559888",
"L. c #529388",
"P. c #6D848D",
"I. c #6C8A8E",
"U. c #658284",
"Y. c #73848C",
"T. c #72898E",
"R. c #78808B",
"E. c #6D8592",
"W. c #6D8B92",
"Q. c #678D90",
"!. c #748694",
"~. c #7A8595",
"^. c #748B94",
"/. c #7A8B95",
"(. c #738C99",
"). c #7A8C9A",
"_. c #6F9593",
"`. c #739093",
"'. c #779499",
"]. c #49A08A",
"[. c #42AC9A",
"{. c #47A796",
"}. c #55A896",
"|. c #48B19A",
" X c #57B699",
".X c #57AA8E",
"XX c #6CA899",
"oX c #48BBA6",
"OX c #55B9A9",
"+X c #64B7A2",
"@X c #7CBCAE",
"#X c #32C7AB",
"$X c #48C49F",
"%X c #48C4A9",
"&X c #4ACAB6",
"*X c #53C9B4",
"=X c #48D4BA",
"-X c #57D2B0",
";X c #66C6AA",
":X c #68D7BC",
">X c #73D8B9",
",X c #70C7B2",
"<X c #56E7B9",
"1X c #6DE1BD",
"2X c #49DBC3",
"3X c #55DDC6",
"4X c #5ADAC4",
"5X c #55DBC9",
"6X c #67DEC9",
"7X c #76DAC9",
"8X c #4CE4C4",
"9X c #4AE3CB",
"0X c #45E7C8",
"qX c #58E3C8",
"wX c #53E8D1",
"eX c #4EE7D2",
"rX c #67E5C8",
"tX c #64ECD3",
"yX c #75E9D6",
"uX c #75F3DB",
"iX c #78F3E3",
"pX c #828483",
"aX c #888787",
"sX c #879299",
"dX c #849DA2",
"fX c #92A5A9",
"gX c #A7B5BB",
"hX c #A0ABAF",
"jX c #8CC8B7",
"kX c #8AD6C9",
"lX c #86EAD8",
"zX c #88F7E7",
"xX c #9EF0E2",
"cX c None",
/* pixels */
"cXcXcXG B G B J T 3.p.cXcXcXcXcXcXcXcXcXcXcXcXcXcXcXcXcXcXcXcXcXcXcXcXcXcXcXcXcX",
"cX; - g 1 * 6 6 8 # 7 : : cXcXcXcXcXcXcXcXcXcXcXcXcXcXcXcXcXcXcXcXcXcXcXcXcXcXcX",
"cXG : @ / x.J.V.B.j.! u @ s.cXcXcXcXcXcXcXcXcXcXcXcXcXcXcXcXcXcXcXcXcXcXcXcXcXcX",
"cXcX2.* P J.|.qX<X6Xk.s u j S S S F _ %.3.f.cXcXcXcXcXcXcXcXcXcXcXcXcXcXcXcXcXcX",
"cXcXcXf 6 +.[.G.3X4XN.v s v l l l z p u 6 * * r m T i.cXcXcXcXcXcXcXcXcXcXcXcXcX",
"cXcXD + v J.oX=X3X5X6XoXOXOXOXOXOX|.].c.u.@.{ b z a # + h %.cXcXcXcXcXcXcXcXcXcX",
"cX2.@ I k.{.*XwXeX9X5X9X5X2X2XwXqXtXuXuXyX7X7X:XOX].h.! s i i h p.cXcXcXcXcXcXcX",
"cXp.* I J.Z.*X5X9XeX9X9X9X9X0X0X8XqX8XtXuXzXuX<X-XN.{.jX@Xc.Q s * N aXcXcXcXcXcX",
"cXcXB & I k.Z.oX2X2XeXeX2X0X#XG.2X2XeXiXzXzXyXrX}.z l K.kXxXkX}.! 6 + s.cXcXcXcX",
"cXcXcXG & n O.Z.S.G.=X2XeX2X2X2XC.G.oX5XiXiXiX7Xk.s & Q kXzXzXyX-Xx.d 1 cXcXcXcX",
"cXcXcXcX3.% u | N.A.C.H.0X0X9X2X5XG.C.G.5X5XtX*Xv w e u }.7XyXtXrX:X+.* ;.cXcXcX",
"cXcXcXcXcXm.r = ] N.Z.H.#X0X0X0X2X2XG.C.G.oX8XB.= ( %.+ | 7XqXwXqX:Xu.i &.cXcXcX",
"cXcXcXcXcXcXcXS w @.Z.S.#X0X2X9X9X8X#XS.S.oX*Xo.u ,.sX7 n {.-XqX6Xo.d : s.cXcXcX",
"cXcXcXcXcXcXcX1.w ^ {.S.=X8X5X2X%XoXoX|.N.{.oX@.8 F jX` & ^ *X5XD.P & = t &.cXcX",
"cXcXcXcXcXcXg.2 w | oX=X=XoXA.B.O.| ! | @.L.x.P # | jX~ u n [.qX6XB.^ I x * j cX",
"cXcXcXcXcXU - i ] {.%X*XD.N.| n = + & u 6 d x # P .X>X} + E L.N.N.|.,X,XXX] # r.",
"cXcXcXcXN * P O.].OX*XG.k.b = w c S E F g * * z k.-X<X}.a 1 k i u z ] +X>Xc.& _ ",
"cXcXcXS 7 b N.A.Z.OXOXO.s & h ) 8.t.n.n.d._ % /  X:XrX,X/ % y N H 1 + Q OXl.6 &.",
"cXcX3.$ I L.Z.V.A.|.j.n w S <.r.r.n.P.P.`.0.= d +. X+XL.d 1 t.fXhXsXF & .. .$ 9.",
"cXcXJ * u.}.A.A.Z.N.I w S 6.0.r.n.E.`.I.I.b./ & u v v n = / U.T.fXgXm.r f K > cX",
"cXcX$.* ! J.Z.Z.Z.} u h :.t.t.n.(.E.!.E.I.I.d.( c w w d ( y.`.W.W.dXgX) 1 % A cX",
"cXcX2.e w o.Z.A.N.s e ) t.7.n.M.E.(.E.).^.^.^.Y.n.8.8.a.!./.I.I.Q.Q.gXd., O 2.cX",
"cXs., = v j.Z.{.| 6 j e.' :.n.E.(.).!.!.Y.P.^.^.M.M.sX~.!.P.I.`.Q.^.fXfXM 4 cXcX",
"f.@ j [ L.Z.A.{.Q * F ,.T -.E.!.).M.!.!.Y.^.W.W.(.M.M.!.).E.^.W.W.E.).gXW ; cXcX",
"K 9 [ K.{.Z.G.B.b 1 B N 6.y.(.E.~.!.!./.W.I.W.E.M.(.(.E.(.(.Q.Q.`.W.`.gX>.5 cXcX",
"H $ | K.{.[.A.j.a 2 B D q.b.W.(.)./.!.W.^.^.^.P.(.E.(.(.Q.E.Q.W.T.T.I.gX3.5 cXcX",
"cX9 8 ] J.}.|.k.& M %.=.r.Y.W.P.t.t.t.t.d.b.M.sX(.E.E.(.P.^.(././.T.T.gX9.  pXcX",
"cXv.* 6 I ] +.u.i N q.' -.b.T.6.c e u u a c T 8.M.(.E.Q./.~.b.y.w.r.p.fXs.; pXcX",
"cXcXcXF % 7 a x $ f q.<.q.Y.q.i w u u z p 8 7 y 7.~.I.I./.t.J N 9 9 9 %.&.; aXcX",
"cXcXcXcXpX*.0 : 1 h 3.w.t.d.F & u I | | X.| U X Z d.`.I.b._ = % 0 z 8 9 N - cXcX",
"cXcXcXcXcXcXm . - 1 -.a.a.q.$ 7 I ` X.h.l.l.u.x * e._.I.d.j * / ....U + . - cXcX",
"cXcXcXcXcX5.. G B - %.7.w.1.9 9 I X.z.F.D.D.J.b = 6.I.I.t.& i  .c.]...8 $ m cXcX",
"cXcXcXcXcX1.. K V - G w.w.' . k ! h.F.-X<X<X;XI & <.^.^.r.8 p c..X>Xc.8 : K cXcX",
"cXcXcXcXcXcX%.. > . 2 1.w.=.m 7 ` h.F.$X-X<X Xl u y.Y.Y.d.6 z +. X$X..8 : >.cXcX",
"cXcXcXcXcXcXcXcX1.V   N %.<.g # a | l..X.X.X| 6 c m.R.T.P.c = U ..h.I . @ cXcXcX",
"cXcXcXcXcXcXcXcXcXcXH - $ 9 g : 7 k b I ` I 8 a 6.~.~./.!.7.r r 9 # 8 9 K cXcXcX",
"cXcXcXcXcXcXcXcXcXcXcXaX_ M - 1 1 @ $ X @ w w ] E.!.~.!.!.M.:.r > 9 1 - cXcXcXcX",
"cXcXcXcXcXcXcXcXcXcXcXcXcXcXcX1.m - D %.;.:.6.t.W.W.(.!.!./.n.M o o =.cXcXcXcXcX",
"cXcXcXcXcXcXcXcXcXcXcXcXcXcXcXcXA $ j p.m.p.t.t.U.^.P.y.n.I.t.r K cXcXcXcXcXcXcX",
"cXcXcXcXcXcXcXcXcXcXcXcXcXcXcX4.1 * 1 ,.9.$.T 8.d.Y.r.( ( y.( @ g.cXcXcXcXcXcXcX",
"cXcXcXcXcXcXcXcXcXcXcXcXcXcXg & 9 # 9 N B r , R 6.3.K : : V 0 9 cXcXcXcXcXcXcXcX",
"cXcXcXcXcXcXcXcXcXcXcXcXcX# p | c.U + - < y y , g : $ > < o o Y cXcXcXcXcXcXcXcX",
"cXcXcXcXcXcXcXcXcXcXcXcXg 8 h.;X,XI * t A W W M 1 - o q V 5 o Y cXcXcXcXcXcXcXcX",
"cXcXcXcXcXcXcXcXcXcXcXC *  .>X:XK.p i T W >.s.>.N 2 q V 5 5 o o *.pXcXcXcXcXcXcX",
"cXcXcXcXcXcXcXcXcXcXJ 4 %  . X;X! # k ) :.$.8.9.&.> > =.C 5 5 o > . G cXcXcXcXcX",
"cXcXcXcXcXcXcXcXcXm O ; 1 7 P ..8 1 U &.7.8.8.3.T q o =.U o 5 Y 5 C > q cXcXcXcX",
"cXcXcXcXcXcXcXcXN : T >.$.M * = - G $.) 6.8.-.D ; C q Y Y ; 0 2.V J 2 1 ,.cXcXcX",
"cXcXcXcXcXcXcXp.: B 1.9.i.4.1 < 5 J J t Z ) c % : V C L Y m q L y - 2 : 1.cXcXcX",
"cXcXcXcXcXcXcXJ 2 =.2.&.&.#.t > C J y , , r r g * j G G #.V J 4 ; 4 #.1.cXcXcXcX",
"cXcXcXcXcXcXcXK - J N > ; N : - A t r D e * U d.g g J : < < J q - pXcXcXcXcXcXcX",
"cXcXcXcXcXcXcXJ m - 2 ; > > , t t + Q c...P K._.7 1 J ; 4 m @ 7 M cXcXcXcXcXcXcX",
"cXcXcXcXcXcXcXcX: 2 > m 3.B > m r i 0.XX.X.Xx.I i m C 5 g.cXi.,.cXcXcXcXcXcXcXcX",
"cXcXcXcXcXcXcXcXcXcXcXcXf.- 2 g 1 F r.[ d.{ 8 # $ : B - cXcXcXcXcXcXcXcXcXcXcXcX",
"cXcXcXcXcXcXcXcXcXcXcXcXG m m 2 : D N 3 9 0 9 ,.0 : q 4 cXcXcXcXcXcXcXcXcXcXcXcX",
"cXcXcXcXcXcXcXcXcXcXcX1.- m m - > >   < 4 4 cXcXN 2 o H cXcXcXcXcXcXcXcXcXcXcXcX",
"cXcXcXcXcXcXcXcXcXcXf.: 2 G 2 > ; A L ; 4 cXcXcXL : : aXcXcXcXcXcXcXcXcXcXcXcXcX",
"cXcXcXcXcXcXcXcXcXcXm ; m 2 > - *.cXcX%.cXcXcXcX3.> *.cXcXcXcXcXcXcXcXcXcXcXcXcX",
"cXcXcXcXcXcXcXcXcX2 > - - m M cXcXcXcXcXcXcXcXcXcXg.cXcXcXcXcXcXcXcXcXcXcXcXcXcX",
"cXcXcXcXcXcXcXcX_ > - 2 G s.cXcXcXcXcXcXcXcXcXcXcXcXcXcXcXcXcXcXcXcXcXcXcXcXcXcX",
"cXcXcXcXcXcXcXcXcX#.cXcXcXcXcXcXcXcXcXcXcXcXcXcXcXcXcXcXcXcXcXcXcXcXcXcXcXcXcXcX"
};
