/* XPM */
static char *result[] = {
/* columns rows colors chars-per-pixel */
"41 60 238 2 ",
"   c #0E0E0E",
".  c #050E0E",
"X  c #1A0E14",
"o  c #021414",
"O  c #0B1314",
"+  c #031A16",
"@  c #0C1A15",
"#  c #0B1619",
"$  c #021C1B",
"%  c #0C1C1B",
"&  c #03161B",
"*  c #141415",
"=  c #1A1415",
"-  c #131B16",
";  c #1C1A16",
":  c #13151B",
">  c #1C151A",
",  c #131B1B",
"<  c #1B1B1B",
"1  c #0A110F",
"2  c #22151B",
"3  c #231B1D",
"4  c #25191A",
"5  c #03231C",
"6  c #0B211D",
"7  c #17211D",
"8  c #071E21",
"9  c #121D22",
"0  c #1C1B23",
"q  c #1D1F2A",
"w  c #221D23",
"e  c #261A21",
"r  c #032523",
"t  c #0C2322",
"y  c #012922",
"u  c #0B2A24",
"i  c #082A2A",
"p  c #132222",
"a  c #1A2324",
"s  c #1C252A",
"d  c #1D2A2B",
"f  c #132928",
"g  c #0C332C",
"h  c #02342B",
"j  c #15352C",
"k  c #1B2F33",
"l  c #073833",
"z  c #183834",
"x  c #232424",
"c  c #23242A",
"v  c #252A2C",
"b  c #2B2C2C",
"n  c #292526",
"m  c #32292A",
"M  c #2B2E34",
"N  c #232B33",
"B  c #233533",
"V  c #2D353C",
"C  c #293837",
"Z  c #333434",
"A  c #333A3B",
"S  c #383738",
"D  c #31302F",
"F  c #413D3E",
"G  c #084538",
"H  c #17443C",
"J  c #13503E",
"K  c #3E413B",
"L  c #21523F",
"P  c #45423E",
"I  c #2C3B42",
"U  c #3B3D43",
"Y  c #323D43",
"T  c #433E44",
"R  c #194C43",
"E  c #185648",
"W  c #1A5B52",
"Q  c #075348",
"!  c #254C46",
"~  c #3B4343",
"^  c #3D4A4C",
"/  c #364547",
"(  c #25584C",
")  c #3C4E53",
"_  c #2A5D55",
"`  c #365A57",
"'  c #32514C",
"]  c #1D6455",
"[  c #286759",
"{  c #356A5D",
"}  c #28765D",
"|  c #2A6752",
" . c #2D6C64",
".. c #276D63",
"X. c #396C65",
"o. c #297968",
"O. c #367769",
"+. c #3A7C70",
"@. c #1E7967",
"#. c #444545",
"$. c #4B4B4D",
"%. c #474747",
"&. c #474C52",
"*. c #4C5155",
"=. c #49585A",
"-. c #525453",
";. c #54555B",
":. c #545C5C",
">. c #5D5C5B",
",. c #5B5457",
"<. c #514D4D",
"1. c #625D5A",
"2. c #4D5C62",
"3. c #4B5F6A",
"4. c #545D64",
"5. c #5E5B62",
"6. c #476A67",
"7. c #54646B",
"8. c #5A6A6D",
"9. c #576568",
"0. c #5A6C73",
"q. c #576A75",
"w. c #5A7375",
"e. c #4C766D",
"r. c #6D6B6B",
"t. c #686467",
"y. c #766A6E",
"u. c #636B75",
"i. c #64737B",
"p. c #687478",
"a. c #727474",
"s. c #77797B",
"d. c #736971",
"f. c #57615E",
"g. c #817B79",
"h. c #288775",
"j. c #388878",
"k. c #37977B",
"l. c #30856A",
"z. c #448778",
"x. c #4A8777",
"c. c #677B83",
"v. c #737E87",
"b. c #5B7880",
"n. c #3B9887",
"m. c #3B9189",
"M. c #2EAC96",
"N. c #34AB93",
"B. c #3BAA94",
"V. c #3EA895",
"C. c #27B59C",
"Z. c #3DB49C",
"A. c #38B596",
"S. c #37B18C",
"D. c #2CBBA7",
"F. c #3BBDA5",
"G. c #3CAEA6",
"H. c #4B8E83",
"J. c #469989",
"K. c #599588",
"L. c #4F968B",
"P. c #6B848D",
"I. c #69878B",
"U. c #72858D",
"Y. c #7B848D",
"T. c #71878B",
"R. c #62968B",
"E. c #6D8592",
"W. c #6D8A93",
"Q. c #738693",
"!. c #7A8692",
"~. c #738A94",
"^. c #7A8A94",
"/. c #758C99",
"(. c #788A98",
"). c #6B9595",
"_. c #789198",
"`. c #43A68C",
"'. c #57A48E",
"]. c #45A594",
"[. c #46AA98",
"{. c #57AB99",
"}. c #43B798",
"|. c #53B699",
" X c #62AB98",
".X c #79A79D",
"XX c #48B9A4",
"oX c #58B8A6",
"OX c #77BBAA",
"+X c #6BB5A9",
"@X c #3CC7B2",
"#X c #3ED2B9",
"$X c #37C5A7",
"%X c #49C7AB",
"&X c #58C4A8",
"*X c #46C9B7",
"=X c #55CBB6",
"-X c #48D4BB",
";X c #59D7B8",
":X c #66C8AB",
">X c #67CAB3",
",X c #68D6B9",
"<X c #78CBB5",
"1X c #58E0BA",
"2X c #51C19B",
"3X c #3EDDC1",
"4X c #3CE3C7",
"5X c #47DBC3",
"6X c #56DDC3",
"7X c #6AD9C4",
"8X c #72DDC9",
"9X c #44E1C5",
"0X c #4BE2C6",
"qX c #4CE5CA",
"wX c #44E6CB",
"eX c #52E4CB",
"rX c #59E3C8",
"tX c #4AEED2",
"yX c #67E7CD",
"uX c #6AE7D4",
"iX c #74EAD6",
"pX c #6BF0D4",
"aX c #75E6CD",
"sX c #7DF9E1",
"dX c #898787",
"fX c #87959A",
"gX c #87918F",
"hX c #93B4B3",
"jX c #A3A6AC",
"kX c #AAACB4",
"lX c #AEB4BC",
"zX c #979AA1",
"xX c #AABDC3",
"cX c #8AE8D7",
"vX c #92F0DE",
"bX c #87F7E6",
"nX c #86D7C4",
"mX c None",
/* pixels */
"mXmXs.>.%.#.#.#.<.t.y.g.mXmXmXmXmXmXmXmXmXmXmXmXmXmXmXmXmXmXmXmXmXmXmXmXmXmXmXmXmX",
"-.- * - - @ 5 $ 5 + : - ; 1.mXmXmXmXmXmXmXmXmXmXmXmXmXmXmXmXmXmXmXmXmXmXmXmXmXmXmX",
"mXb < O z X.j.k.h.o. .i O S mXmXmXmXmXmXmXmXmXmXmXmXmXmXmXmXmXmXmXmXmXmXmXmXmXmXmX",
"mXmX,.% j H.}.;X;X6XoXl t o B C B C A ~ ^ :.s.mXmXmXmXmXmXmXmXmXmXmXmXmXmXmXmXmXmX",
"mXmXmXA $ W [.XX6X6XXXQ r i l l y y y y y r 8 # , 7 K -.mXmXmXmXmXmXmXmXmXmXmXmXmX",
"mXmX;.p y  .XXF.5XeXrXXXXXoXXX{.oXoX{.'.L.e.X._ R h 5 $ @ 6 ~ mXmXmXmXmXmXmXmXmXmX",
"mXmX9 i _ ].=X6XqXtX5XwXeX5XeXrXrXyXpXiXcXcX8X7X;X:X'.x.[ h t # w ;.mXmXmXmXmXmXmX",
"mXdX: g z.[.F.6XqXwXwXtXwX5XwXqX0XeXqXrXiXbXsXuX1X}.o.'.nX<XR.` i % a mXmXmXmXmXmX",
"mXmXF O z j.V.F.5XeX9XtX5X5X5XG.G.3XeXeXbXbXbXuX,Xh.$ g {.cXvXcXoX..r : mXmXmXmXmX",
"mXmXmXS t y ] n.G.C.#X0XeXeX6X5X@XD.G.3XuXiXpXiX7XQ o 8 [ cXbXiXyX>XH.z . mXmXmXmX",
"mXmXmXmX>., t E m.B.M.C.#XeX5XwXqX3XC.C.XX6XrXuXn.r i i l  X8XpXpXyX8Xo.r mXmXmXmX",
"mXmXmXmXmXmXv $ G j.B.C.D.4XwXwXwX5X3XC.G.XX-X;XW y ` I 8 X.7X6X6XuX=XW 5 mXmXmXmX",
"mXmXmXmXmXmXmXA + E J.F.C.#XtX4X5X6X5X@XA.M.F.&XH % x.R.9 l [.6X6X=XW 8 + r.mXmXmX",
"mXmXmXmXmXmXmXmX6 y k.N.@X9X5X5X5XXXXXG.V.V.A.{.^ O { hXI 8 Q =X6XG.l 8 o 7 mXmXmX",
"mXmXmXmXmXmXmXS @ G J.F.5X*XG.V.j...[ _ ..+.z.O.t r j.:Xg 8 G oX8X6X[.@.W J 5 mXmX",
"mXmXmXmXmXmXx + g +.}.;X%X[.m.R i & 8 & $ y j y 5 J >X<XR $ R H.o.h.n.:X<X<XX.mXmX",
"mXmXmXmXmX% i R H.].=X%XJ. .i + 8 k I I M c 0 o G `.;X,X'.5 y 6 8 $ $ H '.>XJ.mXmX",
"mXmXmXmXo i [ J.V.Z.=XV.W r # v 2.2.u.u.c.r.V 9 [ oX;XaXOXj % v U &.M o G {.z.mXmX",
"mXmXmXa u  .n.B.B.B.{...y $ Y 9.7.q.c.Q._.!.&.& h +.{. Xw.$ d s.jXkXjXU + ' mXmXmX",
"mXmXa., H K.V.A.M.V.o.i $ / 4.7.q.I.P.P.W.~.w.k 8 i l z i 8 / v.dXfXlXzXa , v * mX",
"mXmXdX, H b.G.M.B.n.H o k 7.q.7.b._.~.~.W.W./.q.I 9 8 r f ) c.^.~.~._.xX&.# : x mX",
"mXmXmX0 r l n.N.]...$ q 2.7.7.b.W.I.~.Q.I.W.W./.E.i.q.q.b.Q.~.~.E.W.~.hXfX, , $.mX",
"mXmX#.# r W m.[.J.H # U 7.! 3.v._.E.(.Q.W./.I.).E././.Q._.~.U.~.Q./.W.fXhXM * dXmX",
"mXS 9 g  .m.Z.].z.y p $.3.k q.Q.Q.(.Q.Q./.).W.W.W./.Q.E./.W./.W.W.E.E.fXlX*.= mXmX",
"mX- d x.].}.N.V. .u a v / 9.c.Q.!.^.~.^.~.P./.E.P./.Q.Q.(.Q./.W.W.W.(.gXkXt.= s.mX",
"mX7 j K.].B.N.[.{ o a a / 8.v.Q.!.Y.U.~.~.~.~.E.E./.(.Q.Q.(.E.W.).~.Q.Y.kXd.= r.mX",
"mXD 6 H H.[.`.J.! o / &.*.u.Q.U.U.p.0.q.u.p.v.!.(.E.Q.Q.W.W.W./.~.U.Y.Y.jXs.- >.mX",
"mXmXp 5 g  .z.R.! $ K =.Y 7.~.~./ s 8 8 p s N / 7.v.Q.(.W.W./.c.w.=.=.9._.v.7 ,.mX",
"mXmXmXU # 6 j B d # I 8.=.0.P.=.p o t r f f $ & f 2.^.W.I.).q.Y x * O @ A $.- 1.mX",
"mXmXmXmXdX#.w O : : V 9.7.i.i.f % j L ( | O.( H $ B p.W.).I.I 9 - j z 6 O x : r.mX",
"mXmXmXmXmXmXr.< : % d 7.9.8.;.# @ H ( } l.k.k.O.g # 9.dX_.w.q 9 L { l.| % ; > s.mX",
"mXmXmXmXmXmXZ - C 9 9 7.7.9.~ 7 7 L } k.S.S.}.J.z # ;.Y.~.q.q 9 | k.`.j.f   3 mXmX",
"mXmXmXmXmXmX< - ~ t t / 7.9.S < j | k.A.%X1X1X2XH 7 &.^.~.8., u l.2X,X'.g @ x mXmX",
"mXmXmXmXmXmXr.- @ , o B 0.9.~ @ 6 L l.}.-X1X1X|.j - 9.).~.c.d 5 } n.:Xz.5 % b mXmX",
"mXmXmXmXmXmXmXmX-.D < * V *.4.a 7 j [ k.S.2X2X] + d p.).Q.v.U o G | | j @ = r.mXmX",
"mXmXmXmXmXmXmXmXmXmXd.3 > * d 7 - 6 j J E E J 5 % :.~.~.Q.Q.u.s @ u + 7 > 4 mXmXmX",
"mXmXmXmXmXmXmXmXmXmXmXmX,.b : ,   ; - . 9 # & 0 / T.W.W.E.~.Q.4.x 1 * = 2 y.mXmXmX",
"mXmXmXmXmXmXmXmXmXmXmXmXmXmXmXt.P ; ; b T $.%.&.8.T.E.W.W.~.!.v.b 4 4 %.mXmXmXmXmX",
"mXmXmXmXmXmXmXmXmXmXmXmXmXmXmXmXmXK 1 B 0.v.c.q.0.I.~.I.b.w.v.c.w 3 mXmXmXmXmXmXmX",
"mXmXmXmXmXmXmXmXmXmXmXmXmXmXmXmXa.7 , 7 =.9.T T 2.p.T.7.) I u.&.: $.mXmXmXmXmXmXmX",
"mXmXmXmXmXmXmXmXmXmXmXmXmXmXmXM & , * > v N : q N 5.5.M # , x x * mXmXmXmXmXmXmXmX",
"mXmXmXmXmXmXmXmXmXmXmXmXmXmX7 5 E X.V 2 X 2 q q : 0 e 2 , a * - a mXmXmXmXmXmXmXmX",
"mXmXmXmXmXmXmXmXmXmXmXmXgX6 5 [ &X,X` : e e T T d 0 2 4   D 7 - < mXmXmXmXmXmXmXmX",
"mXmXmXmXmXmXmXmXmXmXmXmX7 6 6.<X7XXXg O Y T T q.=.N 4 m ; x - - * S t.mXmXmXmXmXmX",
"mXmXmXmXmXmXmXmXmXmXt.3 - 6 { hX<XW $ v ~ &.&.4.4.&.e 2 Z K . - < ; X = Z mXmXmXmX",
"mXmXmXmXmXmXmXmXmXF X 0 a @ 5 ( 6.r % C ~ =.=.7.4.;.3 = P <.- - 3 ; m m ; b mXmXmX",
"mXmXmXmXmXmXmXmX,.< x *.*.~ f o 9 # d #.%.:.4.4.~ x 3 n D %.= ; -.m m P * ; a.mXmX",
"mXmXmXmXmXmXmXmXw < *.4.:.9.A : > 7 Z #.x C ;.V 0 * x m D 1.> < P F 3 2 ; n x.mXmX",
"mXmXmXmXmXmXmXs.> Z ;.$.#.%.S : * b S a * * M * % , < S x >.4 3 ; 3 < x -.a.mXmXmX",
"mXmXmXmXmXmXmXr.* v n < * a < - < b b O a 6 o d =.d p C 7 D = 4 n 7 * mXmXmXmXmXmX",
"mXmXmXmXmXmXmXmX; - * ; x   ; = e m * j e._ y  ..Xg 6 ~ 3 ; P ; <   S mXmXmXmXmXmX",
"mXmXmXmXmXmXmXmX$.n %.x - <.M = 4 > # =.).'.K.R.6.u 6 M * %.mXmX%.%.mXmXmXmXmXmXmX",
"mXmXmXmXmXmXmXmXmXmXmXmXmXa.x - n * K e.e.x.x.B % # < S 3 -.mXmXmXmXmXmXmXmXmXmXmX",
"mXmXmXmXmXmXmXmXmXmXmXmXmXb   n   < H B u H 6 7 c w 2 e = s.mXmXmXmXmXmXmXmXmXmXmX",
"mXmXmXmXmXmXmXmXmXmXmXmX%.; x n < 7 @ O 7 , - 1.mXm X X e mXmXmXmXmXmXmXmXmXmXmXmX",
"mXmXmXmXmXmXmXmXmXmXmXt.: < Z - * @ 0 x * ; d.mXmXF 4 > $.mXmXmXmXmXmXmXmXmXmXmXmX",
"mXmXmXmXmXmXmXmXmXmXs.< * n b * @ S mXgX4 y.mXmXmX-.- c mXmXmXmXmXmXmXmXmXmXmXmXmX",
"mXmXmXmXmXmXmXmXmXdXx   < * * x a.mXmXmXmXmXmXmXmXmXB mXmXmXmXmXmXmXmXmXmXmXmXmXmX",
"mXmXmXmXmXmXmXmXmXx   * * x t.mXmXmXmXmXmXmXmXmXmXmXmXmXmXmXmXmXmXmXmXmXmXmXmXmXmX",
"mXmXmXmXmXmXmXmXmXZ b <.dXmXmXmXmXmXmXmXmXmXmXmXmXmXmXmXmXmXmXmXmXmXmXmXmXmXmXmXmX"
};
