/* XPM */
static char *result[] = {
/* columns rows colors chars-per-pixel */
"40 60 231 2 ",
"   c #0D0C0E",
".  c #140B0D",
"X  c #18120E",
"o  c #051614",
"O  c #0C1314",
"+  c #031B15",
"@  c #0C1916",
"#  c #0C161A",
"$  c #021D1C",
"%  c #0C1C1B",
"&  c #04151A",
"*  c #141414",
"=  c #1C1315",
"-  c #141A15",
";  c #15141B",
":  c #1A151A",
">  c #141B1B",
",  c #1B1B1B",
"<  c #1A1B17",
"1  c #0E1313",
"2  c #24181B",
"3  c #02221C",
"4  c #08261D",
"5  c #13211E",
"6  c #1B221E",
"7  c #25281F",
"8  c #0C1E23",
"9  c #041C22",
"0  c #131E22",
"q  c #1B1B22",
"w  c #231C24",
"e  c #032422",
"r  c #0D2223",
"t  c #032A24",
"y  c #0A2A24",
"u  c #022C2A",
"i  c #0A2D2B",
"p  c #132423",
"a  c #1C2324",
"s  c #182928",
"d  c #01332B",
"f  c #06352B",
"g  c #16312D",
"h  c #1A2B32",
"j  c #093A34",
"k  c #1A3A34",
"l  c #163834",
"z  c #232324",
"x  c #24242B",
"c  c #222C2C",
"v  c #2B2B2B",
"b  c #2C2627",
"n  c #322A2C",
"m  c #282D32",
"M  c #332D33",
"N  c #3A2E38",
"B  c #2C3335",
"V  c #273738",
"C  c #343333",
"Z  c #33363A",
"A  c #3D3D3C",
"S  c #373738",
"D  c #2C302F",
"F  c #453A3C",
"G  c #08463A",
"H  c #15433A",
"J  c #1C473C",
"K  c #26433C",
"L  c #393E42",
"P  c #2A3B44",
"I  c #413F47",
"U  c #0F4744",
"Y  c #184C43",
"T  c #1D5549",
"R  c #195951",
"E  c #0E5A4A",
"W  c #284746",
"Q  c #3C4343",
"!  c #3D4B4B",
"~  c #364447",
"^  c #26574A",
"/  c #3C4D54",
"(  c #285D54",
")  c #3E5152",
"_  c #1E6756",
"`  c #2C6252",
"'  c #256859",
"]  c #35685A",
"[  c #2B6955",
"{  c #326C63",
"}  c #2C7467",
"|  c #3D7568",
" . c #3C7E74",
".. c #2C6C62",
"X. c #1D7368",
"o. c #444443",
"O. c #434C4B",
"+. c #4A4A4B",
"@. c #484748",
"#. c #444D52",
"$. c #4C4B52",
"%. c #454956",
"&. c #534B51",
"*. c #4B5C5D",
"=. c #485457",
"-. c #525B5C",
";. c #5B5B5C",
":. c #585556",
">. c #514A4F",
",. c #605F5F",
"<. c #5A635D",
"1. c #575A65",
"2. c #4A5D63",
"3. c #655D63",
"4. c #496A66",
"5. c #54646B",
"6. c #5A656A",
"7. c #5C6B6C",
"8. c #566669",
"9. c #437B6A",
"0. c #546D72",
"q. c #5C6B74",
"w. c #5A7776",
"e. c #417F72",
"r. c #666568",
"t. c #716D6D",
"y. c #656C73",
"u. c #64757B",
"i. c #627B7D",
"p. c #6B737B",
"a. c #797779",
"s. c #6D6E71",
"d. c #83777E",
"f. c #2C826A",
"g. c #36846B",
"h. c #388978",
"j. c #309075",
"k. c #1F8C77",
"l. c #438B7C",
"z. c #468776",
"x. c #51867A",
"c. c #46947A",
"v. c #77827F",
"b. c #82847F",
"n. c #5F7A81",
"m. c #6B7A82",
"M. c #6A7B85",
"N. c #787D85",
"B. c #3A8E81",
"V. c #3C9787",
"C. c #3D9C91",
"Z. c #2B9F8A",
"A. c #3BA68C",
"S. c #3CA593",
"D. c #36AB95",
"F. c #37B19C",
"G. c #30B296",
"H. c #39BCA9",
"J. c #2DB5A0",
"K. c #479989",
"L. c #569989",
"P. c #528F89",
"I. c #6C858B",
"U. c #668A8E",
"Y. c #6D8B8D",
"T. c #67828B",
"R. c #73848D",
"E. c #77878A",
"W. c #6E8691",
"Q. c #6D8B94",
"!. c #678D90",
"~. c #738693",
"^. c #738A94",
"/. c #7A8B95",
"(. c #738E99",
"). c #798695",
"_. c #699695",
"`. c #759296",
"'. c #639C8D",
"]. c #42AB95",
"[. c #47A797",
"{. c #55A998",
"}. c #45B39D",
"|. c #56B69B",
" X c #64A898",
".X c #71AE9C",
"XX c #49B7A3",
"oX c #59BCA4",
"OX c #6DB6A7",
"+X c #38C4AB",
"@X c #34C9AE",
"#X c #45C19C",
"$X c #47C6AA",
"%X c #57C5AC",
"&X c #44CAB6",
"*X c #57CAB6",
"=X c #48D5BB",
"-X c #56D5BB",
";X c #4FD8AC",
":X c #66C7AC",
">X c #7AC8B8",
",X c #68D3B9",
"<X c #6CCFB8",
"1X c #56E7B9",
"2X c #66E0BB",
"3X c #3DE2C4",
"4X c #47DCC2",
"5X c #57DAC4",
"6X c #75DDC9",
"7X c #68DCC7",
"8X c #4BE4C9",
"9X c #45E6C9",
"0X c #52E2C9",
"qX c #5BE4CB",
"wX c #56E5C8",
"eX c #58EAD2",
"rX c #68E4C8",
"tX c #76E7D6",
"yX c #75F1DB",
"uX c #6CEFD8",
"iX c #7CF8E5",
"pX c #878785",
"aX c #8C9997",
"sX c #98A3A9",
"dX c #8AA1A7",
"fX c #A8B5BC",
"gX c #8FC8B4",
"hX c #8AD6C8",
"jX c #96F0DF",
"kX c #8BF9EA",
"lX c None",
/* pixels */
"lXlXt.:.O.K @.>.6.t.b.lXlXlXlXlXlXlXlXlXlXlXlXlXlXlXlXlXlXlXlXlXlXlXlXlXlXlXlXlX",
"lX= * O 5 5 3 3 + @ O - b lXlXlXlXlXlXlXlXlXlXlXlXlXlXlXlXlXlXlXlXlXlXlXlXlXlXlX",
"lXC , - k 4.h.j.} } W 9 - ;.lXlXlXlXlXlXlXlXlXlXlXlXlXlXlXlXlXlXlXlXlXlXlXlXlXlX",
"lXlX;.0 i c.|.-X*X7X{.u r p ~ ~ O.$.;.r.a.lXlXlXlXlXlXlXlXlXlXlXlXlXlXlXlXlXlXlX",
"lXlXlXm 3 ..S.+X5XqX[.u u i $ t e 3 $ $ % % 4 p Z :.lXlXlXlXlXlXlXlXlXlXlXlXlXlX",
"lXlX;.o d  .}.+X4XeX5X}.[.[.{.{.{.K.P. .} ( J j 9 4 @ # c ;.lXlXlXlXlXlXlXlXlXlX",
"lXpX@ f ' S.-X5XeX3X9XeX5X5XqX5X5XuXyXyXtX7X,X%X|.l.' Y t & 5 B lXlXlXlXlXlXlXlX",
"lXpX3 l B.[.&X5X9X9X3X3X9X9X9X0X0X8X0XqXyXiXuXwX,X{..XOX.X9.H e @ S lXlXlXlXlXlX",
"lXlXS + H B.[.H.4X9X9X3X9X4X@X@X4X4XeXtXkXkXyXrXoXd d {.hXjXhXP.H e 5 E.lXlXlXlX",
"lXlXlXS % u } S.F.@X@X9XeX8X4X&XJ.H.&X5XtXiXiX6XP.u $ T gXkXkX6X:X} t 5 lXlXlXlX",
"lXlXlXlX&.> i R C.J.H.@X@XeX5X4X&XH.J.H.5X5XeX5XU 9 $ 3 oX6XtXyXrX,X{ 4 +.lXlXlX",
"lXlXlXlXlXa.# r T B.D.J.@X8X9XeX8X4XH.D.F.4XqXZ.t k W $ _ ,X5XrXrX6Xx.% +.lXlXlX",
"lXlXlXlXlXlXlXx 8 ..[.G.+X9X3X4X4X0X4XF.J.H.*Xk.3 O.`.f d {.qX5X-Xh.i & a.lXlXlX",
"lXlXlXlXlXlXlXa.& W K.G.=X9X4X4X4XXXXX[.S.[.XX .+ K gX^ e E $X0X%Xd 9 r b ;.lXlX",
"lXlXlXlXlXlXlXv + R D.$X=X+XXXC.j.} { {  .L.c.J + K gXT + 9 S.qX-Xk.G j r 4 V lX",
"lXlXlXlXlX<.4 3 Y K.#X-XXXC.} U u 9 9 9 y k H 4 f c.gXR % P {.}.}.XX>X.X'.Y + 7.",
"lXlXlXlX+.+ d ' K.XX*XXXB.T e $ 8 h P h p > # y f.%X,X|.u 0 h i t l | OX,Xc.3 ! ",
"lXlXlXO.5 j f.].S.XX%XB.U $ 5 Z 1.1.q.q.y.Q ; K {.,XrX>XW # q z c # $ ^ <Xh.3 o.",
"lXlXlX% y g.A.A.S.XXK.U & s ~ 0.5.u.I.I.pX8.# p g.oX:X{.g 8 8.aXsXN.h & 9.] + t.",
"lXlX:.% ] L.}.D.].K.R 9 p =.5.5.n.I./.I.E.I.P & y Y Y j 9 V i.`.sXfXN.; g V   lX",
"lXlX;.% W K.S.D.].} t p ! q.0.0.W.W.W.^.Y.Y.q.W 8 9 9 8 P 5.Q.Q.Q.dXfXP # q n lX",
"lXlXN.8 u R S.S.K.G + L 1.1.q.W.(.^.I.^.`.^./.M.q.%.1.5.M.~.W.U.!.Q.fXm.; = &.lX",
"lXlXw & u X.].[. .t 4 =.2./ q.~.Q.(.~.~.R.R.^.W.N.N.).).^.~.^.`._.!.dXsXw 2 lXlX",
"lX< p W h.C.S.[.^ + V ;.~ ~ W.(.~.W.)./.R.^.^.Q.(.(.~.).(.Q.W.W.Q.M.aXfXN 2 lXlX",
";.@ K L.[.S.F.S.Y O v c *.0.W.~.~.~.~./.^.W.Q.Q.(.(.(.(.Q.(.(.(.Y.Y.`.fX&.= lXlX",
"<.o ^ K.[.S.S.V.i , B z *.m.^.~././.~.~.^.^.(.Q.(.M.(.(.M.(.M.!.`.^.Y.fX;.: lXlX",
"lX5 4 ` L.K.[.K.y > ! ! 8.m.Y.^.m.p.w.w.M.I.R.pX(.(.M.(.M.(.(.(.E.E.Y.fXr.  pXlX",
"lXv.4 y H { z.z.s a *.) ! M.^.0.h r r y g V O.y.M.(.(.(.(.(.M.M.p.p.w.sXs.* E.lX",
"lXlXlXB O 0 g k # p *.*.*.E.q.g r 3 e y 4 + * w 6.E.U.!.(.M.%.m a p p -.:.2 pXlX",
"lXlXlXlXd.I 5 + % p #.8.q.m.Q 5 e j ^ ` ` ` V O m i.U.U.M.%.; O 4 4 + a v X lXlX",
"lXlXlXlXlXlXv > O 0 #.5.y.y.a o l ` [ g.j.j.| g & 5.`.Y.i.h 8 P [ [ K + * . lXlX",
"lXlXlXlXlXb.< z B & L y.1.-.- 4 H [ g.A.G.G.K.H 8 =.I.Y.w.% r ( c.c.] 3 @ w lXlX",
"lXlXlXlXlXr.O D v > D 1.7.=.O 4 _ j.A.#X1X1X|.( 3 / ^./.8.4 t g.|.:Xc.4 - M lXlX",
"lXlXlXlXlXlXO.O , * , =.7.-.6 4 J g.].#X;X2X|.G 9 8.E.I.y.4 y g.|.|.c.4 ; +.lXlX",
"lXlXlXlXlXlXlXaXL b : z O.*.c @ g ` c.{.#X|.z.4 h M.R.^.I.k o W z.c.f - * pXlXlX",
"lXlXlXlXlXlXlXlXlXlXM : 6 z a - @ y H ` ] J 4 3 / N.)./.~.2.# 8 4 4 4 - z lXlXlX",
"lXlXlXlXlXlXlXlXlXlXlXa.D 6 * * * @ o + @ # 9 W M.Q.).N.).M.%.q @ @ < > b.lXlXlX",
"lXlXlXlXlXlXlXlXlXlXlXlXlXlXd.+.v < z A L L / 0.Q.(.~.W.(.).M.x - X n pXlXlXlXlX",
"lXlXlXlXlXlXlXlXlXlXlXlXlXlXlXlXA @ c 6.E.p.0.0.n.(.T.n.M.T.q.0 z pXlXlXlXlXlXlX",
"lXlXlXlXlXlXlXlXlXlXlXlXlXlXlXt.6 o 6 O.y.$.%.1.n.Q.0.2./ M./ % r.lXlXlXlXlXlXlX",
"lXlXlXlXlXlXlXlXlXlXlXlXlXlXB @ + + @ v M q ; P 8.6.V - , n b X lXlXlXlXlXlXlXlX",
"lXlXlXlXlXlXlXlXlXlXlXlXlXs 4 J w.J O * : q w ; z 6 * < 2 2 X F lXlXlXlXlXlXlXlX",
"lXlXlXlXlXlXlXlXlXlXlXlXK 3 E :X>X^ % ; w L I w - > - X b 2 X K lXlXlXlXlXlXlXlX",
"lXlXlXlXlXlXlXlXlXlXlX>.- T :X,XOXj % Z I $.r.$.a 5 6 7 2 X X X ;.lXlXlXlXlXlXlX",
"lXlXlXlXlXlXlXlXlXlXr.: > ^ |.<X{ + p ~ %.$.3.3.+.< < +.7 X 2 X < * K lXlXlXlXlX",
"lXlXlXlXlXlXlXlXlXo.. : a 3 G z.y # V #.1.-.1.;.o.7 X +.F X 2 C X b X b lXlXlXlX",
"lXlXlXlXlXlXlXlX=.* v I L x r % . n ! Q =.1.#.K < b 7 F o.= , ;.b S v * ,.lXlXlX",
"lXlXlXlXlXlXlXlXX z >.3.3.&.w : = F L x Z #.V o - 7 b F o.z a A z < - - O.lXlXlX",
"lXlXlXlXlXlXlXr.* K 3.&.>.:.w = b N w : ; 0 > p @ z D C +.< C 7 < < S Q lXlXlXlX",
"lXlXlXlXlXlXlX@.* @.N 7 6 b - = M x , a p 3 y 7.p 5 D 6 z , A 7 * r.lXlXlXlXlXlX",
"lXlXlXlXlXlXlXlX, * * *   , < > s & y x.| G z..Xi a A : 2 6 * 5 z lXlXlXlXlXlXlX",
"lXlXlXlXlXlXlXlX* , * , o.C = a p 3 ] '.L.'.x.! % a n 2 :.lX:.C lXlXlXlXlXlXlXlX",
"lXlXlXlXlXlXlXlXlXlXlXlXlXz , , - g w.4.x.9.4 + % , n = d.lXlXlXlXlXlXlXlXlXlXlX",
"lXlXlXlXlXlXlXlXlXlXlXlX@., z 6 ; B s > c + 6 K a = 2 2 lXlXlXlXlXlXlXlXlXlXlXlX",
"lXlXlXlXlXlXlXlXlXlXlXlX< , v * : - * : * , b.lXb > * B lXlXlXlXlXlXlXlXlXlXlXlX",
"lXlXlXlXlXlXlXlXlXlXlXz * C a = : w M : 2 d.lXlX@.- - a.lXlXlXlXlXlXlXlXlXlXlXlX",
"lXlXlXlXlXlXlXlXlXlXv * z z , * S lXlXS a.lXlXlXr.= C lXlXlXlXlXlXlXlXlXlXlXlXlX",
"lXlXlXlXlXlXlXlXlXlX= - , , * t.lXlXlXlXlXlXlXlXlX:.lXlXlXlXlXlXlXlXlXlXlXlXlXlX",
"lXlXlXlXlXlXlXlXlX* - * , ;.lXlXlXlXlXlXlXlXlXlXlXlXlXlXlXlXlXlXlXlXlXlXlXlXlXlX",
"lXlXlXlXlXlXlXlXlXlXlXlXlXlXlXlXlXlXlXlXlXlXlXlXlXlXlXlXlXlXlXlXlXlXlXlXlXlXlXlX"
};
