/* XPM */
static char *result[] = {
/* columns rows colors chars-per-pixel */
"41 60 241 2 ",
"   c #0D0D0D",
".  c #140C0D",
"X  c #03150E",
"o  c #17110E",
"O  c #170E14",
"+  c #041414",
"@  c #0C1314",
"#  c #031915",
"$  c #0C1915",
"%  c #041519",
"&  c #031C1A",
"*  c #0B1B1B",
"=  c #0B161C",
"-  c #141414",
";  c #1A1415",
":  c #141A16",
">  c #14141B",
",  c #19151B",
"<  c #131B1B",
"1  c #1A1A1B",
"2  c #191A16",
"3  c #090F12",
"4  c #231B1F",
"5  c #21151A",
"6  c #03231C",
"7  c #0C221D",
"8  c #042C1F",
"9  c #1C241C",
"0  c #13211B",
"q  c #23241E",
"w  c #081B21",
"e  c #141D22",
"r  c #1C1D21",
"t  c #191924",
"y  c #231D22",
"u  c #261A26",
"i  c #052423",
"p  c #0D2424",
"a  c #042A24",
"s  c #0E2925",
"d  c #022D29",
"f  c #09292A",
"g  c #142323",
"h  c #1C2324",
"j  c #132924",
"k  c #1E2C2C",
"l  c #162629",
"z  c #02332B",
"x  c #09342B",
"c  c #16362E",
"v  c #1D2C31",
"b  c #063C34",
"n  c #183834",
"m  c #232323",
"M  c #2A2526",
"N  c #25252B",
"B  c #242B2B",
"V  c #2C2B2C",
"C  c #282826",
"Z  c #332729",
"A  c #24312F",
"S  c #242D33",
"D  c #2E2C32",
"F  c #253233",
"G  c #2B3335",
"H  c #2A393A",
"J  c #29383A",
"K  c #333434",
"L  c #333B3C",
"P  c #3B3B3C",
"I  c #393539",
"U  c #392F32",
"Y  c #403C3B",
"T  c #08473B",
"R  c #17453B",
"E  c #33443C",
"W  c #24473C",
"Q  c #2E3E42",
"!  c #353D43",
"~  c #0E3E42",
"^  c #463C45",
"/  c #174943",
"(  c #1A5749",
")  c #1D5C53",
"_  c #054F44",
"`  c #274942",
"'  c #3C4245",
"]  c #3B434B",
"[  c #37484A",
"{  c #28564B",
"}  c #2A5E56",
"|  c #345B53",
" . c #3F4A50",
".. c #1A6955",
"X. c #1E7B5E",
"o. c #266358",
"O. c #35665B",
"+. c #2A755D",
"@. c #2B6A62",
"#. c #377667",
"$. c #397D73",
"%. c #307467",
"&. c #44454A",
"*. c #494A4C",
"=. c #464745",
"-. c #444B52",
";. c #4B4C55",
":. c #455254",
">. c #4B525D",
",. c #47585A",
"<. c #535453",
"1. c #5C5B5E",
"2. c #55585A",
"3. c #554B4E",
"4. c #635C5B",
"5. c #50615B",
"6. c #4C5A62",
"7. c #535C63",
"8. c #555A64",
"9. c #4E6568",
"0. c #55656C",
"q. c #5B656C",
"w. c #526B6C",
"e. c #576466",
"r. c #5B6A73",
"t. c #467973",
"y. c #5A7577",
"u. c #44776A",
"i. c #6B6B6A",
"p. c #646667",
"a. c #67787B",
"s. c #787878",
"d. c #6A6B72",
"f. c #645C64",
"g. c #378A78",
"h. c #2D9879",
"j. c #319174",
"k. c #2EA07C",
"l. c #488679",
"z. c #518E7E",
"x. c #7B817E",
"c. c #6C7C85",
"v. c #687683",
"b. c #737E86",
"n. c #747E8B",
"m. c #389A86",
"M. c #389288",
"N. c #3CA389",
"B. c #2BAC95",
"V. c #3BA691",
"C. c #34AB93",
"Z. c #3DAA94",
"A. c #3BAB99",
"S. c #2BB79B",
"D. c #38B39A",
"F. c #2FB88E",
"G. c #38B8A5",
"H. c #3BAAA1",
"J. c #469A89",
"K. c #59948A",
"L. c #568F84",
"P. c #6C838C",
"I. c #6D898D",
"U. c #668886",
"Y. c #73838D",
"T. c #71898D",
"R. c #798488",
"E. c #63978A",
"W. c #6D8691",
"Q. c #6D8A94",
"!. c #738592",
"~. c #738A94",
"^. c #7A8B94",
"/. c #748C98",
"(. c #7A8997",
"). c #769199",
"_. c #6A9C92",
"`. c #45A58B",
"'. c #44A492",
"]. c #4CAB9A",
"[. c #44AB97",
"{. c #53A895",
"}. c #49B89C",
"|. c #55B99B",
" X c #54A389",
".X c #66AC9D",
"XX c #6BAF9B",
"oX c #48BBA6",
"OX c #56B9AB",
"+X c #5FAFA2",
"@X c #64B9AB",
"#X c #77B1A3",
"$X c #38C1AB",
"%X c #3BC8B1",
"&X c #3DD7BC",
"*X c #3FD1AC",
"=X c #36C89B",
"-X c #46C4AB",
";X c #58C8B4",
":X c #47D4BA",
">X c #58D8BB",
",X c #4CC9B2",
"<X c #67CFAF",
"1X c #66C9B6",
"2X c #68D5B7",
"3X c #6FD0B4",
"4X c #60E3BB",
"5X c #46D8AD",
"6X c #3DE5C6",
"7X c #4BDCC3",
"8X c #4ADCC4",
"9X c #53DCC4",
"0X c #5FDCCC",
"qX c #6ADBC3",
"wX c #75D7C3",
"eX c #44E2C4",
"rX c #4DE3C6",
"tX c #4CE4CA",
"yX c #47E8CC",
"uX c #53E4C4",
"iX c #57E6CA",
"pX c #50EBD2",
"aX c #66E7CB",
"sX c #65EBD4",
"dX c #76EBD5",
"fX c #74F4DB",
"gX c #7AFAE6",
"hX c #838586",
"jX c #808A96",
"kX c #929DA5",
"lX c #9DB2B3",
"zX c #96A7AA",
"xX c #A8B2B8",
"cX c #84C8B8",
"vX c #81D6BF",
"bX c #ADBAC2",
"nX c #84DAC7",
"mX c #91EFDB",
"MX c #89EBD6",
"NX c #84FCE7",
"BX c None",
/* pixels */
"BXBXi.3.K K C K I ^ 3.4.x.BXBXBXBXBXBXBXBXBXBXBXBXBXBXBXBXBXBXBXBXBXBXBXBXBXBXBXBX",
"=.; 2 - : 7 6 6 & p e < - i.BXBXBXBXBXBXBXBXBXBXBXBXBXBXBXBXBXBXBXBXBXBXBXBXBXBXBX",
"BXC 2 $ W l.J.N.h.j.@.f * P BXBXBXBXBXBXBXBXBXBXBXBXBXBXBXBXBXBXBXBXBXBXBXBXBXBXBX",
"BXBX*.7 c l.}.>XuXaX].z & & p p 7 7 g l v J &.<.BXBXBXBXBXBXBXBXBXBXBXBXBXBXBXBXBX",
"BXBXBXB # o.[.G.9X9XoX_ z _ _ T T T T z z d i & $ # 7 k *.BXBXBXBXBXBXBXBXBXBXBXBX",
"BXBX<.* d $.OX-X8X8X0X>XOX@X1X;X1X3X1X@X@X{.K.l.#.{ R 7 6 * g E BXBXBXBXBXBXBXBXBX",
"BXR.* x @.'.oXuXpXpX6XyXtXtXtXtXuXiXfXdXMXMXdXwX2X3X#XXXJ.o.b 6 w N BXBXBXBXBXBXBX",
"BXhX= c l.'.oX9XtXyX8XyX6X6X6XyXeXrXrXiXfXNXNXdX>Xh.T z.vXnXcXK.` f + *.BXBXBXBXBX",
"BXBXP : c $.V.-X:X8XtXtX8X6X&XG.%X%X0XsXgXgXgXaX2X) % f {.mXmXmX2XJ.x * ^ BXBXBXBX",
"BXBXBXP * d ) M.A.D.%X8XtX8X0X8X%XG.G.G.0XsXsXfX@Xz w w } nXmXdXaXaX.XR @ BXBXBXBX",
"BXBXBXBXp.r & / M.Z.B.S.8X8XyX6X6X&XG.B.G.:XuX4X@.i n i d @X9XiXiXaXwX@.& BXBXBXBX",
"BXBXBXBXBXBXK & x g.A.B.S.8X6XpXyXtX:XG.B.G.:X;X/ i t.{ # @.aX7XrX>XM.b + BXBXBXBX",
"BXBXBXBXBXBXBX' % / J.D.B.6XyX6X&XtX9XG.D.B.S.;XR # U._.p d m.9X9XA.z i t ^ BXBXBX",
"BXBXBXBXBXBXBXBXg d j.C.%X8X8X%X,XoXoXA.V.'.[.`.W 6 +.cXv & T ;XqXoX_ w e > : BXBX",
"BXBXBXBXBXBXBXP X T j.-X>X,XH.V.%.( / b / O.#.{ # 8 `.3Xj % ..@XOXwX1X].J.l.n BXBX",
"BXBXBXBXBXBXh $ n g.}.>XG.Z.%.~ w % = w * w p # 8 +.<X3X| * b ) / _ ..'.3XvXu.BXBX",
"BXBXBXBXBX* l / J.V.>XoXJ.} i % l Q ] ] ] G w i ) }.4X2XXX8 & # 6 6 # a #.cXl.BXBX",
"BXBXBXBX+ s } K.'.A.,X[.) p * G 6.8.r.v.b.a.^ % ) {.>X2X@Xx s [ a.R.<.* 6 z.O.BXBX",
"BXBXBXB s } J.'.A.C.].@.d % [ e.r.y.c.Q.^.~.6.% f O.l.L.| + F Y.kXlXxX8.* n [ > BX",
"BXBXBX+ n K.V.A.B.V.$.d % Q 0.0.r.c.Q.Q.P.P.v.] w % & f % l 7.R.U.^.lXlXF + : 1 BX",
"BXBXBXg f t.[.C.V.J./ & v r.r.0.c./.!.!././.(.c.>.Q v v ! q.n.Y.(.W.(.bXp., ; I BX",
"BXBXBXk w ~ M.A.'.%.i l 6.0.6.v.W./.W.!.Q.Q.W./.n.n.c.v.W.!.(.(./.n.!.zXzXy - s.BX",
"BXBX1.@ w _ m.V.J.( & G 7.Q 6.c.Q.Q./.!./.Q.P.Q.Q./.Q.Q.).!.!.!.!./.P.kXxXI @ BXBX",
"BX1.@ l @.M.A.[.J.x # ] 6.Q 0.!.Q.W./.!.Q./.Q.Q.Q.Q.Q./.Q.W./.!.Q.W./.^.xX8.$ BXBX",
"BXq 0 t.'.C.D.V.$.a 0 B ` 0.v.!.!.^.W.Q.Q.I.Q.Q.W./.Q.W./.!.!.Q.Q.Q.Q.~.lXr.9 i.BX",
"BX9 j l.'.A.C.].#.& j l H 0.n.!.^.^.T.~.~.~.^.~./.Q.!.!././.W./.Q.~.!.^.lXx.X 1.BX",
"BX=.0 n g.`.`.'.O.+ H :.:.0.P.~.b.q.6.9.8.q.d.Y.W.W.(.!.!.~.!./.!.Y.n.b.kXR.: 4.BX",
"BXBXA * d } l.K.O.* A 7.] ,.!.^. .h = % = e t S  .v.jX!.~.!.!.r.:.! I I q.s.9 <.BX",
"BXBXBX&.e p p v S , v e.,.w.T.:.e $ s s j c j # % ] b.^.Q.I.w.S 0 X $ X h P 1 <.BX",
"BXBXBXBXBX=.V : > , v 9.w.w.b.G * g W o.O.#.+.{ 6 e d.(.Q.I.Q = 0 W { W @ - - p.BX",
"BXBXBXBXBXBXBXh , t t ,.y.9.5.9 $ R ( j.j.k.k.g.R @ 2.n.I.U.v & W j.j.#.j , - s.BX",
"BXBXBXBXBXBX<.: D N w :.w.w.*.$ 6 W ..j.F.=X-X`.{ @ &.hXT.y.k i ..k.|.J.c : O BXBX",
"BXBXBXBXBXBXP @ P h > H e.e.,.+ 7 { j.Z.5XeX4X<XO.X ' jXI.U.g 6 X.}.<XXXc # 9 BXBX",
"BXBXBXBXBXBXBXC @ 1 > e 2.q.:.j 7 { +.N.-X5X<X|.R : >.n./.P.J & _ `.z.g.6 + K BXBX",
"BXBXBXBXBXBXBXBXi.I m : V ] 2.k X 7 o.g.`.}.`...& D a./.~.T.6.# 6 R W W @ @ i.BXBX",
"BXBXBXBXBXBXBXBXBXBXBXD > 1 k h 9 0 7 x R T T 8 7 ] !.(.Y.Y.P.Q : 0 X o ; M BXBXBX",
"BXBXBXBXBXBXBXBXBXBXBXBXs.P r ; o o o : < # # s [ c.~.~.(.(.).a.P . 4 o Y BXBXBXBX",
"BXBXBXBXBXBXBXBXBXBXBXBXBXBXBXBX4.Z 2 M &.1.,.5.9.U.T.~.n.c./.I.P 4 4 i.BXBXBXBXBX",
"BXBXBXBXBXBXBXBXBXBXBXBXBXBXBXBXBXBX9 : 8.R.r.w.w.y.).T.r.q.n.v.B 2 BXBXBXBXBXBXBX",
"BXBXBXBXBXBXBXBXBXBXBXBXBXBXBXBXBXE # < ' 2.-.J | w.Y.q.! S  .:.0 H BXBXBXBXBXBXBX",
"BXBXBXBXBXBXBXBXBXBXBXBXBXBXBX,.& 7 $ @ r D , , r ' *.G * > , 9 * s.BXBXBXBXBXBXBX",
"BXBXBXBXBXBXBXBXBXBXBXBXBXBXH X n #.,.g , O u u , > h   < h y ; @ BXBXBXBXBXBXBXBX",
"BXBXBXBXBXBXBXBXBXBXBXBXBXj X { {.wXL.p < N ^ ;.! y 2 2 : q U o 2 i.BXBXBXBXBXBXBX",
"BXBXBXBXBXBXBXBXBXBXBXx.h 0 [ #XwX1X} & k ! -.>.q.! q K : 0 q : ; q P *.BXBXBXBXBX",
"BXBXBXBXBXBXBXBXBXBXL e $ # H U.3X$.i e ! &.^ >.8.e.M q 9 E 2 o ; 5 o q   P BXBXBX",
"BXBXBXBXBXBXBXBXBXV   V G k * c t.b % N ^ &.8.6.8.1.P o 9 1.q o ; 2 M =.B : K BXBX",
"BXBXBXBXBXBXBXBX&., U 2.e.-.F % w + 1 E -.:.d.8.2.D M M q <.u 5 Y Y Z =.C : : BXBX",
"BXBXBXBXBXBXBXBX1 4 2.1.1.e.' < , y M =.A A ;.;.N 1 . K q 4.Z o U <.2 : 2 : K BXBX",
"BXBXBXBXBXBXBXhX1 V =.K K I I : - r K K * $ B l , - , I q <.Z ; ; M 2 ; <.BXBXBXBX",
"BXBXBXBXBXBXBXs.- 1 - 1 2 - 1 ; , m G 0 # g + & [ L - N M I Z o ; 1 @ 4 BXBXBXBXBX",
"BXBXBXBXBXBXBXBXm 1 1 2 G - m - ; M > & O.#.z R _.{ 7 K C - =.=.; - 1 2.BXBXBXBXBX",
"BXBXBXBXBXBXBXBXBXBXBXI m Y *.; 5 Z @ E E.E.l.K.E.R 7 G h q BXBXBX<.i.BXBXBXBXBXBX",
"BXBXBXBXBXBXBXBXBXBXBXBXBXBXC 1 1 2 j 9.a.E.z.| p * < A 9 V BXBXBXBXBXBXBXBXBXBXBX",
"BXBXBXBXBXBXBXBXBXBXBXBXBX2.  m 9 : A E 9 J H @ r y - N - =.BXBXBXBXBXBXBXBXBXBXBX",
"BXBXBXBXBXBXBXBXBXBXBXBXs.- m m < : 2 < - , O I BX^ O y - b.BXBXBXBXBXBXBXBXBXBXBX",
"BXBXBXBXBXBXBXBXBXBXBXBX1 - D m @ < - y ; ; ^ BXBXf.; ; Z BXBXBXBXBXBXBXBXBXBXBXBX",
"BXBXBXBXBXBXBXBXBXBXBXq 1 m C : 2 h s.BXm *.BXBXBXs.- , s.BXBXBXBXBXBXBXBXBXBXBXBX",
"BXBXBXBXBXBXBXBXBXBXm , - 2 > 2 <.BXBXBXBXBXBXBXBXBX: 1.BXBXBXBXBXBXBXBXBXBXBXBXBX",
"BXBXBXBXBXBXBXBXBXK 1   1 m <.BXBXBXBXBXBXBXBXBXBXBXBXBXBXBXBXBXBXBXBXBXBXBXBXBXBX",
"BXBXBXBXBXBXBXBXBXp.I <.s.BXBXBXBXBXBXBXBXBXBXBXBXBXBXBXBXBXBXBXBXBXBXBXBXBXBXBXBX"
};
