/* XPM */
static char *result[] = {
/* columns rows colors chars-per-pixel */
"41 60 236 2 ",
"   c #140F0D",
".  c #06120F",
"X  c #12110E",
"o  c #130E13",
"O  c #041514",
"+  c #0B1515",
"@  c #021B15",
"#  c #0C1916",
"$  c #0C161A",
"%  c #021C1B",
"&  c #0C1C1B",
"*  c #001619",
"=  c #141415",
"-  c #1A1514",
";  c #191915",
":  c #14161A",
">  c #1C151B",
",  c #141B1B",
"<  c #1B1B1B",
"1  c #141917",
"2  c #0D0D0F",
"3  c #21151B",
"4  c #211C1A",
"5  c #281E1D",
"6  c #03221C",
"7  c #07231C",
"8  c #13211E",
"9  c #1D211F",
"0  c #21211F",
"q  c #0A1C21",
"w  c #1C1D20",
"e  c #151B22",
"r  c #241D22",
"t  c #032423",
"y  c #0A2524",
"u  c #022B24",
"i  c #0B2A26",
"p  c #062B2A",
"a  c #142222",
"s  c #1B2223",
"d  c #1C2D2B",
"f  c #192828",
"g  c #03322B",
"h  c #07342A",
"j  c #15332D",
"k  c #063B34",
"l  c #163835",
"z  c #1B2D31",
"x  c #242424",
"c  c #2A2525",
"v  c #23232A",
"b  c #242C2C",
"n  c #2B2B2B",
"m  c #2A2729",
"M  c #32292B",
"N  c #33312F",
"B  c #292D34",
"V  c #243335",
"C  c #2B3333",
"Z  c #2B353C",
"A  c #283B38",
"S  c #333434",
"D  c #393533",
"F  c #333C3B",
"G  c #38393A",
"H  c #2E2F31",
"J  c #42393E",
"K  c #17473D",
"L  c #064136",
"P  c #28423D",
"I  c #33423E",
"U  c #363C42",
"Y  c #2E3C47",
"T  c #483D47",
"R  c #1A4945",
"E  c #0C5649",
"W  c #1A5248",
"Q  c #0D544C",
"!  c #324143",
"~  c #3B4343",
"^  c #3A474C",
"/  c #29544B",
"(  c #384A51",
")  c #265E54",
"_  c #325C55",
"`  c #294A46",
"'  c #1B6557",
"]  c #15725F",
"[  c #28675C",
"{  c #34685B",
"}  c #386B64",
"|  c #287666",
" . c #38756A",
".. c #2F736C",
"X. c #1C7967",
"o. c #424442",
"O. c #444449",
"+. c #4B4C4C",
"@. c #494649",
"#. c #484C53",
"$. c #574C5B",
"%. c #4C5455",
"&. c #4C5A5B",
"*. c #475358",
"=. c #545553",
"-. c #525D5D",
";. c #5D5B5C",
":. c #585859",
">. c #54504F",
",. c #615D5E",
"<. c #63615D",
"1. c #545E61",
"2. c #585C62",
"3. c #4D5B64",
"4. c #655F61",
"5. c #556366",
"6. c #53646B",
"7. c #5A666B",
"8. c #596869",
"9. c #487369",
"0. c #556B72",
"q. c #5C6C75",
"w. c #5E6E7B",
"e. c #427C75",
"r. c #5C727A",
"t. c #5B7977",
"y. c #4A6967",
"u. c #666868",
"i. c #73696E",
"p. c #656C75",
"a. c #736E72",
"s. c #63737C",
"d. c #6B7778",
"f. c #797978",
"g. c #68716E",
"h. c #82797D",
"j. c #398878",
"k. c #2D8573",
"l. c #4B867A",
"z. c #4D897B",
"x. c #6C7C84",
"c. c #687C85",
"v. c #727E8C",
"b. c #5E7482",
"n. c #857881",
"m. c #3B9789",
"M. c #39A38D",
"N. c #29AC96",
"B. c #3CAB94",
"V. c #37AA95",
"C. c #39B298",
"Z. c #2CB29A",
"A. c #2AB7A1",
"S. c #3BB7A5",
"D. c #468C82",
"F. c #489587",
"G. c #589487",
"H. c #6C838D",
"J. c #6C8A8D",
"K. c #678688",
"L. c #72858C",
"P. c #79838D",
"I. c #778689",
"U. c #6E8692",
"Y. c #6D8B95",
"T. c #638F90",
"R. c #748694",
"E. c #798595",
"W. c #728994",
"Q. c #7A8C95",
"!. c #748B99",
"~. c #7A8A99",
"^. c #699393",
"/. c #739495",
"(. c #44A38E",
"). c #42A592",
"_. c #4BA494",
"`. c #46AA99",
"'. c #54AD9B",
"]. c #57AB95",
"[. c #45B09E",
"{. c #54A692",
"}. c #68A697",
"|. c #74A99B",
" X c #4CBAA5",
".X c #5AB8A6",
"XX c #68BAA6",
"oX c #73B8AA",
"OX c #3AC2A9",
"+X c #3BC8B2",
"@X c #3DD2BA",
"#X c #45C3AA",
"$X c #56C4AA",
"%X c #46CBB6",
"&X c #56CBB3",
"*X c #45D6BD",
"=X c #59D6B7",
"-X c #64C9B4",
";X c #79CCB7",
":X c #6ACCB2",
">X c #6BE1BF",
",X c #55E1BE",
"<X c #3EE5C8",
"1X c #47DDC3",
"2X c #58DBC4",
"3X c #67D9C7",
"4X c #75DAC6",
"5X c #44E2C6",
"6X c #4CE4C7",
"7X c #4CE2C9",
"8X c #45E8CC",
"9X c #54E2C7",
"0X c #57E5CA",
"qX c #4CECD1",
"wX c #67E6CB",
"eX c #69E6D2",
"rX c #6AF1D4",
"tX c #75F1DA",
"yX c #77EAD9",
"uX c #7EF8E2",
"iX c #828282",
"pX c #8D8689",
"aX c #86979D",
"sX c #879091",
"dX c #97A7AB",
"fX c #89B0A9",
"gX c #A4ABB3",
"hX c #A8B3BA",
"jX c #8E9BA3",
"kX c #83CAB6",
"lX c #B4B7C0",
"zX c #87E7D5",
"xX c #80F0DA",
"cX c #8FF9EA",
"vX c #8BDAC7",
"bX c None",
/* pixels */
"bXbXbXu.:.=.~ -.;.a.h.bXbXbXbXbXbXbXbXbXbXbXbXbXbXbXbXbXbXbXbXbXbXbXbXbXbXbXbXbXbX",
"o.; - 1 = # i @ t O + 9 ; f.bXbXbXbXbXbXbXbXbXbXbXbXbXbXbXbXbXbXbXbXbXbXbXbXbXbXbX",
"f.4 1 # P { j.k.| | ) p + @.bXbXbXbXbXbXbXbXbXbXbXbXbXbXbXbXbXbXbXbXbXbXbXbXbXbXbX",
"bXbXU s j G..X=X2X3X_.g y , C C C A F ^ +.5.v.bXbXbXbXbXbXbXbXbXbXbXbXbXbXbXbXbXbX",
"bXbXbXd 6 .._. X2X3X[.L p p p p h u u u u t e + 7 8 I =.bXbXbXbXbXbXbXbXbXbXbXbXbX",
"bXbX;., t  . XS.1X7X2X X[.`..X'..X'.'.F.D.e.} _ K h 6 @ # a ~ bXbXbXbXbXbXbXbXbXbX",
"bXf.# i [ ).%X6XqX8X1X7X7X7X0X7X9XwXrXtXzXzX4X-X=X$X{.l.[ h y + v 2.bXbXbXbXbXbXbX",
"bXg., K F.M.#X6X8X<X8X8X<X8X7X7X6X6X6X0XyXcXxXrX,X[.| }.vX:XT._ i % s bXbXbXbXbXbX",
"bXbXb % K m.M.OX*X8X8X8X8X7X%XS.+X*X1XeXcXcXuXwX=X] % l .XzXcXzX'.] 6 : bXbXbXbXbX",
"bXbXbXd 6 g | ).C.OX+X5X7X7X7X1X+XA.S.2XeXeXtXtX=XK * q | zXxXyXwX&Xz.f o bXbXbXbX",
"bXbXbXbXO., y ) D.[.Z.A.1X7X7X7X1X@XA.N.%X2X9XwXj.6 i p k oX4XrXrXwX4X} % bXbXbXbX",
"bXbXbXbXbXi.w % K m.`.Z.A.7X1XqX8X7X@XA.Z. X*X=XW 6 y.l q e.4X=X,XwX.XE t d.bXbXbX",
"bXbXbXbXbXbXbXb 6 W _.C.Z.6X8X<X1X7X7XS.N.N.OX$Xl & K.z.y R '.2X2X.XE * e i.bXbXbX",
"bXbXbXbXbXbXbXbX8 g j.V.%X6X7X1X1X X XV.[.`.B.].` . z.fXz * E &X2XB.g t % $ b bXbX",
"bXbXbXbXbXbXbXo.O K m.#X*X%X X`.D.[ [ [ [  .z.{ 6 6 j.:Xi q E $X3X3XM.X.' W 7 1 bX",
"bXbXbXbXbXbXb O h j.[.=X#XC...Q p * q q 6 i k 6 6 ) :X;XK % W D.....).-X;XkX{ 7 bX",
"bXbXbXbXg.& t W D.`.&X X).[ t & q B B Y A y % * R ].=X>XG.u 7 & q * t R G.;Xz.6 bX",
"bXbXbXg.O i [ F.M.S.&XB.' t % H $.3.p.b.c.6.Z e } XX=X4X|.j $ B O.&.B % k oX} 6 bX",
"bXbXbXs h { ).M.V.[.'.[ t * F 2.6.b.x.v./.J.Y + j e.'.].9.@ z I.dXhXdX! O / _ 6 bX",
"bXbXu.: R F.`.V.V.B...p % ! 5.6.q.c.c.v.^.Y.p.B q y k k t e ( K.L.aXhXaXa 8 d # bX",
"bXbXf.o R D.).V.B.m.L O Z 5.7.6.c.Y.^.^.T.^.Q.u.Y e t y z *.c.^.T.J.aXhXT > > M bX",
"bXbXbXe t E M.B.).[ % f 1.6.6.c.Y.H.Y.Y.T.W.R.E.v.s.6.0.c.L.W.J.J.Y.Q.gXsX3 o 4.bX",
"bXbX@.: * E M.`.F.L @ U 1.Y 6.v.~.U.Y.!.R.R.R.~.R.~.W.Q.Q.Q.L.W.U.W.U.jXgXr 3 bXbX",
"bXU : f ..m.[.).j.6 9 %.&.z w.R.R.~.R.R.R.R.!.U.U.!.U.W.H.W.W.R.L.R.U.aXlXT 5 bXbX",
"bX< f l._.S.N.B.{ @ 9 C I 8.x.E.!.~.!.v.v.!.Y.Y.Y.Y.Y.Y.Y.!.R.R.E.R.W.Q.hX:.: z.bX",
"iX. P G._.M.V.B.[ 6 d 8 ^ 7.L.R.v.v.!.v.~.v.Y.Y.T.Y.Y.Y.Y.R.~.v.E.R.R.W.hXg.# a.bX",
"bXH % / F.(.(.(.K 7 I ~ *.q.W.U.!.!.!.!.!.!.Y.Y.Y.R.R.!.U.!.R.!.~.R.W.L.gXf.& 8.bX",
"bXbXf 6 K } z.G.P # ! 5.^ 0.W.Y.Y.!.!.v.Y.Y.!.Y.R.!.R.R.!.U.!.R.R.W.W.J.dXd.: 7.bX",
"bXbXbXS # ; d P B $ Z 6.( b.!.Y.Y.Y.Y.Y.Y.Y.Y.Y.v.~.R.R.U.!.U.R.W.R.W.L.dXd.= u.bX",
"bXbXbXbXf.I 0 ; : : Y 6.0.b.v.Y.Y.Y.Y.!.Y.Y.Y.Y.aXv.!.Y.Y.Y.!.U.W.Y.W.W.dX7.= a.bX",
"bXbXbXbXbXbX<.X e : V 3.0.b.v.!.!.!.v.!.Y.Y.!.~.v.v.Y.Y.Y.Y.U.!.W.Y.W.J.dX&.1 pXbX",
"bXbXbXbXbXbXJ ; B q y 3.y.0.v.!.v.!.v.!.Y.!.!.v.~.~.Y.Y.Y.Y.Y.R.W.W.J.I.dX^ - bXbX",
"bXbXbXbXbXbX- > I , , ( 0.5.d.I.H.Q.W.H.W.W.E.U.Y.Y.Y.Y.W.Y.J.W.L.Q.I.I.I.x b bXbX",
"bXbXbXbXbXbXu.- 1 s O b 8.8.8.8.Z Z *.p.s.s.s.q.0.c.Y.Y.W.W.L.0.5.2.*.F , 1 S bXbX",
"bXbXbXbXbXbXbXbX>.x r , C -.8.*.f = < < - r v e e *.R.H.L.L.b.z O $ # + , < a.bXbX",
"bXbXbXbXbXbXbXbXbXbXu.> , , b A S N c M m w e B B 7.Q.P.E.E.v.Y Z F b < 1 9 bXbXbX",
"bXbXbXbXbXbXbXbXbXbXbXbX>.n : , , 8 b %.g.d.K.s.s.R.R.R.R.U.!.v.p.~ s + < v.bXbXbX",
"bXbXbXbXbXbXbXbXbXbXbXbXbXbXbX5.F # a %.z.I.W.r.s.R.U.R.U.U.!.v.S , < +.bXbXbXbXbX",
"bXbXbXbXbXbXbXbXbXbXbXbXbXbXbXbXbXO.+ V d.d.r.6.6.H.!.H.r.b.R.q.s 0 bXbXbXbXbXbXbX",
"bXbXbXbXbXbXbXbXbXbXbXbXbXbXbXbXi.> : a &.7.#.( 6.r.H.q.( Y 0.*.: +.bXbXbXbXbXbXbX",
"bXbXbXbXbXbXbXbXbXbXbXbXbXbXbXb . 8 + 7 x C $ e V &.-.b 8 ; 9 0 1 bXbXbXbXbXbXbXbX",
"bXbXbXbXbXbXbXbXbXbXbXbXbXsX7 6 / 9.A # = 4 > : 7 8 9 - 4 4 X ; c bXbXbXbXbXbXbXbX",
"bXbXbXbXbXbXbXbXbXbXbXbXsX@ 7 { :X;X/ $ > M U ^ f X ; 3   M c ; 4 bXbXbXbXbXbXbXbX",
"bXbXbXbXbXbXbXbXbXbXbXbX8 6 9.kX4X`.g q B T *.1.&.C 5 M 4 5 ; X - N <.bXbXbXbXbXbX",
"bXbXbXbXbXbXbXbXbXbXi.x 7 6 _ |.oX' % v T $.#.-.-.+.< < J J   ; < X X X S bXbXbXbX",
"bXbXbXbXbXbXbXbXbX@.o w 9 8 i /  .6 q U T $.$.5.5.%.v > J @.; X < ; D c 4 c bXbXbX",
"bXbXbXbXbXbXbXbXu.w x @.%.~ f + & O V +.#.$.u.=.I 9 9 c J o.; ; =.c N o.3 - f.bXbX",
"bXbXbXbXbXbXbXbXs , +.2.2.7.S < X x S G b S %.S 9 . n n N :.; ; o.D 0 X 3 5 z.bXbX",
"bXbXbXbXbXbXbXbX> n :.+.o.+.U - : x G x : + v : 1 , < S H >.4 c 9 9 < m :.f.bXbXbX",
"bXbXbXbXbXbXbXiX1 m m 1 1 < ; < r H w + f a O d &.f , A 0 D   ; c 0 1 bXbXbXbXbXbX",
"bXbXbXbXbXbXbXbX- = 1 x r = < 2 3 M w z t.W k  .|.d & ~ 1 c o.; ; X G bXbXbXbXbXbX",
"bXbXbXbXbXbXbXbX+.H G - 9 =.m r r 3 : y.}.}.F.G.{ i 8 n X >.bXbX+.+.bXbXbXbXbXbXbX",
"bXbXbXbXbXbXbXbXbXbXbXbXbXu.= , x # I t.9.z.t.h % $ s S < <.bXbXbXbXbXbXbXbXbXbXbX",
"bXbXbXbXbXbXbXbXbXbXbXbXbX< < x , + P d 8 A a 1 b : x < 2 bXbXbXbXbXbXbXbXbXbXbXbX",
"bXbXbXbXbXbXbXbXbXbXbXbXD - x x + 8 , 1 = > > a.bXm = - c bXbXbXbXbXbXbXbXbXbXbXbX",
"bXbXbXbXbXbXbXbXbXbXbX+., x n < # 7 s x 3 > n.bXbXD = < ;.bXbXbXbXbXbXbXbXbXbXbXbX",
"bXbXbXbXbXbXbXbXbXbX,.< 1 c < < ; +.bXiXm iXbXbXbXO.< m bXbXbXbXbXbXbXbXbXbXbXbXbX",
"bXbXbXbXbXbXbXbXbXu.< = 1 < = n pXbXbXbXbXbXbXbXbXiXS bXbXbXbXbXbXbXbXbXbXbXbXbXbX",
"bXbXbXbXbXbXbXbXbX= 1 - 1 G h.bXbXbXbXbXbXbXbXbXbXbXbXbXbXbXbXbXbXbXbXbXbXbXbXbXbX",
"bXbXbXbXbXbXbXbXbX+.o.u.bXbXbXbXbXbXbXbXbXbXbXbXbXbXbXbXbXbXbXbXbXbXbXbXbXbXbXbXbX"
};
