/* XPM */
static char *result[] = {
/* columns rows colors chars-per-pixel */
"40 50 118 2 ",
"   c #070006",
".  c #0A0009",
"X  c #11000E",
"o  c #1A0015",
"O  c #1E0019",
"+  c #25001E",
"@  c #21101E",
"#  c #2B0024",
"$  c #300027",
"%  c #34002A",
"&  c #39002F",
"*  c #340E2D",
"=  c #31182C",
"-  c #3D0032",
";  c #361B31",
":  c #410035",
">  c #4A013D",
",  c #421B3B",
"<  c #4F0041",
"1  c #550045",
"2  c #570048",
"3  c #5B014B",
"4  c #640053",
"5  c #6A0157",
"6  c #6C0159",
"7  c #6D0D5C",
"8  c #73015F",
"9  c #4A2543",
"0  c #4F2848",
"q  c #552B4D",
"w  c #5B2C52",
"e  c #69265D",
"r  c #603057",
"t  c #750161",
"y  c #7C0066",
"u  c #730F61",
"i  c #7F0069",
"p  c #731062",
"a  c #733A68",
"s  c #82026C",
"d  c #870570",
"f  c #8B0373",
"g  c #8B0A74",
"h  c #900277",
"j  c #95027B",
"k  c #98037D",
"l  c #94167E",
"z  c #824276",
"x  c #961E80",
"c  c #9B1E85",
"v  c #A10485",
"b  c #A60689",
"n  c #A9068C",
"m  c #A30F88",
"M  c #AB088E",
"N  c #A01687",
"B  c #A7128C",
"V  c #AF0691",
"C  c #B40695",
"Z  c #BA069A",
"A  c #B70998",
"S  c #BC089C",
"D  c #AF1393",
"F  c #AD1F94",
"G  c #B01394",
"H  c #B61699",
"J  c #9F2188",
"K  c #923A82",
"L  c #A32A8E",
"P  c #B3359C",
"I  c #BE35A5",
"U  c #BA3BA4",
"Y  c #C0079F",
"T  c #C207A1",
"R  c #C807A6",
"E  c #C509A4",
"W  c #C909A6",
"Q  c #CD09AA",
"!  c #D909B4",
"~  c #DE0AB8",
"^  c #E20BBC",
"/  c #CB3EB2",
"(  c #99498A",
")  c #A0408F",
"_  c #A64294",
"`  c #AB4599",
"'  c #B14E9F",
"]  c #AE589F",
"[  c #B1509F",
"{  c #B547A1",
"}  c #B548A1",
"|  c #B949A5",
" . c #BF44AA",
".. c #B452A2",
"X. c #B058A0",
"o. c #BF52AB",
"O. c #C244AC",
"+. c #C350AE",
"@. c #D454BD",
"#. c #C866B6",
"$. c #D169BE",
"%. c #EB0BC4",
"&. c #F40CCB",
"*. c #F90CCF",
"=. c #FD0DD3",
"-. c #FF0EDA",
";. c #DC5DC5",
":. c #DB6FC7",
">. c #DC70C8",
",. c #E364CC",
"<. c #E471CF",
"1. c #EF6ED8",
"2. c #F473DD",
"3. c #F17ADB",
"4. c #FF73E7",
"5. c #FA7DE4",
"6. c #FF82EB",
"7. c None",
/* pixels */
"7.7.7.7.7.7.7.7.7.7.7.7.7.7.7.7.7.7.7.7.7.7.7.7.7.7.7.7.7.7.7.7.7.7.7.7.7.7.7.7.",
"7.7.7.7.7.7.7.7.7.7.7.7.7.7.7.7.7.7.7.7.7.7.7.7.7.7.7.7.7.7.7.7.7.7.7.7.7.7.7.7.",
"7.7.7.7.7.7.7.7.7.7.7.7.7.7.7.7.7.7.7.7.7.7.7.7.7.7.7.7.7.7.7.7.7.7.7.7.7.7.7.7.",
"7.7.7.7.7.7.7.7.7.7.7.7.7.7.7.7.7.7.7.7.7.7.7.7.7.7.7.7.7.7.7.7.7.7.7.7.7.7.7.7.",
"7.7.7.7.7.7.7.7.7.7.7.7.7.7.7.7.7.7.7.7.7.7.7.7.7.7.7.7.7.7.7.7.7.7.7.7.7.7.7.7.",
"7.7.7.7.7.7.7.7.7.7.7.7.7.7.7.7.7.7.7.7.7.7.7.7.7.7.7.7.7.7.7.7.7.7.7.7.7.7.7.7.",
"7.7.7.7.7.7.7.7.7.7.7.7.7.7.7.7.7.7.7.7.7.7.7.7.7.7.7.7.7.7.7.7.7.7.7.7.7.7.7.7.",
"7.7.7.7.7.7.7.7.7.7.7.7.7.7.7.7.7.7.7.7.7.7.7.7.7.7.7.7.7.7.7.7.7.7.7.7.7.7.7.7.",
"7.7.7.7.7.7.7.7.7.7.7.7.7.7.7.7.7.7.7., 7.7.7.7.7.7.7.7.7.7.7.7.7.7.7.7.7.7.7.7.",
"7.7.7.7.7.7.7.7.7.7.7.7.7.7.7.7.7.7.X x * 7.7.7.7.7.7.7.7.7.7.7.7.7.7.7.7.7.7.7.",
"7.7.7.7.7.7.7.7.7.7.7.7.7.7.7.7.7.7.+ G K 7.7.7.7.7.7.7.7.7.7.7.7.7.7.7.7.7.7.7.",
"7.7.7.7.7.7.7.7.7.7.7.7.7.7.7.7.7.O $ H o.7.7.7.7.7.7.7.7.7.7.7.7.7.7.7.7.7.7.7.",
"7.7.7.7.7.7.7.7.7.7.7.7.7.7.7.7.7.- : G 4.q 7.7.7.7.7.7.7.7.7.7.7.7.7.7.7.7.7.7.",
"7.7.7.7.7.7.7.7.7.7.7.7.7.7.7.7.o 4 : G 4.X.7.7.7.7.7.7.7.7.7.7.7.7.7.7.7.7.7.7.",
"7.7.7.7.7.7.7.7.7.7.7.7.7.7.7.7.# t : v / >.; 7.7.7.7.7.7.7.7.7.7.7.7.7.7.7.7.7.",
"7.7.7.7.7.7.7.7.7.7.7.7.7.7.7.7.3 y : v F 2.z 7.7.7.7.7.7.7.7.7.7.7.7.7.7.7.7.7.",
"7.7.7.7.7.7.7.7.7.7.7.7.7.7.7.# 6 y - L g ;.#.= 7.7.7.7.7.7.7.7.7.7.7.7.7.7.7.7.",
"7.7.7.7.7.7.7.7.7.7.7.7.7.7.7.- s y - _ l ,.5.0 7.7.7.7.7.7.7.7.7.7.7.7.7.7.7.7.",
"7.7.7.7.7.7.7.7.7.7.7.7.7.7.X 6 y y : _ U ,.2.X.7.7.7.7.7.7.7.7.7.7.7.7.7.7.7.7.",
"7.7.7.7.7.7.7.7.7.7.7.7.7.7.% t f j : ( O.J U >.9 7.7.7.7.7.7.7.7.7.7.7.7.7.7.7.",
"7.7.7.7.7.7.7.7.7.7.7.7.7.7.< y j Z - N I P ,.6.a 7.7.7.7.7.7.7.7.7.7.7.7.7.7.7.",
"7.7.7.7.7.7.7.7.7.7.7.7.7.+ s f k C - m / U 5.6.$.@ 7.7.7.7.7.7.7.7.7.7.7.7.7.7.",
"7.7.7.7.7.7.7.7.7.7.7.7.7.: Q ~ v C - ' 1.O.5.6.3.r 7.7.7.7.7.7.7.7.7.7.7.7.7.7.",
"7.7.7.7.7.7.7.7.7.7.7.7.. 4 n *.^ Z - ..@.;.;.P O.( 7.7.7.7.7.7.7.7.7.7.7.7.7.7.",
"7.7.7.7.7.7.7.7.7.7.7.7.& y j &.=.C - X.@.l g t O.<.e 7.7.7.7.7.7.7.7.7.7.7.7.7.",
"7.7.7.7.7.7.7.7.7.7.7.7.- j %.&.h : $ [ 6.P c U 5.6.w 7.7.7.7.7.7.7.7.7.7.7.7.7.",
"7.7.7.7.7.7.7.7.7.7.7.7.3 S T T b 2 1 | +.` O.| |  ., 7.7.7.7.7.7.7.7.7.7.7.7.7.",
"7.7.7.7.7.7.7.7.7.7.7.7.g %.k ! %.s i O.7 - 8 1 4 3 # 7.7.7.7.7.7.7.7.7.7.7.7.7.",
"7.7.7.7.7.7.7.7.7.7.7.7.% n Z R M y 5 _ p : t 4 4 & 7.7.7.7.7.7.7.7.7.7.7.7.7.7.",
"7.7.7.7.7.7.7.7.7.7.7.7.7.1 C S j s y _ p % 3 6 1 - 7.7.7.7.7.7.7.7.7.7.7.7.7.7.",
"7.7.7.7.7.7.7.7.7.7.7.7.7.# f Y y n S _ p % 3 6 #   7.7.7.7.7.7.7.7.7.7.7.7.7.7.",
"7.7.7.7.7.7.7.7.7.7.7.7.7.7.5 T y R W _ p $ 3 t $ 7.7.7.7.7.7.7.7.7.7.7.7.7.7.7.",
"7.7.7.7.7.7.7.7.7.7.7.7.7.7.3 C f *.E _ p % 2 > o 7.7.7.7.7.7.7.7.7.7.7.7.7.7.7.",
"7.7.7.7.7.7.7.7.7.7.7.7.7.7.- y C -.E _ p % 2 : X 7.7.7.7.7.7.7.7.7.7.7.7.7.7.7.",
"7.7.7.7.7.7.7.7.7.7.7.7.7.7.X 6 ! -.E _ 7 % 2 % 7.7.7.7.7.7.7.7.7.7.7.7.7.7.7.7.",
"7.7.7.7.7.7.7.7.7.7.7.7.7.7.7.> ^ -.E B t % 2 + 7.7.7.7.7.7.7.7.7.7.7.7.7.7.7.7.",
"7.7.7.7.7.7.7.7.7.7.7.7.7.7.7.2 %.-.E b t % : O 7.7.7.7.7.7.7.7.7.7.7.7.7.7.7.7.",
"7.7.7.7.7.7.7.7.7.7.7.7.7.7.7.7.A -.E b t % O 7.7.7.7.7.7.7.7.7.7.7.7.7.7.7.7.7.",
"7.7.7.7.7.7.7.7.7.7.7.7.7.7.7.7.7 =.E b d 3 # 7.7.7.7.7.7.7.7.7.7.7.7.7.7.7.7.7.",
"7.7.7.7.7.7.7.7.7.7.7.7.7.7.7.7.% ^ E b j 3 7.7.7.7.7.7.7.7.7.7.7.7.7.7.7.7.7.7.",
"7.7.7.7.7.7.7.7.7.7.7.7.7.7.7.7.7.g Q b f # 7.7.7.7.7.7.7.7.7.7.7.7.7.7.7.7.7.7.",
"7.7.7.7.7.7.7.7.7.7.7.7.7.7.7.7.7.3 M M t 7.7.7.7.7.7.7.7.7.7.7.7.7.7.7.7.7.7.7.",
"7.7.7.7.7.7.7.7.7.7.7.7.7.7.7.7.7.7.g V 3 7.7.7.7.7.7.7.7.7.7.7.7.7.7.7.7.7.7.7.",
"7.7.7.7.7.7.7.7.7.7.7.7.7.7.7.7.7.7.# s $ 7.7.7.7.7.7.7.7.7.7.7.7.7.7.7.7.7.7.7.",
"7.7.7.7.7.7.7.7.7.7.7.7.7.7.7.7.7.7.7.7.7.7.7.7.7.7.7.7.7.7.7.7.7.7.7.7.7.7.7.7.",
"7.7.7.7.7.7.7.7.7.7.7.7.7.7.7.7.7.7.7.7.7.7.7.7.7.7.7.7.7.7.7.7.7.7.7.7.7.7.7.7.",
"7.7.7.7.7.7.7.7.7.7.7.7.7.7.7.7.7.7.7.7.7.7.7.7.7.7.7.7.7.7.7.7.7.7.7.7.7.7.7.7.",
"7.7.7.7.7.7.7.7.7.7.7.7.7.7.7.7.7.7.7.7.7.7.7.7.7.7.7.7.7.7.7.7.7.7.7.7.7.7.7.7.",
"7.7.7.7.7.7.7.7.7.7.7.7.7.7.7.7.7.7.7.7.7.7.7.7.7.7.7.7.7.7.7.7.7.7.7.7.7.7.7.7.",
"7.7.7.7.7.7.7.7.7.7.7.7.7.7.7.7.7.7.7.7.7.7.7.7.7.7.7.7.7.7.7.7.7.7.7.7.7.7.7.7."
};
