/* XPM */
static char *result[] = {
/* columns rows colors chars-per-pixel */
"40 50 119 2 ",
"   c #0F000C",
".  c #10000D",
"X  c #140211",
"o  c #1A0016",
"O  c #1F0019",
"+  c #1F0B1B",
"@  c #22001C",
"#  c #2C0024",
"$  c #34002B",
"%  c #38012E",
"&  c #261122",
"*  c #2D1729",
"=  c #331A2E",
"-  c #3D0032",
";  c #3D1636",
":  c #410035",
">  c #440138",
",  c #49003C",
"<  c #42183B",
"1  c #43223D",
"2  c #4E0040",
"3  c #520044",
"4  c #5A024B",
"5  c #5E1050",
"6  c #640153",
"7  c #6C0259",
"8  c #73025F",
"9  c #582E50",
"0  c #740160",
"q  c #7C0066",
"w  c #720F60",
"e  c #780B65",
"r  c #7E0068",
"t  c #7B0F68",
"y  c #6B3661",
"u  c #7D3A71",
"i  c #83026C",
"p  c #82106E",
"a  c #8D0274",
"s  c #890C73",
"d  c #8E0F78",
"f  c #900677",
"g  c #95047B",
"h  c #99057F",
"j  c #98087E",
"k  c #8D1077",
"l  c #91137B",
"z  c #834177",
"x  c #9D0583",
"c  c #9C0882",
"v  c #971C82",
"b  c #9C1E85",
"n  c #A20586",
"m  c #A6068A",
"M  c #A9068C",
"N  c #A60E8B",
"B  c #A01888",
"V  c #AE0790",
"C  c #B30694",
"Z  c #B50897",
"A  c #BB079B",
"S  c #BE099E",
"D  c #AC1091",
"F  c #B31697",
"G  c #992A85",
"H  c #8F3F81",
"J  c #983285",
"K  c #9B3A89",
"L  c #A02089",
"P  c #AB2C94",
"I  c #B3269A",
"U  c #A73F94",
"Y  c #AF3299",
"T  c #C0079F",
"R  c #C407A3",
"E  c #C50AA4",
"W  c #C909A7",
"Q  c #CB08A9",
"!  c #D00AAC",
"~  c #C016A2",
"^  c #D608B2",
"/  c #DD0AB8",
"(  c #D21FB2",
")  c #E10ABB",
"_  c #DF2ABF",
"`  c #8E4280",
"'  c #A0428F",
"]  c #A64294",
"[  c #A94497",
"{  c #AC4399",
"}  c #A94B98",
"|  c #B3469F",
" . c #B04F9E",
".. c #A25294",
"X. c #AF589F",
"o. c #B1509F",
"O. c #B441A0",
"+. c #B847A4",
"@. c #B351A1",
"#. c #BD5EAC",
"$. c #C344AC",
"%. c #C548AE",
"&. c #D244B9",
"*. c #D248B9",
"=. c #D253BC",
"-. c #CE69BC",
";. c #EE0CC6",
":. c #F50CCB",
">. c #F90CCF",
",. c #E718C2",
"<. c #FF0DD5",
"1. c #FF0DD8",
"2. c #DA5CC3",
"3. c #EA6BD3",
"4. c #EE75D8",
"5. c #F373DC",
"6. c #FC7DE5",
"7. c #FF82EB",
"8. c None",
/* pixels */
"8.8.8.8.8.8.8.8.8.8.8.8.8.8.8.8.8.8.8.8.8.8.8.8.8.8.8.8.8.8.8.8.8.8.8.8.8.8.8.8.",
"8.8.8.8.8.8.8.8.8.8.8.8.8.8.8.8.8.8.8.8.8.8.8.8.8.8.8.8.8.8.8.8.8.8.8.8.8.8.8.8.",
"8.8.8.8.8.8.8.8.8.8.8.8.8.8.8.8.8.8.8.8.8.8.8.8.8.8.8.8.8.8.8.8.8.8.8.8.8.8.8.8.",
"8.8.8.8.8.8.8.8.8.8.8.8.8.8.8.8.8.8.8.8.8.8.8.8.8.8.8.8.8.8.8.8.8.8.8.8.8.8.8.8.",
"8.8.8.8.8.8.8.8.8.8.8.8.8.8.8.8.8.8.8.8.8.8.8.8.8.8.8.8.8.8.8.8.8.8.8.8.8.8.8.8.",
"8.8.8.8.8.8.8.8.8.8.8.8.8.8.8.8.8.8.8.8.8.8.8.8.8.8.8.8.8.8.8.8.8.8.8.8.8.8.8.8.",
"8.8.8.8.8.8.8.8.8.8.8.8.8.8.8.8.8.8.8.8.8.8.8.8.8.8.8.8.8.8.8.8.8.8.8.8.8.8.8.8.",
"8.8.8.8.8.8.8.8.8.8.8.8.8.8.8.8.8.8.8.& 8.8.8.8.8.8.8.8.8.8.8.8.8.8.8.8.8.8.8.8.",
"8.8.8.8.8.8.8.8.8.8.8.8.8.8.8.8.8.8.  H * 8.8.8.8.8.8.8.8.8.8.8.8.8.8.8.8.8.8.8.",
"8.8.8.8.8.8.8.8.8.8.8.8.8.8.8.8.8.8.@ } z 8.8.8.8.8.8.8.8.8.8.8.8.8.8.8.8.8.8.8.",
"8.8.8.8.8.8.8.8.8.8.8.8.8.8.8.8.8.. # +.I 8.8.8.8.8.8.8.8.8.8.8.8.8.8.8.8.8.8.8.",
"8.8.8.8.8.8.8.8.8.8.8.8.8.8.8.8.8.- - { ,.3 8.8.8.8.8.8.8.8.8.8.8.8.8.8.8.8.8.8.",
"8.8.8.8.8.8.8.8.8.8.8.8.8.8.8.8.8.4 : ' ~ G 8.8.8.8.8.8.8.8.8.8.8.8.8.8.8.8.8.8.",
"8.8.8.8.8.8.8.8.8.8.8.8.8.8.8.8.@ 0 : B R ( + 8.8.8.8.8.8.8.8.8.8.8.8.8.8.8.8.8.",
"8.8.8.8.8.8.8.8.8.8.8.8.8.8.8.8.3 q : n g _ u 8.8.8.8.8.8.8.8.8.8.8.8.8.8.8.8.8.",
"8.8.8.8.8.8.8.8.8.8.8.8.8.8.8.@ 6 q : n a $.X.8.8.8.8.8.8.8.8.8.8.8.8.8.8.8.8.8.",
"8.8.8.8.8.8.8.8.8.8.8.8.8.8.8.$ M q : D I l 5.1 8.8.8.8.8.8.8.8.8.8.8.8.8.8.8.8.",
"8.8.8.8.8.8.8.8.8.8.8.8.8.8.8.7 Q i : F *.l 5...8.8.8.8.8.8.8.8.8.8.8.8.8.8.8.8.",
"8.8.8.8.8.8.8.8.8.8.8.8.8.8.@ n ;.f - I *.q $.-.= 8.8.8.8.8.8.8.8.8.8.8.8.8.8.8.",
"8.8.8.8.8.8.8.8.8.8.8.8.8.8., C 1.A - @.=.i 2.7.y 8.8.8.8.8.8.8.8.8.8.8.8.8.8.8.",
"8.8.8.8.8.8.8.8.8.8.8.8.8.@ g A 1.A % o.5.P 6.6.#.8.8.8.8.8.8.8.8.8.8.8.8.8.8.8.",
"8.8.8.8.8.8.8.8.8.8.8.8.8.# Q <.1.A :  .7.%.7.=.+.1 8.8.8.8.8.8.8.8.8.8.8.8.8.8.",
"8.8.8.8.8.8.8.8.8.8.8.8.8.s ) <.1.A % o.5.3.=.d k z 8.8.8.8.8.8.8.8.8.8.8.8.8.8.",
"8.8.8.8.8.8.8.8.8.8.8.8.6 ;.<.<.<.A : o.=.b q q P { 1 8.8.8.8.8.8.8.8.8.8.8.8.8.",
"8.8.8.8.8.8.8.8.8.8.8.8.h 1.<.<.) 4 $ [ L q q q s Y 9 8.8.8.8.8.8.8.8.8.8.8.8.8.",
"8.8.8.8.8.8.8.8.8.8.8.8.c 1.<.! r $ : J e 7 7 v B $.9 8.8.8.8.8.8.8.8.8.8.8.8.8.",
"8.8.8.8.8.8.8.8.8.8.8.8.n :.S g f 8 0 h 3 $ - K %.| < 8.8.8.8.8.8.8.8.8.8.8.8.8.",
"8.8.8.8.8.8.8.8.8.8.8.8.4 A Z <.:.c 7 C 0 $ $ % 6 $ 8.8.8.8.8.8.8.8.8.8.8.8.8.8.",
"8.8.8.8.8.8.8.8.8.8.8.8.8.6 E <./ i 6 m 8 $ $ $ 4 : 8.8.8.8.8.8.8.8.8.8.8.8.8.8.",
"8.8.8.8.8.8.8.8.8.8.8.8.8.# a :.m q 6 m 0 $ $ % $   8.8.8.8.8.8.8.8.8.8.8.8.8.8.",
"8.8.8.8.8.8.8.8.8.8.8.8.8.o g ) a i a m 8 $ % $ @ 8.8.8.8.8.8.8.8.8.8.8.8.8.8.8.",
"8.8.8.8.8.8.8.8.8.8.8.8.8.8.c Q a C V M 8 $ 2 : X 8.8.8.8.8.8.8.8.8.8.8.8.8.8.8.",
"8.8.8.8.8.8.8.8.8.8.8.8.8.8.2 i x A M M 8 $ 4 : . 8.8.8.8.8.8.8.8.8.8.8.8.8.8.8.",
"8.8.8.8.8.8.8.8.8.8.8.8.8.8.X 8 R a V M 8 $ 3 $ 8.8.8.8.8.8.8.8.8.8.8.8.8.8.8.8.",
"8.8.8.8.8.8.8.8.8.8.8.8.8.8.8.3 R C S m 8 $ 3 # 8.8.8.8.8.8.8.8.8.8.8.8.8.8.8.8.",
"8.8.8.8.8.8.8.8.8.8.8.8.8.8.8.4 c R W N 8 $ 3 O 8.8.8.8.8.8.8.8.8.8.8.8.8.8.8.8.",
"8.8.8.8.8.8.8.8.8.8.8.8.8.8.8.8.6 ^ W ] 8 2 : 8.8.8.8.8.8.8.8.8.8.8.8.8.8.8.8.8.",
"8.8.8.8.8.8.8.8.8.8.8.8.8.8.8.8.4 >.E [ p 6 $ 8.8.8.8.8.8.8.8.8.8.8.8.8.8.8.8.8.",
"8.8.8.8.8.8.8.8.8.8.8.8.8.8.8.8.- ;.E ] l 6 8.8.8.8.8.8.8.8.8.8.8.8.8.8.8.8.8.8.",
"8.8.8.8.8.8.8.8.8.8.8.8.8.8.8.8.8.j W ] l # 8.8.8.8.8.8.8.8.8.8.8.8.8.8.8.8.8.8.",
"8.8.8.8.8.8.8.8.8.8.8.8.8.8.8.8.8.7 Z [ t @ 8.8.8.8.8.8.8.8.8.8.8.8.8.8.8.8.8.8.",
"8.8.8.8.8.8.8.8.8.8.8.8.8.8.8.8.8.8.d { 5 8.8.8.8.8.8.8.8.8.8.8.8.8.8.8.8.8.8.8.",
"8.8.8.8.8.8.8.8.8.8.8.8.8.8.8.8.8.8.> K ; 8.8.8.8.8.8.8.8.8.8.8.8.8.8.8.8.8.8.8.",
"8.8.8.8.8.8.8.8.8.8.8.8.8.8.8.8.8.8.8.X 8.8.8.8.8.8.8.8.8.8.8.8.8.8.8.8.8.8.8.8.",
"8.8.8.8.8.8.8.8.8.8.8.8.8.8.8.8.8.8.8.8.8.8.8.8.8.8.8.8.8.8.8.8.8.8.8.8.8.8.8.8.",
"8.8.8.8.8.8.8.8.8.8.8.8.8.8.8.8.8.8.8.8.8.8.8.8.8.8.8.8.8.8.8.8.8.8.8.8.8.8.8.8.",
"8.8.8.8.8.8.8.8.8.8.8.8.8.8.8.8.8.8.8.8.8.8.8.8.8.8.8.8.8.8.8.8.8.8.8.8.8.8.8.8.",
"8.8.8.8.8.8.8.8.8.8.8.8.8.8.8.8.8.8.8.8.8.8.8.8.8.8.8.8.8.8.8.8.8.8.8.8.8.8.8.8.",
"8.8.8.8.8.8.8.8.8.8.8.8.8.8.8.8.8.8.8.8.8.8.8.8.8.8.8.8.8.8.8.8.8.8.8.8.8.8.8.8.",
"8.8.8.8.8.8.8.8.8.8.8.8.8.8.8.8.8.8.8.8.8.8.8.8.8.8.8.8.8.8.8.8.8.8.8.8.8.8.8.8."
};
