/* XPM */
static char *result[] = {
/* columns rows colors chars-per-pixel */
"40 50 116 2 ",
"   c #0C000A",
".  c #140011",
"X  c #1A0115",
"o  c #170B15",
"O  c #180C16",
"+  c #1E0019",
"@  c #22001C",
"#  c #2D0025",
"$  c #2A0F26",
"%  c #34002A",
"&  c #39002F",
"*  c #3D0032",
"=  c #381C33",
"-  c #3D1F38",
";  c #410035",
":  c #440138",
">  c #4B003E",
",  c #4A0E3F",
"<  c #4F0041",
"1  c #540145",
"2  c #570048",
"3  c #5B014B",
"4  c #60004F",
"5  c #640052",
"6  c #690056",
"7  c #6C0159",
"8  c #690958",
"9  c #72015E",
"0  c #6B105A",
"q  c #4D2746",
"w  c #69255D",
"e  c #68345E",
"r  c #750261",
"t  c #7B0065",
"y  c #730960",
"u  c #7E0068",
"i  c #731061",
"p  c #772B69",
"a  c #753B6A",
"s  c #82016B",
"d  c #870770",
"f  c #8B0273",
"g  c #900277",
"h  c #94047B",
"j  c #98037D",
"k  c #92097A",
"l  c #8E1078",
"z  c #892B78",
"x  c #92267F",
"c  c #89467D",
"v  c #9D0482",
"b  c #A10485",
"n  c #A20886",
"m  c #A6068A",
"M  c #AB078E",
"N  c #A60C8B",
"B  c #A3168A",
"V  c #AF0591",
"C  c #B60697",
"Z  c #BE069D",
"A  c #BD099C",
"S  c #B11495",
"D  c #B8179B",
"F  c #973585",
"G  c #993487",
"H  c #A7258F",
"J  c #A02B8B",
"K  c #A72A91",
"L  c #AD2F96",
"P  c #AC3D99",
"I  c #B0319A",
"U  c #BA2CA1",
"Y  c #BF31A5",
"T  c #BC3CA5",
"R  c #C0079F",
"E  c #C307A1",
"W  c #C509A4",
"Q  c #C909A7",
"!  c #CA0AA8",
"~  c #DA09B5",
"^  c #E50BBE",
"/  c #974B8A",
"(  c #984C8A",
")  c #A0418F",
"_  c #A54294",
"`  c #A84295",
"'  c #A94898",
"]  c #B3429F",
"[  c #A65497",
"{  c #BA42A4",
"}  c #B64BA3",
"|  c #B353A2",
" . c #B159A1",
".. c #C242AB",
"X. c #C848B1",
"o. c #D052B9",
"O. c #C765B5",
"+. c #D06ABE",
"@. c #E70BC0",
"#. c #EB0BC3",
"$. c #F20CC9",
"%. c #FD0DD3",
"&. c #FF0DDA",
"*. c #DF50C6",
"=. c #DB5BC4",
"-. c #E261CB",
";. c #E866D1",
":. c #ED6AD6",
">. c #F46DDC",
",. c #E876D4",
"<. c #F273DB",
"1. c #F47BDE",
"2. c #FA7BE3",
"3. c #FF76EB",
"4. c #FF82EA",
"5. c None",
/* pixels */
"5.5.5.5.5.5.5.5.5.5.5.5.5.5.5.5.5.5.5.5.5.5.5.5.5.5.5.5.5.5.5.5.5.5.5.5.5.5.5.5.",
"5.5.5.5.5.5.5.5.5.5.5.5.5.5.5.5.5.5.5.5.5.5.5.5.5.5.5.5.5.5.5.5.5.5.5.5.5.5.5.5.",
"5.5.5.5.5.5.5.5.5.5.5.5.5.5.5.5.5.5.5.5.5.5.5.5.5.5.5.5.5.5.5.5.5.5.5.5.5.5.5.5.",
"5.5.5.5.5.5.5.5.5.5.5.5.5.5.5.5.5.5.5.5.5.5.5.5.5.5.5.5.5.5.5.5.5.5.5.5.5.5.5.5.",
"5.5.5.5.5.5.5.5.5.5.5.5.5.5.5.5.5.5.5.5.5.5.5.5.5.5.5.5.5.5.5.5.5.5.5.5.5.5.5.5.",
"5.5.5.5.5.5.5.5.5.5.5.5.5.5.5.5.5.5.5.5.5.5.5.5.5.5.5.5.5.5.5.5.5.5.5.5.5.5.5.5.",
"5.5.5.5.5.5.5.5.5.5.5.5.5.5.5.5.5.5.5.5.5.5.5.5.5.5.5.5.5.5.5.5.5.5.5.5.5.5.5.5.",
"5.5.5.5.5.5.5.5.5.5.5.5.5.5.5.5.5.5.5.5.5.5.5.5.5.5.5.5.5.5.5.5.5.5.5.5.5.5.5.5.",
"5.5.5.5.5.5.5.5.5.5.5.5.5.5.5.5.5.5.5.5.5.5.5.5.5.5.5.5.5.5.5.5.5.5.5.5.5.5.5.5.",
"5.5.5.5.5.5.5.5.5.5.5.5.5.5.5.5.5.5.5.5.5.5.5.5.5.5.5.5.5.5.5.5.5.5.5.5.5.5.5.5.",
"5.5.5.5.5.5.5.5.5.5.5.5.5.5.5.5.5.5.5.O 5.5.5.5.5.5.5.5.5.5.5.5.5.5.5.5.5.5.5.5.",
"5.5.5.5.5.5.5.5.5.5.5.5.5.5.5.5.5.5.  z $ 5.5.5.5.5.5.5.5.5.5.5.5.5.5.5.5.5.5.5.",
"5.5.5.5.5.5.5.5.5.5.5.5.5.5.5.5.5.5.+ N p 5.5.5.5.5.5.5.5.5.5.5.5.5.5.5.5.5.5.5.",
"5.5.5.5.5.5.5.5.5.5.5.5.5.5.5.5.5.  # D ' 5.5.5.5.5.5.5.5.5.5.5.5.5.5.5.5.5.5.5.",
"5.5.5.5.5.5.5.5.5.5.5.5.5.5.5.5.5.& * S >.q 5.5.5.5.5.5.5.5.5.5.5.5.5.5.5.5.5.5.",
"5.5.5.5.5.5.5.5.5.5.5.5.5.5.5.5.5.1 * S 3.c 5.5.5.5.5.5.5.5.5.5.5.5.5.5.5.5.5.5.",
"5.5.5.5.5.5.5.5.5.5.5.5.5.5.5.5.@ r * N *.+.o 5.5.5.5.5.5.5.5.5.5.5.5.5.5.5.5.5.",
"5.5.5.5.5.5.5.5.5.5.5.5.5.5.5.5.< t ; b U 1.a 5.5.5.5.5.5.5.5.5.5.5.5.5.5.5.5.5.",
"5.5.5.5.5.5.5.5.5.5.5.5.5.5.5.X 5 t * B k -.[ 5.5.5.5.5.5.5.5.5.5.5.5.5.5.5.5.5.",
"5.5.5.5.5.5.5.5.5.5.5.5.5.5.5.% u t ; _ l =.1.- 5.5.5.5.5.5.5.5.5.5.5.5.5.5.5.5.",
"5.5.5.5.5.5.5.5.5.5.5.5.5.5.5.3 u t * _ I <.4./ 5.5.5.5.5.5.5.5.5.5.5.5.5.5.5.5.",
"5.5.5.5.5.5.5.5.5.5.5.5.5.5.@ 9 s s ; ) { L X.O.5.5.5.5.5.5.5.5.5.5.5.5.5.5.5.5.",
"5.5.5.5.5.5.5.5.5.5.5.5.5.5.> u h C * J T K o.4.e 5.5.5.5.5.5.5.5.5.5.5.5.5.5.5.",
"5.5.5.5.5.5.5.5.5.5.5.5.5.+ 6 t j C * b Y T 2.3. .5.5.5.5.5.5.5.5.5.5.5.5.5.5.5.",
"5.5.5.5.5.5.5.5.5.5.5.5.5.# A A h C * P :.T 2.4.,.= 5.5.5.5.5.5.5.5.5.5.5.5.5.5.",
"5.5.5.5.5.5.5.5.5.5.5.5.5.3 A %.Q C & | =.=.<.-.;./ 5.5.5.5.5.5.5.5.5.5.5.5.5.5.",
"5.5.5.5.5.5.5.5.5.5.5.5.# v W ^ $.Z 3 } F G x 3 8 w @ 5.5.5.5.5.5.5.5.5.5.5.5.5.",
"5.5.5.5.5.5.5.5.5.5.5.5.9 %.%.n ~ R t { , * 6 > : % & 5.5.5.5.5.5.5.5.5.5.5.5.5.",
"5.5.5.5.5.5.5.5.5.5.5.5.s &.^ C @.f u ..0 ; t 5 3 9 : 5.5.5.5.5.5.5.5.5.5.5.5.5.",
"5.5.5.5.5.5.5.5.5.5.5.5.s %.b E #.s u ..i ; r 2 5 7 # 5.5.5.5.5.5.5.5.5.5.5.5.5.",
"5.5.5.5.5.5.5.5.5.5.5.5.4 W m ~ E u 9 ] i ; t 5 6 * + 5.5.5.5.5.5.5.5.5.5.5.5.5.",
"5.5.5.5.5.5.5.5.5.5.5.5.5.9 Z Z v u 6 _ i % 5 7 3 ; 5.5.5.5.5.5.5.5.5.5.5.5.5.5.",
"5.5.5.5.5.5.5.5.5.5.5.5.5.# g E u g V ` i % 3 6 % . 5.5.5.5.5.5.5.5.5.5.5.5.5.5.",
"5.5.5.5.5.5.5.5.5.5.5.5.5.@ r E r W W ` i % 3 r % 5.5.5.5.5.5.5.5.5.5.5.5.5.5.5.",
"5.5.5.5.5.5.5.5.5.5.5.5.5.5.3 E f @.W ` i % 2 3 @ 5.5.5.5.5.5.5.5.5.5.5.5.5.5.5.",
"5.5.5.5.5.5.5.5.5.5.5.5.5.5.> f v %.W ` i % 2 ; . 5.5.5.5.5.5.5.5.5.5.5.5.5.5.5.",
"5.5.5.5.5.5.5.5.5.5.5.5.5.5.X 7 ~ &.W ` i % 2 % 5.5.5.5.5.5.5.5.5.5.5.5.5.5.5.5.",
"5.5.5.5.5.5.5.5.5.5.5.5.5.5.5.2 ~ &.W H 9 % 2 # 5.5.5.5.5.5.5.5.5.5.5.5.5.5.5.5.",
"5.5.5.5.5.5.5.5.5.5.5.5.5.5.5.2 $.%.W N 9 % 1 @ 5.5.5.5.5.5.5.5.5.5.5.5.5.5.5.5.",
"5.5.5.5.5.5.5.5.5.5.5.5.5.5.5.5.W &.W N 9 % @ 5.5.5.5.5.5.5.5.5.5.5.5.5.5.5.5.5.",
"5.5.5.5.5.5.5.5.5.5.5.5.5.5.5.5.k %.W m u > @ 5.5.5.5.5.5.5.5.5.5.5.5.5.5.5.5.5.",
"5.5.5.5.5.5.5.5.5.5.5.5.5.5.5.5.* $.W N g 6 5.5.5.5.5.5.5.5.5.5.5.5.5.5.5.5.5.5.",
"5.5.5.5.5.5.5.5.5.5.5.5.5.5.5.5.5.n ! N f * 5.5.5.5.5.5.5.5.5.5.5.5.5.5.5.5.5.5.",
"5.5.5.5.5.5.5.5.5.5.5.5.5.5.5.5.5.r Z N s @ 5.5.5.5.5.5.5.5.5.5.5.5.5.5.5.5.5.5.",
"5.5.5.5.5.5.5.5.5.5.5.5.5.5.5.5.5.X k V 5 5.5.5.5.5.5.5.5.5.5.5.5.5.5.5.5.5.5.5.",
"5.5.5.5.5.5.5.5.5.5.5.5.5.5.5.5.5.5.1 N ; 5.5.5.5.5.5.5.5.5.5.5.5.5.5.5.5.5.5.5.",
"5.5.5.5.5.5.5.5.5.5.5.5.5.5.5.5.5.5.5.@ 5.5.5.5.5.5.5.5.5.5.5.5.5.5.5.5.5.5.5.5.",
"5.5.5.5.5.5.5.5.5.5.5.5.5.5.5.5.5.5.5.5.5.5.5.5.5.5.5.5.5.5.5.5.5.5.5.5.5.5.5.5.",
"5.5.5.5.5.5.5.5.5.5.5.5.5.5.5.5.5.5.5.5.5.5.5.5.5.5.5.5.5.5.5.5.5.5.5.5.5.5.5.5.",
"5.5.5.5.5.5.5.5.5.5.5.5.5.5.5.5.5.5.5.5.5.5.5.5.5.5.5.5.5.5.5.5.5.5.5.5.5.5.5.5."
};
