/* XPM */
static char *result[] = {
/* columns rows colors chars-per-pixel */
"40 50 234 2 ",
"   c #050004",
".  c #0C000A",
"X  c #0D000A",
"o  c #10000D",
"O  c #11000E",
"+  c #12000F",
"@  c #130010",
"#  c #150012",
"$  c #160012",
"%  c #190015",
"&  c #1B0016",
"*  c #1C0117",
"=  c #20001A",
"-  c #21001B",
";  c #26001F",
":  c #270020",
">  c #2A0023",
",  c #2D0024",
"<  c #2F0026",
"1  c #310028",
"2  c #330029",
"3  c #320329",
"4  c #33002A",
"5  c #34002B",
"6  c #35002B",
"7  c #36002C",
"8  c #37002D",
"9  c #38002E",
"0  c #39002F",
"q  c #231220",
"w  c #3A0030",
"e  c #3C0031",
"r  c #3D0032",
"t  c #3E0033",
"y  c #3F0034",
"u  c #361B31",
"i  c #3D1F37",
"p  c #400034",
"a  c #420036",
"s  c #430037",
"d  c #410336",
"f  c #47003A",
"g  c #47003B",
"h  c #48003B",
"j  c #4A003C",
"k  c #4B023E",
"l  c #4C003F",
"z  c #45233F",
"x  c #4E0040",
"c  c #4F0040",
"v  c #4D0440",
"b  c #500042",
"n  c #520044",
"m  c #530044",
"M  c #540045",
"N  c #520445",
"B  c #570048",
"V  c #590048",
"C  c #5B004B",
"Z  c #5D004C",
"A  c #5D014D",
"S  c #5E004D",
"D  c #5F004E",
"F  c #5F034F",
"G  c #551249",
"H  c #531848",
"J  c #620050",
"K  c #660054",
"L  c #670055",
"P  c #680055",
"I  c #690056",
"U  c #6A0057",
"Y  c #6B0058",
"T  c #6C0059",
"R  c #6D005A",
"E  c #690F59",
"W  c #6F0E5E",
"Q  c #73005E",
"!  c #522A4B",
"~  c #532B4B",
"^  c #592D51",
"/  c #5D2954",
"(  c #5E2F55",
")  c #612456",
"_  c #67345E",
"`  c #750060",
"'  c #760061",
"]  c #770062",
"[  c #790064",
"{  c #7A0064",
"}  c #7B0065",
"|  c #7B0066",
" . c #7C0066",
".. c #7D0067",
"X. c #7D0167",
"o. c #7B0466",
"O. c #7E0068",
"+. c #7F0068",
"@. c #7F0069",
"#. c #7E0769",
"$. c #721060",
"%. c #731061",
"&. c #741062",
"*. c #751063",
"=. c #773C6D",
"-. c #800069",
";. c #80016A",
":. c #81016B",
">. c #82006C",
",. c #82016C",
"<. c #84016D",
"1. c #87026F",
"2. c #86076F",
"3. c #83146F",
"4. c #870770",
"5. c #8C0374",
"6. c #870A71",
"7. c #8D0E76",
"8. c #8C0F76",
"9. c #8D0E77",
"0. c #8E0F77",
"q. c #8E0F78",
"w. c #900277",
"e. c #930279",
"r. c #95057C",
"t. c #99037E",
"y. c #8D1077",
"u. c #8F1078",
"i. c #90137A",
"p. c #92157C",
"a. c #93167D",
"s. c #824176",
"d. c #8A467E",
"f. c #9C0381",
"g. c #9A0580",
"h. c #A10786",
"j. c #A8058B",
"k. c #AD058F",
"l. c #B10593",
"z. c #B20593",
"x. c #B20594",
"c. c #B00992",
"v. c #BA069A",
"b. c #BB079B",
"n. c #BD079C",
"m. c #BE079D",
"M. c #BF069F",
"N. c #A2228B",
"B. c #A4268D",
"V. c #A73493",
"C. c #B1319A",
"Z. c #BB3DA5",
"A. c #C107A0",
"S. c #C307A2",
"D. c #C807A6",
"F. c #C308A2",
"G. c #C509A4",
"H. c #C709A5",
"J. c #C809A6",
"K. c #CA09A7",
"L. c #CD08AA",
"P. c #CD0AAA",
"I. c #D008AD",
"U. c #D609B1",
"Y. c #D609B2",
"T. c #DC0BB7",
"R. c #DD0AB8",
"E. c #DF0AB9",
"W. c #E00ABA",
"Q. c #9A448A",
"!. c #9C4F8E",
"~. c #A24190",
"^. c #A34292",
"/. c #A44292",
"(. c #A54293",
"). c #A64294",
"_. c #A64295",
"`. c #A74295",
"'. c #AA4397",
"]. c #A84696",
"[. c #AD4C9B",
"{. c #B0439D",
"}. c #B04F9F",
"|. c #A85499",
" X c #BA47A6",
".X c #BA4BA6",
"XX c #BE42A8",
"oX c #B450A2",
"OX c #B651A4",
"+X c #B75DA7",
"@X c #C042AA",
"#X c #C342AC",
"$X c #C447AE",
"%X c #C646AF",
"&X c #C161B0",
"*X c #D16ABF",
"=X c #E90BC1",
"-X c #F80CCE",
";X c #F90DCF",
":X c #FC0DD2",
">X c #FD0DD2",
",X c #FF0DD6",
"<X c #FF0DD7",
"1X c #FF0DD8",
"2X c #FF0DD9",
"3X c #FF0ED9",
"4X c #FF0DDB",
"5X c #FF0EDA",
"6X c #FF0EDB",
"7X c #DF5EC8",
"8X c #D565C1",
"9X c #D76AC3",
"0X c #DE60C8",
"qX c #DD6FC9",
"wX c #E362CC",
"eX c #E363CC",
"rX c #EA6BD3",
"tX c #EB77D6",
"yX c #F173DB",
"uX c #F479DD",
"iX c #F57BDF",
"pX c #F77EE1",
"aX c #FB79E3",
"sX c #FA7BE3",
"dX c #FE7FE7",
"fX c #FF80E9",
"gX c #FF81E9",
"hX c #FF82EA",
"jX c #FF82EC",
"kX c #FF83EC",
"lX c #FF83EE",
"zX c #FF84ED",
"xX c #FF85ED",
"cX c None",
/* pixels */
"cXcXcXcXcXcXcXcXcXcXcXcXcXcXcXcXcXcXcXcXcXcXcXcXcXcXcXcXcXcXcXcXcXcXcXcXcXcXcXcX",
"cXcXcXcXcXcXcXcXcXcXcXcXcXcXcXcXcXcXcXcXcXcXcXcXcXcXcXcXcXcXcXcXcXcXcXcXcXcXcXcX",
"cXcXcXcXcXcXcXcXcXcXcXcXcXcXcXcXcXcXcXcXcXcXcXcXcXcXcXcXcXcXcXcXcXcXcXcXcXcXcXcX",
"cXcXcXcXcXcXcXcXcXcXcXcXcXcXcXcXcXcXcXcXcXcXcXcXcXcXcXcXcXcXcXcXcXcXcXcXcXcXcXcX",
"cXcXcXcXcXcXcXcXcXcXcXcXcXcXcXcXcXcXcXcXcXcXcXcXcXcXcXcXcXcXcXcXcXcXcXcXcXcXcXcX",
"cXcXcXcXcXcXcXcXcXcXcXcXcXcXcXcXcXcXcXcXcXcXcXcXcXcXcXcXcXcXcXcXcXcXcXcXcXcXcXcX",
"cXcXcXcXcXcXcXcXcXcXcXcXcXcXcXcXcXcXcXcXcXcXcXcXcXcXcXcXcXcXcXcXcXcXcXcXcXcXcXcX",
"cXcXcXcXcXcXcXcXcXcXcXcXcXcXcXcXcXcXcXcXcXcXcXcXcXcXcXcXcXcXcXcXcXcXcXcXcXcXcXcX",
"cXcXcXcXcXcXcXcXcXcXcXcXcXcXcXcXcXcXcXcXcXcXcXcXcXcXcXcXcXcXcXcXcXcXcXcXcXcXcXcX",
"cXcXcXcXcXcXcXcXcXcXcXcXcXcXcXcXcXcXX / cXcXcXcXcXcXcXcXcXcXcXcXcXcXcXcXcXcXcXcX",
"cXcXcXcXcXcXcXcXcXcXcXcXcXcXcXcXcXcX@ Q.z cXcXcXcXcXcXcXcXcXcXcXcXcXcXcXcXcXcXcX",
"cXcXcXcXcXcXcXcXcXcXcXcXcXcXcXcXcXcX; OX!.cXcXcXcXcXcXcXcXcXcXcXcXcXcXcXcXcXcXcX",
"cXcXcXcXcXcXcXcXcXcXcXcXcXcXcXcXcX> 6 oX*Xi cXcXcXcXcXcXcXcXcXcXcXcXcXcXcXcXcXcX",
"cXcXcXcXcXcXcXcXcXcXcXcXcXcXcXcXcXa a }.kX( cXcXcXcXcXcXcXcXcXcXcXcXcXcXcXcXcXcX",
"cXcXcXcXcXcXcXcXcXcXcXcXcXcXcXcX& R p [.aX&XcXcXcXcXcXcXcXcXcXcXcXcXcXcXcXcXcXcX",
"cXcXcXcXcXcXcXcXcXcXcXcXcXcXcXcXw ] p ~.C.8X! cXcXcXcXcXcXcXcXcXcXcXcXcXcXcXcXcX",
"cXcXcXcXcXcXcXcXcXcXcXcXcXcXcXcXC ..p ^.q.7Xd.cXcXcXcXcXcXcXcXcXcXcXcXcXcXcXcXcX",
"cXcXcXcXcXcXcXcXcXcXcXcXcXcXcX< X. .p ^.9.B.9Xu cXcXcXcXcXcXcXcXcXcXcXcXcXcXcXcX",
"cXcXcXcXcXcXcXcXcXcXcXcXcXcXcXf M.:.p ^.7.a.uX_ cXcXcXcXcXcXcXcXcXcXcXcXcXcXcXcX",
"cXcXcXcXcXcXcXcXcXcXcXcXcXcXO 1.Y.;.p ^.0.6.wX+XcXcXcXcXcXcXcXcXcXcXcXcXcXcXcXcX",
"cXcXcXcXcXcXcXcXcXcXcXcXcXcXe k.:Xj.t ^.u.{ @XtX^ cXcXcXcXcXcXcXcXcXcXcXcXcXcXcX",
"cXcXcXcXcXcXcXcXcXcXcXcXcXcXA x.1Xn.r ^.9.i.yXjXs.cXcXcXcXcXcXcXcXcXcXcXcXcXcXcX",
"cXcXcXcXcXcXcXcXcXcXcXcXcX; n.U.<Xb.r ^.7.p.sXgXqXq cXcXcXcXcXcXcXcXcXcXcXcXcXcX",
"cXcXcXcXcXcXcXcXcXcXcXcXcXl L.<X,Xb.r ^.q.Z.dXfXiX=.cXcXcXcXcXcXcXcXcXcXcXcXcXcX",
"cXcXcXcXcXcXcXcXcXcXcXcX+ L f.-X3Xm.t /.q.0XxXhXlX|.cXcXcXcXcXcXcXcXcXcXcXcXcXcX",
"cXcXcXcXcXcXcXcXcXcXcXcXr [ ,.U.E.g.0 ].N.%XeXrXzXpX~ cXcXcXcXcXcXcXcXcXcXcXcXcX",
"cXcXcXcXcXcXcXcXcXcXcXcXF v.z.<.' B m .XV.Z D 3. X$XH cXcXcXcXcXcXcXcXcXcXcXcXcX",
"cXcXcXcXcXcXcXcXcXcXcXcX4.6XD.,...+.O.#XW 2 6 c V Q 8 cXcXcXcXcXcXcXcXcXcXcXcXcX",
"cXcXcXcXcXcXcXcXcXcXcXcX#.W.t.k. ...[ XX$.5 6 f T M : cXcXcXcXcXcXcXcXcXcXcXcXcX",
"cXcXcXcXcXcXcXcXcXcXcXcX* r.S.w. .O.K `.%.2 6 7 J 0 cXcXcXcXcXcXcXcXcXcXcXcXcXcX",
"cXcXcXcXcXcXcXcXcXcXcXcXcXg f.<...>.5.`.&.b j 6 h 4 cXcXcXcXcXcXcXcXcXcXcXcXcXcX",
"cXcXcXcXcXcXcXcXcXcXcXcXcX: ' ..} l.F.`.&.Y C 6 ,   cXcXcXcXcXcXcXcXcXcXcXcXcXcX",
"cXcXcXcXcXcXcXcXcXcXcXcXcXcXn @.-.I.J._.&.I J 9 % cXcXcXcXcXcXcXcXcXcXcXcXcXcXcX",
"cXcXcXcXcXcXcXcXcXcXcXcXcXcXx +.e.>XG.`.&.P | s $ cXcXcXcXcXcXcXcXcXcXcXcXcXcXcX",
"cXcXcXcXcXcXcXcXcXcXcXcXcXcX1 ` A.<XG.`.&.P  .0 . cXcXcXcXcXcXcXcXcXcXcXcXcXcXcX",
"cXcXcXcXcXcXcXcXcXcXcXcXcXcXo L R.5XG.`.&.P  .1 cXcXcXcXcXcXcXcXcXcXcXcXcXcXcXcX",
"cXcXcXcXcXcXcXcXcXcXcXcXcXcXcXk =X2XG.`.&.P [ - cXcXcXcXcXcXcXcXcXcXcXcXcXcXcXcX",
"cXcXcXcXcXcXcXcXcXcXcXcXcXcXcXv T.2XG.`.&.I S cXcXcXcXcXcXcXcXcXcXcXcXcXcXcXcXcX",
"cXcXcXcXcXcXcXcXcXcXcXcXcXcXcXcXc.4XG.).*.U y cXcXcXcXcXcXcXcXcXcXcXcXcXcXcXcXcX",
"cXcXcXcXcXcXcXcXcXcXcXcXcXcXcXcXN ;XG.(.y.K # cXcXcXcXcXcXcXcXcXcXcXcXcXcXcXcXcX",
"cXcXcXcXcXcXcXcXcXcXcXcXcXcXcXcX3 P.H.(.u.b cXcXcXcXcXcXcXcXcXcXcXcXcXcXcXcXcXcX",
"cXcXcXcXcXcXcXcXcXcXcXcXcXcXcXcXcX2.K.(.8.: cXcXcXcXcXcXcXcXcXcXcXcXcXcXcXcXcXcX",
"cXcXcXcXcXcXcXcXcXcXcXcXcXcXcXcXcXd h.'.E cXcXcXcXcXcXcXcXcXcXcXcXcXcXcXcXcXcXcX",
"cXcXcXcXcXcXcXcXcXcXcXcXcXcXcXcXcXcXo.{.G cXcXcXcXcXcXcXcXcXcXcXcXcXcXcXcXcXcXcX",
"cXcXcXcXcXcXcXcXcXcXcXcXcXcXcXcXcXcX= ) cXcXcXcXcXcXcXcXcXcXcXcXcXcXcXcXcXcXcXcX",
"cXcXcXcXcXcXcXcXcXcXcXcXcXcXcXcXcXcXcXcXcXcXcXcXcXcXcXcXcXcXcXcXcXcXcXcXcXcXcXcX",
"cXcXcXcXcXcXcXcXcXcXcXcXcXcXcXcXcXcXcXcXcXcXcXcXcXcXcXcXcXcXcXcXcXcXcXcXcXcXcXcX",
"cXcXcXcXcXcXcXcXcXcXcXcXcXcXcXcXcXcXcXcXcXcXcXcXcXcXcXcXcXcXcXcXcXcXcXcXcXcXcXcX",
"cXcXcXcXcXcXcXcXcXcXcXcXcXcXcXcXcXcXcXcXcXcXcXcXcXcXcXcXcXcXcXcXcXcXcXcXcXcXcXcX",
"cXcXcXcXcXcXcXcXcXcXcXcXcXcXcXcXcXcXcXcXcXcXcXcXcXcXcXcXcXcXcXcXcXcXcXcXcXcXcXcX"
};
