/* XPM */
static char *_aca019fff1b4893ab6fb9bf1508eceaZdfFKv08zKdBY6cK[] = {
/* columns rows colors chars-per-pixel */
"40 30 233 2 ",
"   c None",
".  c #000C05",
"X  c black",
"o  c #00160C",
"O  c #002415",
"+  c #00251D",
"@  c #002B1A",
"#  c #002916",
"$  c #00341C",
"%  c #012422",
"&  c #002C23",
"*  c #002B2E",
"=  c #003C22",
"-  c #003729",
";  c #01263B",
":  c #003534",
">  c #013B33",
",  c #02343C",
"<  c #003D3C",
"1  c #00431D",
"2  c #004424",
"3  c #00452D",
"4  c #004D2A",
"5  c #004D20",
"6  c #005B2D",
"7  c #01433D",
"8  c #034632",
"9  c #00553A",
"0  c #00662C",
"q  c #00722F",
"w  c #006434",
"e  c #00623D",
"r  c #006C36",
"t  c #00773A",
"y  c #1A1F4A",
"u  c #141D57",
"i  c #032748",
"p  c #142545",
"a  c #013244",
"s  c #03394B",
"d  c #092757",
"f  c #1B2657",
"g  c #023455",
"h  c #023B53",
"j  c #013D59",
"k  c #07315F",
"l  c #242A5E",
"z  c #1C1F72",
"x  c #31186A",
"c  c #2A1D7D",
"v  c #192E67",
"b  c #003C64",
"n  c #03376A",
"m  c #143969",
"M  c #063875",
"N  c #152C71",
"B  c #26277B",
"V  c #273578",
"C  c #37327E",
"Z  c #372875",
"A  c #014949",
"S  c #005543",
"D  c #005C43",
"F  c #01534B",
"G  c #005E4C",
"H  c #024552",
"J  c #004B56",
"K  c #014C5C",
"L  c #004559",
"P  c #005B53",
"I  c #005658",
"U  c #154E5D",
"Y  c #285F5F",
"T  c #006E43",
"R  c #00614E",
"E  c #006A4C",
"W  c #006444",
"Q  c #01724B",
"!  c #007A47",
"~  c #006C5C",
"^  c #006657",
"/  c #007C54",
"(  c #007455",
")  c #044966",
"_  c #005467",
"`  c #014676",
"'  c #1C4D78",
"]  c #005675",
"[  c #005B7A",
"{  c #18506C",
"}  c #244879",
"|  c #245C70",
" . c #00636C",
".. c #006B6D",
"X. c #006863",
"o. c #007767",
"O. c #006A74",
"+. c #006177",
"@. c #017877",
"#. c #16706E",
"$. c #396C7B",
"%. c #00843E",
"&. c #008F3B",
"*. c #01933E",
"=. c #008B43",
"-. c #008549",
";. c #009143",
":. c #00984A",
">. c #00875B",
",. c #009654",
"<. c #00A44C",
"1. c #02B14E",
"2. c #00A35A",
"3. c #01B858",
"4. c #008868",
"5. c #009766",
"6. c #008173",
"7. c #008B7C",
"8. c #00847B",
"9. c #009475",
"0. c #029C7D",
"q. c #108576",
"w. c #00BE67",
"e. c #06A778",
"r. c #00B97C",
"t. c #00C057",
"y. c #03C768",
"u. c #00DB78",
"i. c #03D270",
"p. c #1A3887",
"a. c #173E95",
"s. c #362888",
"d. c #393688",
"f. c #2E338E",
"g. c #2F3FA1",
"h. c #491888",
"j. c #462788",
"k. c #443B89",
"l. c #562895",
"z. c #4A3598",
"x. c #4D2E98",
"c. c #5B37AC",
"v. c #4F3EB2",
"b. c #583EB3",
"n. c #054A84",
"m. c #025782",
"M. c #17569F",
"N. c #114C8E",
"B. c #2E4285",
"V. c #28479A",
"C. c #3B4885",
"Z. c #016989",
"A. c #1B6E82",
"S. c #007D80",
"D. c #00758D",
"F. c #007082",
"G. c #026A97",
"H. c #027896",
"J. c #167793",
"K. c #297985",
"L. c #1159A7",
"P. c #1957B2",
"I. c #274AA5",
"U. c #3845AC",
"Y. c #3256AE",
"T. c #0363A4",
"R. c #0864A9",
"E. c #0377A7",
"W. c #0568B8",
"Q. c #0077B6",
"!. c #196AB2",
"~. c #2878B6",
"^. c #475393",
"/. c #4A7093",
"(. c #4947B6",
"). c #4F47AE",
"_. c #6248B3",
"`. c #5567A7",
"'. c #3469C2",
"]. c #445EC2",
"[. c #555AC7",
"{. c #6A4AC5",
"}. c #5A77C4",
"|. c #8B76D2",
" X c #008483",
".X c #008E84",
"XX c #00878D",
"oX c #059985",
"OX c #038597",
"+X c #0E9496",
"@X c #2B9894",
"#X c #348099",
"$X c #00B785",
"%X c #00B594",
"&X c #00A69B",
"*X c #0488A8",
"=X c #0694B1",
"-X c #04B5AC",
";X c #01A5B4",
":X c #03BAB9",
">X c #00AAAA",
",X c #24B0AA",
"<X c #508297",
"1X c #5593B5",
"2X c #6E80BF",
"3X c #67ADB2",
"4X c #01C083",
"5X c #00D883",
"6X c #01EC8F",
"7X c #02C9A7",
"8X c #01D8B9",
"9X c #04E9BA",
"0X c #00F3B4",
"qX c #00F9BE",
"wX c #0396C2",
"eX c #04B4D3",
"rX c #12AECD",
"tX c #39A2CE",
"yX c #31ADCF",
"uX c #7A86C7",
"iX c #4EB8DF",
"pX c #4ABEE9",
"aX c #568DD0",
"sX c #03C6C9",
"dX c #02D5D4",
"fX c #00CCD0",
"gX c #07E8CC",
"hX c #26CFE3",
"jX c #05F6E6",
"kX c #27EAF5",
"lX c #6FDDF5",
"zX c #6DE0F8",
"xX c #8582CD",
/* pixels */
"              lXiXtX                                                            ",
"            pXzXtXE.*X                                                          ",
"          !.=XkXyX[ H.                                                          ",
"    tXrXhXrXH.sXdX .+.+.m.                                                      ",
"    ~.*X;XfX:XXX:XS.A J L Z.                                                    ",
"  }.~.H. .@.-X-X@.@.: % % H     n                                               ",
"    OXXX@.F 7 o.o.F 7 - 7 J j g k n p.g.                                        ",
"  eX;X X.X7.S @ > F q.oX@. ._ ] m.N.V.U.U.(.).                                  ",
"aXrXfX:X.XX.S - E 0.0.9.9.7..XXXH.G.L.I.U.(.v.b.c.                              ",
"}.J. X8.6.^ ~ 7X7X$X$Xr.e.5.5.9..XXXH.T.M.g.f.s.j.j.l.                          ",
"Y.J. X@.R $ 9.8X9XgX0X5Xy.2.,.>.>.o...] ` M M N B s.z.c._.{.                    ",
"    O...~ R 4.5.4X0XqX0X6X3.;.t w 9 9 F I _ [ Z.G.R.!.Y.].[.[.                  ",
"      +X7.o.( Q 2.w.u.5Xi.y.1.&.q 0 w T ( o.6.8.XXOXE.E.!.~.'.].(.              ",
"    *XO.A - D Q -.;.:.t q &.1.t.3.y.3.:.-.! / >.4.6.S.D.G.G.M.V.V.B             ",
"    H.K < > E / ! ,.,.6 5 5 0 *.u.6Xu.y.<.=.-.! T W G P J L j g g i i           ",
"      _     4.4.%X9X5.4 5 $ 1 %.3.y.u.i.3.<.%.r 6 6 4 3 - + % * , a a 1XuX_.    ",
"            oX%XjXgX( 9 3 # 4 r t =.;.%.%.:.:.;.%.w 4 = $ 8 Y $.| h { 1X`.s.    ",
"            &X8XgX-X7.~ > > D D e e 2 $ 4 r =.w.w.t 4 2 #.3X<XU H J J.#Xm c     ",
"            >XdXsXOXO.K H  .X.^ G 8 O O @ 2 t 2.,.w 2 D @X/.s > & F @.K k z     ",
"            =X;XH._ ) *X=XD.F.O.X.* + + @ 3 e -.T 2 = ~ #.f ; + o W S H ' ).    ",
"              Z.) b ` wXeXE.H.D._ , : * 7 R R E 3 # @ P I m y o . = T e.1X|.|.|.",
"                n M M T.Q.Q.E.m.j h s H  ...X.~ - + # A A f p . X o 2 3 a x h.s.",
"                    p.L.W.W.T.` n b b m.G.Z.F. .: + > @XA.l % . X # e Q #.k.    ",
"                        I.P.a.M M M n.T.T.G.Z.] a % 7 @X/.p & # = 4 5.4X,XxX    ",
"                              B B p.I.P.R.T.N.n.h * , K.^.f & 3 E Q W 4.+X}.xX  ",
"                                  x.v.(.U.I.V.N.g * , { C.Z y H P ^ ~ P A.`.    ",
"                                        c.x.z.f.k a s s v u x C ' ) ) { } ^.    ",
"                                            l.j.v g       i u x k.} V C k.z.    ",
"                                                            ; d d.B.C j.x.x.    ",
"                                                              i V B.V d.z.      "
};
