/* XPM */
static char *result[] = {
/* columns rows colors chars-per-pixel */
"56 56 101 2 ",
"   c #25213F",
".  c #252241",
"X  c #2C2342",
"o  c #26254A",
"O  c #2C264C",
"+  c #28284E",
"@  c #342442",
"#  c #3B2542",
"$  c #362945",
"%  c #292751",
"&  c #292954",
"*  c #2A2B5A",
"=  c #302B5B",
"-  c #2B2E64",
";  c #352E66",
":  c #342F6B",
">  c #2C3165",
",  c #2D336B",
"<  c #2F386F",
"1  c #35306D",
"2  c #303B6D",
"3  c #2F3771",
"4  c #2F3871",
"5  c #3B3374",
"6  c #303A73",
"7  c #3F367D",
"8  c #323D78",
"9  c #442642",
"0  c #472C46",
"q  c #422E48",
"w  c #502742",
"e  c #522F47",
"r  c #5B2943",
"t  c #4F344B",
"y  c #5F3249",
"u  c #5C394E",
"i  c #652A44",
"p  c #6B2B44",
"a  c #6A374C",
"s  c #6B3F52",
"d  c #423C73",
"f  c #334276",
"g  c #34437C",
"h  c #36487F",
"j  c #764455",
"k  c #7A4656",
"l  c #7F4758",
"z  c #823E51",
"x  c #95515E",
"c  c #99535F",
"v  c #9B5460",
"b  c #413783",
"n  c #443B87",
"m  c #443A89",
"M  c #364682",
"N  c #374983",
"B  c #384A87",
"V  c #394C89",
"C  c #3B548E",
"Z  c #3D598F",
"A  c #3C5393",
"S  c #3E5B95",
"D  c #3F5C99",
"F  c #4A4281",
"G  c #49418A",
"H  c #564E86",
"J  c #4D4792",
"K  c #4F4A95",
"L  c #524D96",
"P  c #405E9D",
"I  c #59549A",
"U  c #605994",
"Y  c #41629C",
"T  c #5B5AA2",
"R  c #4262A1",
"E  c #4469A4",
"W  c #466DAC",
"Q  c #4974B2",
"!  c #4B7AB7",
"~  c #4C7EBB",
"^  c #6365AA",
"/  c #6568AE",
"(  c #696EB2",
")  c #6D71B3",
"_  c #7074B4",
"`  c #7C7EB7",
"'  c #7D7FB8",
"]  c #857FB0",
"[  c #4E82BE",
"{  c #7F81BA",
"}  c #4F86C1",
"|  c #5087C2",
" . c #5089C4",
".. c #538ECA",
"X. c #5491CD",
"o. c #5595D1",
"O. c #8781B1",
"+. c #8983B3",
"@. c #9692BB",
"#. c #9A96BE",
"$. c None",
/* pixels */
"$.$.$.$.$.$.$.$.$.$.$.$.$.$.$.$.$.$.$.$.$.$.$.$.$.$.$.$.$.$.$.$.$.$.$.$.$.$.$.$.$.$.$.$.$.$.$.$.$.$.$.$.$.$.$.$.",
"$.$.$.$.$.$.$.$.$.$.$.$.$.$.$.$.$.$.$.$.$.$.$.$.$.$.$.$.$.$.$.$.$.$.$.$.$.$.$.$.$.$.$.$.$.$.$.$.$.$.$.$.$.$.$.$.",
"$.$.$.$.$.$.$.$.$.$.$.$.$.$.$.$.$.$.$.$.$.$.$.$.$.$.$.$.$.$.$.$.$.$.$.$.$.$.$.$.$.$.$.$.$.$.$.$.$.$.$.$.$.$.$.$.",
"$.$.$.$.$.$.$.$.$.$.$.$.$.$.$.$.$.$.$.$.$.$.$..       .           $.$.$.$.$.$.$.$.$.$.$.$.$.$.$.$.$.$.$.$.$.$.$.",
"$.$.$.$.$.$.$.$.$.$.$.$.$.$.$.$.$.$.$.$.. . * & * * * . & * * & & o . $.$.$.$.$.$.$.$.$.$.$.$.$.$.$.$.$.$.$.$.$.",
"$.$.$.$.$.$.$.$.$.$.$.$.$.$.$.$.$.. & o * 2 }  .} } h o 6 } } } } g * o * . $.$.$.$.$.$.$.$.$.$.$.$.$.$.$.$.$.$.",
"$.$.$.$.$.$.$.$.$.$.$.$.$.$.$.. & < , o - < Y R R R 6 o , R R R R 6 - o , < * . $.$.$.$.$.$.$.$.$.$.$.$.$.$.$.$.",
"$.$.$.$.$.$.$.$.$.$.$.$.$.$.+ 6 Y X.Y , o , V A A A 6 o , A A A C < o > S X.E 4 & $.$.$.$.$.$.$.$.$.$.$.$.$.$.$.",
"$.$.$.$.$.$.$.$.$.$.$.$.$.+ C ..! A ! M o - 3 B B B 3 o , B B V 4 - & f ~ A Q ..D & $.$.$.$.$.$.$.$.$.$.$.$.$.$.",
"$.$.$.$.$.$.$.$.$.$.$.+ & S ~ A A A A 3 - . - , , > * o * > - , , o - , A A A A ! Y & & $.$.$.$.$.$.$.$.$.$.$.$.",
"$.$.$.$.$.$.$.$.$.$.+ & > Y A A A A B , * . . & & * .   . & * * & . % , M A A A A Y , & + $.$.$.$.$.$.$.$.$.$.$.",
"$.$.$.$.$.$.$.$.$.$.& * & - 8 A A B , & . . . .     .   .       . . . % , M A A h > & * & . $.$.$.$.$.$.$.$.$.$.",
"$.$.$.$.$.$.$.$.$.o S  .f + > 6 4 , * . .   . .   . .   . .   . . . . . % , 4 4 , + <  .Y & $.$.$.$.$.$.$.$.$.$.",
"$.$.$.$.$.$.$.$.$.& V R [ f % - > * . . . . . . . . . . . . . . . .   . . & > , % < [ R A * $.$.$.$.$.$.$.$.$.$.",
"$.$.$.$.$.$.$.$.o C Q A D [ , . . . . .   . . . . . . . . . . . .   . . . . . . * ~ Y C W P o $.$.$.$.$.$.$.$.$.",
"$.$.$.$.$.$.$.$.% 6 A A A B > . . X w 9   . . . . . . .   . .   . . . . . . . . - B A A A 8 & $.$.$.$.$.$.$.$.$.",
"$.$.$.$.$.$.$.. > - 8 M M , *   O i p p X . . . . .   . .   . . . . . . . . . . + > M M 8 - , o $.$.$.$.$.$.$.$.",
"$.$.$.$.$.$.$.o & & - > > & . @ j z p p @ 9   .   . . . . . . . .     . . . . . . & > > - & & o $.$.$.$.$.$.$.$.",
"$.$.$.$.$.$.$.. & * & & %     q v a p p # r . . . .   . . . .   . .   . . . . . . . & + & & & o $.$.$.$.$.$.$.$.",
"$.$.$.$.$.$.$.o , , > * o   O k c x p p @ r .   . . . . . . . . . . . . . . . . . . . * - , , o $.$.$.$.$.$.$.$.",
"$.$.$.$.$.$.$.o M ..X.A - . $ x c z p p @ r . . . . . .   . . . . . . . . .   .   . - V ....C o $.$.$.$.$.$.$.$.",
"$.$.$.$.$.$.$.. 4 D D ~ B . $ v x z p p @ r X . . . . . . . . . . .   . . . . . . . f [ D D g o $.$.$.$.$.$.$.$.",
"$.$.$.$.$.$.$.o 8 A A A 4 o $ x c z p p @ r       . .   . . . . .     .   . . . . o , A A A g o $.$.$.$.$.$.$.$.",
"$.$.$.$.$.$.$.o 4 A A A 4 . @ a s y w i @ i   . . . . . . . .   . . . . . .   . . . , A A A 8 o $.$.$.$.$.$.$.$.",
"$.$.$.$.$.$.$.o 3 8 M g 3 o . ; - ; o # @ r . . . . . . . . . . .   . .   . . . . . > g 8 M 4 o $.$.$.$.$.$.$.$.",
"$.$.$.$.$.$.$.o > > > > & . d ] ] ] H o   i .   . . .     .   . . . . . . . . . . . & > > > > o $.$.$.$.$.$.$.$.",
"$.$.$.$.$.$.$.$.o o + % . o m ` ] ' I d O r . . . . . . . . . . . . . . . . .   . . . o % + o $.$.$.$.$.$.$.$.$.",
"$.$.$.$.$.$.$.. - 2 , , % . m ( ( ( L b O r . . .   . .     . .   . . . .   . . . . o , , , > o $.$.$.$.$.$.$.$.",
"$.$.$.$.$.$.$.o M o.X.o.M o m m ^ ^ K b O r . . . . . .   . . .   . .   . . . . . . 6 X.X.o.C o $.$.$.$.$.$.$.$.",
"$.$.$.$.$.$.$.. 6 A A A 3 o d m m m d % X r . . . .   .       . . . . . . . . . . . < A A D 8 o $.$.$.$.$.$.$.$.",
"$.$.$.$.$.$.$.o 4 A A A 3 o o ; 1 1 % @ X r . . . .   . . . . . . . . . . . . . . . , A A A 8 o $.$.$.$.$.$.$.$.",
"$.$.$.$.$.$.$.o 1 A A P 3 . O u u w 9 i @ r . .   . . . .   . . .   . . . . . . . . , A A A 8 o $.$.$.$.$.$.$.$.",
"$.$.$.$.$.$.$.o , 8 8 8 , o $ x c z p p @ i   X .   . .   . . . . . . . . . . . . . > 8 8 8 3 o $.$.$.$.$.$.$.$.",
"$.$.$.$.$.$.$.. > - - - % . $ x x z p p @ r .   . . . . . . . .   . .   .   .   . . + - - > > o $.$.$.$.$.$.$.$.",
"$.$.$.$.$.$.$.$.+ o o o .   $ x c z p p @ r       .   . . . . . . . . . . . . . . . . o o o o $.$.$.$.$.$.$.$.$.",
"$.$.$.$.$.$.$.o > g g f & . X x x z p p @ r     . . . . . . .   .   . . . .   . . . + f f g , + $.$.$.$.$.$.$.$.",
"$.$.$.$.$.$.$.. N ....X.N . $ v c z p p @ r . . . .   . . . . . .   . . . . . . . . 4  .....C o $.$.$.$.$.$.$.$.",
"$.$.$.$.$.$.$.o 4 A A A 4 . X x c a p p @ i . . . . . . . . . . . .   . .     . . . , A A A 4 o $.$.$.$.$.$.$.$.",
"$.$.$.$.$.$.$.o 4 A A A 4 . $ v v x p p @ r X     . . . .   . . .   . . . .   . . o , A A A 8 + $.$.$.$.$.$.$.$.",
"$.$.$.$.$.$.$.. 4 A A A 4 o . t t r   i @ r . . . . . . . . . . . . . . . . . . . . , A A A 8 o $.$.$.$.$.$.$.$.",
"$.$.$.$.$.$.$.o 4 A A A 3 o o 5 5 5 * @ @ r . . . . . . . . . . . . . . . . . . . . , A A A 8 o $.$.$.$.$.$.$.$.",
"$.$.$.$.$.$.$.. > 3 , , > o n @.#.#.U % . r   . .   . . .   . . . .   . . .   . . . > , , 3 , o $.$.$.$.$.$.$.$.",
"$.$.$.$.$.$.$.o - - * - + . F _ _ _ L b O r   . . . .   .     . .     .   . . . . . o - * - - o $.$.$.$.$.$.$.$.",
"$.$.$.$.$.$.$.$.+ o o o . X n ^ ( ) L b O i   . .   . . . . . . . . . . . .   . . . . o o o o $.$.$.$.$.$.$.$.$.",
"$.$.$.$.$.$.$.o 6 D D D > o b G T T J 5 X r . . . .   . . . . . . . . . .   . . . . * S D Y g o $.$.$.$.$.$.$.$.",
"$.$.$.$.$.$.$.. h [ [ ~ h . ; m b n 5 . X r .   . . . . . .   . .   . . . . . . . . 6 ~ [ [ B o $.$.$.$.$.$.$.$.",
"$.$.$.$.$.$.$.o 6 A A A 3 o . * * = o 9 @ r . . . . .   .     . .     . . . . . . . , A A A 4 + $.$.$.$.$.$.$.$.",
"$.$.$.$.$.$.$.o > , 6 6 & . @ j j a r i $ r . .   . . . . . . . . . . . . . . . . . % 3 3 4 , o $.$.$.$.$.$.$.$.",
"$.$.$.$.$.$.$.$.o o . o . . $ x v s p p X X     .   . . .   . . . .   . . .   . . . . . o o o $.$.$.$.$.$.$.$.$.",
"$.$.$.$.$.$.$.. - 4 h 4 + . $ x x x i #     . . . . . . . . .     . . . . . . . . . + < h 4 > o $.$.$.$.$.$.$.$.",
"$.$.$.$.$.$.$.o , R  .Y > . @ j s a       . .     . . . . . . . . . . . . . .   . . > S  .E 4 + $.$.$.$.$.$.$.$.",
"$.$.$.$.$.$.. . * * & * o . . . X   @ X . . . X . . . . .   . . . .   .   . . .   . . * & & * o . $.$.$.$.$.$.$.",
"$.$.$.$.$.$.. $..       . . . . . . . . . . . . . . . . . . . . . . . . . . . . . . .         $.. $.$.$.$.$.$.$.",
"$.$.$.$.$.$.$.$.$.$.$.$.$.$.$.$.$.$.$.$.$.$.$.$.$.$.$.$.$.$.$.$.$.$.$.$.$.$.$.$.$.$.$.$.$.$.$.$.$.$.$.$.$.$.$.$.",
"$.$.$.$.$.$.$.$.$.$.$.$.$.$.$.$.$.$.$.$.$.$.$.$.$.$.$.$.$.$.$.$.$.$.$.$.$.$.$.$.$.$.$.$.$.$.$.$.$.$.$.$.$.$.$.$.",
"$.$.$.$.$.$.$.$.$.$.$.$.$.$.$.$.$.$.$.$.$.$.$.$.$.$.$.$.$.$.$.$.$.$.$.$.$.$.$.$.$.$.$.$.$.$.$.$.$.$.$.$.$.$.$.$."
};
