/* XPM */
static char *result[] = {
/* columns rows colors chars-per-pixel */
"56 56 120 2 ",
"   c #24213F",
".  c #2C223F",
"X  c #33223F",
"o  c #252242",
"O  c #2D2341",
"+  c #26254A",
"@  c #29264C",
"#  c #28284E",
"$  c #342341",
"%  c #3A2441",
"&  c #3B2B46",
"*  c #282750",
"=  c #282954",
"-  c #2B2B5A",
";  c #302B5B",
":  c #2B2E64",
">  c #322C62",
",  c #2C3165",
"<  c #2D336B",
"1  c #2F386F",
"2  c #36306C",
"3  c #38306C",
"4  c #303B6D",
"5  c #2F3771",
"6  c #2F3871",
"7  c #3B3475",
"8  c #303A73",
"9  c #3D3478",
"0  c #323D78",
"q  c #472641",
"w  c #482641",
"e  c #452A45",
"r  c #4A2B45",
"t  c #452F49",
"y  c #562B45",
"u  c #5A2942",
"i  c #5E2F48",
"p  c #5B3047",
"a  c #50344C",
"s  c #5F3349",
"d  c #642A44",
"f  c #6D2B44",
"g  c #712E46",
"h  c #653048",
"j  c #6D3149",
"k  c #75344B",
"l  c #79364C",
"z  c #7D394E",
"x  c #7F3C50",
"c  c #423B7C",
"v  c #334276",
"b  c #34437C",
"n  c #36487F",
"m  c #6C4052",
"M  c #774456",
"N  c #7A4557",
"B  c #823E51",
"V  c #854153",
"C  c #8C4757",
"Z  c #8E4958",
"A  c #934D5B",
"S  c #96515E",
"D  c #99535F",
"F  c #9A5360",
"G  c #413785",
"H  c #433987",
"J  c #453B89",
"K  c #364682",
"L  c #374983",
"P  c #384A87",
"I  c #394C89",
"U  c #3B548E",
"Y  c #3D598F",
"T  c #3C5393",
"R  c #3E5B95",
"E  c #3F5C99",
"W  c #474186",
"Q  c #474089",
"!  c #4A438D",
"~  c #4D4691",
"^  c #514C96",
"/  c #405E9D",
"(  c #41629C",
")  c #5B5AA2",
"_  c #4262A1",
"`  c #4469A4",
"'  c #466DAC",
"]  c #4974B2",
"[  c #4B7AB7",
"{  c #4C7EBB",
"}  c #6C68A6",
"|  c #6365AB",
" . c #6669AE",
".. c #6D69A9",
"X. c #726EA9",
"o. c #7672AB",
"O. c #7A75AC",
"+. c #676CB1",
"@. c #696DB1",
"#. c #7B7AB3",
"$. c #857FAF",
"%. c #4E82BE",
"&. c #4F86C1",
"*. c #5087C2",
"=. c #5089C4",
"-. c #538ECA",
";. c #5491CD",
":. c #5595D1",
">. c #8780AF",
",. c #8581B4",
"<. c #8883B4",
"1. c #8586BB",
"2. c #8E8DBC",
"3. c #9493BF",
"4. c #9E99BE",
"5. c #9695C0",
"6. c #9C9AC2",
"7. c #AFABC8",
"8. c #B1ADC9",
"9. c None",
/* pixels */
"9.9.9.9.9.9.9.9.9.9.9.9.9.9.9.9.9.9.9.9.9.9.9.9.9.9.9.9.9.9.9.9.9.9.9.9.9.9.9.9.9.9.9.9.9.9.9.9.9.9.9.9.9.9.9.9.",
"9.9.9.9.9.9.9.9.9.9.9.9.9.9.9.9.9.9.9.9.9.9.9.9.9.9.9.9.9.9.9.9.9.9.9.9.9.9.9.9.9.9.9.9.9.9.9.9.9.9.9.9.9.9.9.9.",
"9.9.9.9.9.9.9.9.9.9.9.9.9.9.9.9.9.9.9.9.9.9.9.9.9.9.9.9.9.9.9.9.9.9.9.9.9.9.9.9.9.9.9.9.9.9.9.9.9.9.9.9.9.9.9.9.",
"9.9.9.9.9.9.9.9.9.9.9.9.9.9.9.9.9.9.9.9.9.9.9.  o     o           9.9.9.9.9.9.9.9.9.9.9.9.9.9.9.9.9.9.9.9.9.9.9.",
"9.9.9.9.9.9.9.9.9.9.9.9.9.9.9.9.9.9.9.9.o o - = - - - o - - = - - + o 9.9.9.9.9.9.9.9.9.9.9.9.9.9.9.9.9.9.9.9.9.",
"9.9.9.9.9.9.9.9.9.9.9.9.9.9.9.9.9.o = # - 4 &.*.&.*.b + 8 %.*.*.&.v - + - o 9.9.9.9.9.9.9.9.9.9.9.9.9.9.9.9.9.9.",
"9.9.9.9.9.9.9.9.9.9.9.9.9.9.9.o = 1 , # : 1 ( _ _ _ 8 + 4 _ ( _ _ 8 : + < 1 - o 9.9.9.9.9.9.9.9.9.9.9.9.9.9.9.9.",
"9.9.9.9.9.9.9.9.9.9.9.9.9.9.# v E :.( , + < I T T T 5 + < T T T U 1 + , Y ;.` 8 = 9.9.9.9.9.9.9.9.9.9.9.9.9.9.9.",
"9.9.9.9.9.9.9.9.9.9.9.9.9.@ U -.[ T [ P + : 5 P P P 5 + < P I I 8 : @ 8 { T ] -.E = 9.9.9.9.9.9.9.9.9.9.9.9.9.9.",
"9.9.9.9.9.9.9.9.9.9.9.@ = R { T T T T 5 : o : , < , - + - : : < < # : 1 T T T T [ ( = = 9.9.9.9.9.9.9.9.9.9.9.9.",
"9.9.9.9.9.9.9.9.9.9.@ = , ( T T T T P < -   + = - = o   o = - - = o = , P T T T T ( < = # 9.9.9.9.9.9.9.9.9.9.9.",
"9.9.9.9.9.9.9.9.9.9.= : = : 0 T T P < - o   o       o               o = : P T T b , = - = o 9.9.9.9.9.9.9.9.9.9.",
"9.9.9.9.9.9.9.9.9.+ R =.v # : 8 5 < = o o O u u u %   o o $ y u u $ o o * < 6 6 < # 4 *.( * 9.9.9.9.9.9.9.9.9.9.",
"9.9.9.9.9.9.9.9.9.= I _ %.v = : : -   o o $ f f f d $   O d f f g % o o o * < : = 4 %._ U - 9.9.9.9.9.9.9.9.9.9.",
"9.9.9.9.9.9.9.9.o T ] U E %.< o o o o o   d l S B g $ o $ f B A x d $ o O o o o : { ( T ' ( @ 9.9.9.9.9.9.9.9.9.",
"9.9.9.9.9.9.9.9.= 8 T T T I : o o O u % O j S S S x $ o O k S S S k O O u O o o - P T T T 0 = 9.9.9.9.9.9.9.9.9.",
"9.9.9.9.9.9.9.o : : 6 P K 1 = o O y f % o j S S S l $ o . k S S S k O O f u $ o = < K K 0 : < + 9.9.9.9.9.9.9.9.",
"9.9.9.9.9.9.9.+ = = : < : = o O y f f $ O j S S S z X o $ k S S S k O $ f f u O o * : : : * = + 9.9.9.9.9.9.9.9.",
"9.9.9.9.9.9.9.o - - = @ =   o $ l l f % o j A S S z $   O k S S S k O $ f k z q   o * * * - - + 9.9.9.9.9.9.9.9.",
"9.9.9.9.9.9.9.+ : < : : o o O u B A k $ o h S S D z $ o O k S S S k O O k Z B u O o + - : < < + 9.9.9.9.9.9.9.9.",
"9.9.9.9.9.9.9.o K ;.-.R : o $ k Z S z $ o g S S S z $   $ k S S S k O O k F A z $ o : I -.-.U + 9.9.9.9.9.9.9.9.",
"9.9.9.9.9.9.9.+ 6 E E { L + O k S S z $ o j S F S z $ o O k S S S k O $ k F F x $ o v %.E E b + 9.9.9.9.9.9.9.9.",
"9.9.9.9.9.9.9.+ 8 T T T 8 o . h A A j $ o d A F A j $ o O h A D A h . o h Z A j $ o < T T T b + 9.9.9.9.9.9.9.9.",
"9.9.9.9.9.9.9.+ 8 T T T 8 o   X h s $   .   y k h $       . p m p X   o O p h $ o o < T T T 0 + 9.9.9.9.9.9.9.9.",
"9.9.9.9.9.9.9.+ 1 b K b 5 + o > > > > > > > > > : > > > > 3 ; > > > : > > > > > + o < b b b 6 + 9.9.9.9.9.9.9.9.",
"9.9.9.9.9.9.9.+ : : : : = o 7 ) ) ) ) ) ) ) ) ) ) ) ) ) ) ) ) o...O.$.$.<.X.) ) c o = : , : < + 9.9.9.9.9.9.9.9.",
"9.9.9.9.9.9.9.9.@ + # # o + J @.@.@.@.@.@.@.@.@.@.@.@.@.@.@.+.2.1.6.8.8.8.3.@.@.~ @   @ = + + 9.9.9.9.9.9.9.9.9.",
"9.9.9.9.9.9.9.o : 4 < 4 * o J  .@.@.@.@.@.@.@. .@.@.@.@.@.@.+.2.1.4.8.7.8.3.@.+.! @ + < 4 < , + 9.9.9.9.9.9.9.9.",
"9.9.9.9.9.9.9.o L ;.;.:.n + G ~  . .| | | | | | | | | | | | | ,.#.2.4.4.4.<.| ^ J @ 8 -.;.:.U + 9.9.9.9.9.9.9.9.",
"9.9.9.9.9.9.9.+ 8 T T T 8 + 7 J J J J J J J J J J J J J J J J J J J J J J J J J 7 @ 4 T T E 0 + 9.9.9.9.9.9.9.9.",
"9.9.9.9.9.9.9.+ 8 T T T 4 o O 3 2 2 3 3 3 3 2 2 2 2 3 3 3 3 2 2 3 3 3 2 2 2 2 2 @ o 2 T T T 0 + 9.9.9.9.9.9.9.9.",
"9.9.9.9.9.9.9.o 8 T T T 8 +     w w X       w w w .       o q q w       O q w .   o < T T T 0 + 9.9.9.9.9.9.9.9.",
"9.9.9.9.9.9.9.o < 0 0 0 < + o u g f u $   y f f g u X   o u f g f u O O y f f u $ o , 0 0 0 5 + 9.9.9.9.9.9.9.9.",
"9.9.9.9.9.9.9.+ < : : : = o O f l z f % O d k C z f $ o O f l C l d O X f l z f %   # : : : , + 9.9.9.9.9.9.9.9.",
"9.9.9.9.9.9.9.9.+ + + +   o $ k A A l $ O f A S S l $   O k A S A k $ O k A A l $ o   + + + + 9.9.9.9.9.9.9.9.9.",
"9.9.9.9.9.9.9.+ < v v v =   . k D D z $   j S S S z $ o O k F S S k O O k S F z $   = v 0 v 5 + 9.9.9.9.9.9.9.9.",
"9.9.9.9.9.9.9.o K -.-.-.K o O k S S z % o j A S S z $ o O k S S S k O O k S D z $ o 8 =.-.;.U + 9.9.9.9.9.9.9.9.",
"9.9.9.9.9.9.9.o 5 T T T 6 o O l S S z $ o g D S F z $   O l S S S l O O l S D z $ o 1 T T T 8 + 9.9.9.9.9.9.9.9.",
"9.9.9.9.9.9.9.+ 8 T T T 8 o o y C A i O o y B D Z i O o O y C F C y   O y C Z i O o < T T T 0 @ 9.9.9.9.9.9.9.9.",
"9.9.9.9.9.9.9.+ 8 T T T 8 + o O e r O       q a r O       O e a e O o o o r r O o o < T T T 0 + 9.9.9.9.9.9.9.9.",
"9.9.9.9.9.9.9.@ 5 T T T 5 + + 7 7 7 c 7 7 7 9 9 7 7 7 9 7 7 7 7 7 9 9 9 9 7 7 7 * o 2 T T T 0 + 9.9.9.9.9.9.9.9.",
"9.9.9.9.9.9.9.o , 4 5 < : + c | | | | | | | | | | | | | | | | ,.#.2.4.4.4.<.|  .J # : 4 < 5 < + 9.9.9.9.9.9.9.9.",
"9.9.9.9.9.9.9.@ : : : : + O J @.@.@.@.@.@.@.@.@.@.@.@.@.+.@.+.2.1.4.7.7.8.3.+.@.~ @ o : - : : + 9.9.9.9.9.9.9.9.",
"9.9.9.9.9.9.9.9.+ + o + o o H | @.@.@.@.@.@.@.@.@.@.@.@.@.@.@.2.1.6.8.8.8.5.@.| ! @ o o + + + 9.9.9.9.9.9.9.9.9.",
"9.9.9.9.9.9.9.o 4 / / / , o G ! ) ) ) ) ) ) ) ) ) ) ) ) ) ) ) X.} O.>.>.>.o.) ! H # - E E E b + 9.9.9.9.9.9.9.9.",
"9.9.9.9.9.9.9.+ b %.%.%.b @ > J G G G J G G G G H H H H G J G G H G G G H H G H 3 + 8 { { &.I + 9.9.9.9.9.9.9.9.",
"9.9.9.9.9.9.9.o 8 U I T 5 o o ; ; - ; - ; ; ; ; - ; ; ; - ; ; - - - - ; ; ; ; ; o o 1 I T T 8 @ 9.9.9.9.9.9.9.9.",
"9.9.9.9.9.9.9.o < 8 8 8 - o o $ u u %     $ u u u %       X u u u $     X u u %   o * 6 6 6 < + 9.9.9.9.9.9.9.9.",
"9.9.9.9.9.9.9.9.# + o + o o O d f f d $ o d f g f d $ o O d f g g d O O d f f d $ o o + o + + 9.9.9.9.9.9.9.9.9.",
"9.9.9.9.9.9.9.o : 5 b 8 # o $ d B V f $ o d l S V f $ o O d V S V d $   d V V f $ o + 1 b 8 , + 9.9.9.9.9.9.9.9.",
"9.9.9.9.9.9.9.+ 4 / =.( : o o & N N t   o $ M N N t     o & N N M &   o & N N t   o : R =.` 6 + 9.9.9.9.9.9.9.9.",
"9.9.9.9.9.9.o o - = - - o o o o o o o o o o   o   o o o o   o     o o   o   o o   o o - = - - + o 9.9.9.9.9.9.9.",
"9.9.9.9.9.9.o 9.          o o o o o o o   o o   o o   o o o o o o o o o   o o   o O o         9.o 9.9.9.9.9.9.9.",
"9.9.9.9.9.9.9.9.9.9.9.9.9.9.9.9.9.9.9.9.9.9.9.9.9.9.9.9.9.9.9.9.9.9.9.9.9.9.9.9.9.9.9.9.9.9.9.9.9.9.9.9.9.9.9.9.",
"9.9.9.9.9.9.9.9.9.9.9.9.9.9.9.9.9.9.9.9.9.9.9.9.9.9.9.9.9.9.9.9.9.9.9.9.9.9.9.9.9.9.9.9.9.9.9.9.9.9.9.9.9.9.9.9.",
"9.9.9.9.9.9.9.9.9.9.9.9.9.9.9.9.9.9.9.9.9.9.9.9.9.9.9.9.9.9.9.9.9.9.9.9.9.9.9.9.9.9.9.9.9.9.9.9.9.9.9.9.9.9.9.9."
};
