/* XPM */
static char *result[] = {
/* columns rows colors chars-per-pixel */
"36 60 132 2 ",
"   c #151215",
".  c #191517",
"X  c #1A161A",
"o  c #1E1A1B",
"O  c #21160D",
"+  c #251A11",
"@  c #281D14",
"#  c #221D1C",
"$  c #26201D",
"%  c #2C231C",
"&  c #31241A",
"*  c #34281D",
"=  c #1F1B20",
"-  c #211D22",
";  c #252126",
":  c #2B2521",
">  c #2F2923",
",  c #272229",
"<  c #2B252D",
"1  c #2D282F",
"2  c #342B23",
"3  c #392E25",
"4  c #3D3126",
"5  c #373028",
"6  c #3D342A",
"7  c #2F2830",
"8  c #322B34",
"9  c #352F3A",
"0  c #313532",
"q  c #3A3331",
"w  c #373D37",
"e  c #3C3C34",
"r  c #37303C",
"t  c #39323D",
"y  c #363F39",
"u  c #3A3E3A",
"i  c #41372C",
"p  c #42392E",
"a  c #453C31",
"s  c #493E33",
"d  c #473F38",
"f  c #35413D",
"g  c #38413B",
"h  c #444037",
"j  c #4B4136",
"k  c #434239",
"l  c #4E453A",
"z  c #514336",
"x  c #50473B",
"c  c #53493D",
"v  c #5A4C3F",
"b  c #554D42",
"n  c #5A4E41",
"m  c #5B5245",
"M  c #545349",
"N  c #5F574B",
"B  c #615445",
"V  c #615649",
"C  c #645A4C",
"Z  c #695C4E",
"A  c #665D51",
"S  c #695F52",
"D  c #6D6254",
"F  c #6D6558",
"G  c #706456",
"H  c #706759",
"J  c #756B5D",
"K  c #7A6E5F",
"L  c #766F62",
"P  c #796F61",
"I  c #777165",
"U  c #7C7364",
"Y  c #7D766A",
"T  c #7F786A",
"R  c #817567",
"E  c #827768",
"W  c #857C6D",
"Q  c #897F6E",
"!  c #867E70",
"~  c #887F70",
"^  c #8B8374",
"/  c #908677",
"(  c #948B7C",
")  c #988F7F",
"_  c #918C80",
"`  c #979081",
"'  c #9C9484",
"]  c #A09786",
"[  c #A19887",
"{  c #A39B8B",
"}  c #A89F8E",
"|  c #A9A18F",
" . c #A7A191",
".. c #ACA493",
"X. c #AFA897",
"o. c #AFAA9A",
"O. c #B0A997",
"+. c #B2AD9B",
"@. c #B7B19F",
"#. c #B8B19F",
"$. c #B7B2A2",
"%. c #BCB6A4",
"&. c #BFB8A6",
"*. c #BDBAAC",
"=. c #C0BAA7",
"-. c #C3BDAB",
";. c #C2BDB0",
":. c #C6C0AE",
">. c #C6C1B1",
",. c #CAC5B4",
"<. c #CDC8B7",
"1. c #CFCBB9",
"2. c #D2CEBC",
"3. c #D4D0BF",
"4. c #D1CDC1",
"5. c #D7D3C1",
"6. c #D9D5C4",
"7. c #DCD9C7",
"8. c #D8D4C8",
"9. c #DEDACA",
"0. c #E1DECE",
"q. c #E5E3D4",
"w. c #EAE7D7",
"e. c #ECEADA",
"r. c #F0EEDF",
"t. c #F1EFE0",
"y. c #F3F2E4",
"u. c #F5F5E8",
"i. c #F9F7E9",
"p. c #FBFAEC",
"a. c #FFFFF4",
"s. c None",
/* pixels */
"s.s.s.s.s.s.s.s.s.s.s.s.s.s.s.a a h a s s s.s.s.s.s.s.s.s.s.s.s.s.s.s.s.",
"s.s.s.s.s.s.s.s.s.s.s.s.s.6 a ` o.*.*.+.` a 6 s.s.s.s.s.s.s.s.s.s.s.s.s.",
"s.s.s.s.s.s.s.s.s.s.s.s.m W ( 9.i.a.a.p.9._ W m s.s.s.s.s.s.s.s.s.s.s.s.",
"s.s.s.s.s.s.s.s.s.s.b m W 9.e.p.a.a.a.a.p.e.9.W m b s.s.s.s.s.s.s.s.s.s.",
"s.s.s.s.s.s.s.s.s.s U %.5.w.w.e.p.a.a.p.e.w.w.5.%.U s s.s.s.s.s.s.s.s.s.",
"s.s.s.s.s.s.s.s.p U @.6.q.6.6.w.t.t.y.e.w.6.5.q.6.@.U p s.s.s.s.s.s.s.s.",
"s.s.s.s.s.s.s.a I [ -.9.5.%.2.9.9.9.9.9.9.2.%.5.9.:.[ I a s.s.s.s.s.s.s.",
"s.s.s.s.s.s.s.V [ O.%.%...%.1.-.-.<.,.-.-.1.%...%.%.O.[ V s.s.s.s.s.s.s.",
"s.s.s.s.s.s.l ~ { ] ] / ` 5.5.&.} %.%.} &.5.5.) / [ [ { ^ j s.s.s.s.s.s.",
"s.s.s.s.s.s.l Q / G Z ] 0.q.w.u.{ ' ` { u.w.q.0.' Z G ^ Q l s.s.s.s.s.s.",
"s.s.s.s.s.l G ^ S ( >.} b F 6.t.q.}  .q.y.5.F b } >.( Z ^ G x s.s.s.s.s.",
"s.s.s.s.s.c K G ^ 2.*.N O & P 2.i.X...p.3.L & O N *.3.^ G U x s.s.s.s.s.",
"s.s.s.s.s.l D I <.,.A O 2 2 & ( 8.X.X.8.( % 2 2 + C ,.<.K D x s.s.s.s.s.",
"s.s.s.s.s.s.b >.w.A @ > 3 s a 2  .=.=.} 3 p p 4 2 @ A w.>.b s.s.s.s.s.s.",
"s.s.s.s.s.s.m 9.7.m + 3 s x l 2 } =.=.} 2 l l s 3 + m 9.9.b s.s.s.s.s.s.",
"s.s.s.s.s.b ( 9.U 3 2 a c n p ' <.%.%.<.' p m c p 2 5 U 0.( b s.s.s.s.s.",
"s.s.s.s.s.m -.6.6 & s c b v Q 6.4.X...3.6.W v b c a % p 6.-.m s.s.s.s.s.",
"s.s.s.s.l J 2.,.p 5 l c b D 0.2.[ ^ ^ [ 2.0.D b c l 3 p ,.2.J l s.s.s.s.",
"s.s.s.s.A +.2.<.c s c p Z >.<.O.v S D v O.2.>.Z s x p v <.2.+.Z s.s.s.s.",
"s.s.s.4 D @.2.2.@.m & A +.@.O.m * S S * m O.@.+.A & m $.1.2.@.D 6 s.s.s.",
"s.s.s.6 D +.&.2.6.{ ^ { =.[ Z i % J H & i Z [ =.[ ^ { 6.3.&.+.D 6 s.s.s.",
"s.s.s.s.V ( O.:.>.3.2.&.| ( x i & U R @ i z ) } &.2.3.>.:.X.( V s.s.s.s.",
"s.s.s.s.s.m ' [ [ =.&.| } / / z 3 Q W i z ^ / { ..&.=.[ [ ' m s.s.s.s.s.",
"s.s.s.s.s.s.c m B ) X.| | | | [ ] %.%.] ] } ....| ..( B m c s.s.s.s.s.s.",
"s.s.s.s.s.s.s.s Z D H W { ,.,.<.,.0.0.,.<.<.<.[ Q J D Z s s.s.s.s.s.s.s.",
"s.s.s.s.s.s.s.s P U / } ..( ( / ) ' ' ) ( ( ( ..| ^ U K p s.s.s.s.s.s.s.",
"s.s.s.s.s.s.s.s Q O.$.+.{ J K R n a p B U K J { +.@.O.Q s s.s.s.s.s.s.s.",
"s.s.s.s.s.s.s.l ' -.( V R >.q.u.P i 6 I y.q.,.U B ( :.' x s.s.s.s.s.s.s.",
"s.s.s.s.s.s.c ( -.Q [ 9.-.U 5.e.L # $ I t.2.U ;.0.' ^ :.( c s.s.s.s.s.s.",
"s.s.s.s.s.s.l %.5.H ' p.8.b Y 3.J # # J 2.Y v 8.p.` F 5.&.l s.s.s.s.s.s.",
"s.s.s.s.s.m ^ >. .M F ,.4.j 6 ^ b . o v ^ 6 j 4.<.F m  .,.! m s.s.s.s.s.",
"s.s.s.s.s.A 1.3.N 6 6 ^ >.p % 5 X     o 5 % e >.^ 6 6 N 3.2.C s.s.s.s.s.",
"s.s.s.s.s.D 1.9.N > > T o.6 . .     X     X 6 o.T > > C 9.3.D s.s.s.s.s.",
"s.s.s.s.C { >.L l 2 $ a m $       X X       # m d $ > l I :.' C s.s.s.s.",
"s.s.s.3 F <.-.k 5 : X o #         X X         - o X : 5 j &.,.F 5 s.s.s.",
"s.s.s.b ^ 6.<.l > o .   .     . = X X X X       . . o : c <.6.^ c s.s.s.",
"s.s.6 I &.5.,.l : o     .     . X X X X X     .   . o > x ,.6.&.U 6 s.s.",
"s.s.6 ^ 3.$.m s > .         . . X X X X X .         . > a m %.3.^ 6 s.s.",
"s.p J O.6.+.p 2 ; .         X X X = =   X X           $ 2 e +.6.o.J 6 s.",
"s.p ^ -.6.+.p > X         . X X X = = = X X           X : a +.3.:.^ p s.",
"s.p W =.2.+.a % o . . .   . X X = - , = X X X   X .   o ; a +.2.&.W p s.",
"s.p ^ O.=.+.q # . . . .   . X = = < < = = X X X X X   X o p $.&...^ s s.",
"s J '  .>.>.p o   . . . X X X = , 7 < < = X X X   . .   o p >.>.| ' J s ",
"s U } ..{ Y p #   .     X X = - < 7 7 < = = o X   . .   o p Y [ O.{ R h ",
"s U } X.W 4 5 o o : o   X o = , < 7 < < , = X X   o $ o # 3 6 W O.{ R p ",
"s U [ ..~ 6 : - b x : . X X = < 7 7 7 7 7 = o X   % x b # % 6 W X.[ U j ",
"s Y / [ Q p e j 4.Y $ X X X - < 7 9 9 7 < = o . X $ T 4.j e p Q [ / U s ",
"s.b U ( R s x  .e.Y ; X = = = 7 9 r r 9 7 = = o X $ T e.| x j U ) I b s.",
"s.p F ^ K z n %.9.I % X o ; , 1 r r t r 7 , - o . % I 9.&.m z K / D p s.",
"s.e m U R B B } o.N $ X o = 1 7 r t r r 7 7 - X . $ C X.{ B B R U B p s.",
"s.f e N R R C ) m 2 $ o o ; 7 7 r t t r 7 7 , o o $ 3 m ' C R R m a s.s.",
"f f g h B R R Z j p 6 6 6 q 7 r r t t t r 7 q 6 6 6 e j C R R B h f f s.",
"f f f y k C W Q m i J o.' a 8 r t t t t r 7 a ' o.J p v ^ E Z k y f f s.",
"f f f f y h S ] C V ..2._ q 1 r t t t t r 7 q _ 2...V C ` D d y f f s.s.",
"s.f f f f y j P n / %.^ 5 < 7 r t r 9 t r 7 < 5 ^ #./ n I j y f f f s.s.",
"s.s.f f f f g j s ^ I a 6 = r d t , , u d 7 = 6 j I ^ a j g f f f s.s.s.",
"s.s.s.s.f f f y y b l p e 0 s  .S 0 0 A  .d 0 e p j b y y f f f s.s.s.s.",
"s.s.s.s.s.s.f f f y e u y f h T M y y M T k f y u u e f s.s.s.s.s.s.s.s.",
"s.s.s.s.s.s.s.f f f f f f f f e y f f y q f f f f f f f s.s.s.s.s.s.s.s.",
"s.s.s.s.s.s.s.s.s.s.f f f f f f f f f f f f f f f f s.s.s.s.s.s.s.s.s.s."
};
