/* XPM */
static char *_6f7352f48754c2d8cec75acbb4f6ca5VNPRoqcY8sMdfV32[] = {
/* columns rows colors chars-per-pixel */
"60 60 156 2 ",
"   c #454529",
".  c #4A462B",
"X  c #4B482D",
"o  c #504B2E",
"O  c #444334",
"+  c #494732",
"@  c #464935",
"#  c #4C4B35",
"$  c #464739",
"%  c #464A3C",
"&  c #4C4D3A",
"*  c #524D35",
"=  c #524E3A",
"-  c #4E513C",
";  c #555136",
":  c #595336",
">  c #54523D",
",  c #5A543D",
"<  c #54583F",
"1  c #5C593E",
"2  c #635B3E",
"3  c #474D41",
"4  c #4D4E41",
"5  c #4E5243",
"6  c #4F554A",
"7  c #545543",
"8  c #5A5642",
"9  c #565945",
"0  c #5C5A45",
"q  c #545649",
"w  c #595749",
"e  c #565A4B",
"r  c #5C5D4A",
"t  c #565D53",
"y  c #5B5E51",
"u  c #5A5F59",
"i  c #625C45",
"p  c #695F43",
"a  c #625E4A",
"s  c #655F51",
"d  c #5E6144",
"f  c #57604F",
"g  c #5D614D",
"h  c #576254",
"j  c #5D6253",
"k  c #5C645A",
"l  c #5E695B",
"z  c #646046",
"x  c #696246",
"c  c #64624D",
"v  c #69644D",
"b  c #676A4F",
"n  c #6C684F",
"m  c #6B684F",
"M  c #71674E",
"N  c #71694E",
"B  c #626051",
"V  c #626550",
"C  c #636550",
"Z  c #636651",
"A  c #626552",
"S  c #616652",
"D  c #666551",
"F  c #656751",
"G  c #656452",
"H  c #646752",
"J  c #656752",
"K  c #606254",
"L  c #656354",
"P  c #636454",
"I  c #626655",
"U  c #616556",
"Y  c #656656",
"T  c #636453",
"R  c #686350",
"E  c #696652",
"W  c #656853",
"Q  c #646955",
"!  c #676A55",
"~  c #646857",
"^  c #666955",
"/  c #6B6950",
"(  c #696853",
")  c #6A6A52",
"_  c #6C6A53",
"`  c #6F6B52",
"'  c #6E6C53",
"]  c #6B6855",
"[  c #686A55",
"{  c #6B6A56",
"}  c #6F6D54",
"|  c #6E6E56",
" . c #6C6A54",
".. c #60665C",
"X. c #60675F",
"o. c #626659",
"O. c #696758",
"+. c #65695A",
"@. c #656C5C",
"#. c #666C5E",
"$. c #666A5B",
"%. c #68695B",
"&. c #6C6B59",
"*. c #6B6D58",
"=. c #6B6E59",
"-. c #6D6C58",
";. c #696B5D",
":. c #696D5E",
">. c #6C6C5B",
",. c #716F57",
"<. c #716C55",
"1. c #726E5A",
"2. c #6F725D",
"3. c #6E705C",
"4. c #727057",
"5. c #757052",
"6. c #717159",
"7. c #72715D",
"8. c #75735C",
"9. c #76765E",
"0. c #73725C",
"q. c #79755D",
"w. c #79795F",
"e. c #636A62",
"r. c #656C61",
"t. c #6C6F61",
"y. c #716F61",
"u. c #6B7260",
"i. c #6E7062",
"p. c #697166",
"a. c #6D7162",
"s. c #687269",
"d. c #6F756B",
"f. c #6F7569",
"g. c #717262",
"h. c #717461",
"j. c #727562",
"k. c #737663",
"l. c #707465",
"z. c #737463",
"x. c #7B7662",
"c. c #767865",
"v. c #7A7863",
"b. c #7B7A64",
"n. c #707368",
"m. c #787669",
"M. c #777A69",
"N. c #767A6A",
"B. c #787C6B",
"V. c #7C7D6B",
"C. c #747F71",
"Z. c #817C65",
"A. c #7E816F",
"S. c #778274",
"D. c #82816C",
"F. c #818472",
/* pixels */
"# ; 1 1 1 8 z m 4.m c i 0 > ; * ; 1 1 ; # ; > > i 0 i v i * > = e t ..p.n.a.%.L 8 r r a r a B Y S f ! - 9 r > 8 0 8 : * ",
"# 1 z z r r c ' c v v c c c z 1 ; < 1 > 1 r z z a z v v , = c &.f.s.e.k j j j a = & = 7 7 7 8 e g 9 r @ 9 9 > > 8 8 : * ",
"; z 6.9.| v c v 0 ( | v v ' ( z H W H S H [ [ H g c H a 7 a 7.M...k j j j K I H 8 > = 8 0 0 e e e - 9 # c W c v v c i 1 ",
"7 r ( ( z 8 8 0 v ' ,.( c c c r k.u.#.! Y Y I j j 9 r e j k.h.+.j j j h j g r 9 a 7 > 8 r r r e r 9 r 9 2.>.>.>.[ [ R 0 ",
"r 9 > & # - 7 8 8.,._ n z 1 1 r :.k t t y j j y j 5 e r +.B.;.e k j y e r g c c 7 # + > 8 7 7 9 S S W S k.g g r c c r 9 ",
"g r 0 r g z c z v._ c c i ; : z #.k t t h j h k j 5 k j I k.I j r f h j S c c z > * > i c a a H S H H ! k.e r e r r r e ",
"r S >.k.k.2.! c 6.v 0 1 1 1 1 a #.k u k k j j j y 4 o.j y %.r j f h j g r 7 & + > 1 c 8.9.( W 3.c c r W c.r I B j j r q ",
"j I >.>.%.H c g H c 8 = > 1 i 0 q 6 q t t t e e e O r r g ! > e 7 - & @ # # > > # > v q.6.z r H H c 9 c k.r I j 7 9 9 5 ",
"I I a.+.r B g g c > > > r v r r e e s q 4 4 O = > > 9 c c 8 7 9 g 9 - r r r z ; 0 c v.c v z c c H r > 0 %.Y e - & 7 e j ",
"j S k.:.r g r r H a c 9 8 9 > 0 8 w L y L Y 9 r c r 7 1 a -.8.6.9 r r g = + 0 r 0 z 8.c v c c r [ c r 9 - % % & >.>.a.l.",
"9 r h.>.r r r r 9 9 r 9 8 r 9 c [ L E G &.>.0 i i 1.Z.Z.Z.Z.q.<.c 9 > r a i _ c i z 1.c H H B c r > 8 8 & 9 >.k.h.2.>.:.",
"8 9 >.%.B S c S 9 7 r B :.k.:.>.z.>.c 0 c a 8 9 -.q.b.8._ v n E [ 7 + c x.v.8.i i i v 0 9 r 9 e r # & 7 > H V.V.S B B g ",
"0 > c c a H g g 7 7 j I ;.a.I I ! H 7 7 9 8 9 c D.1.r 9 z v R R [ 9 > [ 6.v n i i 0 r > # 7 % 7 9 + # > = c 7.R c H G H ",
"0 = 8 8 7 9 7 7 % 7 o.o.y e q h r g 7 r g 9 g ! V.%.B ! >.E c c %.r 9 [ R 0 a a i 8 9 9 9 Y y %.r 9 c c 9 a R z 0 r r i ",
"0 * 8 8 > 7 & & 9 y a.#.k k t +.e j 9 j ~ e j I :.+.I g e 9 r I O.7 = R 1.a v a a 0 8 c [ V.h.k.7.z.k.>.c r 0 > > > > > ",
"a 8 v v i r 8 r c r Y K j j e y f j 5 g ! r S ! S ! I j I :.+.g r > > &.&.0 a a v 8 > c E V.I j e B r e G G r 0 i i 0 0 ",
"b.8.8.<.E i = i 0 i a a c G G B Y e 7 r G H H R 8 r > c 9 7 $ e 9 > r r [ r c a r 7 > 9 h.k.e e y k o.y 9 > , 8 i 8 a R ",
"%.c a a v a * 1 v i , = > 7 8 9 8 7 8 R 8.1.<.<.v z # & - g g 3.7.v c r [ c S r 7 7 7 9 %.h.r y q t y y 9 8 , 1 , , E b.",
"B r r 0 v c : i , 8 i 0 7 & & & 8 7 r >.x.1.E v _ ( 8 8 H M.k.k.3.r 8 = r 7 7 & 7 e a 8 a Y e e h e h g r > * : i , v x.",
"B c R a a i , c i 0 8 > > 7 e e c r c >.1.R a a a i 7 a 7.k.S 9 c 9 9 > r 7 9 > & 7 r 7 w E G Y I f r g r ; ; 2 p : 1 <.",
"a r a 8 0 0 > a c 8 7 e ! :.j 7 r r G >.1.R a c a , ; r 3.c 9 0 9 9 c 8 r 9 H H c c Y 7 > r r 9 e - - < ; ; i <.N : : x ",
"a 7 > = r v 8 0 8 G t.V.B.u.t 5 9 8 a [ R i 1 1 i = 7 v z.c r S 8 9 z > 9 8 [ 7.z.-.>.r & 7 = & 7 - # # # ; z 5.x : ; 2 ",
"a a c 0 c H 9 c >.k.k.t.I e y I 9 8 0 a 0 ; # ; > & 8 z 8.r 8 9 r 0 r > c c 7.7.a 7 c r > 8 0 r g 9 - - ; 1 i z ; o ; 1 ",
"c >.b.>.c r 9 Y V.>.r e h j q % r 0 0 0 8 ; > r c a c r 1.c a r 7 ; > & c R -.c c 8 R c = = > 9 ! g 9 7 r v c 0 ; * : > ",
"8.b.E 9 B r e +.t.I e e h h e 7 7 v c H c c H r r H R c r = + # & 8 7 c [ [ >.v c 8 > > + # c b.:.f.:.e B [ 8 > * 0 + = ",
"R R c c H 9 7 ! j j j j I I r 7 9 9.z.7.[ r c c r H c r 0 > = 8 7 c c R c 8 8 & > > 8 7 > a 8.b.e j K q j G = > 8 a a 1.",
"c a r r e 7 9 I r r j j g r 7 & > q.z.R 0 & 9 Y E [ a 8 8 8 > 8 7 0 > > > = 8 = r c v 8 > c | c 7 q y e y r & 7 7 = s 1.",
"c r e 7 & 7 g r r e 9 7 > > & # 8 q.| 0 9 7 Y k.&.%.a 7 8 , = > = > # = a v -.0 R ( R i r ,.9.( Y j +.K B r q B B 7 &.1.",
"9 > 7 e e r j g r 7 - ; > 1 1 > > R 9 ; 7 g >.k.c G 8 = 8 8 , > > c E 8.x.8.<.8 c i i a i c v r g 7 e 9 7 7 9 Y c & a i ",
"- & r k.M.+.j +.B r 9 r c v i , * 1 & = 9 S >.r r B 0 > 8 0 , : 8 1.x.x.1.c a > a 1 i _ c 0 : ; 9 & 7 7 > 0 c >.a = = # ",
"7 Y 2.k.c.:.S +.S c c v v x 2 2 1 8 9 z r >.B.r r Y a 7 8 i 1 , a 1.-.c 0 8 a , 8 1 v q.8._ <.| | z 6.0.>.v.x.9.9.| 1 1 ",
"7 F.V.e q I j r 9 0 a i i p p x 1 1 r c 7 %.V.r e B r 7 0 c v v _ 1.a a v [ ( > 8 0 v _ c i z z ( c w.b.9.z.| z v v . X ",
"h S.e k k e r S j > r a c q.b.x.b.9.b.1.7 r >.S j r 9 7 0 c v n v v i 0 r z 0 7 r 8 0 i i 1 : 1 v v Z.R a c c c ( i : * ",
"l C.6 t j j j j 9 7 r r R b.x.E v i H c > e I 7 & & - 9 v -._ v v z 1 > > > - - r 9 > ; ; ; 1 x _ v x.v c H R H v i : ; ",
"j M.r j S g r 7 > 8 r 8 <.Z.E 1 c i v r = 7 r - r B W ! R v E _ ' x r r r 0 9 0 W c c z i i p v z 1 v 0 0 8 8 > 8 > * * ",
"0 7.c 9 7 > > # > 8 0 8 1.Z.v i i z v c 7 r >.2.c.h.[ S c H ] | _ x c m ) b W | c g r r 0 1 , 1 1 * i 1 8 ; > & & # + + ",
"i v 1 * = > 8 * > > , 1 E ,.a _ c c c z 9 g ! ! S 9 & 7 G 1.>.R c z z v W c c H r > # * 1 0 i v i i v a c r >.[ Y c r 0 ",
"i : : : _ _ c * 1 = , 8 0 8 # 0 z 1 ; > 8 0 7 # @ & 9 r H E E [ ( m b v c g 0 9 7 > > a _ 1.8.q.8.1.,.c c c V.h.h.2.>.%.",
"1 * 0 c q._ i # 0 7 c a r 8 & # + X   # r z r 0 9 c %.%.G s O.7.>.7.>.c g g g 9 & > a -.1.-.R v <.,.E 0 z c v.g r r r g ",
"i * 0 1 0 # = & e e h.k.>.l.+.9 9 0 1 < 1 > 9 c 0.S 9 9 L h.m.k.[ 3.( 0 9 g g 9 c H -.| v 0 9 i 1 i a 0 ( -.b.9 r r j j ",
"8 # 0 9 - - 5 r :.a.M.f.@.r.@.e > d z 0 v w.v.| [ [ r w Y y.+.B e g r 9 9 0 9 0 R H [ [ r 0 c c c R i > 8 [ >.g S I j r ",
"9 S V.F.c.! 7 e #.@.r.@.h k k t g b 6.8.9.8.| v z c e 9 B %.I g ! S g 9 0 ! 7.>.1.H c H c c c 9 8 0 8 > 8 c a 7 7 7 7 7 ",
"h.2.:.S j e 4 j p.k k h t t h h 9 g 3.v.9.m a i c ( c 9 r B r e e 7 7 - 7 7.D.8.&.r 9 r r e 9 > > > 8 0 c R a 8 7 7 r %.",
":.+.g e +.k % t p.j t k k h k k r S 7.0.| v v _ R -.c 7 9 e 7 7 5 & 7 7 9 k.D.H c 9 9 r 7 7 e e c a a v -.E c a r r &.A.",
"r S S H k.:.5 y a.e e o...h h j 9 H >.H 0 r c c 0 z 8 & > 9 e r +.j +.S c k.V.r G 9 e B B B ;.a.z.-.c v R v c c i r [ M.",
"S W %.g r 7 $ j k.B y K y q 5 5 % r S r 8 0 i 8 > 1 # # 9 ! :.:.k.u.:.I H z.b.c [ 7 7 H h.k.M.k.>.H a z E <.,.1.0 0 c 7.",
"c r [ S r > # 9 7.c r r 9 7 w 9 e S >.3.| ( c c 0 0 ; ; H k.h.:.+.k y e c >.1.R R > 7 [ h.l.t.+.r r r z E 1.,._ 1 0 a v ",
"9 + + # & 8 9 z r > = > 7 B y.l.t.:.t.k.z.c 0 r ( v 8 7 R 7.W r g j e e B R G c c 8 a >.>.B r e e r a a v v i * > , > ; ",
"- r 9 [ z a i i c G c a O.k.k.;.#.o.k I j e 9 9 V.1.r > > a v v 9 9 - # 8 R v 0 * > r H R c j j j h r r i i 1 * 0 8 8 9 ",
"9 r > H a R | 8.( R H E >.a.t.o.o.k j k U y q 7 %.H a 9 0 0 > + > 8 9 8 1 0 i 1 1 1 0 z c g r r j q 4 & > , i E -.H r 9 ",
"> 9 > -.[ -.-.-.c a c E :.+.I j o.j y j y e 7 5 B r e 9 r c c 0 z r 0 8 , 8 z v v i 0 0 9 7 7 7 5 3 4 8 8 : i 1.-.G e 7 ",
"- 9 > >.-.R a 0 a 8 r H +.r e e j y e q q 4 4 4 e 9 > > 9 H &.[ >.c 0 r c v _ _ n c r 0 9 9 9 r e y Y -.v i i v a r e 7 ",
"7 9 ; R c z i 0 v r r H K q 5 e 7 q 4 % $ % q e r r B B Y [ L r H v ( 6.8.,.v i c c z c c c S +.t.l.7.v i i v v a c j j ",
"> 9 > >.( c i i 9 7 9 B j e e j 7 7 & % 4 r Y :.%.:.>.>.>.>.Y e z [ 8.6.n i i i c i a c c g j S y K a , , v n v H B e e ",
"> 9 8 6._ i 1 8 = > 9 B K j o.#.j 9 7 7 c >.a.%.B B B y y B y e H ,.1.v 0 0 i v z 0 8 z [ >.! S e 9 > , i M n i r e 5 3 ",
"c c > v 8 = = 8 8 r H %.;.+.@.#.%.a 7 8 Y 7.Y 9 j B K B K K y e H | <.c z v v i 0 > > c c.F.A.M.M.+.0 i n M i 8 7 5 5 5 ",
"R 8 a z z n v R R >.>.! I I j h B r > > ! h.+.r K j y j K K t q R c i i 0 : ; : 0 # > >.k.I r I +.I c 0 , , i R 7.l.k.f.",
"v > 8 c <.8.c 8 c H %.I I k k j c r > > S >.B e j y y y y y e q c i 0 0 1 : : : i > 9 >.h.j e j j y 9 = * i <.x.r y j y ",
"0 # > i v _ 0 * a H Y K j j k j r 9 - - r c e 9 q 9 7 q q 4 q 7 c i i i i 2 1 i 0 8 r [ +.j e h j I e & * i E -.c j j j ",
"; X 1 1 > : > 1 G [ %.j y t t e 9 7 & & 7 9 & & & & % $ O O % 7 c i i i i p i p > 1 r c j f y h y +.B = * 1 0 = & % $ % "
};
