/* XPM */
static char *result[] = {
/* columns rows colors chars-per-pixel */
"60 60 175 2 ",
"   c #000402",
".  c #090307",
"X  c #020B05",
"o  c #0A0B06",
"O  c #010609",
"+  c #030D0B",
"@  c #0C0D0B",
"#  c #100406",
"$  c #1A0507",
"%  c #110509",
"&  c #1D070A",
"*  c #110D0C",
"=  c #1C0B0D",
"-  c #02130E",
";  c #0C130D",
":  c #13110D",
">  c #1C110E",
",  c #0A0E11",
"<  c #160E11",
"1  c #1D0E13",
"2  c #021512",
"3  c #0B1414",
"4  c #041A14",
"5  c #0C1915",
"6  c #0F1719",
"7  c #021C1A",
"8  c #0B1C1A",
"9  c #141512",
"0  c #1C1414",
"q  c #151915",
"w  c #1C1916",
"e  c #121519",
"r  c #1D1619",
"t  c #141B1B",
"y  c #1C1B1C",
"u  c #220C0E",
"i  c #21120F",
"p  c #240E13",
"a  c #280E16",
"s  c #231415",
"d  c #2A1515",
"f  c #231A16",
"g  c #281916",
"h  c #24161A",
"j  c #2B151B",
"k  c #241B1C",
"l  c #2B1B1C",
"z  c #32161D",
"x  c #321B1E",
"c  c #38191F",
"v  c #02211E",
"b  c #0C221D",
"n  c #12241E",
"m  c #1B221D",
"M  c #26221E",
"N  c #2B211E",
"B  c #30221F",
"V  c #001D22",
"C  c #1B1E20",
"Z  c #261D20",
"A  c #2C1D21",
"S  c #331D22",
"D  c #391E25",
"F  c #012523",
"G  c #0B2523",
"H  c #012A25",
"J  c #0C2A26",
"K  c #03252A",
"L  c #09262C",
"P  c #012C2C",
"I  c #0C2D2A",
"U  c #152322",
"Y  c #1C2324",
"T  c #112A26",
"R  c #132D2B",
"E  c #1A2E2E",
"W  c #033127",
"Q  c #01322D",
"!  c #0C342D",
"~  c #01392E",
"^  c #0D382F",
"/  c #12322E",
"(  c #1A342E",
")  c #022E31",
"_  c #0B2C32",
"`  c #112B34",
"'  c #023334",
"]  c #0A3434",
"[  c #023A34",
"{  c #0B3B34",
"}  c #023639",
"|  c #0B3639",
" . c #023B3B",
".. c #0B3B3B",
"X. c #133432",
"o. c #1A3433",
"O. c #133B34",
"+. c #1B3935",
"@. c #133439",
"#. c #19363C",
"$. c #133C3B",
"%. c #1D3D3A",
"&. c #232323",
"*. c #2C2322",
"=. c #212629",
"-. c #2E2128",
";. c #25292B",
":. c #332224",
">. c #3B2226",
",. c #352926",
"<. c #362429",
"1. c #3C262A",
"2. c #32292A",
"3. c #3B2A2C",
"4. c #22322C",
"5. c #3F2C30",
"6. c #243731",
"7. c #283434",
"8. c #253B32",
"9. c #25393A",
"0. c #2E3839",
"q. c #40272B",
"w. c #432A2E",
"e. c #432C31",
"r. c #014136",
"t. c #0C4034",
"y. c #02413C",
"u. c #0B423D",
"i. c #04493F",
"p. c #0B493E",
"a. c #12423D",
"s. c #1A433C",
"d. c #17493E",
"f. c #1B493F",
"g. c #22413D",
"h. c #2D403A",
"j. c #053E40",
"k. c #0A3E41",
"l. c #123C41",
"z. c #213F49",
"x. c #054242",
"c. c #0A4344",
"v. c #044942",
"b. c #0B4B45",
"n. c #0B4749",
"m. c #044A49",
"M. c #0C4B4A",
"N. c #134342",
"B. c #1B4442",
"V. c #144945",
"C. c #1B4B44",
"Z. c #124649",
"A. c #124D4C",
"S. c #1A4C49",
"D. c #0F5147",
"F. c #0C504F",
"G. c #145247",
"H. c #14534B",
"J. c #1B524D",
"K. c #134F50",
"L. c #135251",
"P. c #1E5456",
"I. c #1D5B54",
"U. c #234542",
"Y. c #294745",
"T. c #234D47",
"R. c #244D4B",
"E. c #24544C",
"W. c #26594D",
"Q. c #285A4E",
"!. c #30504D",
"~. c #285654",
"^. c #2A5B55",
"/. c #245C59",
"(. c #206159",
/* pixels */
"' [ v.i.' [ k._ _ | ) ) } j.| ) c.M.x.} [ ) P }  .k.k. . .} } ' P _ ) K _ P $.@.| ] ] | | u...[ '  .' } ..N.P } ' { ..[ ",
"W Q y.y.~ ' } V K ) ) }  .} ' ) ) } } ' } ' )  .| k. .} |  .} ) P P P K L V _ K ] _ _ ' } [ } ' ' [ ' ' } $.F ) P }  .} ",
"P P  .y.[ [ ] V L ) ' '  .[ ' P ' x.x.j.x.' ) c. .k.} } j.j.} ' ' ) ) H P F _ ) ] P P P ' Q ' Q ' ' ' [ } $.P [ P ' ' ' ",
"P P  .b. .u...K @.] } ~ ' ' P ) Q x.c. . .) ' Z.} } } '  . .[ ' ' ! ' P ] F | ] ' ' P Q P Q P P P Q ~ } ~ N.[ $.' Q ' ' ",
"K K [ u. .t.a.] #.O.] ~ ~ W H P P  . . .u. .c./.) [  .[ y.y. .y. .[ ~ P Q F ] [ ' ' Q Q Q ~ ~ Q W I Q Q F  .[ { ' ! Q P ",
"L P ..c.y.y.B.O.X./ ] { ! W J K Q u.N.u.u.{ $.~.' N.V.u.c...r.u.a.{ ! P Q 7 W W ! ! ! Q Q P Q P ! I / I 7 ! Q [ ] ' P P ",
"` L } u.y.[ $.I R T T I J v 7 8 v / X.R R F 7 R R +.%.+.o.] I / +./ T F G 2 G T J R I T T J J J T U R J - ! ] { [ Q H P ",
"L V H [ W W H 2 U t 5 5 - - + , O t C =.;.C e C C =.Y Y U n 3 3 q 3 + + 3   t t y C C Y C y C y e e 8 8 X ! { u.' Q P ) ",
"l.l.k. .i.p.O.b ;.y y y C &.y y h 1.w.3.>.q.q.D S S e.1.1.s A 3.,.x f s s f B >.x 3.,.w.d d x l l l &.Y 8 l.R.^.J.J.V.V.",
"l._ ' ' [ ~ T 5 f h l k *.=.0 1 j ,.q.1.q.w.e.w.>.>.e.q.>.d A 1.1.>.x d d x x B d x d x $ u x x x x *.Z 3 X.X.{ [  .[ [ ",
"| ' } [ ~ Q J e h S 1.k Z h * * w y y k h r k f h r *.k k o < w w w > 0 0 9 : @ q f : > o > f f d c l Z C 9.O.| ' } [ [ ",
"|  .y.y.r.{ ( t Z D :.% , , O + 8 4 8 8 8 4 - 3 + + 5 - 3   + - ; 5 b n n 5 4 - 4 8 4 b 4 2 8 X & a f r e 9.X.@.[ j.v.x.",
"l.} y.r.r.t.( w Z D S . C V G O.^ ~ { t.a.^ ^ ^ ] O.%.X.O.! X.^ J X.%.s.s.t.{ { d.d.d.f.f.{ O.b > :.B 0 5 E V ) } } j.j.",
"k.}  .r.~ t./ 9 j S S O E @.O.G.b.D.H.G.V.c.u.u.C.V.S.Z.C...N.a.' k.Z.V.a.u.u.u.b.p.u.r. .~ r.G 9 >.N q 5 o.L | ) ' } } ",
"}  .j.y.r.t./ ; 1 r r   R H W r.M.H.H.b.j.} } } ) ) _ K ) V P K ) ) _ ) } [ } ' x. . .[  .' Z.]   M : X 3 9.P | ) } j.j.",
"} k.v.y.~ ~ R q A a r O %.~ [ b.x.K.M.j.} ) } ) } ) } ) ) ) ) ) _ ) ) ) }  .j.}  .} j. .n.j.~.B.; M m @ V 9.H ' j.} } } ",
"H Q u.u.[ ' R e A S k   O.H K | x.n.n.x.j.}  .j.} } ) ) ) ) ) ) ) ) ) ) } j.j.j.j.} j.j.S.u.L.B.- M l y 8 X.P ~ ' } } ) ",
"[ W [ ..[ $.X.+ A D l   / P K ' j.x.x.x.x.j. .} } j.k.j.j.) ) j. ...j. .j.j.j.j.) } j.j.c.y.G.O.+ k :.Z b O.~ r.' } ] ] ",
"F H [ u.[ u.+.e z D N   ! W K ) }  .j.x.x.x. .} } j.j.} _ j.j.) k...k.k.j.j.j.j.' } } } u. .V.^ X k :.A t X.W  .' ' ] ] ",
"P Q u.u.[ { X.6 a D l   K ! H ) ' }  .j.x.j.j.} } } } j.j.j.k.j. ... .k.k.j.j.j. .j.j.}  . .V.] o N D l e / ~ [ ) ) L L ",
"~ H [ u.u.C.%.e A D Z   H ^ H K ) '  .y. . . .x.} j.} j.j.k.k.k.'  .j.c.k.j.c.x.x.x.j.' [ [ C.O.; l c j e +.| c.| ] _ L ",
"F H ' [ [ { o.e S D A , v ! H P ' [  . .[ [ j.x.j.j.} } K j.j.j.) ) }  .j.j.j.x.n.j.[ ) ' ' V.O.9 l z a r o.Q [ | _ L L ",
"[ t.C.u.H v 7 O <.>.A 6 K { ) '  . . . .j. .x.c.}  .) ) ) ) ) ) P P ' ' } } } } c.[ } ' ' Q N.o.w x c d e o.H H K V 7 V ",
"N.N.S.V.[ { ` 3 S S k t ! a.] ..c.j.j. .j.x.x.x.j.j.j.j.j.j.j.j.' ) ' } } ) '  .j.} ' ' [ P ../ q D >.S C o.Q ' } _ ` ` ",
"' [ ] ~ [ ..I ; A 1.h ;.O.a...| } [  . . .y. .u.}  .j.c. .[ } ' ' ' ' ' ' } ' ' ' Q ' ' W ' t.+.@ ,.q.1 ;.I ' [ | ] _ _ ",
"Q { } Q [ ..I 3 S >.h E ^ { ' P  .[ } [  . ... .[  . .[ ' ' } ' ' ' ' [ } } ' ' ' P ' ' ' ] s.g.; N :.h 0.%.r.[ } ' _ ) ",
"Q ] [ ' [ | I 3 A D 0 4.O.{ Q ' } ' ' [  . . .} } } ' ' ' ' ' } ' Q } .. .' ' } ' ) ' ' P ] a.%.; f l h 7.O.[ ~ [ ' ' L ",
"Q ' Q ~ [ ..J 3 h z 0 4.t.{ ' ' } ' ' ' ]  .} ' } } ' ' P ' } ' ' W } u.c.' ' } } ) ' P H Q O.+.q N x k Y K ~ y.' ' ) ) ",
"P Q P ~ [ ] G 3 j j 9 4.O.~ K ) ' ' ' ' | } ' ) ) } } ' ' ' ' ' Q P ' u.k.' ) '  .) P P F P ] / 3 f h 0 6 v W [ ' ' ) L ",
"P P Q Q ' ~ F 3 p a * E O.~ F P ) ) ) ' ' ' ' ' ) ' } ' ) ' } ' Q P Q  . .} ' ' ..' ' P H P ] R o = & p 3 ! Q Q ' ) P K ",
"W P P Q ' Q v , s s * 6.s.~ H ' H ' ' ) ' P ' ] ' ] | P P ' ' ' Q Q ' ' } ..' )  .' Q P H ) ! R q B S :.t +.r.[ ) ) ) L ",
"Q Q ' ~ [ P F 3 -.S w h.f.[ H ) ) ) ' ' P Q } ..' } ' P P ' ' P ] ' Q P } .. .) } P ) P H Q ] T q 3.e.>.3 I ~ [ [ ) _ _ ",
"} } j.j.x.Q F 6 :.l : 8.f.~ ~ W }  .n.c.' '  .c. .' ' ) ) } ) ) ) P P P } |  .) } ) ' ' P ~ ..X.; g :.l ; J ~ r.' ' P ) ",
"j.x.n.K.H.u.I n <.S w 8.Q.p.y.u.c.v.M.M.y. .x.x.j.} ) P ) ) ) ) ) P K P ) k.k.} ) ) ) ) ) ' u.%.q g ,.:.5 O.r.i.y.......",
"k.j.j.c.b...I t <.S 9 6.Q.G.u.x.x.j.n.v.y.j.v.n.j.} ) H ) ) ) ) ' P P P } k.k.k.} ) ) ) ) { N.s.; f x A 5 / [ y.c.k.l.l.",
"k.k.}  . ...R Y A l : T W.H. . .[ }  .y. .x.c.x.j.} ' ) ) ) ) ) ) Q P P } k.c.c.j.) } ' P } a.s.q g 1.:.5 / [ r.u.N.l.l.",
"k.) ) ) ' ' F e l l 9 b W.I. . .x. . .x. .j.c.x. . .} ) } ) ) ) H P H P ' [ j.j. .} } } ' } ..+.; g q.:.; W W [ [ ' _ ) ",
") ) ) P Q H 7 O j l 9 b W.(. .x.j.}  . . .x.n.x.j.[ ' ' ) } ) P P P Q ~ }  .j. .} } [  .' [ ../ o s >.x X v v ~  .| | _ ",
"_ | | ] ' Q G e j x 9 4 S.I.[ j.} ' ' } [  .x.v.j.} } } } } ) ) ~ ' [ [  .u.j. .} ' }  .' ' { / @ g q.S 3 G ~ [ V.B.l.@.",
"| ' ' P P W J y :.>.y - V.I.) j. .' ' } } [  . .j.j.} ' } } ) ) Q [ r. .u.x. . . .[ [ [ W Q ! I o i c l @ J Q [ } ' _ _ ",
"' P ] ....Q G t S d &.- { b.' } }  .} } } [ x.n.j.c.c.j. .} ' } [ [ ' [  . .[ ' } ' ' P W ~ Q J @ N x g : G W  .} } _ ` ",
"' P Q ' ' Q T Y 1.l y - u.I.c. .k.x.j. . . . .j.j.c.j.} | k.} } ' Q ~ ~ [ [ } Q [ } ' ' ' ' ] / o B c l t I W [ ' _ L L ",
") P ) ' [ Q I Y 5.S f + { P.k. . . . . . . . . . .j.} } k. .) ) P ~ W Q ' [ ' ' ) ' ' P P P Q J ; B c :.m / W Q P ) _ _ ",
"[  .u.c.u.[ G t l d k + ^ N.}  .' } } }  .j.x.x.x.c.k. .k.k. .} Q P P P Q ' ' Q ) ' ' Q ~ { ..+.@ l d k t / W ~ P ) ) _ ",
"x.M.K.L.b.y.H 3 = & w X ^ V.{  .k.k.k. .[ j.j.j.j.n.k. . .} ' ' H H P H H ) ' P P Q ' Q Q ..a.s.  > $ = 3 ! ~ [ ' ' _ _ ",
"m.F.F.m.v.[ H 3 f = 0 X O.S.| )  .c.c. .} }  .[  .c.x.} } ' ) ) H P I P Q } } ] ..{ } ] ] { O./ ; M i > 3 / ~ [ ' } _ _ ",
"x.v.m.v.y.[ H 6 1.l f   / N.] P ' k.n.j. .} [ } M.K.Z.c.c.c...| ] ] { { { $.k...V.V.N.N.N.a.{ ! m ,.x k m / ~ [ ' ) _ ) ",
"} j.v.m.v.u.X.U ,.x l   b o.R X.` B.R.T.$.| ] ] B.B.$.$.s.$.@./ o.o.+.+.+.+.@.X.I _ ! X.O.+./ b q B S N m O.~ [ ' ' ) K ",
"' [ [ [ p.f./ ; w l l $ s f # 9 @ 3 9 ; q 9 ; @ q 5 t n m ; Y &.9 : o @ q q ; q @ 3 9 ; X y 9 w s d g f n ( ^ [ ' Q P ) ",
"' [ [ { t.+.G - y N j u z x u :.N *.k 1 f j d k k N *.M *.> :.,.N :.l N B N N ,.S :.N l = :.j A d g M w U ( ! ~ ~ P H H ",
"H P ' Q ^ ^ G 5 Y M A k *.f 9 2.k *.l x S S S :.l *.:.*.N = *.>.x c B c c x x x D D D A a D j D i s M 5 b / W H Q Q P H ",
"H H H P H ! G b 6 e t 0 t 3 O 3 q y y 0 h 0 1 y y &.Y Z y = k A k k N k f k k h Z Z A r 0 A j Z w q q 4 v I H H P H P H ",
") P F F H F 2 + 2 8 U V R R v 7 o.6.Y t t 3 3 U 8 8 2 7 2 - 3 3 - - - 4 2 b b - - - b 2 7 7 7 8 U 8 8 - - v 7 F 7 7 V K ",
"l.B.l.s.s.O.I v R R +.+.%.T.$.Q B.%.O.X.R G J #.%.s.! O.X./ X.I ! W ^ ^ { f.T.! { ^ s.{ $.{ { $.!.Y.U.X.{ s.$.$...k.N.N.",
"_ ] ) ] ] I H H #.] O.] ] ..' Q P W W [ ] H P a.{ u.~ [ P Q P P { ~ O.{ ] C.E.] ] P ..P ] P P P B.N.$.' ' ....] | | ....",
"] ] ' ~ Q ~ ] ..U.] | ] Q ' ' [ [ ' ' ] } P } J. .c.[ u.'  .....] Q ..] H | B.F ] P $.P ] H ) ) { } { P ' $.| ..] ' ) ' ",
" .u.[ u.y.[ ..H ] ] ] ..k.c.k. .x...k.| | ) K l. .k. .' |  .) _ I _ X.` K J #.L ` _ _ _ ) ) K ) P ' ' ' ) N.} $.} l.l.k.",
" . .[ y.[ [ [ F P Q ) ) } k.j.j.[  .|  .k._ ) Z. .k.j.} j. ._ } P P _ ] K L #.L _ _ ) L _ ) ) ) } ' ' ' P ..P ) ) | k.| ",
"[ y.[ y.r.[ [ F P K ) ) }  .j.[ } [  .}  .} ) Z.x.x.x. . . .} ' Q P H ' H ' $.K ) P ) ) } }  . .[ [ ' ' P } H ) P ' | } ",
"j.y. .x.y.[  .H Q ] ) ) _  .j. .j.j.j. . .) P x.x.x.v. .j. .' ' ' Q H Q P ' k.H P ) ' ' [  .x.x. .[ ' ' P ..) ' P ' | } "
};
