/* XPM */
static char *_7ee65fb6c4b4d8eb6ec70f17fba0cc4MX8E659Wn593twxF[] = {
/* columns rows colors chars-per-pixel */
"119 30 157 2 ",
"   c None",
".  c #2C2D2C",
"X  c #312B2E",
"o  c #30332F",
"O  c #3E2333",
"+  c #342B31",
"@  c #3C2E35",
"#  c #3F2F38",
"$  c #2F3331",
"%  c #323232",
"&  c #3B3135",
"*  c #383836",
"=  c #3B3B3B",
"-  c #422231",
";  c #442E3B",
":  c #4B2C3D",
">  c #512A3F",
",  c #413037",
"<  c #46373C",
"1  c #4A373F",
"2  c #453A3E",
"3  c #49383E",
"4  c #4F2B40",
"5  c #552A43",
"6  c #592944",
"7  c #413B40",
"8  c #4C3A42",
"9  c #523E46",
"0  c #553F48",
"q  c #5B3E4A",
"w  c #612747",
"e  c #64264A",
"r  c #69274C",
"t  c #622948",
"y  c #603E4D",
"u  c #6F2650",
"i  c #7B2254",
"p  c #434343",
"a  c #454448",
"s  c #4B4B4B",
"d  c #4D474C",
"f  c #55424A",
"g  c #5B434D",
"h  c #534850",
"j  c #5C4B52",
"k  c #595759",
"l  c #5C5A5C",
"z  c gray32",
"x  c #61404E",
"c  c #5D5B60",
"v  c #605E60",
"b  c #6D5E67",
"n  c #636264",
"m  c #686767",
"M  c #6D6B6B",
"N  c #706F6F",
"B  c #84063F",
"V  c #840540",
"C  c #8A0742",
"Z  c #920B47",
"A  c #8C1D5C",
"S  c #851E5A",
"D  c #9F1352",
"F  c #9D1D5A",
"G  c #951D59",
"H  c #A3034D",
"J  c #AB004C",
"K  c #B3004D",
"L  c #BD0053",
"P  c #B5075A",
"I  c #B00454",
"U  c #A21555",
"Y  c #AB1057",
"T  c #A51758",
"R  c #A61A5A",
"E  c #A71D5B",
"W  c #9D215A",
"Q  c #A6235F",
"!  c #951B61",
"~  c #961B61",
"^  c #9C1964",
"/  c #BD0B61",
"(  c #A21967",
")  c #A6176A",
"_  c #AA166B",
"`  c #A31969",
"'  c #BC0F73",
"]  c #B71271",
"[  c #983564",
"{  c #B23272",
"}  c #C10055",
"|  c #C20054",
" . c #C10056",
".. c #C20056",
"X. c #C30057",
"o. c #C40055",
"O. c #C60056",
"+. c #C90057",
"@. c #C20058",
"#. c #C60059",
"$. c #C90058",
"%. c #D5005D",
"&. c #DA005F",
"*. c #C80C69",
"=. c #D00260",
"-. c #DD0062",
";. c #C41267",
":. c #CB0E7C",
">. c #D30B7E",
",. c #C71773",
"<. c #DF1170",
"1. c #E00060",
"2. c #EC0067",
"3. c #E7006B",
"4. c #ED0068",
"5. c #F3006B",
"6. c #F40273",
"7. c #FE0073",
"8. c #ED107D",
"9. c #C02E74",
"0. c #D60C81",
"q. c #DC0A84",
"w. c #E20887",
"e. c #EB058B",
"r. c #E30889",
"t. c #F2048F",
"y. c #F40490",
"u. c #FF0095",
"i. c #FF0096",
"p. c #FF0096",
"a. c #FF0099",
"s. c #FF0098",
"d. c #DF2783",
"f. c #E42D86",
"g. c #E3308D",
"h. c #EC3996",
"j. c #EB3693",
"k. c #B45E86",
"l. c #9D7A8C",
"z. c #B9628F",
"x. c #A67A93",
"c. c #BB7095",
"v. c #B77C9B",
"b. c #BD789C",
"n. c #CE5391",
"m. c #DF509A",
"M. c #D16E9F",
"N. c #C3719C",
"B. c #D169A1",
"V. c #BD8BA8",
"C. c #AF9AA4",
"Z. c #C5A4B7",
"A. c #C2A8B7",
"S. c #C7A6B9",
"D. c #C8A6BA",
"F. c #CBAABC",
"G. c #CDB6C2",
/* pixels */
"                                                                                                                                                                                                                                              ",
"                    z p = * * * = = p                                                                                                                                                                                                         ",
"                s = * % % % % % % % % * = s                                                                                                                                                                                                   ",
"              = * % % % % % % % % % % % % % =                           j 9 9 0 q q q q x x x y y q q q q 0 0 0 9 9 9 9 8 8 3 3 < < < 3 8 1 8 8 8 8 9 9 0 0 f f f f f f g g g g g                   g g g g f f f 9 f f                       ",
"          p * % % % % % % % % % % % % % % % % = s                       8 + X + + + + + + + + + + + + + + + X X . . . . . . X X . . . . X X X X X X X X X X X X X X X X + + + + + + + + + + + + + + + + + + + X X X X @ <                     ",
"        p % % % % % % % % % % % % % % % % % % % * s                       & . . . . . . . . . . . . . . . . . . . . . . . . . . . . . . . . . . . . . . . . . . . . . . . . . . . . . . . . . . . . . . . . . . . . . . +                     ",
"        * % % % % % % % % % % % % $ % % % % % % % *                         + . . . . . . . . . . . . . . . . . . . . . . . . . . . . . . . . . . . . . . . . . . . . . . . . . . . . . . . . . . . . . . . . . . . . . X ,                   ",
"      * % % % % % 4 ~ A ; % % % % w ^ i @ % % % % % =                       : - O O O O O O O O O O O O O O O O O O O O O O O O O O O O O O O O O O O O O O O O O O O O O O O O O O O O O O O O O O O O O O O O O O O O - - 5                 ",
"    p % % % % % : :.u.u._ & % % 5 q.s.y.~ % % % % % % p     F R R R T U D U Z B B B B B B V V V V V V V V V V V V V V V V V V V V V V V V V V V V V V V V V V V V V V V V V V V V V V V V V V V V V V V V B B B B B B B B B C D T T R E Q     ",
"    = % % % % % ~ u.u.s.e.6 % % ^ u.u.u.e.6 $ % % % % * c G H K K J J J J J J J J J J J J J J J J J J J J J J J J J J J J J J J J J J J J J J J J J J J J J J J J J J J J J J J J J J J J J J J J J J J J J J J J J J J J J J J J J J J H z.  ",
"    % % % % % @ :.u.u.u.u.S $ & :.s.u.u.u.A $ % % % % % s   I | | o.| | | | | o.| | | | @.| | | | | | | | | | | | | | | | | | | | | | | | | | | | | | | | | | | | | | | | | | | | | | | | | | | | | | | | | @.@.@.@.@.| | | o.| | | | L { V.  ",
"  p % % % % % : w.u.u.u.u.^ $ ; 0.u.u.u.u.) % % % % % % =   / %.%.&.%.&.&.&.&.&.&.&.&.&.&.&.&.&.&.&.&.&.&.&.&.-.&.&.&.&.&.&.&.&.&.&.&.&.&.&.&.&.&.&.&.&.&.&.&.&.&.&.&.&.&.&.&.&.&.&.&.&.&.&.&.&.&.&.&.&.&.&.&.&.&.&.&.&.&.&.&.&.%.%.%.;.N.    ",
"  = % % % % % : r.u.u.u.u.^ $ ; q.u.u.u.u._ % % % % % % * b *.3.4.2.2.2.4.4.4.4.4.2.4.4.4.4.4.4.4.4.4.4.4.4.4.4.4.4.4.4.4.4.4.4.4.4.4.4.4.4.4.4.4.4.4.4.4.4.4.4.4.4.4.4.4.4.4.4.4.4.4.4.4.4.4.4.4.4.4.4.4.4.2.2.4.4.4.4.4.4.4.4.2.2.-.n.x.    ",
"  * % % % % % : w.u.u.u.u.A $ & :.u.u.u.u.) % % % % % % % h d.5.7.7.7.7.7.7.7.7.7.7.7.7.7.7.7.7.7.7.7.7.7.7.7.7.7.7.7.7.7.7.7.7.7.7.7.7.7.7.7.7.7.7.7.7.7.7.7.7.7.7.7.7.7.7.7.7.7.7.7.7.7.7.7.7.7.7.7.7.7.7.7.7.7.7.7.7.7.7.7.7.7.5.f.v.      ",
"  * % % % % % ; 0.u.u.u.t.e % % ` u.u.u.u.~ $ % % % % % % 7 j.6.7.7.7.7.7.7.7.7.7.7.7.7.7.7.7.7.7.7.7.7.7.7.7.7.7.7.7.7.7.7.7.7.7.7.7.7.7.7.7.7.7.7.7.7.7.7.7.7.7.7.7.7.7.7.7.7.7.7.7.7.7.7.7.7.7.7.7.7.7.7.7.7.7.7.7.7.7.7.7.7.7.8.B.        ",
"  * % % % % % & _ q.>.>.] # % o r >.>.>.q.u $ % % % % % % 2 h.6.7.7.7.7.7.7.7.7.7.7.7.7.7.7.7.7.7.7.7.7.7.7.7.7.7.7.7.7.7.7.7.7.7.7.7.7.7.7.7.7.7.7.7.7.7.7.7.7.7.7.7.7.7.7.7.7.7.7.7.7.7.7.7.7.7.7.7.7.7.7.7.7.7.7.7.7.7.7.7.7.6.m.x.        ",
"  * % % % % % % ; ; @ @ @ % % % % @ @ @ ; & % % % % % % % d g.6.7.7.7.7.7.7.7.7.7.7.7.7.7.7.7.7.7.7.7.7.7.7.7.7.7.7.7.7.7.7.7.7.7.7.7.7.7.7.7.7.7.7.7.7.7.7.7.7.7.7.7.7.7.7.7.7.7.7.7.7.7.7.7.7.7.7.7.7.7.7.7.7.7.7.7.7.7.7.7.5.f.b.          ",
"  = % % % % % % % ; > e t % % % ; r 6 : & % % % % % % % &   ,.3.5.5.5.5.5.5.5.5.5.5.5.5.5.5.5.5.5.5.5.5.5.5.5.5.5.5.5.5.5.5.5.5.5.5.5.5.5.5.5.5.5.5.5.5.5.5.5.5.5.5.5.5.5.5.5.5.5.5.5.5.5.5.5.5.5.5.5.5.5.5.5.5.5.5.5.5.5.5.5.<.M.            ",
"  = % % % % % % 5 :.e.y.0.; % $ i y.e.w.( & % % % % % % *   ;.-.-.1.1.1.1.1.1.1.1.1.1.1.1.1.1.1.1.1.1.1.1.1.1.1.1.1.1.1.1.1.1.1.1.1.1.1.1.1.1.1.1.1.1.1.1.1.1.1.1.1.1.1.1.1.1.1.1.1.1.1.1.1.1.1.1.1.1.1.1.1.1.1.1.1.1.-.-.-.=.n.x.            ",
"  p % % % % % % 6 e.u.s.e.> % o A u.u.s.' & % % % % % % =   P @.@.$.$.$.$.$.$.$.$.$.$.$.$.$.$.$.$.$.$.$.$.$.$.$.$.$.$.$.$.$.$.$.$.$.$.$.$.$.$.$.$.$.$.$.$.$.$.$.$.$.$.$.$.$.$.$.$.$.$.$.$.$.$.$.$.$.$.$.$.$.$.$.$.$.$.$.$.o.9.v.              ",
"    * % % % % % ; 0.s.u.e.: % $ A u.u.u.^ % % % % % % % a F J K K K K K K K K K K K K K K K K K K K K K K K K K K K K K K K K K K K K K K K K K K K K K K K K K K K K K K K K K K K K K K K K K K K K K K K K K K K K K K Y c.                ",
"    = % % % % % % A t.y.` & % % 5 >.y.0.5 % % % % % % =   [ E E E E E E E E E E E E E E E E E E E E E E E E E E E E E E E E E E E E E E E E E E E E E E E E E E E E E E E E E E E E E E E E E E E E E E E E E E E E E E W k.l.                ",
"      * % % % % % & w e & % % % % : r : % % % % % % % s   G.F.F.F.F.F.D.D.D.D.S.S.D.D.D.D.D.D.D.D.D.D.S.S.D.S.S.S.S.S.S.S.S.S.S.S.S.D.S.S.S.S.S.S.S.S.S.S.S.S.S.S.S.S.S.S.S.S.S.S.S.S.S.S.S.Z.Z.Z.Z.Z.Z.Z.Z.Z.S.S.S.Z.Z.A.C.                  ",
"      p * % % % % % % $ % % % % % % $ % % % % % % % =               N M M m m n n n n n n v l l l l l l l l l l l l l l l l l l l l l l l l l l l l l l l l l l l l l l l l l l l l l l l l l l l l l k l l k l k k l l l                     ",
"        p * % % % % % % % % % % % % % % % % % % % =                                                                                                                                                                                           ",
"          = * % % % % % % % % % % % % % % % % * =                                                                                                                                                                                             ",
"            = * % % % % % % % % % % % % % % *                                                                                                                                                                                                 ",
"                = * % % % % % % % % % % * =                                                                                                                                                                                                   ",
"                    = * * % % % % * * =                                                                                                                                                                                                       ",
"                                                                                                                                                                                                                                              "
};
