/* XPM */
static char *_59ffacc8565411cf145e9a317180cd8NGrCyYMyLDvklBml[] = {
/* columns rows colors chars-per-pixel */
"36 60 216 2 ",
"   c None",
".  c #0F0807",
"X  c #0E0B0B",
"o  c #0E0707",
"O  c #120B0A",
"+  c #1B0D0D",
"@  c #1D0805",
"#  c #19100F",
"$  c #151414",
"%  c #1A1413",
"&  c #1C1816",
"*  c #1A1519",
"=  c #1C1B1B",
"-  c #16191A",
";  c #0F0F10",
":  c #270B09",
">  c #3A0D0A",
",  c #39130E",
"<  c #231513",
"1  c #2B1513",
"2  c #231A16",
"3  c #251D1B",
"4  c #2B1B18",
"5  c #331411",
"6  c #3B1411",
"7  c #3B1916",
"8  c #361B18",
"9  c #1B221D",
"0  c #26211E",
"q  c #2A211E",
"w  c #34231C",
"e  c #1C1D22",
"r  c #241E23",
"t  c #1F2222",
"y  c #252423",
"u  c #2B2523",
"i  c #2D2926",
"p  c #25242C",
"a  c #2D2C2B",
"s  c #232924",
"d  c #342C25",
"f  c #322E2D",
"g  c #392723",
"h  c #2C322D",
"j  c #2A3123",
"k  c #35322C",
"l  c #3B332C",
"z  c #393A2C",
"x  c #2A2A33",
"c  c #2C2C3A",
"v  c #262731",
"b  c #312D35",
"n  c #2E3335",
"m  c #343433",
"M  c #3D3733",
"N  c #34353C",
"B  c #343A3A",
"V  c #3A3A3A",
"C  c #3B3738",
"Z  c #411511",
"A  c #4A1D17",
"S  c #482926",
"D  c #43352D",
"F  c #433C34",
"G  c #423E3B",
"H  c #473934",
"J  c #503F33",
"K  c #36422E",
"L  c #364439",
"P  c #3B523C",
"I  c #2F4332",
"U  c #4C443B",
"Y  c #4F483E",
"T  c #434339",
"R  c #52453C",
"E  c #514A3F",
"W  c #50563D",
"Q  c #65573E",
"!  c #323444",
"~  c #34364A",
"^  c #363A4D",
"/  c #373A45",
"(  c #3A3E52",
")  c #3A4448",
"_  c #3F5449",
"`  c #3B4156",
"'  c #3D435A",
"]  c #3F4A5A",
"[  c #434343",
"{  c #4B4643",
"}  c #43444C",
"|  c #4B4C4C",
" . c #484848",
".. c #554E43",
"X. c #554C47",
"o. c #4C5C43",
"O. c #5B5246",
"+. c #5E564B",
"@. c #565448",
"#. c #4A4B53",
"$. c #40465E",
"%. c #444958",
"&. c #4F5152",
"*. c #49545A",
"=. c #525454",
"-. c #56595A",
";. c #5B5D5D",
":. c #595A52",
">. c #504D54",
",. c #62574C",
"<. c #62594B",
"1. c #605446",
"2. c #655E54",
"3. c #704F46",
"4. c #46684B",
"5. c #576759",
"6. c #577859",
"7. c #4C6A50",
"8. c #676153",
"9. c #6C645C",
"0. c #676659",
"q. c #756B5D",
"w. c #74685A",
"e. c #72735F",
"r. c #404661",
"t. c #444D62",
"y. c #464F69",
"u. c #475169",
"i. c #49536B",
"p. c #5E5B61",
"a. c #576968",
"s. c #597B67",
"d. c #53657C",
"f. c #626564",
"g. c #6D6D6B",
"h. c #6B6763",
"j. c #746C63",
"k. c #776B64",
"l. c #7C7263",
"z. c #7C7568",
"x. c #747D6C",
"c. c #787769",
"v. c #767673",
"b. c #7B7875",
"n. c #6A7464",
"m. c #847A6B",
"M. c #84796A",
"N. c #837E78",
"B. c #5A875B",
"V. c #66855C",
"C. c #5D8B64",
"Z. c #5A8564",
"A. c #688A6B",
"S. c #778A6B",
"D. c #63926B",
"F. c #629A6A",
"G. c #65946A",
"H. c #709568",
"J. c #6A9573",
"K. c #758F73",
"L. c #6DA774",
"P. c #74A676",
"I. c #74AB78",
"U. c #76B379",
"Y. c #7CBA7B",
"T. c #7BB67A",
"R. c #7DA76C",
"E. c #8C8374",
"W. c #85817D",
"Q. c #8B8B78",
"!. c #958C7C",
"~. c #918777",
"^. c #8B977E",
"/. c #96927F",
"(. c #84BC7C",
"). c #81AF7B",
"_. c #84C27E",
"`. c #5E738D",
"'. c #596C85",
"]. c #7E9B84",
"[. c #938D81",
"{. c #8A9784",
"}. c #959382",
"|. c #9B9382",
" X c #959A82",
".X c #8A8580",
"XX c #A09686",
"oX c #A39B8B",
"OX c #A49A89",
"+X c #94AA8D",
"@X c #A7A18F",
"#X c #A6A391",
"$X c #ACA493",
"%X c #AFAA9D",
"&X c #B3AD9C",
"*X c #B0A897",
"=X c #A7B599",
"-X c #AFB5A5",
";X c #B5B3A3",
":X c #BBB4A4",
">X c #BCB9A8",
",X c #C3BCAA",
"<X c #C6BCB1",
"1X c #8BC982",
"2X c #92CC84",
"3X c #9AD587",
"4X c #A3DB8B",
"5X c #B1E393",
"6X c #BAC9AE",
"7X c #C9C6B6",
"8X c #D1CDBB",
"9X c #C5C0AE",
"0X c #D6D2C2",
"qX c #DBD9C8",
"wX c #E8E6D6",
"eX c #F5F4E7",
/* pixels */
"                                                                        ",
"                                                                        ",
"                              L.                                        ",
"                            T.U.                                        ",
"                            Y.1XY.I.                                    ",
"                            U.3X4X_.                                    ",
"                              U._._.                                    ",
"                                  U.                                    ",
"                                  _                                     ",
"                              L D.I t                                   ",
"                            e P Y.U.4.e                                 ",
"                          e ` h 7.7.n ` v                               ",
"                          e d.t.e e ` '.v                               ",
"                          $ ^ `.`.`.`.] -                               ",
"                          r x ' t.u.$.c r q                             ",
"                    l.;X&X9.c ^ ( $.( c +.[.9.E.                        ",
"                  $XwXwX0X$X+.( ' i.` X.oX;X:.0X%X3 >                   ",
"                E.qX8X7X&X|.w.[ %.%.} <.|.*X9.2.{ l w                   ",
"              q.$X7XXX|.!.w.q.|.OX,.!.w.<.z.M d m.OXl.                  ",
"            W 7.&X*XQ.}.l./.7XwX<X3.E.{ 5 2 T 0.@X:X5.W                 ",
"            o.J.0X+XD.Z.8.$XwXeXj.6 < j.3.w 6.F.{.0X].4.                ",
"            k x.qXZ.Y.V.M.!.k.9.q < 3 [.&Xl.V.Y.Z.8X}.z                 ",
"- -           0.&XK.B.<.~.m.7 1 j.#XE.k 2.m.8.6.A.;X0.2.        $ - $   ",
"$ = = $     w.>XwX+X6.+.8.3 d z.qXwX8Xz.l d 1.0.;XqX8Xm.@   $ = = -     ",
"  - y a = - < !.qX=XG.+.q l q.,X0X8X:X:XoXq D !.=X6X9X..O * a y -       ",
"    $ y k y 5 3.~.m.S.0.4 E :X@X9X:X$X7X-X2.D Q.P.Q.m.d = % y -         ",
"      - y = 2 ..!.!.S.8.g K {.>X$X*X;XD.C.x.l l.}.@Xj.h y * O           ",
"        - = 4.L U 0.T w j B.G.{.0X>XA.U.F.:.y f O.m.@.P = - O           ",
"        l T D.K + h p # k C.F.A.qX-XZ.F.6...h p p 0 - 9 k l O O         ",
"        y :.P.6.& L I $ m :.n.#Xn.}.{.5.X.N B _ x +.y l 2.a O :         ",
"        3  .c.H.o.k D./ ' >.oX>X}.oX,Xl./ ( p s.L q.w.q.&.h O 6 >       ",
"        = [ E.E.O.Q Y.s.y.} w.!.XXOXE.U / $.4 A.G.e.m.!.=.m O O         ",
"        + a 0.XXS.(.2Xa.u.! X.E.E.E.M.C ~ ] g H.1XP. Xj.&.B O           ",
"      > > a :.!.K.2XJ.t.i.` #.j.!.Q.0.( ' t.*.Y.3X(. X9.&.m O           ",
"        O a 5.{.).C.%.u.i.` r.^ ) 5.] r.' y.a._.5X1XQ.{ =.a O           ",
"        . f x.P.Y.7.L ( i.#.;.p.x.J.p.;.>.t.t.J.3XR.J S &.i o           ",
"      % & 0 8.4.I.I.7.V 9.q.M.m.E.z.m.l.l.9. .4.P j < 5 a % % O         ",
"      u f 7 g - I L 9 k q.E.m.|.XX~.!.S.S.l.U O O = - O % 3 F o         ",
"    . u d 1 % O X X O E M.XX/.#X$XXX$X|.O.R l % X X O % G F ..%         ",
"      # & k a & O : D m.|.|.c.^.^.~.|.N.,.> 4 F = $ 1 6 f i U   : :     ",
"      O i f y = % 7 w.z.:.V p L Z.B v v * $ G E.+.$ O + q a y % 5       ",
"    - y a t y a i < 1 a c p c ) I.C./ c * v x f J 1 = y = a a - X       ",
"  - i y = a [ f 1 % * r ~ c ^ *.Y._.C.^ e ! c v 1 Z a | h = y a -       ",
"$ y y * = | | 1 Z & c ! ( ^ r.D.2X3XP.$.= ! ^ c p O p -.&.i - y y -     ",
"- = * d y -.-.x $ $ ! ` i.' r.s.2X5XP.t.x ( $.~ v + r -.-.m F = * =     ",
"$     & y ;.f.N * * ~ ` u.( ^ ) I.4XP.( ! ( ' ~ c 5 7 -.a.m E   X $ X   ",
"      # a g.g.#.V = N / *.#.N P L.T.4.n / / *.#.} % a =.g.V Y   .       ",
"    O u V v.v.v.v.q 1 S g.v.f.m s s a 5.=.X.v.v.G & ;.v.b.[ Y <.%       ",
"  > 7 U m g.W.W.W.G 1 Z h..XN.g. .[ f.b.g.h.N.k.8 k N.W.v.C Y <.E %     ",
"    4 ..a [ -.;.f.;.f # V g.g.f.f.f.f.f.f.f.| g Z u =.|  .a Y     F     ",
"    l ..k V | &.=.-.&.6 1 V ;.;.;.;.;.-.;.;.-.| 3 % 8 u V a E           ",
"      O.F a [ | &.=.C u 3 %  .=.=.=.&.&.&.&.=.=.f a 5 d m M O.          ",
"        U a V L | | [ |  .y  .&.|  .&.&.&.&.=.| y V * i m T ,.          ",
"        Y k m V [ V [ [ [ i V [ V [ [ [ [ [  .f = V 8 7 i l             ",
"        +.U k m V V V V m 2 m V V V V V V m y $ a f < + 2 A             ",
"          +.U k a a a a y , 4 a a a a a y 0 2 0 a i i F q :             ",
"            +...........d D D U ......l k ..........O.<.E q & 2         ",
"                <.<.<.U k +.+.+.<.<.F l O.,.<.<.<.<.        ..F         ",
"                                                                        ",
"                                                                        "
};
