/* XPM */
static char *result[] = {
/* columns rows colors chars-per-pixel */
"60 60 71 1 ",
"  c #0E0B0D",
". c #151417",
"X c #161519",
"o c #181719",
"O c #19191D",
"+ c #1C1C22",
"@ c #1F2127",
"# c #212224",
"$ c #25252C",
"% c #27292C",
"& c #2A2D2D",
"* c #2E322D",
"= c #30342F",
"- c #262630",
"; c #282730",
": c #262932",
"> c #2B2B33",
", c #2D2E3A",
"< c #2E3230",
"1 c #2E313C",
"2 c #323531",
"3 c #353934",
"4 c #393D37",
"5 c #31323E",
"6 c #3B3F39",
"7 c #3D413B",
"8 c #41443F",
"9 c #2F3640",
"0 c #353645",
"q c #353847",
"w c #373948",
"e c #3A3B4C",
"r c #3D3F51",
"t c #39414E",
"y c #3E4154",
"u c #3D4956",
"i c #3F4D5A",
"p c #434641",
"a c #464943",
"s c #494C46",
"d c #4C4F49",
"f c #4D504A",
"g c #404256",
"h c #424559",
"j c #44495D",
"k c #474B61",
"l c #494D65",
"z c #495166",
"x c #4D536B",
"c c #4E5B6F",
"v c #4F5C70",
"b c #505770",
"n c #525B73",
"m c #555F78",
"M c #4F6072",
"N c #516275",
"B c #556279",
"V c #576B7F",
"C c #5A6780",
"Z c #5D6C85",
"A c #5B7186",
"S c #5E758A",
"D c #606F89",
"F c #62738D",
"G c #657992",
"H c #687C96",
"J c #6A7F9A",
"K c #6E88A3",
"L c #708AA5",
"P c #738FAA",
"I c None",
/* pixels */
"IIIIIIIIIIIIIIIIIIIIIIIIIIIIIIIIIIIIIIIIIIIIIIIIIIIIIIIIIIII",
"IIIIIIIIIIIIIIIIIIIIIIIIIIIIIIIIIIIIIIIIIIIIIIIIIIIIIIIIIIII",
"IIIIIIIIIIIIIIIIIIIIIIIIIIIIIIIIIIIIIIIIIIIIIIIIIIIIIIIIIIII",
"IIIIIIIIIIIIIIIIIIIIIIIIIIIIIIIIIIIIIIIIIIIIIIIIIIIIIIIIIIII",
"IIIIIIIIIIIIIIIIIIIIIIIIIIIIIIIIIIIIIIIIIIIIIIIIIIIIIIIIIIII",
"IIIIIIIIIIIIIIIIIIIIIIIIIIIIIIIIIIIIIIIIIIIIIIIIIIIIIIIIIIII",
"IIIIIIIIIIIIIIIIIIIIIIIIIIIIIIIIIIIIIIIIIIIIIIIIIIIIIIIIIIII",
"IIIIIIIIIIIIIIIIIIIIIIIIIIIIIIIIIIIIIIIIIIIIIIIIIIIIIIIIIIII",
"IIIIIIIIIIIIIIIIIIIIIIIIIIIIIIIIIIIIIIIIIIIIIIIIIIIIIIIIIIII",
"IIIIIIIIIIIIIIIIIIIIIIIIIIIII    IIIIIIIIIIIIIIIIIIIIIIIIIII",
"IIIIIIIIIIIIIIIIIIIIIIIIIIII@@@#@@IIIIIIIIIIIIIIIIIIIIIIIIII",
"IIIIIIIIIIIIIIIIIIIIIIIIIII+tzMBBi+IIIIIIIIIIIIIIIIIIIIIIIII",
"IIIIIIIIIIIIIIIIIIIIIIIIII+,cHKPKN1@IIIIIIIIIIIIIIIIIIIIIIII",
"IIIIIIIIIIIIIIIIIIIIIIIII+tnZGKGBBCiOIIIIIIIIIIIIIIIIIIIIIII",
"IIIIIIIIIIIIIIIIIIIIIIII+:lFFDVcjvGv9$IIIIIIIIIIIIIIIIIIIIII",
"IIIIIIIIIIIIIIIIIIIIIIIX,jxmDZchyjxVAuXIIIIIIIIIIIIIIIIIIIII",
"IIIIIIIIIIIIIIIIIIIIII@:rbxbmnkrgrgnGvq:IIIIIIIIIIIIIIIIIIII",
"IIIIIIIIIIIIIIIIIIIIIX,kzbbxlkggggghzCStXIIIIIIIIIIIIIIIIIII",
"IIIIIIIIIIIIIIIIIIIIIX>jxxxkgyggggggyBGeXIIIIIIIIIIIIIIIIIII",
"IIIIIIIIIIIIIIIIIIIIIX#5hxkggggggggrhxx9XIIIIIIIIIIIIIIIIIII",
"IIIIIIIIIIIIIIIIIIIIIX+;0ygyggggggggglk,XIIIIIIIIIIIIIIIIIII",
"IIIIIIIIIIIIIIIIIIIIIX+$>0eggggggggghll,XIIIIIIIIIIIIIIIIIII",
"IIIIIIIIIIIIIIIIIIIII.+$;,egggggggggglz,.IIIIIIIIIIIIIIIIIII",
"IIIIIIIIIIIIIIIIIIIII.+$>,eggggggggrgll,.IIIIIIIIIIIIIIIIIII",
"IIIIIIIIIIIIIIIIIIIII.+$;5eggggggggggjh>.IIIIIIIIIIIIIIIIIII",
"IIIIIIIIIIIIIIIIIIIIIoO$;,wgggggggggggr-.IIIIIIIIIIIIIIIIIII",
"IIIIIIIIIIIIIIIIIIIII.O$;>wgggggggggggr-.IIIIIIIIIIIIIIIIIII",
"IIIIIIIIIIIIIIIIIIIII.+$$;wgggggggggghr-.IIIIIIIIIIIIIIIIIII",
"IIIIIIIIIIIIIIIIIIIIIX+$$;0ghgggggggghr-XIIIIIIIIIIIIIIIIIII",
"IIIIIIIIIIIIIIIIIIIII.+$$;wgggggggggghr-.IIIIIIIIIIIIIIIIIII",
"IIIIIIIIIIIIIIIIIIIII.+$$;wgggggggggggr-.IIIIIIIIIIIIIIIIIII",
"IIIIIIIIIIIIIIIIIIIIoX@;$;0ggggggrgyghr$.IIIIIIIIIIIIIIIIIII",
"IIIIIIIIIIIIIIIIIII.O#;>;>wgggggggggghr;oIIIIIIIIIIIIIIIIIII",
"IIIIIIIIIIIIIIIIII3##&;;;>ekjkxxxxxxxlh0>@IIIIIIIIIIIIIIIIII",
"IIIIIIIIIIIIIIIIIf83=&%&;5hxxbVDZDDDDmxlh:.IIIIIIIIIIIIIIIII",
"IIIIIIIIIIIIIIII888742&%%,whkxnBBmmBmblxj;.IIIIIIIIIIIIIIIII",
"IIIIIIIIIIIIIIIf833343**$&>0eghhghhhhgghr$.IIIIIIIIIIIIIIIII",
"IIIIIIIIIIIIIIIf83*=3=**$$;1500q0000000w0+o2IIIIIIIIIIIIIIII",
"IIIIIIIIIIIIIIIf83****=*&$;>*&>><,,,,,,,;++6fIIIIIIIIIIIIIII",
"IIIIIIIIIIIIIIII883*&*372&&>22<>&;&&&&*&&%2pfIIIIIIIIIIIIIII",
"IIIIIIIIIIIIIIIIId82==7a42>2332=*=<<**&**36asIIIIIIIIIIIIIII",
"IIIIIIIIIIIIIIIIIIs88888p886326888tp73**34443IIIIIIIIIIIIIII",
"IIIIIIIIIIIIIIIIIIIdda878sds44addddfd73233332IIIIIIIIIIIIIII",
"IIIIIIIIIIIIIIIIIIII733468ssaadfIIIddd84=*27aIIIIIIIIIIIIIII",
"IIIIIIIIIIIIIIIIIIII423348adffddIIIIdfd7323afIIIIIIIIIIIIIII",
"IIIIIIIIIIIIIIIIIIIdsa4=6sddIIIIIIIIIIIaaaaIIIIIIIIIIIIIIIII",
"IIIIIIIIIIIIIIIIIIIdff84pdddIIIIIIIIIIIIddfIIIIIIIIIIIIIIIII",
"IIIIIIIIIIIIIIIIIIIIddsssdIIIIIIIIIIIIIIIIIIIIIIIIIIIIIIIIII",
"IIIIIIIIIIIIIIIIIIIIIdfffdIIIIIIIIIIIIIIIIIIIIIIIIIIIIIIIIII",
"IIIIIIIIIIIIIIIIIIIIIIIIIIIIIIIIIIIIIIIIIIIIIIIIIIIIIIIIIIII",
"IIIIIIIIIIIIIIIIIIIIIIIIIIIIIIIIIIIIIIIIIIIIIIIIIIIIIIIIIIII",
"IIIIIIIIIIIIIIIIIIIIIIIIIIIIIIIIIIIIIIIIIIIIIIIIIIIIIIIIIIII",
"IIIIIIIIIIIIIIIIIIIIIIIIIIIIIIIIIIIIIIIIIIIIIIIIIIIIIIIIIIII",
"IIIIIIIIIIIIIIIIIIIIIIIIIIIIIIIIIIIIIIIIIIIIIIIIIIIIIIIIIIII",
"IIIIIIIIIIIIIIIIIIIIIIIIIIIIIIIIIIIIIIIIIIIIIIIIIIIIIIIIIIII",
"IIIIIIIIIIIIIIIIIIIIIIIIIIIIIIIIIIIIIIIIIIIIIIIIIIIIIIIIIIII",
"IIIIIIIIIIIIIIIIIIIIIIIIIIIIIIIIIIIIIIIIIIIIIIIIIIIIIIIIIIII",
"IIIIIIIIIIIIIIIIIIIIIIIIIIIIIIIIIIIIIIIIIIIIIIIIIIIIIIIIIIII",
"IIIIIIIIIIIIIIIIIIIIIIIIIIIIIIIIIIIIIIIIIIIIIIIIIIIIIIIIIIII",
"IIIIIIIIIIIIIIIIIIIIIIIIIIIIIIIIIIIIIIIIIIIIIIIIIIIIIIIIIIII"
};
