/* XPM */
static char *result[] = {
/* columns rows colors chars-per-pixel */
"36 60 170 2 ",
"   c #030303",
".  c #080707",
"X  c #090807",
"o  c #030B0C",
"O  c #0C0B0A",
"+  c #100F0D",
"@  c #12100F",
"#  c #051B1B",
"$  c #061716",
"%  c #141312",
"&  c #191715",
"*  c #1B1816",
"=  c #171718",
"-  c #1D1B19",
";  c #211E1B",
":  c #291B13",
">  c #24211E",
",  c #302015",
"<  c #3A281E",
"1  c #082727",
"2  c #062222",
"3  c #1A2E2D",
"4  c #073535",
"5  c #0D3E3D",
"6  c #262421",
"7  c #282522",
"8  c #2B2B2B",
"9  c #2B2827",
"0  c #312E2C",
"q  c #392B22",
"w  c #33312E",
"e  c #3B3722",
"r  c #353534",
"t  c #3D3A39",
"y  c #383634",
"u  c #45332A",
"i  c #47352B",
"p  c #4D3C35",
"a  c #403E3C",
"s  c #503E38",
"d  c #42413F",
"f  c #0A4F4E",
"g  c #095C5B",
"h  c #065655",
"j  c #2E5958",
"k  c #057A79",
"l  c #2E7D7C",
"z  c #434342",
"x  c #4C4D4C",
"c  c #494845",
"v  c #4D514D",
"b  c #54524F",
"n  c #5E5748",
"m  c #5E5A4D",
"M  c #535142",
"N  c #555554",
"B  c #5B5B5A",
"V  c #614C41",
"C  c #755F50",
"Z  c #58705B",
"A  c #63605D",
"S  c #78655A",
"D  c #467573",
"F  c #646563",
"G  c #696966",
"H  c #6C6B68",
"J  c #726C66",
"K  c #68706D",
"L  c #73716E",
"P  c #7E7167",
"I  c #6D7471",
"U  c #757471",
"Y  c #797977",
"T  c #7D7D7B",
"R  c #7D7671",
"E  c #876F5E",
"W  c #807F7E",
"Q  c #897F7B",
"!  c #907E71",
"~  c #6A806E",
"^  c #83827E",
"/  c #A48E6E",
"(  c #B88B74",
")  c #BB9179",
"_  c #B7A27D",
"`  c #7E7F80",
"'  c #058D8D",
"]  c #078485",
"[  c #168C8A",
"{  c #039594",
"}  c #299C9A",
"|  c #728380",
" . c #44A3A1",
".. c #6EB0B0",
"X. c #7EBEBD",
"o. c #828382",
"O. c #8A8984",
"+. c #8D8D8B",
"@. c #908984",
"#. c #908F8F",
"$. c #91908E",
"%. c #98928D",
"&. c #959592",
"*. c #9B9692",
"=. c #9A9A97",
"-. c #9C9C9A",
";. c #969895",
":. c #A99B89",
">. c #A59E9A",
",. c #83A39F",
"<. c #9FA09C",
"1. c #A2A29E",
"2. c #8EB4B3",
"3. c #A5A4A2",
"4. c #A7A8A4",
"5. c #AAAAA6",
"6. c #A7A8A9",
"7. c #ACADAA",
"8. c #B1AFAB",
"9. c #AFB0AB",
"0. c #B1B2AD",
"q. c #A7B7B6",
"w. c #ACBAB5",
"e. c #B4B5B1",
"r. c #B7B9B4",
"t. c #BABAB5",
"y. c #BDBEBA",
"u. c #C3A28D",
"i. c #C2A895",
"p. c #C8AC96",
"a. c #D0AF97",
"s. c #DFB79A",
"d. c #DEB99F",
"f. c #E4B99D",
"g. c #C5B6AC",
"h. c #DEBFA7",
"j. c #DCBFA8",
"k. c #C0BEB9",
"l. c #BFC0BB",
"z. c #C2C2BD",
"x. c #C8C1B7",
"c. c #F0CEB2",
"v. c #89C0C0",
"b. c #B3D3D3",
"n. c #C4C4C3",
"m. c #C9C9C6",
"M. c #C7C8C9",
"N. c #CCCDCB",
"B. c #D1CECA",
"V. c #CFD0CD",
"C. c #D1D1CE",
"Z. c #CCDCDB",
"A. c #D4D5D4",
"S. c #D7D9D7",
"D. c #DAD9D6",
"F. c #D5DCDC",
"G. c #DBDCDB",
"H. c #DFE1DE",
"J. c #DDDEE0",
"K. c #DFE1E0",
"L. c #D9E5E7",
"P. c #E4E5E5",
"I. c #EBECED",
"U. c #E6E8E9",
"Y. c #EDEEF0",
"T. c #EFF0F2",
"R. c #F2F3F5",
"E. c #F4F5F8",
"W. c #F8F7F5",
"Q. c None",
/* pixels */
"Q.Q.Q.Q.Q.Q.Q.Q.Q.Q.Q.Q.Q.Q.Q.Q.Q.Q.Q.Q.p s Q.Q.Q.Q.Q.Q.Q.Q.Q.Q.Q.Q.Q.Q.",
"Q.Q.Q.Q.Q.Q.Q.Q.Q.Q.Q.Q.Q.Q.Q.Q.Q.Q.s i p i u Q.Q.Q.Q.Q.Q.Q.Q.Q.Q.Q.Q.Q.",
"Q.Q.Q.Q.Q.Q.Q.Q.Q.Q.Q.Q.Q.Q.Q.Q.Q.Q.i E C q , Q.Q.Q.Q.Q.Q.Q.Q.Q.Q.Q.Q.Q.",
"Q.Q.Q.Q.Q.Q.Q.Q.Q.Q.Q.Q.Q.Q.Q.Q.Q.Q.: S ! P q Q.Q.Q.Q.Q.Q.Q.Q.Q.Q.Q.Q.Q.",
"Q.Q.Q.Q.Q.Q.Q.Q.Q.Q.Q.Q.Q.Q.Q.Q.Q.Q.u p.j.j.V Q.Q.Q.Q.Q.Q.Q.Q.Q.Q.Q.Q.Q.",
"Q.Q.Q.Q.Q.Q.Q.Q.Q.Q.Q.Q.Q.Q.Q.Q.Q.Q.Q.i.c.a.Q.Q.Q.Q.Q.Q.Q.Q.Q.Q.Q.Q.Q.Q.",
"Q.Q.Q.Q.Q.Q.Q.Q.Q.Q.Q.Q.Q.Q.Q.Q.Q.I.n.:.s.) Q.Q.Q.Q.Q.Q.Q.Q.Q.Q.Q.Q.Q.Q.",
"Q.Q.Q.Q.Q.Q.Q.Q.Q.Q.Q.Q.Q.Q.Z U.R.R.P.3.u.( R Q.Q.Q.Q.Q.Q.Q.Q.Q.Q.Q.Q.Q.",
"Q.Q.Q.Q.Q.Q.Q.Q.Q.Q.Q.Q.Q.Q.~ U.U.I.R.n.@.p.J 8.Q.Q.Q.Q.Q.Q.Q.Q.Q.Q.Q.Q.",
"Q.Q.Q.Q.Q.Q.Q.Q.Q.Q.Q.Q.Q.x.:.g.N.M.R.G.A ^ b 6.D.Q.Q.Q.Q.Q.Q.Q.Q.Q.Q.Q.",
"Q.Q.Q.Q.Q.Q.Q.Q.Q.Q.Q.Q.A p.f.S &.r.P.G.A 0 0 *.R.H.Q.Q.Q.Q.Q.Q.Q.Q.Q.Q.",
"Q.Q.Q.Q.Q.Q.Q.Q.Q.Q.Q.U J d.f.S T 0.l.m.U : ; G I.T.C.Q.Q.Q.Q.Q.Q.Q.Q.Q.",
"Q.Q.Q.Q.Q.Q.Q.Q.Q.Q.Q.x m _ / n +.7.0.r.o.> ; a A.E.P.Q.Q.Q.Q.Q.Q.Q.Q.Q.",
"Q.Q.Q.Q.Q.Q.Q.Q.Q.Q.Q.z b m e M 9.7.9.r.O.> ; 7 3.R.T.C.Q.Q.Q.Q.Q.Q.Q.Q.",
"Q.Q.Q.Q.Q.Q.Q.Q.Q.Q.Q.o.1.r B >.l.9.9.0.^ > ; 6 L P.I.A.Q.Q.Q.Q.Q.Q.Q.Q.",
"Q.Q.Q.Q.Q.Q.Q.Q.Q.Q.Q.U B B 6.0.l.5.0.0.H ; 6 ; d r.I.G.Q.Q.Q.Q.Q.Q.Q.Q.",
"Q.Q.Q.Q.Q.Q.Q.Q.Q.Q.Y 7 B N.7.7.l.1.9.9.c ; 6 6 6 4.I.H.n.Q.Q.Q.Q.Q.Q.Q.",
"Q.Q.Q.Q.Q.Q.Q.Q.Q.E.| O.J.V.5.4.1.<.z.&.6 7 6 - O ;.T.A.z.Q.Q.Q.Q.Q.Q.Q.",
"Q.Q.Q.Q.Q.Q.Q.Q.Q.U.A.A.n.y.4.-.&.t.H.v = - @     o.T.A.t.A.Q.Q.Q.Q.Q.Q.",
"Q.Q.Q.Q.Q.Q.Q.Q.Q.D.B.k.y.y.;.&.0.P.5.X           H U.P.r.A.G.Q.Q.Q.Q.Q.",
"Q.Q.Q.Q.Q.Q.Q.Q.Q.Q.Q.Q.Q.Q.-.0.H.K.N - 9 9 ; @ O M A.U.r.V.U.Q.Q.Q.Q.Q.",
"Q.Q.Q.Q.Q.Q.Q.Q.Q.Q.Q.Q.Q.9.0.N.K.l.#.n.M.t.&.Y G A b.I.n.l.P.R.Q.Q.Q.Q.",
"Q.Q.Q.Q.Q.Q.Q.Q.Q.Q.Q.Q.Q.A.n.A.m.+.~ ` F N T #.5.1.0.T.A.0.n.I.R.Q.Q.Q.",
"Q.Q.Q.Q.Q.Q.Q.Q.Q.Q.Q.R.Y.R.M.V.+.; @ .   o &.&.T M.o.G.I.l.t.C.R.I.Q.Q.",
"Q.Q.Q.Q.Q.Q.Q.Q.Q.Q.R.R.R.R.y.6.r   O O   6 y.t.B t.F -.T.N.e.l.G.T.Q.Q.",
"Q.Q.Q.Q.Q.Q.Q.Q.Q.R.R.R.R.R.e.B     ; O @ = z L x G z x I.U.y.t.m.G.Q.Q.",
"Q.Q.Q.Q.Q.Q.Q.Q.R.R.R.R.T.S.;.=   + ; . = ;   % = . + = n.E.G.r.y.Q.Q.Q.",
"Q.Q.Q.Q.Q.Q.Q.R.R.R.R.U.N.7.A O   - ; + - 6 @           +.E.T.n.y.Q.Q.Q.",
"Q.Q.Q.Q.Q.Q.W.R.R.R.R.U.A.I 8 = O & * % ; > * .     .   B Y.E.F.8.Q.Q.Q.",
"Q.Q.Q.Q.Q.R.R.R.R.R.R.I.q.3 6 9 * % ; * > ; - .     . . t U.R.U.t.Q.Q.Q.",
"Q.Q.Q.Q.R.R.R.R.R.R.Y.F.D o 7 w ; + ; * > > -       . O - N.R.Y.N.Q.Q.Q.",
"Q.Q.Q.U.M.J.R.R.R.T.I.2.5   8 y ; + ; * 6 ; -       . % . 6.E.R.A.Q.Q.Q.",
"Q.Q.Q.y.6.R.E.L.Y.Y.J.l #   w t > @ & - > ; &         *   | T.P.P.Q.Q.Q.",
"Q.Q.A.&.#.U.M.M.Y.Y...h     8 d > @ O ; > ; &       . -   B P.r.B.m.Q.Q.",
"Q.Q.n.S.J.n.;.I.R.b.[ 4   . 7 t ; ; O > ; ; @         ; X y V.z.-.>.Q.Q.",
"Q.R.I.E.N.F A.T.L. .k $   O 6 6 & > @ ; * ; @         ; % = 5.n.#.;.5.Q.",
"Q.R.E.J.A 3.T.Y.v.' g     O > ; & > & > % ; O     O   ; & O +.t.k.*.y.Q.",
"Q.R.E.#.T I.Y.J.} ' 4     + 7 & * ; * > @ > X     X   * -   H y.y.N 1.Q.",
"Q.R.G.` J.R.Y.X.{ ] $     & > @ - * > - @ > X     o   & -   j w.r.F W Q.",
"D.R.z.n.E.Y.Z.} ' g       & ; + > * > * @ ; O     O   = &   1 | y.;.L Q.",
"N.I.M.I.T.P.,.f 2 o       - * + - & > @ & ; O     O   % &     - 4.r.&.Q.",
"z.A.S.R.I.m.x     O       * O % & ; > + * ; O     O   @ =       H t.0.k.",
"z.z.D.R.F.0.7     O       % X * @ > ; X ; > X     X   @ %       9 0.r.k.",
"Q.r.C.I.n.1.@   O         . . * * > * . ; ;       X   @ =       . O.y.k.",
"Q.t.n.G.l.&.O   O           O % * 7 @ X > &       X   @ O         N t.Q.",
"Q.k.z.m.y.+..   @           O O > > O + > +           +           r e.Q.",
"Q.Q.z.t.y.&.    %           O O > ; . @ 6 O           O           = 3.Q.",
"Q.Q.z.r.l.#.X   %         O   O 7 *   % > O           X           @ =.Q.",
"Q.Q.k.t.y.&.O   % X       O   @ > %   * > .                       @ &.Q.",
"Q.Q.Q.r.y.<.@   O %   O O O   & > +   - *                         - Q.Q.",
"Q.Q.Q.Q.y.5.- O & % X @ + O   ; > .   > &   X   .                 t Q.Q.",
"Q.Q.Q.Q.z.r.Q.Q.; O @ O @     > ;   O > %   @   O .   .       Q.Q.Q.Q.Q.",
"Q.Q.Q.Q.Q.y.Q.Q.Q.X * O +   O 7 &   O > + O @   = .   O     Q.Q.Q.Q.Q.Q.",
"Q.Q.Q.Q.Q.Q.Q.Q.Q.Q.% O @   @ > +   @ 6 Q.Q.O X =     O   Q.Q.Q.Q.Q.Q.Q.",
"Q.Q.Q.Q.Q.Q.Q.Q.Q.Q.. % O   & > .   Q.Q.Q.Q.Q.Q.7 7 9 Q.Q.Q.Q.Q.Q.Q.Q.Q.",
"Q.Q.Q.Q.Q.Q.Q.Q.Q.Q.Q.Q..   * 7 & Q.Q.Q.Q.Q.Q.Q.Q :.C.Q.Q.Q.Q.Q.Q.Q.Q.Q.",
"Q.Q.Q.Q.Q.Q.Q.Q.Q.Q.Q.Q.Q.Q.Q.>.L Q.Q.Q.Q.Q.Q.Q.Q.*.D.m.>.Q.Q.Q.Q.Q.Q.Q.",
"Q.Q.Q.Q.Q.Q.Q.Q.Q.Q.Q.Q.Q.Q.W.U.Q.Q.Q.Q.Q.Q.Q.Q.Q.Q.Q.Q.>.Q.Q.Q.Q.Q.Q.Q.",
"Q.Q.Q.Q.Q.Q.Q.Q.Q.Q.Q.Q.Q.B.n.y.Q.Q.Q.Q.Q.Q.Q.Q.Q.Q.Q.Q.Q.Q.Q.Q.Q.Q.Q.Q.",
"Q.Q.Q.Q.Q.Q.Q.Q.Q.Q.Q.Q.Q.Q.%.@.Q.Q.Q.Q.Q.Q.Q.Q.Q.Q.Q.Q.Q.Q.Q.Q.Q.Q.Q.Q."
};
