/* XPM */
static char *result[] = {
/* columns rows colors chars-per-pixel */
"36 60 189 2 ",
"   c #76543D",
".  c #6B4E3A",
"X  c #3C6673",
"o  c #55544F",
"O  c #4E5C5C",
"+  c #5C5B55",
"@  c #5F6157",
"#  c #786C4B",
"$  c #636156",
"%  c #6C675A",
"&  c #7B755D",
"*  c #7C6B59",
"=  c #4D667E",
"-  c #586A78",
";  c #587678",
":  c #6C6762",
">  c #7A6F60",
",  c #7D7465",
"<  c #766D71",
"1  c #7F7770",
"2  c #647478",
"3  c #984E2D",
"4  c #954E31",
"5  c #85472C",
"6  c #BE5E32",
"7  c #AC5D39",
"8  c #906237",
"9  c #BA6F3A",
"0  c #D16C3D",
"q  c #CE693C",
"w  c #855E42",
"e  c #9E5A5F",
"r  c #BB5B59",
"t  c #896449",
"y  c #946B4E",
"u  c #9A6D4E",
"i  c #926748",
"p  c #9E704E",
"a  c #956E52",
"s  c #996F50",
"d  c #84755E",
"f  c #8D755B",
"g  c #9E7351",
"h  c #94795C",
"j  c #896650",
"k  c #A3734E",
"l  c #AA764F",
"z  c #AC7840",
"x  c #A47551",
"c  c #AA7751",
"v  c #AB7952",
"b  c #A87B55",
"n  c #BB6A45",
"m  c #857C6D",
"M  c #867863",
"N  c #917D65",
"B  c #837F72",
"V  c #BC7F66",
"C  c #AF766C",
"Z  c #CA5F59",
"A  c #CC6F47",
"S  c #D26E42",
"D  c #D67445",
"F  c #DE7547",
"G  c #DC7845",
"H  c #C56F58",
"J  c #C7775A",
"K  c #EA7946",
"L  c #E57745",
"P  c #CC7569",
"I  c #D5766B",
"U  c #CE7974",
"Y  c #C77671",
"T  c #D27B75",
"R  c #D57D79",
"E  c #DB7F7A",
"W  c #D97C77",
"Q  c #ED7E78",
"!  c #75837D",
"~  c #7C857B",
"^  c #72887B",
"/  c #AB843F",
"(  c #B9963B",
")  c #B9973C",
"_  c #C6973A",
"`  c #CDA434",
"'  c #C9A139",
"]  c #D2A937",
"[  c #D2A939",
"{  c #D5AA38",
"}  c #86815C",
"|  c #B98340",
" . c #A89554",
".. c #AC8950",
"X. c #8E886C",
"o. c #99876E",
"O. c #938161",
"+. c #98987E",
"@. c #818578",
"#. c #A28B67",
"$. c #A78C65",
"%. c #B99366",
"&. c #BB8A74",
"*. c #BC9E72",
"=. c #B99873",
"-. c #A99A77",
";. c #D2965E",
":. c #D7817C",
">. c #DB827C",
",. c #D48876",
"<. c #CB916A",
"1. c #E2847E",
"2. c #EB837D",
"3. c #CDAA75",
"4. c #CBAC7B",
"5. c #C5A675",
"6. c #D3AB75",
"7. c #D7B279",
"8. c #DFB579",
"9. c #E2AD6C",
"0. c #E4BC7C",
"q. c #E8BF7C",
"w. c #EEC37E",
"e. c #F1C67E",
"r. c #3B5F92",
"t. c #3D5883",
"y. c #2D6F87",
"u. c #35748D",
"i. c #2A7694",
"p. c #357992",
"a. c #3265A7",
"s. c #4B688A",
"d. c #556D8F",
"f. c #557C83",
"g. c #476A95",
"h. c #667783",
"j. c #8E7782",
"k. c #2F8BAB",
"l. c #3192B4",
"z. c #40899D",
"x. c #5F8687",
"c. c #708B9C",
"v. c #689599",
"b. c #7DA39C",
"n. c #5A99A6",
"m. c #449CB7",
"M. c #4590A8",
"N. c #6F9FA0",
"B. c #44A1BE",
"V. c #7DA3B0",
"C. c #329FC5",
"Z. c #3FA5C5",
"A. c #3FAACB",
"S. c #3DB3D5",
"D. c #3EBEE4",
"F. c #43A4C3",
"G. c #43A9C7",
"H. c #43ABCB",
"J. c #4AAAC7",
"K. c #48B0CC",
"L. c #43AFD0",
"P. c #44B2D3",
"I. c #49B4D1",
"U. c #43B6D9",
"Y. c #42BBDD",
"T. c #42BEE3",
"R. c #43C1E6",
"E. c #41C5EB",
"W. c #9B9E85",
"Q. c #8E9C87",
"!. c #A99F84",
"~. c #B28C91",
"^. c #B18286",
"/. c #93A590",
"(. c #BCA684",
"). c #8FACB5",
"_. c #AEB0B0",
"`. c #DC8582",
"'. c #E58680",
"]. c #E98681",
"[. c #EB8882",
"{. c #F38A84",
"}. c #F58984",
"|. c #D0AE80",
" X c #DBB983",
".X c #C7AF88",
"XX c #E1BD83",
"oX c #E7C082",
"OX c None",
/* pixels */
"OXOXOXOXOXOXOXOXOXOXOXOXOXOXOXOXOXOXOXOXOXOXOXOXOXOXOXOXOXOXOXOXOXOXOXOX",
"OXOXOXOXOXOXOXOXOXOXOXOXOXOXOXOXOXOXOXOXOXOXOXOXOXOXOXOXOXOXOXOXOXOXOXOX",
"OXOXOXOXOXOXOXOXOXOXOXOXOXOXOXOXOXOXOXOXOXOXOXOXOXOXOXOXOXOXOXOXOXOXOXOX",
"OXOXOXOXOXOXOXOXOXOXOXOXOXOXOXOXOXOXOXOXOXOXOXOXOXOXOXOXOXOXOXOXOXOXOXOX",
"OXOXOXOXOXOXOXOXOXOXOXOXOXOXOXOXOXOXOXOXOXOXOXOXOXOXOXOXOXOXOXOXOXOXOXOX",
"OXOXOXOXOXOXOXOXOXOXOXOXOXOXOXOXOXOXOXOXOXOXOXOXOXOXOXOXOXOXOXOXOXOXOXOX",
"OXOXOXOXOXOXOXOXOXOXOXOXOXOXOXOXOXOXOXOXOXOXOXOXOXOXOXOXOXOXOXOXOXOXOXOX",
"OXOXOXOXOXOXOXOXOXOXOXOXOXOXOXOXOXOXOXOXOXOXOXOXOXOXOXOXOXOXOXOXOXOXOXOX",
"OXOXOXOXOXOXOXOXOXOXOXOXOXOXOXOXOXOXOXOXOXOXOXOXOXOXOXOXOXOXOXOXOXOXOXOX",
"OXOXOXOXOXOXOXOXOXOXOXOXOXOXOXOXOXOXOXOXOXOXOXOXOXOXOXOXOXOXOXOXOXOXOXOX",
"OXOXOXOXOXOXOXOXOXOXOXOXOXOXOXOXOXOXOXOXOXOXOXOXOXOXOXOXOXOXOXOXOXOXOXOX",
"OXOXOXOXOXOXOXOXOXOXOXOXOXOXOXOXOXOXOXOXOXOXOXOXOXOXOXOXOXOXOXOXOXOXOXOX",
"OXOXOXOXOXOXOXOXOXOXOXOXI.T.R.E.E.H.OXY.R.T.U.OXOXOXOXOXOXOXOXOXOXOXOXOX",
"OXOXOXOXOXOXOXOXOXOXI.T.T.H.Y.E.E.T.U.R.E.E.F.P.T.I.OXOXOXOXg OXOXOXOXOX",
"OXOXOXOXOXc x OXOXY.E.E.T.L.T.Y.S.OXOXS.Y.T.U.P.E.E.T.OXOXx v g OXOXOXOX",
"OXOXOXOXx x b N T.E.P.P.E.U.OXOXOXW W OXOXOXU.E.E.P.Y.T.! v x x g OXOXOX",
"OXOXs OXx k v h K.E.B.P.H.OXU >.].{.{.[.'.R OXOXR.H.F.I.N l k x OXa OXOX",
"OXy l g OXc p v v.E.E.Y.OXT >.OXOX'.[.'.OX>.:.OXU.T.T.n.c p b OXOXc p OX",
"OXu x g OXx p l @.Y.R.OXOX].>.OXOXOXOXOXOXOX>.OXOXR.R.~ l k x OXOXc u y ",
"i u x x OXOXk k f OXH.OXOX[.{.>.OXOXOXOXOX>.[.:.OXP.m.g k x OXOXp b u y ",
"OXu u c OXOXg l , m.P.OXT {.{.:.OXOXOXOXOX].{.U OXH.m.p k g $ OXx p u y ",
"OXa u x x i x k x.E.R.OXR [.R OXOXOXOXOXOXOX].Y OXP.R.~ v c j g c u i OX",
"OXOXu u c v c & P.E.P.OXOX[.1.OXOXY R C OXU '.OXOXT.D.z.a v c x y w   OX",
"OXOXOXp c k w * v.J.m.M.OXOXE E [.{.{.[.W R R OXG.B.p.f.@.i t w   . OXOX",
"OXOXOXOXOXOXf.X.u - C.H.c.U '.{.2.2.{.}.{.].U h.k.i.X M ~ O OXOXOXOXOXOX",
"OXOXOXOXOXOXOXn.Q.X.h.^.'.{.{.Q I H J W ].{.{.>.j.u.^ o.; y.OXOXOXOXOXOX",
"OXOXOXOXOXOXOXx.-.!.'.}.{.2.P H ;.9.9.;.<.P 2.}.Q Z o.=.f OXOXOXOXOXOXOX",
"OXOXOXOXOXOXOXOXI.I.~.>.,.&.%.0.e.e.w.w.0.&.V H Z e u.u.OXOXOXOXOXOXOXOX",
"OXOXOXOXOXOXOXOXOXY.K.W.|.: $ .Xe.0.q.oX(.o < 6.m i.i.OXOXOXOXOXOXOXOXOX",
"OXOXOXOXOXOXOXOXOXM.H./. X: o .Xq.M < 0.5.+ m  Xb.l.OXOXOXOXOXOXOXOXOXOX",
"OXOXOXOXOXOXOXOXo $ f.Q.oXXXXXq.0.*.=.0.0. XoXq.N.Z.OXOXOXOXOXOXOXOXOXOX",
"OXOXOXOXOXOXOXOX% & f X.7.e.oXq.3.j a 3.q.w.0.%.n.G.OXOXOXOXOXOXOXOXOXOX",
"OXOXOXOXOXOXOXOXh ;.$.h OX3.4.4.6.,.,.7.4.3.OXOXF.OXOXOXOXOXOXOXOXOXOXOX",
"OXOXOXOXOXOXOXOXOX%.W.+.OXOX- g.: C -.: t.OXOXOXF.B.OXOXOXOXOXOXOXOXOXOX",
"OXOXOXOXOXOXOXOXOXOXG.OXOXOXr.h.# > d $ g.- OXOX).).OXOXOXOXOXOXOXOXOXOX",
"OXOXOXOXOXOXOXOXOXOXH.OXOXOXd. .OXOX( OX& s.m OXOX_.OXOXOXOXOXOXOXOXOXOX",
"OXOXOXOXOXOXOXOXOXOXOXOXOXa.X.OX[ OX' OX( - d.OXOXOXOXOXOXOXOXOXOXOXOXOX",
"OXOXOXOXOXOXOXOXOXOXOXOXOXg.) OX] OX` [ OX .a.o.*.OXOXOXOXOXOXOXOXOXOXOX",
"OXOXOXOXOXOXOXOXOXOXOXOXOX; { OX{ OX] { OX[ s.OX3.O.OXOXOXOXOXOXOXOXOXOX",
"OXOXOXOXOXOXOXOXOXOXOXOXOX..` OX( OX( ] OX( # OX% $ OXOXOXOXOXOXOXOXOXOX",
"OXOXOXOXOXOXOXOXOXOXOXOXOXz / OX/ OX/ _ OX| 8 OXOXOXOXOXOXOXOXOXOXOXOXOX",
"OXOXOXOXOXOXOXOXOXOXOXOXOXA L F D D D G F S 4 OXOXOXOXOXOXOXOXOXOXOXOXOX",
"OXOXOXOXOXOXOXOXOXOXOXOXOXOXL K K K K K L 6 OXOXOXOXOXOXOXOXOXOXOXOXOXOX",
"OXOXOXOXOXOXOXOXOXOXOXOXOXOXF L 0 S S q 6 3 OXOXOXOXOXOXOXOXOXOXOXOXOXOX",
"OXOXOXOXOXOXOXOXOXOXOXOXOXOXn A 7 OXOX4 3 5 OXOXOXOXOXOXOXOXOXOXOXOXOXOX",
"OXOXOXOXOXOXOXOXOXOXOXOXOXOX%.b OXOXOXOX%.OXOXOXOXOXOXOXOXOXOXOXOXOXOXOX",
"OXOXOXOXOXOXOXOXOXOXOXOXOXf 3.OXOXOXOXOX6.$.OXOXOXOXOXOXOXOXOXOXOXOXOXOX",
"OXOXOXOXOXOXOXOXOXOXOXOX$ : $.5.OXOXOXOX*.& $ OXOXOXOXOXOXOXOXOXOXOXOXOX",
"OXOXOXOXOXOXOXOXOXOXOXOXOXOXOXOXOXOXOXOXOX$ @ OXOXOXOXOXOXOXOXOXOXOXOXOX",
"OXOXOXOXOXOXOXOXOXOXOXOXOXOXOXOXOXOXOXOXOXOXOXOXOXOXOXOXOXOXOXOXOXOXOXOX",
"OXOXOXOXOXOXOXOXOXOXOXOXOXOXOXOXOXOXOXOXOXOXOXOXOXOXOXOXOXOXOXOXOXOXOXOX",
"OXOXOXOXOXOXOXOXOXOXOXOXOXOXOXOXOXOXOXOXOXOXOXOXOXOXOXOXOXOXOXOXOXOXOXOX",
"OXOXOXOXOXOXOXOXOXOXOXOXOXOXOXOXOXOXOXOXOXOXOXOXOXOXOXOXOXOXOXOXOXOXOXOX",
"OXOXOXOXOXOXOXOXOXOXOXOXOXOXOXOXOXOXOXOXOXOXOXOXOXOXOXOXOXOXOXOXOXOXOXOX",
"OXOXOXOXOXOXOXOXOXOXOXOXOXOXOXOXOXOXOXOXOXOXOXOXOXOXOXOXOXOXOXOXOXOXOXOX",
"OXOXOXOXOXOXOXOXOXOXOXOXOXOXOXOXOXOXOXOXOXOXOXOXOXOXOXOXOXOXOXOXOXOXOXOX",
"OXOXOXOXOXOXOXOXOXOXOXOXOXOXOXOXOXOXOXOXOXOXOXOXOXOXOXOXOXOXOXOXOXOXOXOX",
"OXOXOXOXOXOXOXOXOXOXOXOXOXOXOXOXOXOXOXOXOXOXOXOXOXOXOXOXOXOXOXOXOXOXOXOX",
"OXOXOXOXOXOXOXOXOXOXOXOXOXOXOXOXOXOXOXOXOXOXOXOXOXOXOXOXOXOXOXOXOXOXOXOX",
"OXOXOXOXOXOXOXOXOXOXOXOXOXOXOXOXOXOXOXOXOXOXOXOXOXOXOXOXOXOXOXOXOXOXOXOX"
};
